0
SECTION
2
HEADER
9
$INSUNITS
70
4
9
$ACADVER
1
AC1014
9
$HANDSEED
5
FFFF
0
ENDSEC
0
SECTION
2
TABLES
0
TABLE
2
VPORT
5
8
100
AcDbSymbolTable
0
ENDTAB
0
TABLE
2
LTYPE
5
5
100
AcDbSymbolTable
0
LTYPE
5
14
100
AcDbSymbolTableRecord
100
AcDbLinetypeTableRecord
2
BYBLOCK
70
0
0
LTYPE
5
15
100
AcDbSymbolTableRecord
100
AcDbLinetypeTableRecord
2
BYLAYER
70
0
0
ENDTAB
0
TABLE
2
LAYER
5
2
100
AcDbSymbolTable
70
2
0
LAYER
5
50
100
AcDbSymbolTableRecord
100
AcDbLayerTableRecord
2
0
70
0
6
CONTINUOUS
0
ENDTAB
0
TABLE
2
STYLE
5
3
100
AcDbSymbolTable
70
1
0
STYLE
5
11
100
AcDbSymbolTableRecord
100
AcDbTextStyleTableRecord
2
STANDARD
70
0
0
ENDTAB
0
TABLE
2
VIEW
5
6
100
AcDbSymbolTable
70
0
0
ENDTAB
0
TABLE
2
UCS
5
7
100
AcDbSymbolTable
70
0
0
ENDTAB
0
TABLE
2
APPID
5
9
100
AcDbSymbolTable
70
2
0
APPID
5
12
100
AcDbSymbolTableRecord
100
AcDbRegAppTableRecord
2
ACAD
70
0
0
ENDTAB
0
TABLE
2
DIMSTYLE
5
A
100
AcDbSymbolTable
70
1
0
ENDTAB
0
TABLE
2
BLOCK_RECORD
5
1
100
AcDbSymbolTable
70
1
0
BLOCK_RECORD
5
1F
100
AcDbSymbolTableRecord
100
AcDbBlockTableRecord
2
*MODEL_SPACE
0
BLOCK_RECORD
5
1B
100
AcDbSymbolTableRecord
100
AcDbBlockTableRecord
2
*PAPER_SPACE
0
ENDTAB
0
ENDSEC
0
SECTION
2
BLOCKS
0
BLOCK
5
20
100
AcDbEntity
100
AcDbBlockBegin
2
*MODEL_SPACE
0
ENDBLK
5
21
100
AcDbEntity
100
AcDbBlockEnd
0
BLOCK
5
1C
100
AcDbEntity
100
AcDbBlockBegin
2
*PAPER_SPACE
0
ENDBLK
5
1D
100
AcDbEntity
100
AcDbBlockEnd
0
ENDSEC
0
SECTION
2
ENTITIES
0
LWPOLYLINE
5
100
100
AcDbEntity
8
0
100
AcDbPolyline
90
4
70
1
43
0.0
10
60
20
38.833333333333336
10
60
20
33.833333333333336
10
90
20
33.833333333333336
10
90
20
38.833333333333336
0
LWPOLYLINE
5
101
100
AcDbEntity
8
0
100
AcDbPolyline
90
4
70
1
43
0.0
10
59.999999999999943
20
88.333333333333343
10
59.999999999999943
20
83.333333333333314
10
89.999999999999943
20
83.333333333333314
10
89.999999999999943
20
88.333333333333343
0
SPLINE
5
102
100
AcDbEntity
8
0
100
AcDbSpline
70
4
71
3
72
8
73
4
74
0
42
0.000000001
43
0.0000000001
44
0.0000000001
40
-1
40
-1
40
-1
40
-1
40
0
40
0
40
0
40
0
41
1
41
1
41
1
41
1
10
111.23685605871275
20
139.46393067900468
30
0
10
109.52235605871275
20
137.91611817900468
30
0
10
105.96635605871276
20
136.11430567900467
30
0
10
103.81529355871277
20
135.53486817900466
30
0
0
SPLINE
5
103
100
AcDbEntity
8
0
100
AcDbSpline
70
4
71
3
72
8
73
4
74
0
42
0.000000001
43
0.0000000001
44
0.0000000001
40
-1
40
-1
40
-1
40
-1
40
0
40
0
40
0
40
0
41
1
41
1
41
1
41
1
10
103.81529355871277
20
135.53486817900466
30
0
10
98.870231058712761
20
134.20930567900467
30
0
10
94.242668558712751
20
134.08230567900466
30
0
10
89.432543558712752
20
136.05080567900467
30
0
0
SPLINE
5
104
100
AcDbEntity
8
0
100
AcDbSpline
70
4
71
3
72
8
73
4
74
0
42
0.000000001
43
0.0000000001
44
0.0000000001
40
-1
40
-1
40
-1
40
-1
40
0
40
0
40
0
40
0
41
1
41
1
41
1
41
1
10
89.432543558712752
20
136.05080567900467
30
0
10
88.480043558712751
20
136.43180567900467
30
0
10
86.15435605871275
20
137.47955567900468
30
0
10
85.789231058712758
20
138.05105567900466
30
0
0
SPLINE
5
105
100
AcDbEntity
8
0
100
AcDbSpline
70
4
71
3
72
8
73
4
74
0
42
0.000000001
43
0.0000000001
44
0.0000000001
40
-1
40
-1
40
-1
40
-1
40
0
40
0
40
0
40
0
41
1
41
1
41
1
41
1
10
85.789231058712758
20
138.05105567900466
30
0
10
86.749668558712756
20
138.82893067900466
30
0
10
89.424606058712754
20
141.75786817900467
30
0
10
90.607293558712755
20
142.78180567900466
30
0
0
SPLINE
5
106
100
AcDbEntity
8
0
100
AcDbSpline
70
4
71
3
72
8
73
4
74
0
42
0.000000001
43
0.0000000001
44
0.0000000001
40
-1
40
-1
40
-1
40
-1
40
0
40
0
40
0
40
0
41
1
41
1
41
1
41
1
10
90.607293558712755
20
142.78180567900466
30
0
10
91.091481058712759
20
142.72624317900468
30
0
10
91.670918558712756
20
142.42461817900468
30
0
10
92.163043558712744
20
142.27380567900468
30
0
0
SPLINE
5
107
100
AcDbEntity
8
0
100
AcDbSpline
70
4
71
3
72
8
73
4
74
0
42
0.000000001
43
0.0000000001
44
0.0000000001
40
-1
40
-1
40
-1
40
-1
40
0
40
0
40
0
40
0
41
1
41
1
41
1
41
1
10
92.163043558712744
20
142.27380567900468
30
0
10
95.774606058712749
20
141.22605567900467
30
0
10
100.29104355871276
20
141.36893067900468
30
0
10
103.66448105871274
20
143.05961817900467
30
0
0
SPLINE
5
108
100
AcDbEntity
8
0
100
AcDbSpline
70
4
71
3
72
8
73
4
74
0
42
0.000000001
43
0.0000000001
44
0.0000000001
40
-1
40
-1
40
-1
40
-1
40
0
40
0
40
0
40
0
41
1
41
1
41
1
41
1
10
103.66448105871274
20
143.05961817900467
30
0
10
105.60123105871276
20
144.02799317900468
30
0
10
105.75204355871276
20
144.36136817900467
30
0
10
107.13316855871275
20
145.41705567900468
30
0
0
SPLINE
5
109
100
AcDbEntity
8
0
100
AcDbSpline
70
4
71
3
72
8
73
4
74
0
42
0.000000001
43
0.0000000001
44
0.0000000001
40
-1
40
-1
40
-1
40
-1
40
0
40
0
40
0
40
0
41
1
41
1
41
1
41
1
10
107.13316855871275
20
145.41705567900468
30
0
10
107.53798105871276
20
145.72661817900467
30
0
10
108.55398105871275
20
146.94899317900467
30
0
10
108.97466855871275
20
147.44905567900469
30
0
0
SPLINE
5
110
100
AcDbEntity
8
0
100
AcDbSpline
70
4
71
3
72
8
73
4
74
0
42
0.000000001
43
0.0000000001
44
0.0000000001
40
-1
40
-1
40
-1
40
-1
40
0
40
0
40
0
40
0
41
1
41
1
41
1
41
1
10
108.97466855871275
20
147.44905567900469
30
0
10
109.28423105871275
20
147.81418067900466
30
0
10
109.52235605871275
20
148.14755567900468
30
0
10
109.80016855871276
20
148.5682431790047
30
0
0
SPLINE
5
111
100
AcDbEntity
8
0
100
AcDbSpline
70
4
71
3
72
8
73
4
74
0
42
0.000000001
43
0.0000000001
44
0.0000000001
40
-1
40
-1
40
-1
40
-1
40
0
40
0
40
0
40
0
41
1
41
1
41
1
41
1
10
109.80016855871276
20
148.5682431790047
30
0
10
110.06210605871276
20
148.95718067900469
30
0
10
110.25260605871274
20
149.36199317900468
30
0
10
110.49073105871274
20
149.82236817900468
30
0
0
SPLINE
5
112
100
AcDbEntity
8
0
100
AcDbSpline
70
4
71
3
72
8
73
4
74
0
42
0.000000001
43
0.0000000001
44
0.0000000001
40
-1
40
-1
40
-1
40
-1
40
0
40
0
40
0
40
0
41
1
41
1
41
1
41
1
10
110.49073105871274
20
149.82236817900468
30
0
10
110.68123105871274
20
150.18749317900469
30
0
10
110.84791855871275
20
150.79074317900466
30
0
10
111.11779355871276
20
151.13205567900468
30
0
0
SPLINE
5
113
100
AcDbEntity
8
0
100
AcDbSpline
70
4
71
3
72
8
73
4
74
0
42
0.000000001
43
0.0000000001
44
0.0000000001
40
-1
40
-1
40
-1
40
-1
40
0
40
0
40
0
40
0
41
1
41
1
41
1
41
1
10
111.11779355871276
20
151.13205567900468
30
0
10
111.53848105871275
20
150.87805567900466
30
0
10
112.11791855871276
20
150.20336817900468
30
0
10
112.50685605871276
20
149.80649317900469
30
0
0
SPLINE
5
114
100
AcDbEntity
8
0
100
AcDbSpline
70
4
71
3
72
8
73
4
74
0
42
0.000000001
43
0.0000000001
44
0.0000000001
40
-1
40
-1
40
-1
40
-1
40
0
40
0
40
0
40
0
41
1
41
1
41
1
41
1
10
112.50685605871276
20
149.80649317900469
30
0
10
113.12598105871275
20
149.15561817900468
30
0
10
116.13429355871276
20
146.22668067900469
30
0
10
116.40416855871274
20
145.79805567900468
30
0
0
SPLINE
5
115
100
AcDbEntity
8
0
100
AcDbSpline
70
4
71
3
72
8
73
4
74
0
42
0.000000001
43
0.0000000001
44
0.0000000001
40
-1
40
-1
40
-1
40
-1
40
0
40
0
40
0
40
0
41
1
41
1
41
1
41
1
10
116.40416855871274
20
145.79805567900468
30
0
10
115.97554355871276
20
144.30580567900466
30
0
10
113.58635605871274
20
141.90868067900468
30
0
10
112.72910605871274
20
140.78949317900469
30
0
0
LINE
5
116
100
AcDbEntity
8
0
100
AcDbLine
10
112.72910605871274
20
140.78949317900469
30
0
11
111.23685605871275
21
139.46393067900468
31
0
0
SPLINE
5
117
100
AcDbEntity
8
0
100
AcDbSpline
70
4
71
3
72
8
73
4
74
0
42
0.000000001
43
0.0000000001
44
0.0000000001
40
-1
40
-1
40
-1
40
-1
40
0
40
0
40
0
40
0
41
1
41
1
41
1
41
1
10
100.94985605871274
20
176.64318067900467
30
0
10
96.600106058712754
20
175.33349317900468
30
0
10
92.575793558712746
20
175.55574317900468
30
0
10
88.432418558712754
20
177.45280567900468
30
0
0
SPLINE
5
118
100
AcDbEntity
8
0
100
AcDbSpline
70
4
71
3
72
8
73
4
74
0
42
0.000000001
43
0.0000000001
44
0.0000000001
40
-1
40
-1
40
-1
40
-1
40
0
40
0
40
0
40
0
41
1
41
1
41
1
41
1
10
88.432418558712754
20
177.45280567900468
30
0
10
87.995856058712747
20
177.65124317900469
30
0
10
86.757606058712753
20
178.19099317900466
30
0
10
86.440106058712743
20
178.50849317900469
30
0
0
LINE
5
119
100
AcDbEntity
8
0
100
AcDbLine
10
86.440106058712743
20
178.50849317900469
30
0
11
91.416918558712752
21
183.46149317900469
31
0
0
SPLINE
5
120
100
AcDbEntity
8
0
100
AcDbSpline
70
4
71
3
72
8
73
4
74
0
42
0.000000001
43
0.0000000001
44
0.0000000001
40
-1
40
-1
40
-1
40
-1
40
0
40
0
40
0
40
0
41
1
41
1
41
1
41
1
10
91.416918558712752
20
183.46149317900469
30
0
10
91.853481058712759
20
183.3741806790047
30
0
10
92.38529355871276
20
183.04874317900467
30
0
10
92.885356058712745
20
182.88205567900468
30
0
0
SPLINE
5
121
100
AcDbEntity
8
0
100
AcDbSpline
70
4
71
3
72
8
73
4
74
0
42
0.000000001
43
0.0000000001
44
0.0000000001
40
-1
40
-1
40
-1
40
-1
40
0
40
0
40
0
40
0
41
1
41
1
41
1
41
1
10
92.885356058712745
20
182.88205567900468
30
0
10
95.623793558712748
20
181.95336817900468
30
0
10
98.647981058712745
20
182.38993067900466
30
0
10
101.21973105871275
20
183.45355567900469
30
0
0
SPLINE
5
122
100
AcDbEntity
8
0
100
AcDbSpline
70
4
71
3
72
8
73
4
74
0
42
0.000000001
43
0.0000000001
44
0.0000000001
40
-1
40
-1
40
-1
40
-1
40
0
40
0
40
0
40
0
41
1
41
1
41
1
41
1
10
101.21973105871275
20
183.45355567900469
30
0
10
102.82310605871275
20
184.12030567900467
30
0
10
105.72823105871277
20
187.71599317900467
30
0
10
107.37923105871275
20
189.02568067900467
30
0
0
SPLINE
5
123
100
AcDbEntity
8
0
100
AcDbSpline
70
4
71
3
72
8
73
4
74
0
42
0.000000001
43
0.0000000001
44
0.0000000001
40
-1
40
-1
40
-1
40
-1
40
0
40
0
40
0
40
0
41
1
41
1
41
1
41
1
10
107.37923105871275
20
189.02568067900467
30
0
10
108.77623105871277
20
190.13693067900471
30
0
10
109.92716855871276
20
191.65299317900468
30
0
10
111.37973105871275
20
192.85155567900466
30
0
0
LINE
5
124
100
AcDbEntity
8
0
100
AcDbLine
10
111.37973105871275
20
192.85155567900466
30
0
11
111.48291855871275
21
192.74836817900467
31
0
0
LINE
5
125
100
AcDbEntity
8
0
100
AcDbLine
10
111.48291855871275
20
192.74836817900467
30
0
11
112.01473105871274
21
191.91493067900467
31
0
0
SPLINE
5
126
100
AcDbEntity
8
0
100
AcDbSpline
70
4
71
3
72
8
73
4
74
0
42
0.000000001
43
0.0000000001
44
0.0000000001
40
-1
40
-1
40
-1
40
-1
40
0
40
0
40
0
40
0
41
1
41
1
41
1
41
1
10
112.01473105871274
20
191.91493067900467
30
0
10
112.72116855871275
20
190.36711817900468
30
0
10
112.92754355871276
20
188.63674317900467
30
0
10
113.13391855871275
20
186.94605567900467
30
0
0
SPLINE
5
127
100
AcDbEntity
8
0
100
AcDbSpline
70
4
71
3
72
8
73
4
74
0
42
0.000000001
43
0.0000000001
44
0.0000000001
40
-1
40
-1
40
-1
40
-1
40
0
40
0
40
0
40
0
41
1
41
1
41
1
41
1
10
113.13391855871275
20
186.94605567900467
30
0
10
113.21329355871276
20
186.29518067900472
30
0
10
113.34823105871274
20
186.27930567900466
30
0
10
112.94341855871275
20
185.89036817900467
30
0
0
LINE
5
128
100
AcDbEntity
8
0
100
AcDbLine
10
112.94341855871275
20
185.89036817900467
30
0
11
109.87954355871275
21
182.84236817900467
31
0
0
SPLINE
5
129
100
AcDbEntity
8
0
100
AcDbSpline
70
4
71
3
72
8
73
4
74
0
42
0.000000001
43
0.0000000001
44
0.0000000001
40
-1
40
-1
40
-1
40
-1
40
0
40
0
40
0
40
0
41
1
41
1
41
1
41
1
10
109.87954355871275
20
182.84236817900467
30
0
10
109.61760605871275
20
182.58043067900468
30
0
10
109.44298105871276
20
182.32643067900469
30
0
10
109.16516855871276
20
182.00099317900467
30
0
0
SPLINE
5
130
100
AcDbEntity
8
0
100
AcDbSpline
70
4
71
3
72
8
73
4
74
0
42
0.000000001
43
0.0000000001
44
0.0000000001
40
-1
40
-1
40
-1
40
-1
40
0
40
0
40
0
40
0
41
1
41
1
41
1
41
1
10
109.16516855871276
20
182.00099317900467
30
0
10
108.91116855871275
20
181.71524317900466
30
0
10
108.71273105871275
20
181.5326806790047
30
0
10
108.45079355871276
20
181.26280567900469
30
0
0
SPLINE
5
131
100
AcDbEntity
8
0
100
AcDbSpline
70
4
71
3
72
8
73
4
74
0
42
0.000000001
43
0.0000000001
44
0.0000000001
40
-1
40
-1
40
-1
40
-1
40
0
40
0
40
0
40
0
41
1
41
1
41
1
41
1
10
108.45079355871276
20
181.26280567900469
30
0
10
108.03804355871276
20
180.85005567900467
30
0
10
107.34748105871276
20
180.12774317900468
30
0
10
106.91091855871275
20
179.79436817900466
30
0
0
SPLINE
5
132
100
AcDbEntity
8
0
100
AcDbSpline
70
4
71
3
72
8
73
4
74
0
42
0.000000001
43
0.0000000001
44
0.0000000001
40
-1
40
-1
40
-1
40
-1
40
0
40
0
40
0
40
0
41
1
41
1
41
1
41
1
10
106.91091855871275
20
179.79436817900466
30
0
10
106.70454355871274
20
179.64355567900469
30
0
10
106.67279355871274
20
179.65943067900469
30
0
10
106.45848105871275
20
179.47686817900467
30
0
0
SPLINE
5
133
100
AcDbEntity
8
0
100
AcDbSpline
70
4
71
3
72
8
73
4
74
0
42
0.000000001
43
0.0000000001
44
0.0000000001
40
-1
40
-1
40
-1
40
-1
40
0
40
0
40
0
40
0
41
1
41
1
41
1
41
1
10
106.45848105871275
20
179.47686817900467
30
0
10
106.28385605871274
20
179.32605567900467
30
0
10
106.19654355871275
20
179.2387431790047
30
0
10
106.04573105871275
20
179.10380567900467
30
0
0
SPLINE
5
134
100
AcDbEntity
8
0
100
AcDbSpline
70
4
71
3
72
8
73
4
74
0
42
0.000000001
43
0.0000000001
44
0.0000000001
40
-1
40
-1
40
-1
40
-1
40
0
40
0
40
0
40
0
41
1
41
1
41
1
41
1
10
106.04573105871275
20
179.10380567900467
30
0
10
105.44248105871276
20
178.57993067900466
30
0
10
103.98198105871275
20
177.6433056790047
30
0
10
103.24379355871275
20
177.34961817900469
30
0
0
SPLINE
5
135
100
AcDbEntity
8
0
100
AcDbSpline
70
4
71
3
72
8
73
4
74
0
42
0.000000001
43
0.0000000001
44
0.0000000001
40
-1
40
-1
40
-1
40
-1
40
0
40
0
40
0
40
0
41
1
41
1
41
1
41
1
10
103.24379355871275
20
177.34961817900469
30
0
10
102.44210605871275
20
177.02418067900467
30
0
10
101.79916855871275
20
176.89718067900469
30
0
10
100.94985605871274
20
176.64318067900467
30
0
0
SPLINE
5
136
100
AcDbEntity
8
0
100
AcDbSpline
70
4
71
3
72
8
73
4
74
0
42
0.000000001
43
0.0000000001
44
0.0000000001
40
-1
40
-1
40
-1
40
-1
40
0
40
0
40
0
40
0
41
1
41
1
41
1
41
1
10
106.18066855871275
20
147.16330567900468
30
0
10
105.36310605871276
20
145.75043067900469
30
0
10
101.44198105871276
20
143.77399317900466
30
0
10
99.568731058712743
20
143.48824317900468
30
0
0
SPLINE
5
137
100
AcDbEntity
8
0
100
AcDbSpline
70
4
71
3
72
8
73
4
74
0
42
0.000000001
43
0.0000000001
44
0.0000000001
40
-1
40
-1
40
-1
40
-1
40
0
40
0
40
0
40
0
41
1
41
1
41
1
41
1
10
99.568731058712743
20
143.48824317900468
30
0
10
99.036918558712742
20
143.87718067900468
30
0
10
97.973293558712754
20
145.01224317900468
30
0
10
97.473231058712756
20
145.54405567900466
30
0
0
SPLINE
5
138
100
AcDbEntity
8
0
100
AcDbSpline
70
4
71
3
72
8
73
4
74
0
42
0.000000001
43
0.0000000001
44
0.0000000001
40
-1
40
-1
40
-1
40
-1
40
0
40
0
40
0
40
0
41
1
41
1
41
1
41
1
10
97.473231058712756
20
145.54405567900466
30
0
10
96.782668558712743
20
146.27430567900467
30
0
10
96.100043558712755
20
146.92518067900468
30
0
10
95.385668558712752
20
147.63161817900468
30
0
0
SPLINE
5
139
100
AcDbEntity
8
0
100
AcDbSpline
70
4
71
3
72
8
73
4
74
0
42
0.000000001
43
0.0000000001
44
0.0000000001
40
-1
40
-1
40
-1
40
-1
40
0
40
0
40
0
40
0
41
1
41
1
41
1
41
1
10
95.385668558712752
20
147.63161817900468
30
0
10
93.472731058712753
20
149.53661817900468
30
0
10
87.876793558712762
20
154.99761817900469
30
0
10
86.527418558712753
20
156.52955567900469
30
0
0
SPLINE
5
140
100
AcDbEntity
8
0
100
AcDbSpline
70
4
71
3
72
8
73
4
74
0
42
0.000000001
43
0.0000000001
44
0.0000000001
40
-1
40
-1
40
-1
40
-1
40
0
40
0
40
0
40
0
41
1
41
1
41
1
41
1
10
86.527418558712753
20
156.52955567900469
30
0
10
86.273418558712763
20
156.82324317900469
30
0
10
86.217856058712741
20
156.86293067900468
30
0
10
86.376606058712753
20
157.22805567900468
30
0
0
LINE
5
141
100
AcDbEntity
8
0
100
AcDbLine
10
86.376606058712753
20
157.22805567900468
30
0
11
87.194168558712747
21
158.46630567900468
31
0
0
SPLINE
5
142
100
AcDbEntity
8
0
100
AcDbSpline
70
4
71
3
72
8
73
4
74
0
42
0.000000001
43
0.0000000001
44
0.0000000001
40
-1
40
-1
40
-1
40
-1
40
0
40
0
40
0
40
0
41
1
41
1
41
1
41
1
10
87.194168558712747
20
158.46630567900468
30
0
10
87.694231058712759
20
159.15686817900468
30
0
10
88.575293558712758
20
159.97443067900468
30
0
10
89.202356058712752
20
160.53005567900468
30
0
0
SPLINE
5
143
100
AcDbEntity
8
0
100
AcDbSpline
70
4
71
3
72
8
73
4
74
0
42
0.000000001
43
0.0000000001
44
0.0000000001
40
-1
40
-1
40
-1
40
-1
40
0
40
0
40
0
40
0
41
1
41
1
41
1
41
1
10
89.202356058712752
20
160.53005567900468
30
0
10
89.599231058712761
20
160.87930567900469
30
0
10
89.964356058712752
20
161.1491806790047
30
0
10
90.400918558712746
20
161.47461817900466
30
0
0
SPLINE
5
144
100
AcDbEntity
8
0
100
AcDbSpline
70
4
71
3
72
8
73
4
74
0
42
0.000000001
43
0.0000000001
44
0.0000000001
40
-1
40
-1
40
-1
40
-1
40
0
40
0
40
0
40
0
41
1
41
1
41
1
41
1
10
90.400918558712746
20
161.47461817900466
30
0
10
90.877168558712754
20
161.82386817900468
30
0
10
91.091481058712759
20
162.0699306790047
30
0
10
91.655043558712762
20
161.76036817900467
30
0
0
LINE
5
145
100
AcDbEntity
8
0
100
AcDbLine
10
91.655043558712748
20
161.76036817900467
30
0
11
94.837981058712757
21
158.63299317900467
31
0
0
SPLINE
5
146
100
AcDbEntity
8
0
100
AcDbSpline
70
4
71
3
72
8
73
4
74
0
42
0.000000001
43
0.0000000001
44
0.0000000001
40
-1
40
-1
40
-1
40
-1
40
0
40
0
40
0
40
0
41
1
41
1
41
1
41
1
10
94.837981058712742
20
158.63299317900467
30
0
10
94.988793558712743
20
158.4742431790047
30
0
10
94.972918558712749
20
158.48218067900467
30
0
10
95.099918558712758
20
158.31549317900468
30
0
0
LINE
5
147
100
AcDbEntity
8
0
100
AcDbLine
10
95.099918558712758
20
158.31549317900468
30
0
11
106.18066855871275
21
147.16330567900468
31
0
0
SPLINE
5
148
100
AcDbEntity
8
0
100
AcDbSpline
70
4
71
3
72
8
73
4
74
0
42
0.000000001
43
0.0000000001
44
0.0000000001
40
-1
40
-1
40
-1
40
-1
40
0
40
0
40
0
40
0
41
1
41
1
41
1
41
1
10
63.111793558712748
20
150.38593067900467
30
0
10
62.72285605871275
20
148.30630567900468
30
0
10
60.619418558712745
20
145.35355567900467
30
0
10
58.817606058712748
20
144.63918067900468
30
0
0
SPLINE
5
149
100
AcDbEntity
8
0
100
AcDbSpline
70
4
71
3
72
8
73
4
74
0
42
0.000000001
43
0.0000000001
44
0.0000000001
40
-1
40
-1
40
-1
40
-1
40
0
40
0
40
0
40
0
41
1
41
1
41
1
41
1
10
58.817606058712748
20
144.63918067900468
30
0
10
58.428668558712751
20
144.86936817900468
30
0
10
57.833356058712752
20
145.60755567900469
30
0
10
57.428543558712747
20
145.96474317900467
30
0
0
LINE
5
150
100
AcDbEntity
8
0
100
AcDbLine
10
57.428543558712747
20
145.96474317900467
30
0
11
56.96023105871275
21
146.37749317900469
31
0
0
SPLINE
5
151
100
AcDbEntity
8
0
100
AcDbSpline
70
4
71
3
72
8
73
4
74
0
42
0.000000001
43
0.0000000001
44
0.0000000001
40
-1
40
-1
40
-1
40
-1
40
0
40
0
40
0
40
0
41
1
41
1
41
1
41
1
10
56.96023105871275
20
146.37749317900469
30
0
10
56.745918558712745
20
146.57593067900467
30
0
10
56.730043558712744
20
146.55211817900468
30
0
10
56.49191855871274
20
146.78230567900468
30
0
0
SPLINE
5
152
100
AcDbEntity
8
0
100
AcDbSpline
70
4
71
3
72
8
73
4
74
0
42
0.000000001
43
0.0000000001
44
0.0000000001
40
-1
40
-1
40
-1
40
-1
40
0
40
0
40
0
40
0
41
1
41
1
41
1
41
1
10
56.49191855871274
20
146.78230567900468
30
0
10
54.97585605871275
20
148.30630567900468
30
0
10
53.062918558712752
20
149.98905567900468
30
0
10
51.737356058712749
20
151.63211817900469
30
0
0
SPLINE
5
153
100
AcDbEntity
8
0
100
AcDbSpline
70
4
71
3
72
8
73
4
74
0
42
0.000000001
43
0.0000000001
44
0.0000000001
40
-1
40
-1
40
-1
40
-1
40
0
40
0
40
0
40
0
41
1
41
1
41
1
41
1
10
51.737356058712749
20
151.63211817900469
30
0
10
51.253168558712751
20
152.22743067900467
30
0
10
50.562606058712745
20
152.83068067900467
30
0
10
50.006981058712739
20
153.39424317900469
30
0
0
SPLINE
5
154
100
AcDbEntity
8
0
100
AcDbSpline
70
4
71
3
72
8
73
4
74
0
42
0.000000001
43
0.0000000001
44
0.0000000001
40
-1
40
-1
40
-1
40
-1
40
0
40
0
40
0
40
0
41
1
41
1
41
1
41
1
10
50.006981058712739
20
153.39424317900469
30
0
10
49.340231058712746
20
154.06099317900467
30
0
10
49.125918558712755
20
154.12449317900467
30
0
10
48.705231058712748
20
154.70393067900466
30
0
0
SPLINE
5
155
100
AcDbEntity
8
0
100
AcDbSpline
70
4
71
3
72
8
73
4
74
0
42
0.000000001
43
0.0000000001
44
0.0000000001
40
-1
40
-1
40
-1
40
-1
40
0
40
0
40
0
40
0
41
1
41
1
41
1
41
1
10
48.705231058712748
20
154.70393067900466
30
0
10
48.324231058712748
20
155.22780567900466
30
0
10
45.109543558712744
20
158.18849317900469
30
0
10
44.855543558712739
20
158.71236817900467
30
0
0
LINE
5
156
100
AcDbEntity
8
0
100
AcDbLine
10
44.855543558712739
20
158.71236817900467
30
0
11
47.633668558712749
21
161.05393067900468
31
0
0
SPLINE
5
157
100
AcDbEntity
8
0
100
AcDbSpline
70
4
71
3
72
8
73
4
74
0
42
0.000000001
43
0.0000000001
44
0.0000000001
40
-1
40
-1
40
-1
40
-1
40
0
40
0
40
0
40
0
41
1
41
1
41
1
41
1
10
47.633668558712749
20
161.05393067900468
30
0
10
48.49091855871275
20
161.70480567900469
30
0
10
49.657731058712749
20
162.53824317900467
30
0
10
50.951543558712743
20
162.76843067900469
30
0
0
LINE
5
158
100
AcDbEntity
8
0
100
AcDbLine
10
50.951543558712743
20
162.76843067900469
30
0
11
56.341106058712747
21
157.29155567900469
31
0
0
SPLINE
5
159
100
AcDbEntity
8
0
100
AcDbSpline
70
4
71
3
72
8
73
4
74
0
42
0.000000001
43
0.0000000001
44
0.0000000001
40
-1
40
-1
40
-1
40
-1
40
0
40
0
40
0
40
0
41
1
41
1
41
1
41
1
10
56.341106058712747
20
157.29155567900469
30
0
10
56.785606058712752
20
156.75180567900466
30
0
10
62.595856058712741
20
150.72724317900469
30
0
10
63.111793558712748
20
150.38593067900467
30
0
0
SPLINE
5
160
100
AcDbEntity
8
0
100
AcDbSpline
70
4
71
3
72
8
73
4
74
0
42
0.000000001
43
0.0000000001
44
0.0000000001
40
-1
40
-1
40
-1
40
-1
40
0
40
0
40
0
40
0
41
1
41
1
41
1
41
1
10
62.476793558712743
20
117.43736817900468
30
0
10
64.36591855871275
20
113.40511817900466
30
0
10
66.461418558712751
20
112.57168067900467
30
0
10
66.73129355871275
20
112.17480567900468
30
0
0
SPLINE
5
161
100
AcDbEntity
8
0
100
AcDbSpline
70
4
71
3
72
8
73
4
74
0
42
0.000000001
43
0.0000000001
44
0.0000000001
40
-1
40
-1
40
-1
40
-1
40
0
40
0
40
0
40
0
41
1
41
1
41
1
41
1
10
66.73129355871275
20
112.17480567900468
30
0
10
63.151481058712747
20
112.38118067900467
30
0
10
56.349043558712744
20
114.34968067900468
30
0
10
53.126418558712743
20
115.56411817900468
30
0
0
SPLINE
5
162
100
AcDbEntity
8
0
100
AcDbSpline
70
4
71
3
72
8
73
4
74
0
42
0.000000001
43
0.0000000001
44
0.0000000001
40
-1
40
-1
40
-1
40
-1
40
0
40
0
40
0
40
0
41
1
41
1
41
1
41
1
10
53.126418558712743
20
115.56411817900468
30
0
10
50.046668558712746
20
116.72299317900467
30
0
10
47.244731058712745
20
118.05649317900468
30
0
10
44.418981058712745
20
119.66780567900469
30
0
0
SPLINE
5
163
100
AcDbEntity
8
0
100
AcDbSpline
70
4
71
3
72
8
73
4
74
0
42
0.000000001
43
0.0000000001
44
0.0000000001
40
-1
40
-1
40
-1
40
-1
40
0
40
0
40
0
40
0
41
1
41
1
41
1
41
1
10
44.418981058712745
20
119.66780567900469
30
0
10
43.990356058712749
20
119.91386817900468
30
0
10
43.450606058712751
20
120.15993067900467
30
0
10
43.045793558712745
20
120.42186817900466
30
0
0
LINE
5
164
100
AcDbEntity
8
0
100
AcDbLine
10
43.045793558712745
20
120.42186817900466
30
0
11
39.196106058712743
21
122.89043067900467
31
0
0
SPLINE
5
165
100
AcDbEntity
8
0
100
AcDbSpline
70
4
71
3
72
8
73
4
74
0
42
0.000000001
43
0.0000000001
44
0.0000000001
40
-1
40
-1
40
-1
40
-1
40
0
40
0
40
0
40
0
41
1
41
1
41
1
41
1
10
39.196106058712743
20
122.89043067900467
30
0
10
38.799231058712749
20
123.19205567900468
30
0
10
38.346793558712747
20
123.43018067900468
30
0
10
37.941981058712749
20
123.75561817900467
30
0
0
LINE
5
166
100
AcDbEntity
8
0
100
AcDbLine
10
37.941981058712749
20
123.75561817900467
30
0
11
35.560731058712747
21
125.65268067900467
31
0
0
SPLINE
5
167
100
AcDbEntity
8
0
100
AcDbSpline
70
4
71
3
72
8
73
4
74
0
42
0.000000001
43
0.0000000001
44
0.0000000001
40
-1
40
-1
40
-1
40
-1
40
0
40
0
40
0
40
0
41
1
41
1
41
1
41
1
10
35.560731058712747
20
125.65268067900467
30
0
10
34.965418558712742
20
126.09718067900467
30
0
10
34.647918558712746
20
126.54961817900468
30
0
10
33.838293558712749
20
127.12905567900467
30
0
0
LINE
5
168
100
AcDbEntity
8
0
100
AcDbLine
10
33.838293558712749
20
127.12905567900467
30
0
11
29.59966855871275
21
131.33593067900466
31
0
0
LINE
5
169
100
AcDbEntity
8
0
100
AcDbLine
10
29.59966855871275
20
131.33593067900466
30
0
11
24.511731058712741
21
137.81293067900467
31
0
0
SPLINE
5
170
100
AcDbEntity
8
0
100
AcDbSpline
70
4
71
3
72
8
73
4
74
0
42
0.000000001
43
0.0000000001
44
0.0000000001
40
-1
40
-1
40
-1
40
-1
40
0
40
0
40
0
40
0
41
1
41
1
41
1
41
1
10
24.511731058712741
20
137.81293067900467
30
0
10
25.075293558712744
20
138.71780567900467
30
0
10
25.964293558712743
20
139.63061817900467
30
0
10
26.710418558712739
20
140.34499317900466
30
0
0
SPLINE
5
171
100
AcDbEntity
8
0
100
AcDbSpline
70
4
71
3
72
8
73
4
74
0
42
0.000000001
43
0.0000000001
44
0.0000000001
40
-1
40
-1
40
-1
40
-1
40
0
40
0
40
0
40
0
41
1
41
1
41
1
41
1
10
26.710418558712739
20
140.34499317900466
30
0
10
27.583543558712744
20
141.17049317900469
30
0
10
28.282043558712743
20
142.01186817900467
30
0
10
29.059918558712745
20
142.64686817900468
30
0
0
SPLINE
5
172
100
AcDbEntity
8
0
100
AcDbSpline
70
4
71
3
72
8
73
4
74
0
42
0.000000001
43
0.0000000001
44
0.0000000001
40
-1
40
-1
40
-1
40
-1
40
0
40
0
40
0
40
0
41
1
41
1
41
1
41
1
10
29.059918558712745
20
142.64686817900468
30
0
10
29.171043558712743
20
142.50399317900468
30
0
10
29.305981058712742
20
142.36905567900467
30
0
10
29.417106058712747
20
142.21824317900467
30
0
0
LINE
5
173
100
AcDbEntity
8
0
100
AcDbLine
10
29.417106058712751
20
142.21824317900467
30
0
11
32.782606058712744
21
137.7176806790047
31
0
0
LINE
5
174
100
AcDbEntity
8
0
100
AcDbLine
10
32.782606058712744
20
137.7176806790047
30
0
11
36.965668558712743
21
133.26474317900468
31
0
0
SPLINE
5
175
100
AcDbEntity
8
0
100
AcDbSpline
70
4
71
3
72
8
73
4
74
0
42
0.000000001
43
0.0000000001
44
0.0000000001
40
-1
40
-1
40
-1
40
-1
40
0
40
0
40
0
40
0
41
1
41
1
41
1
41
1
10
36.965668558712743
20
133.26474317900468
30
0
10
38.600793558712745
20
131.64549317900469
30
0
10
39.077043558712745
20
131.37561817900468
30
0
10
40.696293558712746
20
130.01036817900467
30
0
0
LINE
5
176
100
AcDbEntity
8
0
100
AcDbLine
10
40.696293558712746
20
130.0103681790047
30
0
11
41.680543558712742
21
129.24836817900467
31
0
0
SPLINE
5
177
100
AcDbEntity
8
0
100
AcDbSpline
70
4
71
3
72
8
73
4
74
0
42
0.000000001
43
0.0000000001
44
0.0000000001
40
-1
40
-1
40
-1
40
-1
40
0
40
0
40
0
40
0
41
1
41
1
41
1
41
1
10
41.680543558712742
20
129.24836817900467
30
0
10
42.775918558712746
20
128.31174317900468
30
0
10
45.601668558712745
20
126.47818067900467
30
0
10
46.824043558712745
20
125.75586817900466
30
0
0
SPLINE
5
178
100
AcDbEntity
8
0
100
AcDbSpline
70
4
71
3
72
8
73
4
74
0
42
0.000000001
43
0.0000000001
44
0.0000000001
40
-1
40
-1
40
-1
40
-1
40
0
40
0
40
0
40
0
41
1
41
1
41
1
41
1
10
46.824043558712745
20
125.75586817900466
30
0
10
48.538543558712746
20
124.73986817900467
30
0
10
49.578356058712743
20
124.23186817900466
30
0
10
51.324606058712746
20
123.36668067900467
30
0
0
SPLINE
5
179
100
AcDbEntity
8
0
100
AcDbSpline
70
4
71
3
72
8
73
4
74
0
42
0.000000001
43
0.0000000001
44
0.0000000001
40
-1
40
-1
40
-1
40
-1
40
0
40
0
40
0
40
0
41
1
41
1
41
1
41
1
10
51.324606058712746
20
123.36668067900467
30
0
10
53.491543558712749
20
122.28718067900468
30
0
10
56.49191855871274
20
121.16799317900467
30
0
10
58.857293558712755
20
120.51711817900467
30
0
0
SPLINE
5
180
100
AcDbEntity
8
0
100
AcDbSpline
70
4
71
3
72
8
73
4
74
0
42
0.000000001
43
0.0000000001
44
0.0000000001
40
-1
40
-1
40
-1
40
-1
40
0
40
0
40
0
40
0
41
1
41
1
41
1
41
1
10
58.857293558712755
20
120.51711817900467
30
0
10
60.000293558712741
20
120.19961817900467
30
0
10
61.413168558712748
20
120.10436817900468
30
0
10
61.683043558712747
20
119.55668067900467
30
0
0
LINE
5
181
100
AcDbEntity
8
0
100
AcDbLine
10
61.683043558712747
20
119.55668067900467
30
0
11
62.476793558712743
21
117.43736817900468
31
0
0
SPLINE
5
182
100
AcDbEntity
8
0
100
AcDbSpline
70
4
71
3
72
8
73
4
74
0
42
0.000000001
43
0.0000000001
44
0.0000000001
40
-1
40
-1
40
-1
40
-1
40
0
40
0
40
0
40
0
41
1
41
1
41
1
41
1
10
85.630481058712746
20
200.20961817900468
30
0
10
84.122356058712739
20
197.88393067900469
30
0
10
83.923918558712742
20
194.56605567900468
30
0
10
84.709731058712748
20
191.58949317900468
30
0
0
SPLINE
5
183
100
AcDbEntity
8
0
100
AcDbSpline
70
4
71
3
72
8
73
4
74
0
42
0.000000001
43
0.0000000001
44
0.0000000001
40
-1
40
-1
40
-1
40
-1
40
0
40
0
40
0
40
0
41
1
41
1
41
1
41
1
10
84.709731058712748
20
191.58949317900468
30
0
10
84.289043558712748
20
191.14499317900467
30
0
10
83.828668558712735
20
190.6846181790047
30
0
10
83.384168558712744
20
190.21630567900468
30
0
0
SPLINE
5
184
100
AcDbEntity
8
0
100
AcDbSpline
70
4
71
3
72
8
73
4
74
0
42
0.000000001
43
0.0000000001
44
0.0000000001
40
-1
40
-1
40
-1
40
-1
40
0
40
0
40
0
40
0
41
1
41
1
41
1
41
1
10
83.384168558712744
20
190.21630567900468
30
0
10
82.526918558712751
20
189.30349317900468
30
0
10
80.280606058712749
20
186.39836817900465
30
0
10
79.288418558712749
20
186.1205556790047
30
0
0
SPLINE
5
185
100
AcDbEntity
8
0
100
AcDbSpline
70
4
71
3
72
8
73
4
74
0
42
0.000000001
43
0.0000000001
44
0.0000000001
40
-1
40
-1
40
-1
40
-1
40
0
40
0
40
0
40
0
41
1
41
1
41
1
41
1
10
79.288418558712749
20
186.1205556790047
30
0
10
78.534356058712746
20
187.06511817900468
30
0
10
77.804106058712748
20
189.56543067900469
30
0
10
77.589793558712742
20
190.85130567900467
30
0
0
SPLINE
5
186
100
AcDbEntity
8
0
100
AcDbSpline
70
4
71
3
72
8
73
4
74
0
42
0.000000001
43
0.0000000001
44
0.0000000001
40
-1
40
-1
40
-1
40
-1
40
0
40
0
40
0
40
0
41
1
41
1
41
1
41
1
10
77.589793558712742
20
190.85130567900467
30
0
10
76.74048105871276
20
195.86780567900468
30
0
10
77.819981058712756
20
200.69380567900467
30
0
10
80.43141855871275
20
204.91655567900469
30
0
0
SPLINE
5
187
100
AcDbEntity
8
0
100
AcDbSpline
70
4
71
3
72
8
73
4
74
0
42
0.000000001
43
0.0000000001
44
0.0000000001
40
-1
40
-1
40
-1
40
-1
40
0
40
0
40
0
40
0
41
1
41
1
41
1
41
1
10
80.43141855871275
20
204.91655567900469
30
0
10
80.653668558712752
20
205.27374317900467
30
0
10
80.867981058712743
20
205.4880556790047
30
0
10
81.090231058712746
20
205.80555567900467
30
0
0
SPLINE
5
188
100
AcDbEntity
8
0
100
AcDbSpline
70
4
71
3
72
8
73
4
74
0
42
0.000000001
43
0.0000000001
44
0.0000000001
40
-1
40
-1
40
-1
40
-1
40
0
40
0
40
0
40
0
41
1
41
1
41
1
41
1
10
81.090231058712746
20
205.80555567900467
30
0
10
81.550606058712731
20
206.48024317900467
30
0
10
81.836356058712738
20
206.6389931790047
30
0
10
82.153856058712762
20
207.17080567900467
30
0
0
SPLINE
5
189
100
AcDbEntity
8
0
100
AcDbSpline
70
4
71
3
72
8
73
4
74
0
42
0.000000001
43
0.0000000001
44
0.0000000001
40
-1
40
-1
40
-1
40
-1
40
0
40
0
40
0
40
0
41
1
41
1
41
1
41
1
10
82.153856058712762
20
207.17080567900467
30
0
10
82.511043558712757
20
207.75024317900466
30
0
10
83.614356058712758
20
208.77418067900467
30
0
10
84.162043558712753
20
209.13930567900468
30
0
0
SPLINE
5
190
100
AcDbEntity
8
0
100
AcDbSpline
70
4
71
3
72
8
73
4
74
0
42
0.000000001
43
0.0000000001
44
0.0000000001
40
-1
40
-1
40
-1
40
-1
40
0
40
0
40
0
40
0
41
1
41
1
41
1
41
1
10
84.162043558712753
20
209.13930567900468
30
0
10
84.495418558712743
20
209.36949317900468
30
0
10
84.717668558712745
20
209.57586817900471
30
0
10
85.114543558712768
20
209.83780567900467
30
0
0
SPLINE
5
191
100
AcDbEntity
8
0
100
AcDbSpline
70
4
71
3
72
8
73
4
74
0
42
0.000000001
43
0.0000000001
44
0.0000000001
40
-1
40
-1
40
-1
40
-1
40
0
40
0
40
0
40
0
41
1
41
1
41
1
41
1
10
85.114543558712768
20
209.83780567900467
30
0
10
89.559543558712733
20
212.71118067900466
30
0
10
92.80598105871276
20
213.45730567900466
30
0
10
98.790856058712748
20
213.41761817900471
30
0
0
SPLINE
5
192
100
AcDbEntity
8
0
100
AcDbSpline
70
4
71
3
72
8
73
4
74
0
42
0.000000001
43
0.0000000001
44
0.0000000001
40
-1
40
-1
40
-1
40
-1
40
0
40
0
40
0
40
0
41
1
41
1
41
1
41
1
10
98.790856058712748
20
213.41761817900471
30
0
10
100.34660605871275
20
213.40174317900471
30
0
10
104.19629355871277
20
212.4413056790047
30
0
10
105.14879355871274
20
211.80630567900468
30
0
0
LINE
5
193
100
AcDbEntity
8
0
100
AcDbLine
10
105.14879355871275
20
211.80630567900468
30
0
11
102.50560605871274
21
209.13136817900468
31
0
0
SPLINE
5
194
100
AcDbEntity
8
0
100
AcDbSpline
70
4
71
3
72
8
73
4
74
0
42
0.000000001
43
0.0000000001
44
0.0000000001
40
-1
40
-1
40
-1
40
-1
40
0
40
0
40
0
40
0
41
1
41
1
41
1
41
1
10
102.50560605871274
20
209.13136817900468
30
0
10
101.59279355871276
20
208.26618067900469
30
0
10
100.79904355871275
20
207.43274317900469
30
0
10
99.902106058712747
20
206.50405567900467
30
0
0
SPLINE
5
195
100
AcDbEntity
8
0
100
AcDbSpline
70
4
71
3
72
8
73
4
74
0
42
0.000000001
43
0.0000000001
44
0.0000000001
40
-1
40
-1
40
-1
40
-1
40
0
40
0
40
0
40
0
41
1
41
1
41
1
41
1
10
99.902106058712747
20
206.50405567900467
30
0
10
99.544918558712752
20
206.13099317900466
30
0
10
99.600481058712745
20
206.09924317900467
30
0
10
98.941668558712749
20
206.17861817900467
30
0
0
LINE
5
196
100
AcDbEntity
8
0
100
AcDbLine
10
98.941668558712763
20
206.17861817900467
30
0
11
95.449168558712756
21
206.09924317900467
31
0
0
SPLINE
5
197
100
AcDbEntity
8
0
100
AcDbSpline
70
4
71
3
72
8
73
4
74
0
42
0.000000001
43
0.0000000001
44
0.0000000001
40
-1
40
-1
40
-1
40
-1
40
0
40
0
40
0
40
0
41
1
41
1
41
1
41
1
10
95.449168558712756
20
206.09924317900467
30
0
10
92.932981058712741
20
205.83730567900466
30
0
10
91.504231058712747
20
205.48011817900465
30
0
10
89.496043558712756
20
204.19424317900467
30
0
0
SPLINE
5
198
100
AcDbEntity
8
0
100
AcDbSpline
70
4
71
3
72
8
73
4
74
0
42
0.000000001
43
0.0000000001
44
0.0000000001
40
-1
40
-1
40
-1
40
-1
40
0
40
0
40
0
40
0
41
1
41
1
41
1
41
1
10
89.496043558712756
20
204.19424317900467
30
0
10
88.829293558712763
20
203.76561817900469
30
0
10
88.567356058712761
20
203.5830556790047
30
0
10
88.011731058712741
20
203.05918067900467
30
0
0
LINE
5
199
100
AcDbEntity
8
0
100
AcDbLine
10
88.011731058712769
20
203.05918067900467
30
0
11
85.630481058712746
21
200.20961817900468
31
0
0
SPLINE
5
200
100
AcDbEntity
8
0
100
AcDbSpline
70
4
71
3
72
8
73
4
74
0
42
0.000000001
43
0.0000000001
44
0.0000000001
40
-1
40
-1
40
-1
40
-1
40
0
40
0
40
0
40
0
41
1
41
1
41
1
41
1
10
45.80804355871274
20
204.90068067900467
30
0
10
43.736356058712751
20
203.8846806790047
30
0
10
40.831231058712746
20
201.17799317900466
30
0
10
39.608856058712746
20
198.96343067900466
30
0
0
SPLINE
5
201
100
AcDbEntity
8
0
100
AcDbSpline
70
4
71
3
72
8
73
4
74
0
42
0.000000001
43
0.0000000001
44
0.0000000001
40
-1
40
-1
40
-1
40
-1
40
0
40
0
40
0
40
0
41
1
41
1
41
1
41
1
10
39.608856058712746
20
198.96343067900466
30
0
10
39.331043558712743
20
198.45543067900468
30
0
10
39.108793558712748
20
198.26493067900469
30
0
10
38.854793558712743
20
197.67755567900468
30
0
0
SPLINE
5
202
100
AcDbEntity
8
0
100
AcDbSpline
70
4
71
3
72
8
73
4
74
0
42
0.000000001
43
0.0000000001
44
0.0000000001
40
-1
40
-1
40
-1
40
-1
40
0
40
0
40
0
40
0
41
1
41
1
41
1
41
1
10
38.854793558712743
20
197.67755567900468
30
0
10
38.680168558712744
20
197.29655567900468
30
0
10
38.465856058712745
20
196.64568067900467
30
0
10
38.243606058712743
20
196.36786817900469
30
0
0
SPLINE
5
203
100
AcDbEntity
8
0
100
AcDbSpline
70
4
71
3
72
8
73
4
74
0
42
0.000000001
43
0.0000000001
44
0.0000000001
40
-1
40
-1
40
-1
40
-1
40
0
40
0
40
0
40
0
41
1
41
1
41
1
41
1
10
38.243606058712743
20
196.36786817900469
30
0
10
37.807043558712742
20
196.57424317900467
30
0
10
37.259356058712747
20
197.37593067900468
30
0
10
36.933918558712747
20
197.76486817900468
30
0
0
LINE
5
204
100
AcDbEntity
8
0
100
AcDbLine
10
36.933918558712747
20
197.76486817900468
30
0
11
33.036606058712742
21
201.71774317900469
31
0
0
LINE
5
205
100
AcDbEntity
8
0
100
AcDbLine
10
33.036606058712742
20
201.71774317900469
30
0
11
34.092293558712747
21
203.50368067900467
31
0
0
SPLINE
5
206
100
AcDbEntity
8
0
100
AcDbSpline
70
4
71
3
72
8
73
4
74
0
42
0.000000001
43
0.0000000001
44
0.0000000001
40
-1
40
-1
40
-1
40
-1
40
0
40
0
40
0
40
0
41
1
41
1
41
1
41
1
10
34.092293558712747
20
203.50368067900467
30
0
10
34.846356058712743
20
204.71018067900468
30
0
10
35.743293558712743
20
205.69443067900468
30
0
10
36.711668558712745
20
206.7104306790047
30
0
0
SPLINE
5
207
100
AcDbEntity
8
0
100
AcDbSpline
70
4
71
3
72
8
73
4
74
0
42
0.000000001
43
0.0000000001
44
0.0000000001
40
-1
40
-1
40
-1
40
-1
40
0
40
0
40
0
40
0
41
1
41
1
41
1
41
1
10
36.711668558712745
20
206.7104306790047
30
0
10
37.005356058712742
20
207.0199931790047
30
0
10
37.021231058712743
20
207.21843067900468
30
0
10
37.354606058712747
20
207.52799317900468
30
0
0
LINE
5
208
100
AcDbEntity
8
0
100
AcDbLine
10
37.354606058712747
20
207.52799317900468
30
0
11
39.704106058712746
21
209.44093067900468
31
0
0
SPLINE
5
209
100
AcDbEntity
8
0
100
AcDbSpline
70
4
71
3
72
8
73
4
74
0
42
0.000000001
43
0.0000000001
44
0.0000000001
40
-1
40
-1
40
-1
40
-1
40
0
40
0
40
0
40
0
41
1
41
1
41
1
41
1
10
39.704106058712746
20
209.44093067900468
30
0
10
40.275606058712739
20
209.96480567900471
30
0
10
40.74391855871275
20
210.1473681790047
30
0
10
41.402731058712746
20
210.56805567900469
30
0
0
SPLINE
5
210
100
AcDbEntity
8
0
100
AcDbSpline
70
4
71
3
72
8
73
4
74
0
42
0.000000001
43
0.0000000001
44
0.0000000001
40
-1
40
-1
40
-1
40
-1
40
0
40
0
40
0
40
0
41
1
41
1
41
1
41
1
10
41.402731058712746
20
210.56805567900469
30
0
10
45.046043558712739
20
212.89374317900467
30
0
10
51.04679355871275
20
213.8859306790047
30
0
10
55.579106058712746
20
213.39380567900469
30
0
0
SPLINE
5
211
100
AcDbEntity
8
0
100
AcDbSpline
70
4
71
3
72
8
73
4
74
0
42
0.000000001
43
0.0000000001
44
0.0000000001
40
-1
40
-1
40
-1
40
-1
40
0
40
0
40
0
40
0
41
1
41
1
41
1
41
1
10
55.579106058712746
20
213.39380567900469
30
0
10
57.619043558712747
20
213.17155567900468
30
0
10
62.445043558712747
20
211.36974317900467
30
0
10
63.722981058712747
20
210.1553056790047
30
0
0
SPLINE
5
212
100
AcDbEntity
8
0
100
AcDbSpline
70
4
71
3
72
8
73
4
74
0
42
0.000000001
43
0.0000000001
44
0.0000000001
40
-1
40
-1
40
-1
40
-1
40
0
40
0
40
0
40
0
41
1
41
1
41
1
41
1
10
63.722981058712747
20
210.1553056790047
30
0
10
63.064168558712751
20
209.37743067900468
30
0
10
62.119606058712748
20
208.50430567900469
30
0
10
61.309981058712744
20
207.73436817900466
30
0
0
SPLINE
5
213
100
AcDbEntity
8
0
100
AcDbSpline
70
4
71
3
72
8
73
4
74
0
42
0.000000001
43
0.0000000001
44
0.0000000001
40
-1
40
-1
40
-1
40
-1
40
0
40
0
40
0
40
0
41
1
41
1
41
1
41
1
10
61.309981058712744
20
207.73436817900466
30
0
10
60.674981058712746
20
207.12318067900469
30
0
10
59.397043558712745
20
205.65474317900467
30
0
10
58.912856058712748
20
205.38486817900468
30
0
0
SPLINE
5
214
100
AcDbEntity
8
0
100
AcDbSpline
70
4
71
3
72
8
73
4
74
0
42
0.000000001
43
0.0000000001
44
0.0000000001
40
-1
40
-1
40
-1
40
-1
40
0
40
0
40
0
40
0
41
1
41
1
41
1
41
1
10
58.912856058712748
20
205.38486817900468
30
0
10
57.833356058712752
20
205.74999317900466
30
0
10
57.023731058712748
20
206.10718067900467
30
0
10
55.809293558712753
20
206.35324317900469
30
0
0
SPLINE
5
215
100
AcDbEntity
8
0
100
AcDbSpline
70
4
71
3
72
8
73
4
74
0
42
0.000000001
43
0.0000000001
44
0.0000000001
40
-1
40
-1
40
-1
40
-1
40
0
40
0
40
0
40
0
41
1
41
1
41
1
41
1
10
55.809293558712753
20
206.35324317900469
30
0
10
52.396168558712752
20
207.04380567900469
30
0
10
48.744918558712754
20
206.3453056790047
30
0
10
45.80804355871274
20
204.90068067900467
30
0
0
SPLINE
5
216
100
AcDbEntity
8
0
100
AcDbSpline
70
4
71
3
72
8
73
4
74
0
42
0.000000001
43
0.0000000001
44
0.0000000001
40
-1
40
-1
40
-1
40
-1
40
0
40
0
40
0
40
0
41
1
41
1
41
1
41
1
10
82.868231058712752
20
210.52043067900468
30
0
10
82.114168558712748
20
209.43299317900468
30
0
10
81.153731058712737
20
208.44874317900468
30
0
10
80.312356058712737
20
207.45655567900468
30
0
0
SPLINE
5
217
100
AcDbEntity
8
0
100
AcDbSpline
70
4
71
3
72
8
73
4
74
0
42
0.000000001
43
0.0000000001
44
0.0000000001
40
-1
40
-1
40
-1
40
-1
40
0
40
0
40
0
40
0
41
1
41
1
41
1
41
1
10
80.312356058712737
20
207.45655567900468
30
0
10
79.923418558712754
20
206.99618067900468
30
0
10
79.542418558712754
20
206.23418067900468
30
0
10
78.804231058712745
20
205.72618067900467
30
0
0
SPLINE
5
218
100
AcDbEntity
8
0
100
AcDbSpline
70
4
71
3
72
8
73
4
74
0
42
0.000000001
43
0.0000000001
44
0.0000000001
40
-1
40
-1
40
-1
40
-1
40
0
40
0
40
0
40
0
41
1
41
1
41
1
41
1
10
78.804231058712745
20
205.72618067900467
30
0
10
78.280356058712755
20
205.9643056790047
30
0
10
77.819981058712756
20
206.6469306790047
30
0
10
77.367543558712754
20
207.04380567900469
30
0
0
SPLINE
5
219
100
AcDbEntity
8
0
100
AcDbSpline
70
4
71
3
72
8
73
4
74
0
42
0.000000001
43
0.0000000001
44
0.0000000001
40
-1
40
-1
40
-1
40
-1
40
0
40
0
40
0
40
0
41
1
41
1
41
1
41
1
10
77.367543558712754
20
207.04380567900469
30
0
10
76.835731058712753
20
207.52005567900468
30
0
10
76.470606058712747
20
207.89311817900469
30
0
10
75.986418558712757
20
208.38524317900468
30
0
0
LINE
5
220
100
AcDbEntity
8
0
100
AcDbLine
10
75.986418558712757
20
208.3852431790047
30
0
11
66.524918558712741
21
217.84674317900468
31
0
0
SPLINE
5
221
100
AcDbEntity
8
0
100
AcDbSpline
70
4
71
3
72
8
73
4
74
0
42
0.000000001
43
0.0000000001
44
0.0000000001
40
-1
40
-1
40
-1
40
-1
40
0
40
0
40
0
40
0
41
1
41
1
41
1
41
1
10
66.524918558712741
20
217.84674317900468
30
0
10
65.254918558712745
20
219.08499317900467
30
0
10
63.810293558712743
20
223.62524317900468
30
0
10
64.413543558712746
20
226.08586817900471
30
0
0
SPLINE
5
222
100
AcDbEntity
8
0
100
AcDbSpline
70
4
71
3
72
8
73
4
74
0
42
0.000000001
43
0.0000000001
44
0.0000000001
40
-1
40
-1
40
-1
40
-1
40
0
40
0
40
0
40
0
41
1
41
1
41
1
41
1
10
64.413543558712746
20
226.08586817900471
30
0
10
64.540543558712756
20
226.61768067900468
30
0
10
64.715168558712747
20
226.4827431790047
30
0
10
65.302543558712756
20
226.5541806790047
30
0
0
SPLINE
5
223
100
AcDbEntity
8
0
100
AcDbSpline
70
4
71
3
72
8
73
4
74
0
42
0.000000001
43
0.0000000001
44
0.0000000001
40
-1
40
-1
40
-1
40
-1
40
0
40
0
40
0
40
0
41
1
41
1
41
1
41
1
10
65.302543558712756
20
226.5541806790047
30
0
10
67.286918558712742
20
226.78436817900467
30
0
10
69.088731058712753
20
227.35586817900469
30
0
10
71.239793558712748
20
227.3241181790047
30
0
0
SPLINE
5
224
100
AcDbEntity
8
0
100
AcDbSpline
70
4
71
3
72
8
73
4
74
0
42
0.000000001
43
0.0000000001
44
0.0000000001
40
-1
40
-1
40
-1
40
-1
40
0
40
0
40
0
40
0
41
1
41
1
41
1
41
1
10
71.239793558712748
20
227.3241181790047
30
0
10
70.422231058712754
20
224.45074317900466
30
0
10
70.295231058712744
20
223.58555567900467
30
0
10
72.041481058712748
20
221.80755567900468
30
0
0
SPLINE
5
225
100
AcDbEntity
8
0
100
AcDbSpline
70
4
71
3
72
8
73
4
74
0
42
0.000000001
43
0.0000000001
44
0.0000000001
40
-1
40
-1
40
-1
40
-1
40
0
40
0
40
0
40
0
41
1
41
1
41
1
41
1
10
72.041481058712748
20
221.80755567900468
30
0
10
73.517856058712738
20
220.2914931790047
30
0
10
73.978231058712751
20
219.6009306790047
30
0
10
75.589543558712748
20
217.98168067900468
30
0
0
LINE
5
226
100
AcDbEntity
8
0
100
AcDbLine
10
75.589543558712762
20
217.98168067900468
30
0
11
77.64535605871275
21
215.8703056790047
31
0
0
SPLINE
5
227
100
AcDbEntity
8
0
100
AcDbSpline
70
4
71
3
72
8
73
4
74
0
42
0.000000001
43
0.0000000001
44
0.0000000001
40
-1
40
-1
40
-1
40
-1
40
0
40
0
40
0
40
0
41
1
41
1
41
1
41
1
10
77.64535605871275
20
215.8703056790047
30
0
10
78.613731058712744
20
214.82255567900467
30
0
10
81.883981058712749
20
211.80630567900468
30
0
10
82.455481058712763
20
210.97286817900468
30
0
0
SPLINE
5
228
100
AcDbEntity
8
0
100
AcDbSpline
70
4
71
3
72
8
73
4
74
0
42
0.000000001
43
0.0000000001
44
0.0000000001
40
-1
40
-1
40
-1
40
-1
40
0
40
0
40
0
40
0
41
1
41
1
41
1
41
1
10
82.455481058712763
20
210.97286817900468
30
0
10
82.614231058712747
20
210.75061817900468
30
0
10
82.677731058712737
20
210.71093067900466
30
0
10
82.868231058712752
20
210.52043067900468
30
0
0
SPLINE
5
229
100
AcDbEntity
8
0
100
AcDbSpline
70
4
71
3
72
8
73
4
74
0
42
0.000000001
43
0.0000000001
44
0.0000000001
40
-1
40
-1
40
-1
40
-1
40
0
40
0
40
0
40
0
41
1
41
1
41
1
41
1
10
72.343106058712749
20
192.55786817900469
30
0
10
71.731918558712749
20
188.30336817900468
30
0
10
70.446043558712745
20
186.1205556790047
30
0
10
68.350543558712758
20
183.12811817900467
30
0
0
SPLINE
5
230
100
AcDbEntity
8
0
100
AcDbSpline
70
4
71
3
72
8
73
4
74
0
42
0.000000001
43
0.0000000001
44
0.0000000001
40
-1
40
-1
40
-1
40
-1
40
0
40
0
40
0
40
0
41
1
41
1
41
1
41
1
10
68.350543558712758
20
183.12811817900467
30
0
10
67.477418558712742
20
181.88193067900468
30
0
10
65.786731058712746
20
180.40555567900469
30
0
10
64.484981058712748
20
179.52449317900465
30
0
0
SPLINE
5
231
100
AcDbEntity
8
0
100
AcDbSpline
70
4
71
3
72
8
73
4
74
0
42
0.000000001
43
0.0000000001
44
0.0000000001
40
-1
40
-1
40
-1
40
-1
40
0
40
0
40
0
40
0
41
1
41
1
41
1
41
1
10
64.484981058712748
20
179.52449317900465
30
0
10
59.000168558712751
20
175.78593067900468
30
0
10
52.594606058712749
20
174.86518067900471
30
0
10
46.292231058712744
20
177.89730567900466
30
0
0
SPLINE
5
232
100
AcDbEntity
8
0
100
AcDbSpline
70
4
71
3
72
8
73
4
74
0
42
0.000000001
43
0.0000000001
44
0.0000000001
40
-1
40
-1
40
-1
40
-1
40
0
40
0
40
0
40
0
41
1
41
1
41
1
41
1
10
46.292231058712744
20
177.89730567900466
30
0
10
46.50654355871275
20
178.30211817900471
30
0
10
47.435231058712745
20
179.11174317900469
30
0
10
47.816231058712745
20
179.50068067900469
30
0
0
SPLINE
5
233
100
AcDbEntity
8
0
100
AcDbSpline
70
4
71
3
72
8
73
4
74
0
42
0.000000001
43
0.0000000001
44
0.0000000001
40
-1
40
-1
40
-1
40
-1
40
0
40
0
40
0
40
0
41
1
41
1
41
1
41
1
10
47.816231058712745
20
179.50068067900469
30
0
10
48.348043558712746
20
180.04836817900468
30
0
10
48.824293558712746
20
180.51668067900468
30
0
10
49.364043558712751
20
181.05643067900468
30
0
0
SPLINE
5
234
100
AcDbEntity
8
0
100
AcDbSpline
70
4
71
3
72
8
73
4
74
0
42
0.000000001
43
0.0000000001
44
0.0000000001
40
-1
40
-1
40
-1
40
-1
40
0
40
0
40
0
40
0
41
1
41
1
41
1
41
1
10
49.364043558712751
20
181.05643067900468
30
0
10
51.253168558712751
20
182.95349317900468
30
0
10
50.76898105871274
20
182.77886817900466
30
0
10
52.213606058712749
20
182.65980567900468
30
0
0
SPLINE
5
235
100
AcDbEntity
8
0
100
AcDbSpline
70
4
71
3
72
8
73
4
74
0
42
0.000000001
43
0.0000000001
44
0.0000000001
40
-1
40
-1
40
-1
40
-1
40
0
40
0
40
0
40
0
41
1
41
1
41
1
41
1
10
52.213606058712749
20
182.65980567900468
30
0
10
56.190293558712753
20
182.34230567900468
30
0
10
59.84154355871275
20
184.46161817900469
30
0
10
61.984668558712748
20
186.58886817900466
30
0
0
SPLINE
5
236
100
AcDbEntity
8
0
100
AcDbSpline
70
4
71
3
72
8
73
4
74
0
42
0.000000001
43
0.0000000001
44
0.0000000001
40
-1
40
-1
40
-1
40
-1
40
0
40
0
40
0
40
0
41
1
41
1
41
1
41
1
10
61.984668558712748
20
186.58886817900466
30
0
10
64.040481058712743
20
188.6288056790047
30
0
10
65.50891855871275
20
191.2878681790047
30
0
10
65.493043558712742
20
195.38361817900469
30
0
0
SPLINE
5
237
100
AcDbEntity
8
0
100
AcDbSpline
70
4
71
3
72
8
73
4
74
0
42
0.000000001
43
0.0000000001
44
0.0000000001
40
-1
40
-1
40
-1
40
-1
40
0
40
0
40
0
40
0
41
1
41
1
41
1
41
1
10
65.493043558712742
20
195.38361817900469
30
0
10
65.493043558712742
20
195.82018067900466
30
0
10
65.453356058712743
20
196.54249317900468
30
0
10
65.493043558712742
20
196.93936817900467
30
0
0
SPLINE
5
238
100
AcDbEntity
8
0
100
AcDbSpline
70
4
71
3
72
8
73
4
74
0
42
0.000000001
43
0.0000000001
44
0.0000000001
40
-1
40
-1
40
-1
40
-1
40
0
40
0
40
0
40
0
41
1
41
1
41
1
41
1
10
65.493043558712742
20
196.93936817900467
30
0
10
65.540668558712753
20
197.39180567900468
30
0
10
65.905793558712745
20
197.59024317900469
30
0
10
66.159793558712749
20
197.84424317900465
30
0
0
SPLINE
5
239
100
AcDbEntity
8
0
100
AcDbSpline
70
4
71
3
72
8
73
4
74
0
42
0.000000001
43
0.0000000001
44
0.0000000001
40
-1
40
-1
40
-1
40
-1
40
0
40
0
40
0
40
0
41
1
41
1
41
1
41
1
10
66.159793558712749
20
197.84424317900465
30
0
10
66.683668558712753
20
198.36811817900468
30
0
10
67.144043558712752
20
198.82055567900468
30
0
10
67.659981058712745
20
199.34443067900469
30
0
0
SPLINE
5
240
100
AcDbEntity
8
0
100
AcDbSpline
70
4
71
3
72
8
73
4
74
0
42
0.000000001
43
0.0000000001
44
0.0000000001
40
-1
40
-1
40
-1
40
-1
40
0
40
0
40
0
40
0
41
1
41
1
41
1
41
1
10
67.659981058712745
20
199.34443067900469
30
0
10
67.937793558712741
20
199.63018067900467
30
0
10
68.167981058712741
20
199.83655567900468
30
0
10
68.43785605871274
20
200.12230567900468
30
0
0
SPLINE
5
241
100
AcDbEntity
8
0
100
AcDbSpline
70
4
71
3
72
8
73
4
74
0
42
0.000000001
43
0.0000000001
44
0.0000000001
40
-1
40
-1
40
-1
40
-1
40
0
40
0
40
0
40
0
41
1
41
1
41
1
41
1
10
68.43785605871274
20
200.12230567900468
30
0
10
68.747418558712752
20
200.43980567900468
30
0
10
68.787106058712752
20
200.6223681790047
30
0
10
69.136356058712749
20
200.97161817900468
30
0
0
LINE
5
242
100
AcDbEntity
8
0
100
AcDbLine
10
69.136356058712764
20
200.97161817900468
30
0
11
70.295231058712758
21
202.13843067900467
31
0
0
SPLINE
5
243
100
AcDbEntity
8
0
100
AcDbSpline
70
4
71
3
72
8
73
4
74
0
42
0.000000001
43
0.0000000001
44
0.0000000001
40
-1
40
-1
40
-1
40
-1
40
0
40
0
40
0
40
0
41
1
41
1
41
1
41
1
10
70.295231058712744
20
202.1384306790047
30
0
10
70.573043558712754
20
202.40036817900466
30
0
10
70.414293558712743
20
202.32099317900466
30
0
10
70.811168558712751
20
202.4321181790047
30
0
0
SPLINE
5
244
100
AcDbEntity
8
0
100
AcDbSpline
70
4
71
3
72
8
73
4
74
0
42
0.000000001
43
0.0000000001
44
0.0000000001
40
-1
40
-1
40
-1
40
-1
40
0
40
0
40
0
40
0
41
1
41
1
41
1
41
1
10
70.811168558712751
20
202.4321181790047
30
0
10
71.073106058712753
20
201.7574306790047
30
0
10
71.438231058712745
20
201.14624317900467
30
0
10
71.731918558712749
20
200.34455567900469
30
0
0
SPLINE
5
245
100
AcDbEntity
8
0
100
AcDbSpline
70
4
71
3
72
8
73
4
74
0
42
0.000000001
43
0.0000000001
44
0.0000000001
40
-1
40
-1
40
-1
40
-1
40
0
40
0
40
0
40
0
41
1
41
1
41
1
41
1
10
71.731918558712749
20
200.34455567900469
30
0
10
72.009731058712745
20
199.56668067900466
30
0
10
72.200231058712745
20
198.82849317900468
30
0
10
72.327231058712741
20
197.95536817900469
30
0
0
SPLINE
5
246
100
AcDbEntity
8
0
100
AcDbSpline
70
4
71
3
72
8
73
4
74
0
42
0.000000001
43
0.0000000001
44
0.0000000001
40
-1
40
-1
40
-1
40
-1
40
0
40
0
40
0
40
0
41
1
41
1
41
1
41
1
10
72.327231058712741
20
197.95536817900469
30
0
10
72.605043558712751
20
196.0344931790047
30
0
10
72.605043558712751
20
194.39936817900468
30
0
10
72.343106058712749
20
192.55786817900469
30
0
0
SPLINE
5
247
100
AcDbEntity
8
0
100
AcDbSpline
70
4
71
3
72
8
73
4
74
0
42
0.000000001
43
0.0000000001
44
0.0000000001
40
-1
40
-1
40
-1
40
-1
40
0
40
0
40
0
40
0
41
1
41
1
41
1
41
1
10
72.87491855871275
20
127.94661817900467
30
0
10
72.311356058712747
20
126.50993067900467
30
0
10
69.691981058712742
20
125.38280567900469
30
0
10
69.691981058712742
20
123.38255567900468
30
0
0
SPLINE
5
248
100
AcDbEntity
8
0
100
AcDbSpline
70
4
71
3
72
8
73
4
74
0
42
0.000000001
43
0.0000000001
44
0.0000000001
40
-1
40
-1
40
-1
40
-1
40
0
40
0
40
0
40
0
41
1
41
1
41
1
41
1
10
69.691981058712742
20
123.38255567900468
30
0
10
69.691981058712742
20
122.32686817900466
30
0
10
69.882481058712756
20
121.05686817900468
30
0
10
70.501606058712753
20
120.22343067900466
30
0
0
SPLINE
5
249
100
AcDbEntity
8
0
100
AcDbSpline
70
4
71
3
72
8
73
4
74
0
42
0.000000001
43
0.0000000001
44
0.0000000001
40
-1
40
-1
40
-1
40
-1
40
0
40
0
40
0
40
0
41
1
41
1
41
1
41
1
10
70.501606058712753
20
120.22343067900466
30
0
10
72.247856058712742
20
117.88980567900467
30
0
10
73.628981058712753
20
118.58036817900468
30
0
10
77.057981058712755
20
118.58830567900468
30
0
0
SPLINE
5
250
100
AcDbEntity
8
0
100
AcDbSpline
70
4
71
3
72
8
73
4
74
0
42
0.000000001
43
0.0000000001
44
0.0000000001
40
-1
40
-1
40
-1
40
-1
40
0
40
0
40
0
40
0
41
1
41
1
41
1
41
1
10
77.057981058712755
20
118.58830567900468
30
0
10
79.88373105871274
20
118.59624317900467
30
0
10
84.431918558712752
20
119.28680567900469
30
0
10
87.067168558712751
20
119.86624317900467
30
0
0
SPLINE
5
251
100
AcDbEntity
8
0
100
AcDbSpline
70
4
71
3
72
8
73
4
74
0
42
0.000000001
43
0.0000000001
44
0.0000000001
40
-1
40
-1
40
-1
40
-1
40
0
40
0
40
0
40
0
41
1
41
1
41
1
41
1
10
87.067168558712751
20
119.86624317900467
30
0
10
90.154856058712753
20
120.54093067900467
30
0
10
94.234731058712754
20
121.91411817900467
30
0
10
97.116043558712747
20
123.21586817900467
30
0
0
LINE
5
252
100
AcDbEntity
8
0
100
AcDbLine
10
97.116043558712747
20
123.21586817900467
30
0
11
102.45798105871275
21
126.02574317900468
31
0
0
SPLINE
5
253
100
AcDbEntity
8
0
100
AcDbSpline
70
4
71
3
72
8
73
4
74
0
42
0.000000001
43
0.0000000001
44
0.0000000001
40
-1
40
-1
40
-1
40
-1
40
0
40
0
40
0
40
0
41
1
41
1
41
1
41
1
10
102.45798105871275
20
126.02574317900468
30
0
10
103.44223105871276
20
126.56549317900468
30
0
10
106.37910605871275
20
128.47843067900467
30
0
10
107.30779355871276
20
129.23249317900468
30
0
0
LINE
5
254
100
AcDbEntity
8
0
100
AcDbLine
10
107.30779355871277
20
129.23249317900468
30
0
11
108.87941855871276
21
130.33580567900466
31
0
0
SPLINE
5
255
100
AcDbEntity
8
0
100
AcDbSpline
70
4
71
3
72
8
73
4
74
0
42
0.000000001
43
0.0000000001
44
0.0000000001
40
-1
40
-1
40
-1
40
-1
40
0
40
0
40
0
40
0
41
1
41
1
41
1
41
1
10
108.87941855871276
20
130.33580567900466
30
0
10
109.49854355871275
20
129.85955567900467
30
0
10
111.98298105871275
20
125.66061817900467
30
0
10
112.07823105871276
20
124.89861817900467
30
0
0
LINE
5
256
100
AcDbEntity
8
0
100
AcDbLine
10
112.07823105871276
20
124.89861817900464
30
0
11
104.17248105871275
21
119.55668067900467
31
0
0
SPLINE
5
257
100
AcDbEntity
8
0
100
AcDbSpline
70
4
71
3
72
8
73
4
74
0
42
0.000000001
43
0.0000000001
44
0.0000000001
40
-1
40
-1
40
-1
40
-1
40
0
40
0
40
0
40
0
41
1
41
1
41
1
41
1
10
104.17248105871275
20
119.55668067900467
30
0
10
102.68816855871276
20
118.68355567900467
30
0
10
100.79904355871275
20
117.74693067900466
30
0
10
99.227418558712742
20
117.03255567900467
30
0
0
SPLINE
5
258
100
AcDbEntity
8
0
100
AcDbSpline
70
4
71
3
72
8
73
4
74
0
42
0.000000001
43
0.0000000001
44
0.0000000001
40
-1
40
-1
40
-1
40
-1
40
0
40
0
40
0
40
0
41
1
41
1
41
1
41
1
10
99.227418558712742
20
117.03255567900467
30
0
10
98.909918558712761
20
116.88968067900467
30
0
10
98.489231058712761
20
116.76268067900467
30
0
10
98.18760605871276
20
116.61980567900468
30
0
0
SPLINE
5
259
100
AcDbEntity
8
0
100
AcDbSpline
70
4
71
3
72
8
73
4
74
0
42
0.000000001
43
0.0000000001
44
0.0000000001
40
-1
40
-1
40
-1
40
-1
40
0
40
0
40
0
40
0
41
1
41
1
41
1
41
1
10
98.18760605871276
20
116.61980567900468
30
0
10
97.687543558712747
20
116.37374317900468
30
0
10
97.99710605871276
20
116.41343067900466
30
0
10
97.163668558712743
20
116.08799317900468
30
0
0
SPLINE
5
260
100
AcDbEntity
8
0
100
AcDbSpline
70
4
71
3
72
8
73
4
74
0
42
0.000000001
43
0.0000000001
44
0.0000000001
40
-1
40
-1
40
-1
40
-1
40
0
40
0
40
0
40
0
41
1
41
1
41
1
41
1
10
97.163668558712743
20
116.08799317900468
30
0
10
94.210918558712748
20
114.95293067900468
30
0
10
91.281981058712759
20
113.98455567900467
30
0
10
88.027606058712735
20
113.28605567900468
30
0
0
SPLINE
5
261
100
AcDbEntity
8
0
100
AcDbSpline
70
4
71
3
72
8
73
4
74
0
42
0.000000001
43
0.0000000001
44
0.0000000001
40
-1
40
-1
40
-1
40
-1
40
0
40
0
40
0
40
0
41
1
41
1
41
1
41
1
10
88.027606058712735
20
113.28605567900468
30
0
10
81.788731058712756
20
111.95255567900467
30
0
10
78.677231058712749
20
111.80174317900467
30
0
10
72.692356058712747
20
111.80968067900467
30
0
0
SPLINE
5
262
100
AcDbEntity
8
0
100
AcDbSpline
70
4
71
3
72
8
73
4
74
0
42
0.000000001
43
0.0000000001
44
0.0000000001
40
-1
40
-1
40
-1
40
-1
40
0
40
0
40
0
40
0
41
1
41
1
41
1
41
1
10
72.692356058712747
20
111.80968067900467
30
0
10
71.342981058712752
20
111.80968067900467
30
0
10
69.088731058712753
20
112.88918067900468
30
0
10
67.87429355871275
20
113.71468067900467
30
0
0
SPLINE
5
263
100
AcDbEntity
8
0
100
AcDbSpline
70
4
71
3
72
8
73
4
74
0
42
0.000000001
43
0.0000000001
44
0.0000000001
40
-1
40
-1
40
-1
40
-1
40
0
40
0
40
0
40
0
41
1
41
1
41
1
41
1
10
67.87429355871275
20
113.71468067900467
30
0
10
64.715168558712747
20
115.85780567900468
30
0
10
62.325981058712749
20
120.03293067900466
30
0
10
62.976856058712741
20
124.25568067900468
30
0
0
SPLINE
5
264
100
AcDbEntity
8
0
100
AcDbSpline
70
4
71
3
72
8
73
4
74
0
42
0.000000001
43
0.0000000001
44
0.0000000001
40
-1
40
-1
40
-1
40
-1
40
0
40
0
40
0
40
0
41
1
41
1
41
1
41
1
10
62.976856058712741
20
124.25568067900468
30
0
10
63.175293558712752
20
125.52568067900467
30
0
10
63.556293558712753
20
126.58136817900468
30
0
10
64.056356058712751
20
127.64499317900467
30
0
0
SPLINE
5
265
100
AcDbEntity
8
0
100
AcDbSpline
70
4
71
3
72
8
73
4
74
0
42
0.000000001
43
0.0000000001
44
0.0000000001
40
-1
40
-1
40
-1
40
-1
40
0
40
0
40
0
40
0
41
1
41
1
41
1
41
1
10
64.056356058712751
20
127.64499317900467
30
0
10
64.492918558712745
20
128.57368067900467
30
0
10
65.199356058712752
20
129.61349317900468
30
0
10
65.834356058712743
20
130.33580567900466
30
0
0
SPLINE
5
266
100
AcDbEntity
8
0
100
AcDbSpline
70
4
71
3
72
8
73
4
74
0
42
0.000000001
43
0.0000000001
44
0.0000000001
40
-1
40
-1
40
-1
40
-1
40
0
40
0
40
0
40
0
41
1
41
1
41
1
41
1
10
65.834356058712743
20
130.33580567900466
30
0
10
66.247106058712745
20
130.78824317900467
30
0
10
67.652043558712748
20
132.31224317900467
30
0
10
68.128293558712741
20
132.50274317900468
30
0
0
SPLINE
5
267
100
AcDbEntity
8
0
100
AcDbSpline
70
4
71
3
72
8
73
4
74
0
42
0.000000001
43
0.0000000001
44
0.0000000001
40
-1
40
-1
40
-1
40
-1
40
0
40
0
40
0
40
0
41
1
41
1
41
1
41
1
10
68.128293558712741
20
132.50274317900468
30
0
10
68.461668558712745
20
132.31224317900467
30
0
10
69.080793558712742
20
131.70899317900466
30
0
10
69.366543558712749
20
131.41530567900469
30
0
0
SPLINE
5
268
100
AcDbEntity
8
0
100
AcDbSpline
70
4
71
3
72
8
73
4
74
0
42
0.000000001
43
0.0000000001
44
0.0000000001
40
-1
40
-1
40
-1
40
-1
40
0
40
0
40
0
40
0
41
1
41
1
41
1
41
1
10
69.366543558712749
20
131.41530567900469
30
0
10
69.779293558712752
20
131.00255567900467
30
0
10
70.128543558712749
20
130.66918067900468
30
0
10
70.533356058712741
20
130.25643067900467
30
0
0
LINE
5
269
100
AcDbEntity
8
0
100
AcDbLine
10
70.533356058712741
20
130.25643067900467
30
0
11
72.87491855871275
21
127.94661817900467
31
0
0
LINE
5
270
100
AcDbEntity
8
0
100
AcDbLine
10
59.960606058712749
20
166.78480567900468
30
0
11
57.912731058712751
21
164.7448681790047
31
0
0
SPLINE
5
271
100
AcDbEntity
8
0
100
AcDbSpline
70
4
71
3
72
8
73
4
74
0
42
0.000000001
43
0.0000000001
44
0.0000000001
40
-1
40
-1
40
-1
40
-1
40
0
40
0
40
0
40
0
41
1
41
1
41
1
41
1
10
57.912731058712751
20
164.7448681790047
30
0
10
57.650793558712749
20
164.48293067900468
30
0
10
57.626981058712744
20
164.3638681790047
30
0
10
57.238043558712747
20
164.49086817900468
30
0
0
SPLINE
5
272
100
AcDbEntity
8
0
100
AcDbSpline
70
4
71
3
72
8
73
4
74
0
42
0.000000001
43
0.0000000001
44
0.0000000001
40
-1
40
-1
40
-1
40
-1
40
0
40
0
40
0
40
0
41
1
41
1
41
1
41
1
10
57.238043558712747
20
164.49086817900468
30
0
10
54.070981058712746
20
165.52274317900469
30
0
10
51.91198105871274
20
165.61799317900466
30
0
10
48.736981058712743
20
163.83205567900467
30
0
0
SPLINE
5
273
100
AcDbEntity
8
0
100
AcDbSpline
70
4
71
3
72
8
73
4
74
0
42
0.000000001
43
0.0000000001
44
0.0000000001
40
-1
40
-1
40
-1
40
-1
40
0
40
0
40
0
40
0
41
1
41
1
41
1
41
1
10
48.736981058712743
20
163.83205567900467
30
0
10
46.577981058712737
20
162.62555567900466
30
0
10
46.490668558712748
20
162.15724317900467
30
0
10
45.29210605871274
20
161.26030567900469
30
0
0
SPLINE
5
274
100
AcDbEntity
8
0
100
AcDbSpline
70
4
71
3
72
8
73
4
74
0
42
0.000000001
43
0.0000000001
44
0.0000000001
40
-1
40
-1
40
-1
40
-1
40
0
40
0
40
0
40
0
41
1
41
1
41
1
41
1
10
45.29210605871274
20
161.26030567900469
30
0
10
44.450731058712748
20
160.63324317900467
30
0
10
43.688731058712747
20
159.81568067900469
30
0
10
42.934668558712744
20
159.06161817900468
30
0
0
SPLINE
5
275
100
AcDbEntity
8
0
100
AcDbSpline
70
4
71
3
72
8
73
4
74
0
42
0.000000001
43
0.0000000001
44
0.0000000001
40
-1
40
-1
40
-1
40
-1
40
0
40
0
40
0
40
0
41
1
41
1
41
1
41
1
10
42.934668558712744
20
159.06161817900468
30
0
10
42.379043558712738
20
158.50599317900469
30
0
10
38.156293558712747
20
154.10861817900468
30
0
10
37.648293558712744
20
153.79905567900468
30
0
0
SPLINE
5
276
100
AcDbEntity
8
0
100
AcDbSpline
70
4
71
3
72
8
73
4
74
0
42
0.000000001
43
0.0000000001
44
0.0000000001
40
-1
40
-1
40
-1
40
-1
40
0
40
0
40
0
40
0
41
1
41
1
41
1
41
1
10
37.648293558712744
20
153.79905567900468
30
0
10
37.227606058712745
20
154.33880567900468
30
0
10
36.394168558712742
20
157.60111817900469
30
0
10
36.243356058712742
20
158.4742431790047
30
0
0
SPLINE
5
277
100
AcDbEntity
8
0
100
AcDbSpline
70
4
71
3
72
8
73
4
74
0
42
0.000000001
43
0.0000000001
44
0.0000000001
40
-1
40
-1
40
-1
40
-1
40
0
40
0
40
0
40
0
41
1
41
1
41
1
41
1
10
36.243356058712742
20
158.4742431790047
30
0
10
36.100481058712745
20
159.34736817900469
30
0
10
36.044918558712745
20
160.22049317900468
30
0
10
36.148106058712742
20
161.19680567900468
30
0
0
SPLINE
5
278
100
AcDbEntity
8
0
100
AcDbSpline
70
4
71
3
72
8
73
4
74
0
42
0.000000001
43
0.0000000001
44
0.0000000001
40
-1
40
-1
40
-1
40
-1
40
0
40
0
40
0
40
0
41
1
41
1
41
1
41
1
10
36.148106058712742
20
161.19680567900468
30
0
10
36.290981058712745
20
162.63349317900466
30
0
10
36.441793558712746
20
162.41124317900469
30
0
10
37.148231058712746
20
163.19705567900468
30
0
0
SPLINE
5
279
100
AcDbEntity
8
0
100
AcDbSpline
70
4
71
3
72
8
73
4
74
0
42
0.000000001
43
0.0000000001
44
0.0000000001
40
-1
40
-1
40
-1
40
-1
40
0
40
0
40
0
40
0
41
1
41
1
41
1
41
1
10
37.148231058712746
20
163.19705567900468
30
0
10
38.735731058712744
20
164.95124317900468
30
0
10
39.46598105871275
20
165.5068681790047
30
0
10
41.085231058712743
20
166.92768067900465
30
0
0
SPLINE
5
280
100
AcDbEntity
8
0
100
AcDbSpline
70
4
71
3
72
8
73
4
74
0
42
0.000000001
43
0.0000000001
44
0.0000000001
40
-1
40
-1
40
-1
40
-1
40
0
40
0
40
0
40
0
41
1
41
1
41
1
41
1
10
41.085231058712743
20
166.92768067900465
30
0
10
42.101231058712749
20
167.82461817900469
30
0
10
44.482481058712736
20
169.21368067900465
30
0
10
45.736606058712752
20
169.83280567900468
30
0
0
SPLINE
5
281
100
AcDbEntity
8
0
100
AcDbSpline
70
4
71
3
72
8
73
4
74
0
42
0.000000001
43
0.0000000001
44
0.0000000001
40
-1
40
-1
40
-1
40
-1
40
0
40
0
40
0
40
0
41
1
41
1
41
1
41
1
10
45.736606058712752
20
169.83280567900468
30
0
10
49.53866855871275
20
171.72193067900466
30
0
10
54.237668558712748
20
172.40455567900469
30
0
10
58.349293558712745
20
171.2377431790047
30
0
0
SPLINE
5
282
100
AcDbEntity
8
0
100
AcDbSpline
70
4
71
3
72
8
73
4
74
0
42
0.000000001
43
0.0000000001
44
0.0000000001
40
-1
40
-1
40
-1
40
-1
40
0
40
0
40
0
40
0
41
1
41
1
41
1
41
1
10
58.349293558712745
20
171.2377431790047
30
0
10
60.674981058712746
20
170.57893067900466
30
0
10
61.167106058712747
20
169.99949317900467
30
0
10
62.603793558712752
20
169.46768067900467
30
0
0
SPLINE
5
283
100
AcDbEntity
8
0
100
AcDbSpline
70
4
71
3
72
8
73
4
74
0
42
0.000000001
43
0.0000000001
44
0.0000000001
40
-1
40
-1
40
-1
40
-1
40
0
40
0
40
0
40
0
41
1
41
1
41
1
41
1
10
62.603793558712752
20
169.46768067900467
30
0
10
62.357731058712744
20
168.99143067900468
30
0
10
60.492418558712743
20
167.34836817900469
30
0
10
59.960606058712749
20
166.78480567900468
30
0
0
SPLINE
5
284
100
AcDbEntity
8
0
100
AcDbSpline
70
4
71
3
72
8
73
4
74
0
42
0.000000001
43
0.0000000001
44
0.0000000001
40
-1
40
-1
40
-1
40
-1
40
0
40
0
40
0
40
0
41
1
41
1
41
1
41
1
10
84.900231058712748
20
122.99361817900467
30
0
10
84.685918558712743
20
120.53299317900468
30
0
10
85.035168558712755
20
121.09655567900468
30
0
10
82.907918558712751
20
120.81080567900469
30
0
0
SPLINE
5
285
100
AcDbEntity
8
0
100
AcDbSpline
70
4
71
3
72
8
73
4
74
0
42
0.000000001
43
0.0000000001
44
0.0000000001
40
-1
40
-1
40
-1
40
-1
40
0
40
0
40
0
40
0
41
1
41
1
41
1
41
1
10
82.907918558712751
20
120.81080567900469
30
0
10
81.820481058712744
20
120.65999317900466
30
0
10
78.470856058712741
20
120.18374317900467
30
0
10
77.756481058712751
20
120.20755567900467
30
0
0
SPLINE
5
286
100
AcDbEntity
8
0
100
AcDbSpline
70
4
71
3
72
8
73
4
74
0
42
0.000000001
43
0.0000000001
44
0.0000000001
40
-1
40
-1
40
-1
40
-1
40
0
40
0
40
0
40
0
41
1
41
1
41
1
41
1
10
77.756481058712751
20
120.20755567900467
30
0
10
78.010481058712756
20
120.73143067900467
30
0
10
78.21685605871275
20
120.74730567900467
30
0
10
78.327981058712751
20
121.54105567900467
30
0
0
SPLINE
5
287
100
AcDbEntity
8
0
100
AcDbSpline
70
4
71
3
72
8
73
4
74
0
42
0.000000001
43
0.0000000001
44
0.0000000001
40
-1
40
-1
40
-1
40
-1
40
0
40
0
40
0
40
0
41
1
41
1
41
1
41
1
10
78.327981058712751
20
121.54105567900467
30
0
10
78.431168558712741
20
122.28718067900468
30
0
10
78.312106058712743
20
124.26361817900468
30
0
10
77.883481058712746
20
124.78749317900467
30
0
0
LINE
5
288
100
AcDbEntity
8
0
100
AcDbLine
10
77.883481058712746
20
124.78749317900467
30
0
11
75.27998105871275
21
127.81961817900468
31
0
0
SPLINE
5
289
100
AcDbEntity
8
0
100
AcDbSpline
70
4
71
3
72
8
73
4
74
0
42
0.000000001
43
0.0000000001
44
0.0000000001
40
-1
40
-1
40
-1
40
-1
40
0
40
0
40
0
40
0
41
1
41
1
41
1
41
1
10
75.27998105871275
20
127.81961817900468
30
0
10
74.787856058712748
20
128.47843067900467
30
0
10
68.993481058712746
20
134.21724317900467
30
0
10
68.810918558712743
20
134.35218067900468
30
0
0
LINE
5
290
100
AcDbEntity
8
0
100
AcDbLine
10
68.810918558712743
20
134.35218067900468
30
0
11
68.318793558712741
21
134.83636817900469
31
0
0
SPLINE
5
291
100
AcDbEntity
8
0
100
AcDbSpline
70
4
71
3
72
8
73
4
74
0
42
0.000000001
43
0.0000000001
44
0.0000000001
40
-1
40
-1
40
-1
40
-1
40
0
40
0
40
0
40
0
41
1
41
1
41
1
41
1
10
68.318793558712741
20
134.83636817900469
30
0
10
68.167981058712741
20
135.01893067900468
30
0
10
68.064793558712751
20
135.11418067900468
30
0
10
67.898106058712756
20
135.28086817900467
30
0
0
SPLINE
5
292
100
AcDbEntity
8
0
100
AcDbSpline
70
4
71
3
72
8
73
4
74
0
42
0.000000001
43
0.0000000001
44
0.0000000001
40
-1
40
-1
40
-1
40
-1
40
0
40
0
40
0
40
0
41
1
41
1
41
1
41
1
10
67.898106058712756
20
135.28086817900467
30
0
10
67.49329355871275
20
135.67774317900466
30
0
10
66.342356058712738
20
136.81280567900467
30
0
10
66.12010605871275
20
137.15411817900468
30
0
0
SPLINE
5
293
100
AcDbEntity
8
0
100
AcDbSpline
70
4
71
3
72
8
73
4
74
0
42
0.000000001
43
0.0000000001
44
0.0000000001
40
-1
40
-1
40
-1
40
-1
40
0
40
0
40
0
40
0
41
1
41
1
41
1
41
1
10
66.12010605871275
20
137.15411817900468
30
0
10
66.92179355871275
20
137.95580567900467
30
0
10
67.87429355871275
20
138.82099317900466
30
0
10
68.62835605871274
20
139.67030567900468
30
0
0
LINE
5
294
100
AcDbEntity
8
0
100
AcDbLine
10
68.628356058712754
20
139.67030567900466
30
0
11
70.827043558712745
21
142.36111817900468
31
0
0
SPLINE
5
295
100
AcDbEntity
8
0
100
AcDbSpline
70
4
71
3
72
8
73
4
74
0
42
0.000000001
43
0.0000000001
44
0.0000000001
40
-1
40
-1
40
-1
40
-1
40
0
40
0
40
0
40
0
41
1
41
1
41
1
41
1
10
70.827043558712745
20
142.36111817900468
30
0
10
71.493793558712753
20
141.82930567900468
30
0
10
72.414543558712751
20
140.81330567900469
30
0
10
73.06541855871275
20
140.15449317900467
30
0
0
LINE
5
296
100
AcDbEntity
8
0
100
AcDbLine
10
73.065418558712736
20
140.15449317900467
30
0
11
79.756731058712745
21
133.46318067900467
31
0
0
SPLINE
5
297
100
AcDbEntity
8
0
100
AcDbSpline
70
4
71
3
72
8
73
4
74
0
42
0.000000001
43
0.0000000001
44
0.0000000001
40
-1
40
-1
40
-1
40
-1
40
0
40
0
40
0
40
0
41
1
41
1
41
1
41
1
10
79.756731058712745
20
133.46318067900467
30
0
10
82.37610605871275
20
130.84380567900467
30
0
10
84.249356058712749
20
129.40711817900467
30
0
10
84.804981058712755
20
125.12880567900467
30
0
0
SPLINE
5
298
100
AcDbEntity
8
0
100
AcDbSpline
70
4
71
3
72
8
73
4
74
0
42
0.000000001
43
0.0000000001
44
0.0000000001
40
-1
40
-1
40
-1
40
-1
40
0
40
0
40
0
40
0
41
1
41
1
41
1
41
1
10
84.804981058712755
20
125.12880567900467
30
0
10
84.892293558712737
20
124.49380567900468
30
0
10
84.963731058712739
20
123.67624317900467
30
0
10
84.900231058712748
20
122.99361817900467
30
0
0
SPLINE
5
299
100
AcDbEntity
8
0
100
AcDbSpline
70
4
71
3
72
8
73
4
74
0
42
0.000000001
43
0.0000000001
44
0.0000000001
40
-1
40
-1
40
-1
40
-1
40
0
40
0
40
0
40
0
41
1
41
1
41
1
41
1
10
120.87298105871275
20
193.11349317900468
30
0
10
122.15091855871276
20
188.26368067900466
30
0
10
122.15885605871276
20
183.50911817900467
30
0
10
120.69835605871276
20
178.72280567900469
30
0
0
SPLINE
5
300
100
AcDbEntity
8
0
100
AcDbSpline
70
4
71
3
72
8
73
4
74
0
42
0.000000001
43
0.0000000001
44
0.0000000001
40
-1
40
-1
40
-1
40
-1
40
0
40
0
40
0
40
0
41
1
41
1
41
1
41
1
10
120.69835605871276
20
178.72280567900469
30
0
10
120.23798105871276
20
177.20674317900466
30
0
10
119.85698105871276
20
176.5003056790047
30
0
10
119.60298105871276
20
175.65099317900467
30
0
0
SPLINE
5
301
100
AcDbEntity
8
0
100
AcDbSpline
70
4
71
3
72
8
73
4
74
0
42
0.000000001
43
0.0000000001
44
0.0000000001
40
-1
40
-1
40
-1
40
-1
40
0
40
0
40
0
40
0
41
1
41
1
41
1
41
1
10
119.60298105871276
20
175.65099317900467
30
0
10
119.24579355871275
20
175.80180567900467
30
0
10
119.43629355871275
20
175.62718067900471
30
0
10
119.19816855871275
20
176.00818067900468
30
0
0
LINE
5
302
100
AcDbEntity
8
0
100
AcDbLine
10
119.19816855871275
20
176.00818067900468
30
0
11
117.73766855871274
21
177.93699317900467
31
0
0
SPLINE
5
303
100
AcDbEntity
8
0
100
AcDbSpline
70
4
71
3
72
8
73
4
74
0
42
0.000000001
43
0.0000000001
44
0.0000000001
40
-1
40
-1
40
-1
40
-1
40
0
40
0
40
0
40
0
41
1
41
1
41
1
41
1
10
117.73766855871274
20
177.93699317900467
30
0
10
117.32491855871275
20
178.38149317900468
30
0
10
117.62654355871275
20
177.91318067900471
30
0
10
117.09473105871275
20
178.65930567900466
30
0
0
SPLINE
5
304
100
AcDbEntity
8
0
100
AcDbSpline
70
4
71
3
72
8
73
4
74
0
42
0.000000001
43
0.0000000001
44
0.0000000001
40
-1
40
-1
40
-1
40
-1
40
0
40
0
40
0
40
0
41
1
41
1
41
1
41
1
10
117.09473105871275
20
178.65930567900466
30
0
10
116.81691855871276
20
179.04030567900466
30
0
10
116.13429355871276
20
179.69118067900467
30
0
10
115.77710605871275
20
180.05630567900468
30
0
0
LINE
5
305
100
AcDbEntity
8
0
100
AcDbLine
10
115.77710605871276
20
180.05630567900468
30
0
11
114.31660605871274
21
181.28661817900468
31
0
0
SPLINE
5
306
100
AcDbEntity
8
0
100
AcDbSpline
70
4
71
3
72
8
73
4
74
0
42
0.000000001
43
0.0000000001
44
0.0000000001
40
-1
40
-1
40
-1
40
-1
40
0
40
0
40
0
40
0
41
1
41
1
41
1
41
1
10
114.31660605871275
20
181.28661817900468
30
0
10
114.32454355871275
20
181.81049317900465
30
0
10
114.49123105871274
20
182.21530567900464
30
0
10
114.57060605871276
20
182.70743067900469
30
0
0
SPLINE
5
307
100
AcDbEntity
8
0
100
AcDbSpline
70
4
71
3
72
8
73
4
74
0
42
0.000000001
43
0.0000000001
44
0.0000000001
40
-1
40
-1
40
-1
40
-1
40
0
40
0
40
0
40
0
41
1
41
1
41
1
41
1
10
114.57060605871276
20
182.70743067900469
30
0
10
115.12623105871276
20
186.18405567900467
30
0
10
114.82460605871275
20
189.28761817900468
30
0
10
113.64191855871276
20
192.57374317900468
30
0
0
SPLINE
5
308
100
AcDbEntity
8
0
100
AcDbSpline
70
4
71
3
72
8
73
4
74
0
42
0.000000001
43
0.0000000001
44
0.0000000001
40
-1
40
-1
40
-1
40
-1
40
0
40
0
40
0
40
0
41
1
41
1
41
1
41
1
10
113.64191855871276
20
192.57374317900468
30
0
10
112.94341855871275
20
194.51843067900469
30
0
10
111.44323105871274
20
197.39180567900468
30
0
10
110.18116855871276
20
198.91580567900468
30
0
0
SPLINE
5
309
100
AcDbEntity
8
0
100
AcDbSpline
70
4
71
3
72
8
73
4
74
0
42
0.000000001
43
0.0000000001
44
0.0000000001
40
-1
40
-1
40
-1
40
-1
40
0
40
0
40
0
40
0
41
1
41
1
41
1
41
1
10
110.18116855871276
20
198.91580567900468
30
0
10
109.89541855871275
20
199.26505567900466
30
0
10
108.87148105871276
20
200.43980567900468
30
0
10
108.78416855871276
20
200.77318067900467
30
0
0
SPLINE
5
310
100
AcDbEntity
8
0
100
AcDbSpline
70
4
71
3
72
8
73
4
74
0
42
0.000000001
43
0.0000000001
44
0.0000000001
40
-1
40
-1
40
-1
40
-1
40
0
40
0
40
0
40
0
41
1
41
1
41
1
41
1
10
108.78416855871276
20
200.77318067900467
30
0
10
109.26835605871275
20
201.2097431790047
30
0
10
109.64141855871276
20
201.47168067900466
30
0
10
110.10179355871274
20
201.93205567900466
30
0
0
LINE
5
311
100
AcDbEntity
8
0
100
AcDbLine
10
110.10179355871274
20
201.93205567900469
30
0
11
113.79273105871275
21
205.63093067900468
31
0
0
SPLINE
5
312
100
AcDbEntity
8
0
100
AcDbSpline
70
4
71
3
72
8
73
4
74
0
42
0.000000001
43
0.0000000001
44
0.0000000001
40
-1
40
-1
40
-1
40
-1
40
0
40
0
40
0
40
0
41
1
41
1
41
1
41
1
10
113.79273105871276
20
205.63093067900468
30
0
10
114.28485605871275
20
205.07530567900466
30
0
10
114.90398105871276
20
204.57524317900467
30
0
10
115.36435605871276
20
203.9005556790047
30
0
0
SPLINE
5
313
100
AcDbEntity
8
0
100
AcDbSpline
70
4
71
3
72
8
73
4
74
0
42
0.000000001
43
0.0000000001
44
0.0000000001
40
-1
40
-1
40
-1
40
-1
40
0
40
0
40
0
40
0
41
1
41
1
41
1
41
1
10
115.36435605871276
20
203.9005556790047
30
0
10
115.58660605871275
20
203.56718067900465
30
0
10
115.84060605871275
20
203.29730567900469
30
0
10
116.09460605871276
20
202.98774317900467
30
0
0
SPLINE
5
314
100
AcDbEntity
8
0
100
AcDbSpline
70
4
71
3
72
8
73
4
74
0
42
0.000000001
43
0.0000000001
44
0.0000000001
40
-1
40
-1
40
-1
40
-1
40
0
40
0
40
0
40
0
41
1
41
1
41
1
41
1
10
116.09460605871276
20
202.98774317900467
30
0
10
116.35654355871274
20
202.67024317900467
30
0
10
116.56291855871275
20
202.32893067900471
30
0
10
116.77723105871274
20
202.01936817900469
30
0
0
SPLINE
5
315
100
AcDbEntity
8
0
100
AcDbSpline
70
4
71
3
72
8
73
4
74
0
42
0.000000001
43
0.0000000001
44
0.0000000001
40
-1
40
-1
40
-1
40
-1
40
0
40
0
40
0
40
0
41
1
41
1
41
1
41
1
10
116.77723105871274
20
202.01936817900469
30
0
10
118.49966855871274
20
199.51111817900468
30
0
10
120.07923105871276
20
196.12180567900467
30
0
10
120.87298105871275
20
193.11349317900468
30
0
0
SPLINE
5
316
100
AcDbEntity
8
0
100
AcDbSpline
70
4
71
3
72
8
73
4
74
0
42
0.000000001
43
0.0000000001
44
0.0000000001
40
-1
40
-1
40
-1
40
-1
40
0
40
0
40
0
40
0
41
1
41
1
41
1
41
1
10
62.897481058712749
20
191.13705567900467
30
0
10
62.881606058712748
20
189.53368067900468
30
0
10
59.206543558712745
20
186.23961817900468
30
0
10
58.023856058712752
20
185.78718067900468
30
0
0
SPLINE
5
317
100
AcDbEntity
8
0
100
AcDbSpline
70
4
71
3
72
8
73
4
74
0
42
0.000000001
43
0.0000000001
44
0.0000000001
40
-1
40
-1
40
-1
40
-1
40
0
40
0
40
0
40
0
41
1
41
1
41
1
41
1
10
58.023856058712752
20
185.78718067900468
30
0
10
56.76973105871275
20
187.03336817900467
30
0
10
55.499731058712747
20
188.22399317900471
30
0
10
54.261481058712747
20
189.4701806790047
30
0
0
LINE
5
318
100
AcDbEntity
8
0
100
AcDbLine
10
54.261481058712747
20
189.47018067900467
30
0
11
46.387481058712751
21
197.4156181790047
31
0
0
SPLINE
5
319
100
AcDbEntity
8
0
100
AcDbSpline
70
4
71
3
72
8
73
4
74
0
42
0.000000001
43
0.0000000001
44
0.0000000001
40
-1
40
-1
40
-1
40
-1
40
0
40
0
40
0
40
0
41
1
41
1
41
1
41
1
10
46.387481058712737
20
197.4156181790047
30
0
10
46.181106058712743
20
197.65374317900466
30
0
10
46.220793558712749
20
197.69343067900468
30
0
10
46.022356058712752
20
197.93155567900467
30
0
0
SPLINE
5
320
100
AcDbEntity
8
0
100
AcDbSpline
70
4
71
3
72
8
73
4
74
0
42
0.000000001
43
0.0000000001
44
0.0000000001
40
-1
40
-1
40
-1
40
-1
40
0
40
0
40
0
40
0
41
1
41
1
41
1
41
1
10
46.022356058712752
20
197.93155567900467
30
0
10
45.530231058712744
20
198.51099317900469
30
0
10
43.522043558712738
20
200.27311817900468
30
0
10
43.315668558712744
20
200.70968067900466
30
0
0
SPLINE
5
321
100
AcDbEntity
8
0
100
AcDbSpline
70
4
71
3
72
8
73
4
74
0
42
0.000000001
43
0.0000000001
44
0.0000000001
40
-1
40
-1
40
-1
40
-1
40
0
40
0
40
0
40
0
41
1
41
1
41
1
41
1
10
43.315668558712744
20
200.70968067900466
30
0
10
43.680793558712743
20
201.09861817900469
30
0
10
44.061793558712743
20
201.48755567900469
30
0
10
44.474543558712739
20
201.86855567900469
30
0
0
LINE
5
322
100
AcDbEntity
8
0
100
AcDbLine
10
44.474543558712739
20
201.86855567900469
30
0
11
45.744543558712742
21
202.8289931790047
31
0
0
SPLINE
5
323
100
AcDbEntity
8
0
100
AcDbSpline
70
4
71
3
72
8
73
4
74
0
42
0.000000001
43
0.0000000001
44
0.0000000001
40
-1
40
-1
40
-1
40
-1
40
0
40
0
40
0
40
0
41
1
41
1
41
1
41
1
10
45.744543558712749
20
202.8289931790047
30
0
10
46.665293558712747
20
203.40049317900468
30
0
10
47.562231058712747
20
204.01168067900468
30
0
10
48.935418558712755
20
204.22599317900466
30
0
0
SPLINE
5
324
100
AcDbEntity
8
0
100
AcDbSpline
70
4
71
3
72
8
73
4
74
0
42
0.000000001
43
0.0000000001
44
0.0000000001
40
-1
40
-1
40
-1
40
-1
40
0
40
0
40
0
40
0
41
1
41
1
41
1
41
1
10
48.935418558712755
20
204.22599317900466
30
0
10
50.118106058712748
20
204.40061817900468
30
0
10
50.062543558712747
20
204.14661817900466
30
0
10
50.626106058712743
20
203.5989306790047
30
0
0
SPLINE
5
325
100
AcDbEntity
8
0
100
AcDbSpline
70
4
71
3
72
8
73
4
74
0
42
0.000000001
43
0.0000000001
44
0.0000000001
40
-1
40
-1
40
-1
40
-1
40
0
40
0
40
0
40
0
41
1
41
1
41
1
41
1
10
50.626106058712743
20
203.5989306790047
30
0
10
50.991231058712749
20
203.24174317900469
30
0
10
51.34048105871274
20
202.69405567900466
30
0
10
51.689731058712745
20
202.4321181790047
30
0
0
LINE
5
326
100
AcDbEntity
8
0
100
AcDbLine
10
51.689731058712745
20
202.43211817900465
30
0
11
53.880481058712746
21
200.1540556790047
31
0
0
SPLINE
5
327
100
AcDbEntity
8
0
100
AcDbSpline
70
4
71
3
72
8
73
4
74
0
42
0.000000001
43
0.0000000001
44
0.0000000001
40
-1
40
-1
40
-1
40
-1
40
0
40
0
40
0
40
0
41
1
41
1
41
1
41
1
10
53.880481058712746
20
200.1540556790047
30
0
10
55.420356058712741
20
198.6379931790047
30
0
10
56.817356058712747
20
197.1854306790047
30
0
10
58.381043558712747
20
195.62968067900468
30
0
0
LINE
5
328
100
AcDbEntity
8
0
100
AcDbLine
10
58.381043558712761
20
195.62968067900468
30
0
11
62.34185605871275
21
191.62918067900466
31
0
0
SPLINE
5
329
100
AcDbEntity
8
0
100
AcDbSpline
70
4
71
3
72
8
73
4
74
0
42
0.000000001
43
0.0000000001
44
0.0000000001
40
-1
40
-1
40
-1
40
-1
40
0
40
0
40
0
40
0
41
1
41
1
41
1
41
1
10
62.34185605871275
20
191.62918067900466
30
0
10
62.556168558712749
20
191.35930567900465
30
0
10
62.325981058712749
20
191.57361817900468
30
0
10
62.62760605871275
20
191.33549317900469
30
0
0
SPLINE
5
330
100
AcDbEntity
8
0
100
AcDbSpline
70
4
71
3
72
8
73
4
74
0
42
0.000000001
43
0.0000000001
44
0.0000000001
40
-1
40
-1
40
-1
40
-1
40
0
40
0
40
0
40
0
41
1
41
1
41
1
41
1
10
62.62760605871275
20
191.33549317900469
30
0
10
62.683168558712751
20
191.2878681790047
30
0
10
62.826043558712747
20
191.19261817900468
30
0
10
62.897481058712749
20
191.13705567900467
30
0
0
SPLINE
5
331
100
AcDbEntity
8
0
100
AcDbSpline
70
4
71
3
72
8
73
4
74
0
42
0.000000001
43
0.0000000001
44
0.0000000001
40
-1
40
-1
40
-1
40
-1
40
0
40
0
40
0
40
0
41
1
41
1
41
1
41
1
10
103.30729355871276
20
187.57311817900469
30
0
10
102.23573105871274
20
186.46980567900468
30
0
10
100.82285605871276
20
184.62036817900469
30
0
10
99.148043558712757
20
184.68386817900466
30
0
0
LINE
5
332
100
AcDbEntity
8
0
100
AcDbLine
10
99.148043558712757
20
184.68386817900466
30
0
11
86.392481058712747
21
197.71724317900467
31
0
0
SPLINE
5
333
100
AcDbEntity
8
0
100
AcDbSpline
70
4
71
3
72
8
73
4
74
0
42
0.000000001
43
0.0000000001
44
0.0000000001
40
-1
40
-1
40
-1
40
-1
40
0
40
0
40
0
40
0
41
1
41
1
41
1
41
1
10
86.392481058712747
20
197.71724317900467
30
0
10
86.654418558712763
20
198.6221181790047
30
0
10
87.646606058712734
20
199.98736817900468
30
0
10
88.178418558712764
20
200.57474317900468
30
0
0
SPLINE
5
334
100
AcDbEntity
8
0
100
AcDbSpline
70
4
71
3
72
8
73
4
74
0
42
0.000000001
43
0.0000000001
44
0.0000000001
40
-1
40
-1
40
-1
40
-1
40
0
40
0
40
0
40
0
41
1
41
1
41
1
41
1
10
88.178418558712764
20
200.57474317900468
30
0
10
90.964481058712749
20
203.65449317900467
30
0
10
90.488231058712756
20
203.01949317900468
30
0
10
93.131418558712738
20
200.40011817900466
30
0
0
LINE
5
335
100
AcDbEntity
8
0
100
AcDbLine
10
93.131418558712738
20
200.40011817900464
30
0
11
95.345981058712738
21
198.05061817900466
31
0
0
SPLINE
5
336
100
AcDbEntity
8
0
100
AcDbSpline
70
4
71
3
72
8
73
4
74
0
42
0.000000001
43
0.0000000001
44
0.0000000001
40
-1
40
-1
40
-1
40
-1
40
0
40
0
40
0
40
0
41
1
41
1
41
1
41
1
10
95.345981058712752
20
198.05061817900469
30
0
10
96.957293558712763
20
196.50280567900467
30
0
10
98.409856058712748
20
194.95499317900467
30
0
10
99.949731058712743
20
193.43893067900467
30
0
0
LINE
5
337
100
AcDbEntity
8
0
100
AcDbLine
10
99.949731058712743
20
193.43893067900464
30
0
11
104.50585605871275
21
188.78755567900467
31
0
0
SPLINE
5
338
100
AcDbEntity
8
0
100
AcDbSpline
70
4
71
3
72
8
73
4
74
0
42
0.000000001
43
0.0000000001
44
0.0000000001
40
-1
40
-1
40
-1
40
-1
40
0
40
0
40
0
40
0
41
1
41
1
41
1
41
1
10
104.50585605871275
20
188.7875556790047
30
0
10
104.10898105871276
20
188.36686817900468
30
0
10
103.74385605871275
20
188.03349317900469
30
0
10
103.30729355871276
20
187.57311817900469
30
0
0
SPLINE
5
339
100
AcDbEntity
8
0
100
AcDbSpline
70
4
71
3
72
8
73
4
74
0
42
0.000000001
43
0.0000000001
44
0.0000000001
40
-1
40
-1
40
-1
40
-1
40
0
40
0
40
0
40
0
41
1
41
1
41
1
41
1
10
123.04785605871275
20
151.52099317900468
30
0
10
123.17485605871275
20
151.06855567900467
30
0
10
120.28560605871276
20
145.72661817900467
30
0
10
119.73791855871275
20
145.32974317900468
30
0
0
SPLINE
5
340
100
AcDbEntity
8
0
100
AcDbSpline
70
4
71
3
72
8
73
4
74
0
42
0.000000001
43
0.0000000001
44
0.0000000001
40
-1
40
-1
40
-1
40
-1
40
0
40
0
40
0
40
0
41
1
41
1
41
1
41
1
10
119.73791855871275
20
145.32974317900468
30
0
10
119.19816855871275
20
145.82186817900467
30
0
10
118.61079355871276
20
146.55211817900468
30
0
10
118.08691855871275
20
146.94899317900467
30
0
0
SPLINE
5
341
100
AcDbEntity
8
0
100
AcDbSpline
70
4
71
3
72
8
73
4
74
0
42
0.000000001
43
0.0000000001
44
0.0000000001
40
-1
40
-1
40
-1
40
-1
40
0
40
0
40
0
40
0
41
1
41
1
41
1
41
1
10
118.08691855871275
20
146.94899317900467
30
0
10
117.36460605871275
20
147.48080567900467
30
0
10
117.00741855871274
20
147.90149317900469
30
0
10
116.37241855871275
20
148.53649317900468
30
0
0
SPLINE
5
342
100
AcDbEntity
8
0
100
AcDbSpline
70
4
71
3
72
8
73
4
74
0
42
0.000000001
43
0.0000000001
44
0.0000000001
40
-1
40
-1
40
-1
40
-1
40
0
40
0
40
0
40
0
41
1
41
1
41
1
41
1
10
116.37241855871275
20
148.53649317900468
30
0
10
115.80885605871275
20
149.10005567900467
30
0
10
115.26116855871277
20
149.60805567900468
30
0
10
114.69760605871275
20
150.16368067900467
30
0
0
SPLINE
5
343
100
AcDbEntity
8
0
100
AcDbSpline
70
4
71
3
72
8
73
4
74
0
42
0.000000001
43
0.0000000001
44
0.0000000001
40
-1
40
-1
40
-1
40
-1
40
0
40
0
40
0
40
0
41
1
41
1
41
1
41
1
10
114.69760605871275
20
150.16368067900467
30
0
10
114.17373105871276
20
150.67961817900468
30
0
10
113.71335605871275
20
151.29874317900467
30
0
10
113.17360605871275
20
151.83055567900468
30
0
0
SPLINE
5
344
100
AcDbEntity
8
0
100
AcDbSpline
70
4
71
3
72
8
73
4
74
0
42
0.000000001
43
0.0000000001
44
0.0000000001
40
-1
40
-1
40
-1
40
-1
40
0
40
0
40
0
40
0
41
1
41
1
41
1
41
1
10
113.17360605871275
20
151.83055567900468
30
0
10
112.53860605871274
20
152.45761817900467
30
0
10
107.09348105871274
20
158.09324317900467
30
0
10
106.64104355871275
20
158.40280567900467
30
0
0
SPLINE
5
345
100
AcDbEntity
8
0
100
AcDbSpline
70
4
71
3
72
8
73
4
74
0
42
0.000000001
43
0.0000000001
44
0.0000000001
40
-1
40
-1
40
-1
40
-1
40
0
40
0
40
0
40
0
41
1
41
1
41
1
41
1
10
106.64104355871275
20
158.40280567900467
30
0
10
106.90298105871275
20
158.85524317900467
30
0
10
108.36348105871275
20
160.08555567900464
30
0
10
108.96673105871275
20
160.8554931790047
30
0
0
SPLINE
5
346
100
AcDbEntity
8
0
100
AcDbSpline
70
4
71
3
72
8
73
4
74
0
42
0.000000001
43
0.0000000001
44
0.0000000001
40
-1
40
-1
40
-1
40
-1
40
0
40
0
40
0
40
0
41
1
41
1
41
1
41
1
10
108.96673105871275
20
160.8554931790047
30
0
10
109.68904355871275
20
161.79211817900466
30
0
10
110.58598105871275
20
162.42711817900468
30
0
10
111.28448105871274
20
163.26849317900468
30
0
0
SPLINE
5
347
100
AcDbEntity
8
0
100
AcDbSpline
70
4
71
3
72
8
73
4
74
0
42
0.000000001
43
0.0000000001
44
0.0000000001
40
-1
40
-1
40
-1
40
-1
40
0
40
0
40
0
40
0
41
1
41
1
41
1
41
1
10
111.28448105871274
20
163.26849317900468
30
0
10
111.71310605871275
20
163.05418067900467
30
0
10
113.38791855871276
20
161.2364931790047
30
0
10
113.96735605871274
20
160.68086817900468
30
0
0
LINE
5
348
100
AcDbEntity
8
0
100
AcDbLine
10
113.96735605871274
20
160.68086817900468
30
0
11
123.04785605871275
21
151.52099317900468
31
0
0
SPLINE
5
349
100
AcDbEntity
8
0
100
AcDbSpline
70
4
71
3
72
8
73
4
74
0
42
0.000000001
43
0.0000000001
44
0.0000000001
40
-1
40
-1
40
-1
40
-1
40
0
40
0
40
0
40
0
41
1
41
1
41
1
41
1
10
63.881731058712745
20
137.91611817900468
30
0
10
62.119606058712748
20
136.63024317900468
30
0
10
58.658856058712743
20
135.25705567900468
30
0
10
56.380793558712753
20
134.82843067900467
30
0
0
SPLINE
5
350
100
AcDbEntity
8
0
100
AcDbSpline
70
4
71
3
72
8
73
4
74
0
42
0.000000001
43
0.0000000001
44
0.0000000001
40
-1
40
-1
40
-1
40
-1
40
0
40
0
40
0
40
0
41
1
41
1
41
1
41
1
10
56.380793558712753
20
134.82843067900467
30
0
10
52.570793558712751
20
134.11405567900468
30
0
10
50.888043558712745
20
134.11405567900468
30
0
10
47.212981058712742
20
134.97924317900467
30
0
0
LINE
5
351
100
AcDbEntity
8
0
100
AcDbLine
10
47.212981058712742
20
134.97924317900467
30
0
11
44.609481058712745
21
135.77299317900469
31
0
0
SPLINE
5
352
100
AcDbEntity
8
0
100
AcDbSpline
70
4
71
3
72
8
73
4
74
0
42
0.000000001
43
0.0000000001
44
0.0000000001
40
-1
40
-1
40
-1
40
-1
40
0
40
0
40
0
40
0
41
1
41
1
41
1
41
1
10
44.609481058712745
20
135.77299317900466
30
0
10
44.204668558712747
20
135.89205567900467
30
0
10
44.093543558712739
20
135.87618067900468
30
0
10
43.887168558712744
20
136.12224317900467
30
0
0
SPLINE
5
353
100
AcDbEntity
8
0
100
AcDbSpline
70
4
71
3
72
8
73
4
74
0
42
0.000000001
43
0.0000000001
44
0.0000000001
40
-1
40
-1
40
-1
40
-1
40
0
40
0
40
0
40
0
41
1
41
1
41
1
41
1
10
43.887168558712744
20
136.12224317900467
30
0
10
44.585668558712747
20
136.97949317900469
30
0
10
45.784231058712749
20
138.04311817900467
30
0
10
46.617668558712744
20
138.87655567900467
30
0
0
SPLINE
5
354
100
AcDbEntity
8
0
100
AcDbSpline
70
4
71
3
72
8
73
4
74
0
42
0.000000001
43
0.0000000001
44
0.0000000001
40
-1
40
-1
40
-1
40
-1
40
0
40
0
40
0
40
0
41
1
41
1
41
1
41
1
10
46.617668558712744
20
138.87655567900467
30
0
10
50.149856058712743
20
142.41668067900468
30
0
10
48.594106058712747
20
141.52768067900467
30
0
10
51.538918558712751
20
141.38480567900467
30
0
0
LINE
5
355
100
AcDbEntity
8
0
100
AcDbLine
10
51.538918558712737
20
141.38480567900467
30
0
11
53.864606058712745
21
141.38480567900467
31
0
0
SPLINE
5
356
100
AcDbEntity
8
0
100
AcDbSpline
70
4
71
3
72
8
73
4
74
0
42
0.000000001
43
0.0000000001
44
0.0000000001
40
-1
40
-1
40
-1
40
-1
40
0
40
0
40
0
40
0
41
1
41
1
41
1
41
1
10
53.864606058712745
20
141.38480567900467
30
0
10
56.539543558712744
20
141.38480567900467
30
0
10
60.389231058712753
20
142.86911817900466
30
0
10
62.15135605871275
20
145.08368067900469
30
0
0
SPLINE
5
357
100
AcDbEntity
8
0
100
AcDbSpline
70
4
71
3
72
8
73
4
74
0
42
0.000000001
43
0.0000000001
44
0.0000000001
40
-1
40
-1
40
-1
40
-1
40
0
40
0
40
0
40
0
41
1
41
1
41
1
41
1
10
62.15135605871275
20
145.08368067900469
30
0
10
62.468856058712745
20
145.48849317900468
30
0
10
62.905418558712746
20
145.86155567900468
30
0
10
63.230856058712746
20
146.33780567900467
30
0
0
SPLINE
5
358
100
AcDbEntity
8
0
100
AcDbSpline
70
4
71
3
72
8
73
4
74
0
42
0.000000001
43
0.0000000001
44
0.0000000001
40
-1
40
-1
40
-1
40
-1
40
0
40
0
40
0
40
0
41
1
41
1
41
1
41
1
10
63.230856058712746
20
146.33780567900467
30
0
10
64.651668558712757
20
148.44918067900468
30
0
10
65.31841855871275
20
150.90980567900468
30
0
10
65.310481058712753
20
153.46568067900466
30
0
0
SPLINE
5
359
100
AcDbEntity
8
0
100
AcDbSpline
70
4
71
3
72
8
73
4
74
0
42
0.000000001
43
0.0000000001
44
0.0000000001
40
-1
40
-1
40
-1
40
-1
40
0
40
0
40
0
40
0
41
1
41
1
41
1
41
1
10
65.310481058712753
20
153.46568067900466
30
0
10
65.310481058712753
20
155.98980567900466
30
0
10
64.524668558712747
20
156.62480567900468
30
0
10
65.191418558712741
20
157.26774317900467
30
0
0
SPLINE
5
360
100
AcDbEntity
8
0
100
AcDbSpline
70
4
71
3
72
8
73
4
74
0
42
0.000000001
43
0.0000000001
44
0.0000000001
40
-1
40
-1
40
-1
40
-1
40
0
40
0
40
0
40
0
41
1
41
1
41
1
41
1
10
65.191418558712741
20
157.26774317900467
30
0
10
66.024856058712743
20
158.07736817900468
30
0
10
66.747168558712744
20
158.79174317900467
30
0
10
67.556793558712741
20
159.66486817900466
30
0
0
SPLINE
5
361
100
AcDbEntity
8
0
100
AcDbSpline
70
4
71
3
72
8
73
4
74
0
42
0.000000001
43
0.0000000001
44
0.0000000001
40
-1
40
-1
40
-1
40
-1
40
0
40
0
40
0
40
0
41
1
41
1
41
1
41
1
10
67.556793558712741
20
159.66486817900466
30
0
10
67.906043558712753
20
160.03793067900466
30
0
10
68.421981058712745
20
160.45068067900468
30
0
10
68.707731058712753
20
160.84755567900464
30
0
0
SPLINE
5
362
100
AcDbEntity
8
0
100
AcDbSpline
70
4
71
3
72
8
73
4
74
0
42
0.000000001
43
0.0000000001
44
0.0000000001
40
-1
40
-1
40
-1
40
-1
40
0
40
0
40
0
40
0
41
1
41
1
41
1
41
1
10
68.707731058712753
20
160.84755567900464
30
0
10
69.017293558712751
20
161.28411817900468
30
0
10
69.406231058712748
20
161.85561817900467
30
0
10
69.922168558712755
20
162.01436817900469
30
0
0
SPLINE
5
363
100
AcDbEntity
8
0
100
AcDbSpline
70
4
71
3
72
8
73
4
74
0
42
0.000000001
43
0.0000000001
44
0.0000000001
40
-1
40
-1
40
-1
40
-1
40
0
40
0
40
0
40
0
41
1
41
1
41
1
41
1
10
69.922168558712755
20
162.01436817900469
30
0
10
71.342981058712752
20
160.13318067900468
30
0
10
72.279606058712744
20
156.14061817900466
30
0
10
72.279606058712744
20
153.65618067900468
30
0
0
SPLINE
5
364
100
AcDbEntity
8
0
100
AcDbSpline
70
4
71
3
72
8
73
4
74
0
42
0.000000001
43
0.0000000001
44
0.0000000001
40
-1
40
-1
40
-1
40
-1
40
0
40
0
40
0
40
0
41
1
41
1
41
1
41
1
10
72.279606058712744
20
153.65618067900468
30
0
10
72.279606058712744
20
149.93349317900467
30
0
10
72.041481058712748
20
148.07611817900468
30
0
10
70.144418558712744
20
144.65505567900468
30
0
0
LINE
5
365
100
AcDbEntity
8
0
100
AcDbLine
10
70.144418558712758
20
144.6550556790047
30
0
11
68.231481058712745
21
141.81343067900468
31
0
0
SPLINE
5
366
100
AcDbEntity
8
0
100
AcDbSpline
70
4
71
3
72
8
73
4
74
0
42
0.000000001
43
0.0000000001
44
0.0000000001
40
-1
40
-1
40
-1
40
-1
40
0
40
0
40
0
40
0
41
1
41
1
41
1
41
1
10
68.231481058712745
20
141.81343067900468
30
0
10
66.461418558712751
20
139.78936817900467
30
0
10
65.826418558712746
20
139.33693067900467
30
0
10
63.881731058712745
20
137.91611817900468
30
0
0
SPLINE
5
367
100
AcDbEntity
8
0
100
AcDbSpline
70
4
71
3
72
8
73
4
74
0
42
0.000000001
43
0.0000000001
44
0.0000000001
40
-1
40
-1
40
-1
40
-1
40
0
40
0
40
0
40
0
41
1
41
1
41
1
41
1
10
20.91604355871274
20
184.17586817900468
30
0
10
19.058668558712743
20
174.15874317900466
30
0
10
19.693668558712744
20
163.53836817900469
30
0
10
23.194106058712745
20
153.84668067900466
30
0
0
SPLINE
5
368
100
AcDbEntity
8
0
100
AcDbSpline
70
4
71
3
72
8
73
4
74
0
42
0.000000001
43
0.0000000001
44
0.0000000001
40
-1
40
-1
40
-1
40
-1
40
0
40
0
40
0
40
0
41
1
41
1
41
1
41
1
10
23.194106058712745
20
153.84668067900466
30
0
10
23.384606058712745
20
153.33074317900468
30
0
10
23.702106058712744
20
152.72749317900468
30
0
10
23.797356058712744
20
152.20361817900468
30
0
0
SPLINE
5
369
100
AcDbEntity
8
0
100
AcDbSpline
70
4
71
3
72
8
73
4
74
0
42
0.000000001
43
0.0000000001
44
0.0000000001
40
-1
40
-1
40
-1
40
-1
40
0
40
0
40
0
40
0
41
1
41
1
41
1
41
1
10
23.797356058712744
20
152.20361817900468
30
0
10
23.114731058712742
20
151.39399317900467
30
0
10
22.090793558712747
20
150.47324317900467
30
0
10
21.281168558712746
20
149.66361817900469
30
0
0
LINE
5
370
100
AcDbEntity
8
0
100
AcDbLine
10
21.28116855871275
20
149.66361817900469
30
0
11
18.884043558712747
21
147.20299317900466
31
0
0
LINE
5
371
100
AcDbEntity
8
0
100
AcDbLine
10
18.884043558712747
20
147.20299317900466
30
0
11
17.629918558712742
21
149.63186817900467
31
0
0
SPLINE
5
372
100
AcDbEntity
8
0
100
AcDbSpline
70
4
71
3
72
8
73
4
74
0
42
0.000000001
43
0.0000000001
44
0.0000000001
40
-1
40
-1
40
-1
40
-1
40
0
40
0
40
0
40
0
41
1
41
1
41
1
41
1
10
17.629918558712742
20
149.63186817900467
30
0
10
17.288606058712745
20
150.49705567900469
30
0
10
16.939356058712743
20
151.29080567900468
30
0
10
16.598043558712742
20
152.19568067900468
30
0
0
SPLINE
5
373
100
AcDbEntity
8
0
100
AcDbSpline
70
4
71
3
72
8
73
4
74
0
42
0.000000001
43
0.0000000001
44
0.0000000001
40
-1
40
-1
40
-1
40
-1
40
0
40
0
40
0
40
0
41
1
41
1
41
1
41
1
10
16.598043558712742
20
152.19568067900468
30
0
10
14.462856058712743
20
157.87099317900467
30
0
10
13.049981058712742
20
165.10205567900468
30
0
10
13.042043558712741
20
171.22186817900467
30
0
0
SPLINE
5
374
100
AcDbEntity
8
0
100
AcDbSpline
70
4
71
3
72
8
73
4
74
0
42
0.000000001
43
0.0000000001
44
0.0000000001
40
-1
40
-1
40
-1
40
-1
40
0
40
0
40
0
40
0
41
1
41
1
41
1
41
1
10
13.042043558712741
20
171.22186817900467
30
0
10
13.010293558712743
20
178.69105567900471
30
0
10
13.438918558712743
20
183.95361817900468
30
0
10
15.415356058712742
20
190.95449317900466
30
0
0
SPLINE
5
375
100
AcDbEntity
8
0
100
AcDbSpline
70
4
71
3
72
8
73
4
74
0
42
0.000000001
43
0.0000000001
44
0.0000000001
40
-1
40
-1
40
-1
40
-1
40
0
40
0
40
0
40
0
41
1
41
1
41
1
41
1
10
15.415356058712742
20
190.95449317900466
30
0
10
15.963043558712741
20
192.8991806790047
30
0
10
16.598043558712742
20
194.66924317900467
30
0
10
17.272731058712743
20
196.55836817900467
30
0
0
SPLINE
5
376
100
AcDbEntity
8
0
100
AcDbSpline
70
4
71
3
72
8
73
4
74
0
42
0.000000001
43
0.0000000001
44
0.0000000001
40
-1
40
-1
40
-1
40
-1
40
0
40
0
40
0
40
0
41
1
41
1
41
1
41
1
10
17.272731058712743
20
196.55836817900467
30
0
10
18.106168558712742
20
198.89199317900471
30
0
10
19.701606058712745
20
202.12255567900468
30
0
10
20.91604355871274
20
204.26568067900467
30
0
0
SPLINE
5
377
100
AcDbEntity
8
0
100
AcDbSpline
70
4
71
3
72
8
73
4
74
0
42
0.000000001
43
0.0000000001
44
0.0000000001
40
-1
40
-1
40
-1
40
-1
40
0
40
0
40
0
40
0
41
1
41
1
41
1
41
1
10
20.91604355871274
20
204.26568067900467
30
0
10
21.376418558712746
20
205.06736817900469
30
0
10
21.789168558712745
20
205.75793067900469
30
0
10
22.281293558712743
20
206.59136817900469
30
0
0
SPLINE
5
378
100
AcDbEntity
8
0
100
AcDbSpline
70
4
71
3
72
8
73
4
74
0
42
0.000000001
43
0.0000000001
44
0.0000000001
40
-1
40
-1
40
-1
40
-1
40
0
40
0
40
0
40
0
41
1
41
1
41
1
41
1
10
22.281293558712743
20
206.59136817900469
30
0
10
22.384481058712744
20
206.77393067900468
30
0
10
22.471793558712744
20
206.96443067900469
30
0
10
22.622606058712744
20
207.22636817900468
30
0
0
LINE
5
379
100
AcDbEntity
8
0
100
AcDbLine
10
22.622606058712744
20
207.22636817900468
30
0
11
23.749731058712747
21
208.90118067900471
31
0
0
SPLINE
5
380
100
AcDbEntity
8
0
100
AcDbSpline
70
4
71
3
72
8
73
4
74
0
42
0.000000001
43
0.0000000001
44
0.0000000001
40
-1
40
-1
40
-1
40
-1
40
0
40
0
40
0
40
0
41
1
41
1
41
1
41
1
10
23.74973105871274
20
208.90118067900465
30
0
10
23.995793558712744
20
209.24249317900467
30
0
10
24.289481058712745
20
209.57586817900471
30
0
10
24.551418558712747
20
209.94893067900466
30
0
0
LINE
5
381
100
AcDbEntity
8
0
100
AcDbLine
10
24.551418558712747
20
209.94893067900463
30
0
11
28.829731058712746
21
214.94955567900465
31
0
0
SPLINE
5
382
100
AcDbEntity
8
0
100
AcDbSpline
70
4
71
3
72
8
73
4
74
0
42
0.000000001
43
0.0000000001
44
0.0000000001
40
-1
40
-1
40
-1
40
-1
40
0
40
0
40
0
40
0
41
1
41
1
41
1
41
1
10
28.829731058712742
20
214.94955567900467
30
0
10
29.607606058712747
20
214.2828056790047
30
0
10
30.210856058712743
20
213.1398056790047
30
0
10
30.774418558712746
20
212.08411817900469
30
0
0
SPLINE
5
383
100
AcDbEntity
8
0
100
AcDbSpline
70
4
71
3
72
8
73
4
74
0
42
0.000000001
43
0.0000000001
44
0.0000000001
40
-1
40
-1
40
-1
40
-1
40
0
40
0
40
0
40
0
41
1
41
1
41
1
41
1
10
30.774418558712746
20
212.08411817900469
30
0
10
31.607856058712748
20
210.5283681790047
30
0
10
31.838043558712744
20
210.39343067900467
30
0
10
32.766731058712743
20
209.25836817900466
30
0
0
SPLINE
5
384
100
AcDbEntity
8
0
100
AcDbSpline
70
4
71
3
72
8
73
4
74
0
42
0.000000001
43
0.0000000001
44
0.0000000001
40
-1
40
-1
40
-1
40
-1
40
0
40
0
40
0
40
0
41
1
41
1
41
1
41
1
10
32.766731058712743
20
209.25836817900466
30
0
10
32.592106058712744
20
208.96468067900469
30
0
10
31.988856058712742
20
208.36936817900468
30
0
10
31.703106058712748
20
208.03599317900466
30
0
0
SPLINE
5
385
100
AcDbEntity
8
0
100
AcDbSpline
70
4
71
3
72
8
73
4
74
0
42
0.000000001
43
0.0000000001
44
0.0000000001
40
-1
40
-1
40
-1
40
-1
40
0
40
0
40
0
40
0
41
1
41
1
41
1
41
1
10
31.703106058712748
20
208.03599317900466
30
0
10
30.988731058712744
20
207.17080567900467
30
0
10
29.440918558712745
20
204.79749317900468
30
0
10
28.790043558712743
20
203.9640556790047
30
0
0
LINE
5
386
100
AcDbEntity
8
0
100
AcDbLine
10
28.790043558712743
20
203.96405567900473
30
0
11
27.456543558712742
21
201.79711817900468
31
0
0
SPLINE
5
387
100
AcDbEntity
8
0
100
AcDbSpline
70
4
71
3
72
8
73
4
74
0
42
0.000000001
43
0.0000000001
44
0.0000000001
40
-1
40
-1
40
-1
40
-1
40
0
40
0
40
0
40
0
41
1
41
1
41
1
41
1
10
27.456543558712745
20
201.79711817900468
30
0
10
25.424543558712745
20
198.11411817900466
30
0
10
24.218043558712743
20
195.81224317900467
30
0
10
22.79723105871274
20
191.52599317900467
30
0
0
SPLINE
5
388
100
AcDbEntity
8
0
100
AcDbSpline
70
4
71
3
72
8
73
4
74
0
42
0.000000001
43
0.0000000001
44
0.0000000001
40
-1
40
-1
40
-1
40
-1
40
0
40
0
40
0
40
0
41
1
41
1
41
1
41
1
10
22.79723105871274
20
191.52599317900467
30
0
10
22.241606058712744
20
189.83530567900465
30
0
10
22.193981058712744
20
189.43049317900466
30
0
10
21.757418558712747
20
187.89855567900469
30
0
0
SPLINE
5
389
100
AcDbEntity
8
0
100
AcDbSpline
70
4
71
3
72
8
73
4
74
0
42
0.000000001
43
0.0000000001
44
0.0000000001
40
-1
40
-1
40
-1
40
-1
40
0
40
0
40
0
40
0
41
1
41
1
41
1
41
1
10
21.757418558712747
20
187.89855567900469
30
0
10
21.431981058712744
20
186.7317431790047
30
0
10
21.15416855871274
20
185.43793067900467
30
0
10
20.91604355871274
20
184.17586817900468
30
0
0
SPLINE
5
390
100
AcDbEntity
8
0
100
AcDbSpline
70
4
71
3
72
8
73
4
74
0
42
0.000000001
43
0.0000000001
44
0.0000000001
40
-1
40
-1
40
-1
40
-1
40
0
40
0
40
0
40
0
41
1
41
1
41
1
41
1
10
114.25310605871275
20
212.48893067900468
30
0
10
114.07054355871276
20
212.71911817900468
30
0
10
114.09435605871275
20
212.75880567900469
30
0
10
113.88798105871275
20
212.99693067900466
30
0
0
LINE
5
391
100
AcDbEntity
8
0
100
AcDbLine
10
113.88798105871277
20
212.99693067900466
30
0
11
113.17360605871275
21
213.64780567900468
31
0
0
SPLINE
5
392
100
AcDbEntity
8
0
100
AcDbSpline
70
4
71
3
72
8
73
4
74
0
42
0.000000001
43
0.0000000001
44
0.0000000001
40
0
40
0
40
0
40
0
40
0.49999999994798944
40
0.49999999994798944
40
0.49999999994798944
40
0.49999999994798944
41
1
41
1
41
1
41
1
10
113.17360605871275
20
213.64780567900468
30
0
10
113.16566855871358
20
213.65574317900385
30
0
10
113.15574668371482
20
213.66368067900305
30
0
10
113.14582480871586
20
213.67161817900222
30
0
0
LINE
5
393
100
AcDbEntity
8
0
100
AcDbLine
10
113.14582480871586
20
213.67161817900225
30
0
11
113.11804355871277
21
213.69543067900474
31
0
0
LINE
5
394
100
AcDbEntity
8
0
100
AcDbLine
10
113.11804355871277
20
213.69543067900474
30
0
11
113.01485605871277
21
213.78274317900468
31
0
0
SPLINE
5
395
100
AcDbEntity
8
0
100
AcDbSpline
70
4
71
3
72
8
73
4
74
0
42
0.000000001
43
0.0000000001
44
0.0000000001
40
-1
40
-1
40
-1
40
-1
40
0
40
0
40
0
40
0
41
1
41
1
41
1
41
1
10
113.01485605871275
20
213.78274317900468
30
0
10
112.65766855871276
20
214.07643067900469
30
0
10
111.87979355871276
20
215.10036817900468
30
0
10
111.22098105871275
20
215.57661817900467
30
0
0
SPLINE
5
396
100
AcDbEntity
8
0
100
AcDbSpline
70
4
71
3
72
8
73
4
74
0
42
0.000000001
43
0.0000000001
44
0.0000000001
40
-1
40
-1
40
-1
40
-1
40
0
40
0
40
0
40
0
41
1
41
1
41
1
41
1
10
111.22098105871275
20
215.57661817900467
30
0
10
110.95110605871275
20
215.77505567900465
30
0
10
110.97491855871276
20
215.71155567900468
30
0
10
110.72091855871275
20
215.94968067900467
30
0
0
SPLINE
5
397
100
AcDbEntity
8
0
100
AcDbSpline
70
4
71
3
72
8
73
4
74
0
42
0.000000001
43
0.0000000001
44
0.0000000001
40
-1
40
-1
40
-1
40
-1
40
0
40
0
40
0
40
0
41
1
41
1
41
1
41
1
10
110.72091855871275
20
215.94968067900467
30
0
10
108.64129355871276
20
217.93405567900467
30
0
10
105.09323105871275
20
220.41849317900468
30
0
10
102.68023105871276
20
221.87899317900468
30
0
0
SPLINE
5
398
100
AcDbEntity
8
0
100
AcDbSpline
70
4
71
3
72
8
73
4
74
0
42
0.000000001
43
0.0000000001
44
0.0000000001
40
-1
40
-1
40
-1
40
-1
40
0
40
0
40
0
40
0
41
1
41
1
41
1
41
1
10
102.68023105871276
20
221.87899317900468
30
0
10
99.743356058712749
20
223.67286817900467
30
0
10
96.354043558712746
20
225.19686817900467
30
0
10
93.123481058712741
20
226.28430567900469
30
0
0
SPLINE
5
399
100
AcDbEntity
8
0
100
AcDbSpline
70
4
71
3
72
8
73
4
74
0
42
0.000000001
43
0.0000000001
44
0.0000000001
40
-1
40
-1
40
-1
40
-1
40
0
40
0
40
0
40
0
41
1
41
1
41
1
41
1
10
93.123481058712741
20
226.28430567900469
30
0
10
91.416918558712752
20
226.8637431790047
30
0
10
90.099293558712759
20
227.2526806790047
30
0
10
88.360981058712753
20
227.64161817900469
30
0
0
LINE
5
400
100
AcDbEntity
8
0
100
AcDbLine
10
88.360981058712753
20
227.64161817900472
30
0
11
87.678356058712765
21
227.84005567900468
31
0
0
SPLINE
5
401
100
AcDbEntity
8
0
100
AcDbSpline
70
4
71
3
72
8
73
4
74
0
42
0.000000001
43
0.0000000001
44
0.0000000001
40
-1
40
-1
40
-1
40
-1
40
0
40
0
40
0
40
0
41
1
41
1
41
1
41
1
10
87.678356058712751
20
227.84005567900468
30
0
10
87.321168558712756
20
228.19724317900469
30
0
10
87.344981058712747
20
230.95155567900468
30
0
10
84.193793558712741
20
234.15830567900468
30
0
0
SPLINE
5
402
100
AcDbEntity
8
0
100
AcDbSpline
70
4
71
3
72
8
73
4
74
0
42
0.000000001
43
0.0000000001
44
0.0000000001
40
-1
40
-1
40
-1
40
-1
40
0
40
0
40
0
40
0
41
1
41
1
41
1
41
1
10
84.193793558712741
20
234.15830567900468
30
0
10
82.98729355871275
20
235.38861817900468
30
0
10
82.455481058712763
20
235.32511817900468
30
0
10
82.407856058712738
20
235.35686817900469
30
0
0
SPLINE
5
403
100
AcDbEntity
8
0
100
AcDbSpline
70
4
71
3
72
8
73
4
74
0
42
0.000000001
43
0.0000000001
44
0.0000000001
40
-1
40
-1
40
-1
40
-1
40
0
40
0
40
0
40
0
41
1
41
1
41
1
41
1
10
82.407856058712738
20
235.35686817900469
30
0
10
84.836731058712758
20
235.60293067900466
30
0
10
93.869606058712748
20
232.8883056790047
30
0
10
96.084168558712747
20
232.07868067900466
30
0
0
SPLINE
5
404
100
AcDbEntity
8
0
100
AcDbSpline
70
4
71
3
72
8
73
4
74
0
42
0.000000001
43
0.0000000001
44
0.0000000001
40
-1
40
-1
40
-1
40
-1
40
0
40
0
40
0
40
0
41
1
41
1
41
1
41
1
10
96.084168558712747
20
232.07868067900466
30
0
10
100.03704355871275
20
230.63405567900469
30
0
10
104.29154355871275
20
228.74493067900465
30
0
10
107.69673105871276
20
226.50655567900469
30
0
0
SPLINE
5
405
100
AcDbEntity
8
0
100
AcDbSpline
70
4
71
3
72
8
73
4
74
0
42
0.000000001
43
0.0000000001
44
0.0000000001
40
-1
40
-1
40
-1
40
-1
40
0
40
0
40
0
40
0
41
1
41
1
41
1
41
1
10
107.69673105871276
20
226.50655567900469
30
0
10
109.43504355871275
20
225.35561817900469
30
0
10
111.18129355871275
20
224.33961817900467
30
0
10
112.77673105871274
20
222.95055567900471
30
0
0
LINE
5
406
100
AcDbEntity
8
0
100
AcDbLine
10
112.77673105871273
20
222.95055567900471
30
0
11
122.65098105871274
21
213.5208056790047
31
0
0
SPLINE
5
407
100
AcDbEntity
8
0
100
AcDbSpline
70
4
71
3
72
8
73
4
74
0
42
0.000000001
43
0.0000000001
44
0.0000000001
40
-1
40
-1
40
-1
40
-1
40
0
40
0
40
0
40
0
41
1
41
1
41
1
41
1
10
122.65098105871274
20
213.5208056790047
30
0
10
123.58760605871275
20
212.4413056790047
30
0
10
124.69091855871275
20
211.18718067900465
30
0
10
125.43704355871276
20
209.97274317900468
30
0
0
SPLINE
5
408
100
AcDbEntity
8
0
100
AcDbSpline
70
4
71
3
72
8
73
4
74
0
42
0.000000001
43
0.0000000001
44
0.0000000001
40
-1
40
-1
40
-1
40
-1
40
0
40
0
40
0
40
0
41
1
41
1
41
1
41
1
10
125.43704355871276
20
209.97274317900468
30
0
10
124.28610605871276
20
208.40905567900467
30
0
10
123.87335605871274
20
208.25824317900469
30
0
10
123.12723105871274
20
207.34543067900466
30
0
0
SPLINE
5
409
100
AcDbEntity
8
0
100
AcDbSpline
70
4
71
3
72
8
73
4
74
0
42
0.000000001
43
0.0000000001
44
0.0000000001
40
-1
40
-1
40
-1
40
-1
40
0
40
0
40
0
40
0
41
1
41
1
41
1
41
1
10
123.12723105871274
20
207.34543067900466
30
0
10
122.37316855871276
20
206.41674317900467
30
0
10
122.10329355871275
20
206.24211817900465
30
0
10
121.27779355871276
20
205.40074317900468
30
0
0
SPLINE
5
410
100
AcDbEntity
8
0
100
AcDbSpline
70
4
71
3
72
8
73
4
74
0
42
0.000000001
43
0.0000000001
44
0.0000000001
40
-1
40
-1
40
-1
40
-1
40
0
40
0
40
0
40
0
41
1
41
1
41
1
41
1
10
121.27779355871276
20
205.40074317900468
30
0
10
120.96029355871275
20
205.08324317900468
30
0
10
120.96823105871275
20
205.01180567900468
30
0
10
120.62691855871276
20
204.85305567900468
30
0
0
SPLINE
5
411
100
AcDbEntity
8
0
100
AcDbSpline
70
4
71
3
72
8
73
4
74
0
42
0.000000001
43
0.0000000001
44
0.0000000001
40
-1
40
-1
40
-1
40
-1
40
0
40
0
40
0
40
0
41
1
41
1
41
1
41
1
10
120.62691855871276
20
204.85305567900468
30
0
10
120.34910605871275
20
205.08324317900468
30
0
10
120.39673105871275
20
205.05943067900466
30
0
10
120.21416855871274
20
205.35311817900467
30
0
0
SPLINE
5
412
100
AcDbEntity
8
0
100
AcDbSpline
70
4
71
3
72
8
73
4
74
0
42
0.000000001
43
0.0000000001
44
0.0000000001
40
-1
40
-1
40
-1
40
-1
40
0
40
0
40
0
40
0
41
1
41
1
41
1
41
1
10
120.21416855871274
20
205.35311817900467
30
0
10
119.65060605871275
20
206.2579931790047
30
0
10
118.99973105871275
20
207.03586817900469
30
0
10
118.32504355871276
20
207.82961817900468
30
0
0
SPLINE
5
413
100
AcDbEntity
8
0
100
AcDbSpline
70
4
71
3
72
8
73
4
74
0
42
0.000000001
43
0.0000000001
44
0.0000000001
40
-1
40
-1
40
-1
40
-1
40
0
40
0
40
0
40
0
41
1
41
1
41
1
41
1
10
118.32504355871276
20
207.82961817900468
30
0
10
117.99166855871276
20
208.21855567900468
30
0
10
117.88848105871276
20
208.44080567900471
30
0
10
117.56304355871276
20
208.82180567900468
30
0
0
SPLINE
5
414
100
AcDbEntity
8
0
100
AcDbSpline
70
4
71
3
72
8
73
4
74
0
42
0.000000001
43
0.0000000001
44
0.0000000001
40
-1
40
-1
40
-1
40
-1
40
0
40
0
40
0
40
0
41
1
41
1
41
1
41
1
10
117.56304355871276
20
208.82180567900468
30
0
10
116.97566855871274
20
209.51236817900468
30
0
10
116.55498105871276
20
210.06005567900468
30
0
10
115.95966855871275
20
210.70299317900466
30
0
0
LINE
5
415
100
AcDbEntity
8
0
100
AcDbLine
10
115.95966855871275
20
210.70299317900464
30
0
11
114.25310605871275
21
212.48893067900468
31
0
0
SPLINE
5
416
100
AcDbEntity
8
0
100
AcDbSpline
70
4
71
3
72
8
73
4
74
0
42
0.000000001
43
0.0000000001
44
0.0000000001
40
-1
40
-1
40
-1
40
-1
40
0
40
0
40
0
40
0
41
1
41
1
41
1
41
1
10
42.680668558712746
20
189.36699317900468
30
0
10
42.426668558712741
20
188.81136817900469
30
0
10
38.870668558712744
20
185.07280567900466
30
0
10
38.045168558712746
20
184.46161817900469
30
0
0
SPLINE
5
417
100
AcDbEntity
8
0
100
AcDbSpline
70
4
71
3
72
8
73
4
74
0
42
0.000000001
43
0.0000000001
44
0.0000000001
40
-1
40
-1
40
-1
40
-1
40
0
40
0
40
0
40
0
41
1
41
1
41
1
41
1
10
38.045168558712746
20
184.46161817900469
30
0
10
37.600668558712741
20
184.78705567900471
30
0
10
37.084731058712748
20
185.39824317900468
30
0
10
36.600543558712744
20
185.88243067900467
30
0
0
SPLINE
5
418
100
AcDbEntity
8
0
100
AcDbSpline
70
4
71
3
72
8
73
4
74
0
42
0.000000001
43
0.0000000001
44
0.0000000001
40
-1
40
-1
40
-1
40
-1
40
0
40
0
40
0
40
0
41
1
41
1
41
1
41
1
10
36.600543558712744
20
185.88243067900467
30
0
10
36.116356058712746
20
186.36661817900466
30
0
10
35.624231058712745
20
186.85080567900468
30
0
10
35.132106058712743
20
187.32705567900467
30
0
0
SPLINE
5
419
100
AcDbEntity
8
0
100
AcDbSpline
70
4
71
3
72
8
73
4
74
0
42
0.000000001
43
0.0000000001
44
0.0000000001
40
-1
40
-1
40
-1
40
-1
40
0
40
0
40
0
40
0
41
1
41
1
41
1
41
1
10
35.132106058712743
20
187.32705567900467
30
0
10
34.195481058712744
20
188.2557431790047
30
0
10
33.163606058712745
20
189.33524317900466
30
0
10
32.290481058712743
20
190.20836817900465
30
0
0
SPLINE
5
420
100
AcDbEntity
8
0
100
AcDbSpline
70
4
71
3
72
8
73
4
74
0
42
0.000000001
43
0.0000000001
44
0.0000000001
40
-1
40
-1
40
-1
40
-1
40
0
40
0
40
0
40
0
41
1
41
1
41
1
41
1
10
32.290481058712743
20
190.20836817900465
30
0
10
30.917293558712746
20
191.58155567900468
30
0
10
27.591481058712741
20
194.78036817900465
30
0
10
26.535793558712744
20
195.97893067900469
30
0
0
SPLINE
5
421
100
AcDbEntity
8
0
100
AcDbSpline
70
4
71
3
72
8
73
4
74
0
42
0.000000001
43
0.0000000001
44
0.0000000001
40
-1
40
-1
40
-1
40
-1
40
0
40
0
40
0
40
0
41
1
41
1
41
1
41
1
10
26.535793558712744
20
195.97893067900469
30
0
10
26.662793558712746
20
196.38374317900468
30
0
10
27.115231058712741
20
197.1060556790047
30
0
10
27.353356058712741
20
197.54261817900468
30
0
0
SPLINE
5
422
100
AcDbEntity
8
0
100
AcDbSpline
70
4
71
3
72
8
73
4
74
0
42
0.000000001
43
0.0000000001
44
0.0000000001
40
-1
40
-1
40
-1
40
-1
40
0
40
0
40
0
40
0
41
1
41
1
41
1
41
1
10
27.353356058712741
20
197.54261817900468
30
0
10
27.734356058712741
20
198.2569931790047
30
0
10
29.655231058712744
20
201.7653681790047
30
0
10
29.774293558712746
20
202.20986817900467
30
0
0
SPLINE
5
423
100
AcDbEntity
8
0
100
AcDbSpline
70
4
71
3
72
8
73
4
74
0
42
0.000000001
43
0.0000000001
44
0.0000000001
40
-1
40
-1
40
-1
40
-1
40
0
40
0
40
0
40
0
41
1
41
1
41
1
41
1
10
29.774293558712746
20
202.20986817900467
30
0
10
30.202918558712746
20
201.95586817900471
30
0
10
35.775043558712746
20
196.28055567900469
30
0
10
36.290981058712745
20
195.76461817900469
30
0
0
SPLINE
5
424
100
AcDbEntity
8
0
100
AcDbSpline
70
4
71
3
72
8
73
4
74
0
42
0.000000001
43
0.0000000001
44
0.0000000001
40
-1
40
-1
40
-1
40
-1
40
0
40
0
40
0
40
0
41
1
41
1
41
1
41
1
10
36.290981058712745
20
195.76461817900469
30
0
10
37.386356058712742
20
194.66924317900467
30
0
10
38.370606058712745
20
193.58180567900467
30
0
10
39.473918558712747
20
192.54199317900469
30
0
0
SPLINE
5
425
100
AcDbEntity
8
0
100
AcDbSpline
70
4
71
3
72
8
73
4
74
0
42
0.000000001
43
0.0000000001
44
0.0000000001
40
-1
40
-1
40
-1
40
-1
40
0
40
0
40
0
40
0
41
1
41
1
41
1
41
1
10
39.473918558712747
20
192.54199317900469
30
0
10
40.585168558712752
20
191.48630567900469
30
0
10
41.664668558712741
20
190.44649317900468
30
0
10
42.680668558712746
20
189.36699317900468
30
0
0
SPLINE
5
426
100
AcDbEntity
8
0
100
AcDbSpline
70
4
71
3
72
8
73
4
74
0
42
0.000000001
43
0.0000000001
44
0.0000000001
40
-1
40
-1
40
-1
40
-1
40
0
40
0
40
0
40
0
41
1
41
1
41
1
41
1
10
50.618168558712746
20
223.66493067900467
30
0
10
49.06241855871275
20
222.86324317900468
30
0
10
45.665168558712743
20
221.02968067900468
30
0
10
44.307856058712751
20
219.9898681790047
30
0
0
SPLINE
5
427
100
AcDbEntity
8
0
100
AcDbSpline
70
4
71
3
72
8
73
4
74
0
42
0.000000001
43
0.0000000001
44
0.0000000001
40
-1
40
-1
40
-1
40
-1
40
0
40
0
40
0
40
0
41
1
41
1
41
1
41
1
10
44.307856058712751
20
219.9898681790047
30
0
10
43.934793558712748
20
219.6961806790047
30
0
10
43.561731058712745
20
219.46599317900467
30
0
10
43.156918558712746
20
219.18818067900469
30
0
0
SPLINE
5
428
100
AcDbEntity
8
0
100
AcDbSpline
70
4
71
3
72
8
73
4
74
0
42
0.000000001
43
0.0000000001
44
0.0000000001
40
-1
40
-1
40
-1
40
-1
40
0
40
0
40
0
40
0
41
1
41
1
41
1
41
1
10
43.156918558712746
20
219.18818067900469
30
0
10
42.791793558712747
20
218.9341806790047
30
0
10
42.386981058712749
20
218.65636817900469
30
0
10
42.013918558712746
20
218.3944306790047
30
0
0
SPLINE
5
429
100
AcDbEntity
8
0
100
AcDbSpline
70
4
71
3
72
8
73
4
74
0
42
0.000000001
43
0.0000000001
44
0.0000000001
40
-1
40
-1
40
-1
40
-1
40
0
40
0
40
0
40
0
41
1
41
1
41
1
41
1
10
42.013918558712746
20
218.3944306790047
30
0
10
41.577356058712745
20
218.0928056790047
30
0
10
41.347168558712745
20
217.7038681790047
30
0
10
40.815356058712744
20
217.56099317900467
30
0
0
SPLINE
5
430
100
AcDbEntity
8
0
100
AcDbSpline
70
4
71
3
72
8
73
4
74
0
42
0.000000001
43
0.0000000001
44
0.0000000001
40
-1
40
-1
40
-1
40
-1
40
0
40
0
40
0
40
0
41
1
41
1
41
1
41
1
10
40.815356058712744
20
217.56099317900467
30
0
10
40.561356058712747
20
218.4579306790047
30
0
10
37.981668558712741
20
222.21236817900467
30
0
10
37.680043558712747
20
223.23630567900469
30
0
0
SPLINE
5
431
100
AcDbEntity
8
0
100
AcDbSpline
70
4
71
3
72
8
73
4
74
0
42
0.000000001
43
0.0000000001
44
0.0000000001
40
-1
40
-1
40
-1
40
-1
40
0
40
0
40
0
40
0
41
1
41
1
41
1
41
1
10
37.680043558712747
20
223.23630567900469
30
0
10
39.307231058712745
20
224.59361817900469
30
0
10
42.458418558712751
20
226.73674317900466
30
0
10
44.172918558712752
20
227.68924317900468
30
0
0
SPLINE
5
432
100
AcDbEntity
8
0
100
AcDbSpline
70
4
71
3
72
8
73
4
74
0
42
0.000000001
43
0.0000000001
44
0.0000000001
40
-1
40
-1
40
-1
40
-1
40
0
40
0
40
0
40
0
41
1
41
1
41
1
41
1
10
44.172918558712752
20
227.68924317900468
30
0
10
45.323856058712749
20
228.32424317900467
30
0
10
46.474793558712747
20
228.95924317900469
30
0
10
47.705106058712744
20
229.58630567900468
30
0
0
SPLINE
5
433
100
AcDbEntity
8
0
100
AcDbSpline
70
4
71
3
72
8
73
4
74
0
42
0.000000001
43
0.0000000001
44
0.0000000001
40
-1
40
-1
40
-1
40
-1
40
0
40
0
40
0
40
0
41
1
41
1
41
1
41
1
10
47.705106058712744
20
229.58630567900468
30
0
10
48.903668558712745
20
230.18955567900468
30
0
10
50.126043558712745
20
230.74518067900468
30
0
10
51.42779355871275
20
231.30080567900467
30
0
0
SPLINE
5
434
100
AcDbEntity
8
0
100
AcDbSpline
70
4
71
3
72
8
73
4
74
0
42
0.000000001
43
0.0000000001
44
0.0000000001
40
-1
40
-1
40
-1
40
-1
40
0
40
0
40
0
40
0
41
1
41
1
41
1
41
1
10
51.42779355871275
20
231.30080567900467
30
0
10
55.261606058712751
20
232.95180567900471
30
0
10
59.817731058712752
20
234.34086817900467
30
0
10
64.064293558712748
20
235.07111817900469
30
0
0
SPLINE
5
435
100
AcDbEntity
8
0
100
AcDbSpline
70
4
71
3
72
8
73
4
74
0
42
0.000000001
43
0.0000000001
44
0.0000000001
40
-1
40
-1
40
-1
40
-1
40
0
40
0
40
0
40
0
41
1
41
1
41
1
41
1
10
64.064293558712748
20
235.07111817900469
30
0
10
65.596231058712746
20
235.3409931790047
30
0
10
67.215481058712754
20
235.48386817900467
30
0
10
68.755356058712749
20
235.80136817900467
30
0
0
SPLINE
5
436
100
AcDbEntity
8
0
100
AcDbSpline
70
4
71
3
72
8
73
4
74
0
42
0.000000001
43
0.0000000001
44
0.0000000001
40
-1
40
-1
40
-1
40
-1
40
0
40
0
40
0
40
0
41
1
41
1
41
1
41
1
10
68.755356058712749
20
235.80136817900467
30
0
10
69.866606058712748
20
236.0315556790047
30
0
10
72.660606058712744
20
236.1109306790047
30
0
10
73.668668558712753
20
236.07918067900468
30
0
0
SPLINE
5
437
100
AcDbEntity
8
0
100
AcDbSpline
70
4
71
3
72
8
73
4
74
0
42
0.000000001
43
0.0000000001
44
0.0000000001
40
-1
40
-1
40
-1
40
-1
40
0
40
0
40
0
40
0
41
1
41
1
41
1
41
1
10
73.668668558712753
20
236.07918067900468
30
0
10
75.581606058712751
20
236.00774317900471
30
0
10
76.780168558712745
20
235.80930567900469
30
0
10
78.327981058712751
20
235.27749317900469
30
0
0
SPLINE
5
438
100
AcDbEntity
8
0
100
AcDbSpline
70
4
71
3
72
8
73
4
74
0
42
0.000000001
43
0.0000000001
44
0.0000000001
40
-1
40
-1
40
-1
40
-1
40
0
40
0
40
0
40
0
41
1
41
1
41
1
41
1
10
78.327981058712751
20
235.27749317900469
30
0
10
80.915606058712768
20
234.38849317900468
30
0
10
82.177668558712753
20
233.32486817900468
30
0
10
83.947731058712748
20
231.38811817900466
30
0
0
SPLINE
5
439
100
AcDbEntity
8
0
100
AcDbSpline
70
4
71
3
72
8
73
4
74
0
42
0.000000001
43
0.0000000001
44
0.0000000001
40
-1
40
-1
40
-1
40
-1
40
0
40
0
40
0
40
0
41
1
41
1
41
1
41
1
10
83.947731058712748
20
231.38811817900466
30
0
10
86.702043558712745
20
228.3798056790047
30
0
10
87.257668558712737
20
221.5932431790047
30
0
10
83.939793558712736
20
218.29124317900468
30
0
0
LINE
5
440
100
AcDbEntity
8
0
100
AcDbLine
10
83.939793558712736
20
218.29124317900468
30
0
11
82.661856058712729
21
216.8545556790047
31
0
0
SPLINE
5
441
100
AcDbEntity
8
0
100
AcDbSpline
70
4
71
3
72
8
73
4
74
0
42
0.000000001
43
0.0000000001
44
0.0000000001
40
-1
40
-1
40
-1
40
-1
40
0
40
0
40
0
40
0
41
1
41
1
41
1
41
1
10
82.661856058712743
20
216.8545556790047
30
0
10
82.328481058712754
20
216.53705567900465
30
0
10
81.542668558712734
20
215.73536817900469
30
0
10
81.352168558712748
20
215.44961817900469
30
0
0
SPLINE
5
442
100
AcDbEntity
8
0
100
AcDbSpline
70
4
71
3
72
8
73
4
74
0
42
0.000000001
43
0.0000000001
44
0.0000000001
40
-1
40
-1
40
-1
40
-1
40
0
40
0
40
0
40
0
41
1
41
1
41
1
41
1
10
81.352168558712748
20
215.44961817900469
30
0
10
80.780668558712733
20
215.58455567900467
30
0
10
80.328231058712745
20
216.08461817900468
30
0
10
79.955168558712742
20
216.42593067900467
30
0
0
LINE
5
443
100
AcDbEntity
8
0
100
AcDbLine
10
79.955168558712742
20
216.42593067900464
30
0
11
76.494418558712752
21
219.83905567900467
31
0
0
SPLINE
5
444
100
AcDbEntity
8
0
100
AcDbSpline
70
4
71
3
72
8
73
4
74
0
42
0.000000001
43
0.0000000001
44
0.0000000001
40
-1
40
-1
40
-1
40
-1
40
0
40
0
40
0
40
0
41
1
41
1
41
1
41
1
10
76.494418558712752
20
219.83905567900467
30
0
10
76.637293558712742
20
220.0692431790047
30
0
10
76.796043558712753
20
220.19624317900468
30
0
10
76.954793558712751
20
220.42643067900468
30
0
0
SPLINE
5
445
100
AcDbEntity
8
0
100
AcDbSpline
70
4
71
3
72
8
73
4
74
0
42
0.000000001
43
0.0000000001
44
0.0000000001
40
-1
40
-1
40
-1
40
-1
40
0
40
0
40
0
40
0
41
1
41
1
41
1
41
1
10
76.954793558712751
20
220.42643067900468
30
0
10
77.613606058712747
20
221.32336817900469
30
0
10
77.653293558712747
20
221.1408056790047
30
0
10
78.35973105871274
20
221.93455567900469
30
0
0
SPLINE
5
446
100
AcDbEntity
8
0
100
AcDbSpline
70
4
71
3
72
8
73
4
74
0
42
0.000000001
43
0.0000000001
44
0.0000000001
40
-1
40
-1
40
-1
40
-1
40
0
40
0
40
0
40
0
41
1
41
1
41
1
41
1
10
78.35973105871274
20
221.93455567900469
30
0
10
78.693106058712743
20
222.30761817900469
30
0
10
78.978856058712751
20
222.54574317900466
30
0
10
79.232856058712741
20
223.10136817900468
30
0
0
SPLINE
5
447
100
AcDbEntity
8
0
100
AcDbSpline
70
4
71
3
72
8
73
4
74
0
42
0.000000001
43
0.0000000001
44
0.0000000001
40
-1
40
-1
40
-1
40
-1
40
0
40
0
40
0
40
0
41
1
41
1
41
1
41
1
10
79.232856058712741
20
223.10136817900468
30
0
10
79.701168558712752
20
224.13324317900469
30
0
10
79.494793558712743
20
226.53036817900468
30
0
10
78.669293558712752
20
227.76068067900468
30
0
0
SPLINE
5
448
100
AcDbEntity
8
0
100
AcDbSpline
70
4
71
3
72
8
73
4
74
0
42
0.000000001
43
0.0000000001
44
0.0000000001
40
-1
40
-1
40
-1
40
-1
40
0
40
0
40
0
40
0
41
1
41
1
41
1
41
1
10
78.669293558712752
20
227.76068067900468
30
0
10
76.35948105871276
20
231.19761817900468
30
0
10
65.477168558712748
20
228.64174317900466
30
0
10
62.310106058712748
20
227.89561817900471
30
0
0
SPLINE
5
449
100
AcDbEntity
8
0
100
AcDbSpline
70
4
71
3
72
8
73
4
74
0
42
0.000000001
43
0.0000000001
44
0.0000000001
40
-1
40
-1
40
-1
40
-1
40
0
40
0
40
0
40
0
41
1
41
1
41
1
41
1
10
62.310106058712748
20
227.89561817900471
30
0
10
58.333418558712751
20
226.95899317900469
30
0
10
54.078918558712743
20
225.45880567900468
30
0
10
50.618168558712746
20
223.66493067900467
30
0
0
LINE
5
450
100
AcDbEntity
8
0
100
AcDbLine
10
43.101356058712746
20
170.54718067900467
30
0
11
40.362918558712749
21
168.32468067900467
31
0
0
SPLINE
5
451
100
AcDbEntity
8
0
100
AcDbSpline
70
4
71
3
72
8
73
4
74
0
42
0.000000001
43
0.0000000001
44
0.0000000001
40
-1
40
-1
40
-1
40
-1
40
0
40
0
40
0
40
0
41
1
41
1
41
1
41
1
10
40.362918558712749
20
168.32468067900467
30
0
10
40.188293558712743
20
168.1818056790047
30
0
10
40.108918558712752
20
168.14211817900468
30
0
10
39.973981058712745
20
168.03893067900469
30
0
0
SPLINE
5
452
100
AcDbEntity
8
0
100
AcDbSpline
70
4
71
3
72
8
73
4
74
0
42
0.000000001
43
0.0000000001
44
0.0000000001
40
-1
40
-1
40
-1
40
-1
40
0
40
0
40
0
40
0
41
1
41
1
41
1
41
1
10
39.973981058712745
20
168.03893067900469
30
0
10
39.521543558712743
20
167.67380567900466
30
0
10
38.195981058712746
20
166.28474317900469
30
0
10
37.727668558712743
20
166.02280567900468
30
0
0
SPLINE
5
453
100
AcDbEntity
8
0
100
AcDbSpline
70
4
71
3
72
8
73
4
74
0
42
0.000000001
43
0.0000000001
44
0.0000000001
40
-1
40
-1
40
-1
40
-1
40
0
40
0
40
0
40
0
41
1
41
1
41
1
41
1
10
37.727668558712743
20
166.02280567900468
30
0
10
37.354606058712747
20
166.2768056790047
30
0
10
36.910106058712742
20
166.75305567900466
30
0
10
36.552918558712747
20
167.11024317900467
30
0
0
LINE
5
454
100
AcDbEntity
8
0
100
AcDbLine
10
36.552918558712747
20
167.11024317900467
30
0
11
32.346043558712744
21
171.92830567900469
31
0
0
SPLINE
5
455
100
AcDbEntity
8
0
100
AcDbSpline
70
4
71
3
72
8
73
4
74
0
42
0.000000001
43
0.0000000001
44
0.0000000001
40
-1
40
-1
40
-1
40
-1
40
0
40
0
40
0
40
0
41
1
41
1
41
1
41
1
10
32.346043558712744
20
171.92830567900469
30
0
10
32.036481058712745
20
172.39661817900469
30
0
10
31.790418558712744
20
172.79349317900468
30
0
10
31.480856058712746
20
173.28561817900467
30
0
0
SPLINE
5
456
100
AcDbEntity
8
0
100
AcDbSpline
70
4
71
3
72
8
73
4
74
0
42
0.000000001
43
0.0000000001
44
0.0000000001
40
-1
40
-1
40
-1
40
-1
40
0
40
0
40
0
40
0
41
1
41
1
41
1
41
1
10
31.480856058712746
20
173.28561817900467
30
0
10
31.171293558712744
20
173.76980567900466
30
0
10
30.925231058712743
20
174.29368067900469
30
0
10
30.687106058712743
20
174.73024317900467
30
0
0
SPLINE
5
457
100
AcDbEntity
8
0
100
AcDbSpline
70
4
71
3
72
8
73
4
74
0
42
0.000000001
43
0.0000000001
44
0.0000000001
40
-1
40
-1
40
-1
40
-1
40
0
40
0
40
0
40
0
41
1
41
1
41
1
41
1
10
30.687106058712743
20
174.73024317900467
30
0
10
30.417231058712744
20
175.23824317900471
30
0
10
30.194981058712745
20
175.68274317900466
30
0
10
29.964793558712746
20
176.23836817900468
30
0
0
SPLINE
5
458
100
AcDbEntity
8
0
100
AcDbSpline
70
4
71
3
72
8
73
4
74
0
42
0.000000001
43
0.0000000001
44
0.0000000001
40
-1
40
-1
40
-1
40
-1
40
0
40
0
40
0
40
0
41
1
41
1
41
1
41
1
10
29.964793558712746
20
176.23836817900468
30
0
10
28.750356058712747
20
179.13555567900465
30
0
10
28.393168558712745
20
180.04043067900469
30
0
10
28.004231058712747
20
183.32655567900468
30
0
0
SPLINE
5
459
100
AcDbEntity
8
0
100
AcDbSpline
70
4
71
3
72
8
73
4
74
0
42
0.000000001
43
0.0000000001
44
0.0000000001
40
-1
40
-1
40
-1
40
-1
40
0
40
0
40
0
40
0
41
1
41
1
41
1
41
1
10
28.004231058712747
20
183.32655567900468
30
0
10
27.829606058712741
20
184.81086817900467
30
0
10
27.861356058712747
20
190.47824317900466
30
0
10
28.639231058712742
20
191.2878681790047
30
0
0
SPLINE
5
460
100
AcDbEntity
8
0
100
AcDbSpline
70
4
71
3
72
8
73
4
74
0
42
0.000000001
43
0.0000000001
44
0.0000000001
40
-1
40
-1
40
-1
40
-1
40
0
40
0
40
0
40
0
41
1
41
1
41
1
41
1
10
28.639231058712742
20
191.2878681790047
30
0
10
29.393293558712745
20
190.6131806790047
30
0
10
30.052106058712745
20
189.75593067900468
30
0
10
30.798231058712744
20
189.00980567900467
30
0
0
SPLINE
5
461
100
AcDbEntity
8
0
100
AcDbSpline
70
4
71
3
72
8
73
4
74
0
42
0.000000001
43
0.0000000001
44
0.0000000001
40
-1
40
-1
40
-1
40
-1
40
0
40
0
40
0
40
0
41
1
41
1
41
1
41
1
10
30.798231058712744
20
189.00980567900467
30
0
10
31.560231058712745
20
188.24780567900467
30
0
10
32.179356058712742
20
187.54930567900465
30
0
10
32.941356058712742
20
186.77936817900468
30
0
0
SPLINE
5
462
100
AcDbEntity
8
0
100
AcDbSpline
70
4
71
3
72
8
73
4
74
0
42
0.000000001
43
0.0000000001
44
0.0000000001
40
-1
40
-1
40
-1
40
-1
40
0
40
0
40
0
40
0
41
1
41
1
41
1
41
1
10
32.941356058712742
20
186.77936817900468
30
0
10
34.997168558712744
20
184.70768067900468
30
0
10
34.481231058712744
20
185.41411817900467
30
0
10
34.592356058712745
20
183.96155567900468
30
0
0
SPLINE
5
463
100
AcDbEntity
8
0
100
AcDbSpline
70
4
71
3
72
8
73
4
74
0
42
0.000000001
43
0.0000000001
44
0.0000000001
40
-1
40
-1
40
-1
40
-1
40
0
40
0
40
0
40
0
41
1
41
1
41
1
41
1
10
34.592356058712745
20
183.96155567900468
30
0
10
34.687606058712745
20
182.75505567900467
30
0
10
34.941606058712743
20
181.5406181790047
30
0
10
35.362293558712743
20
180.3817431790047
30
0
0
SPLINE
5
464
100
AcDbEntity
8
0
100
AcDbSpline
70
4
71
3
72
8
73
4
74
0
42
0.000000001
43
0.0000000001
44
0.0000000001
40
-1
40
-1
40
-1
40
-1
40
0
40
0
40
0
40
0
41
1
41
1
41
1
41
1
10
35.362293558712743
20
180.3817431790047
30
0
10
35.568668558712744
20
179.81024317900471
30
0
10
35.767106058712741
20
179.38161817900468
30
0
10
36.036981058712747
20
178.81805567900469
30
0
0
SPLINE
5
465
100
AcDbEntity
8
0
100
AcDbSpline
70
4
71
3
72
8
73
4
74
0
42
0.000000001
43
0.0000000001
44
0.0000000001
40
-1
40
-1
40
-1
40
-1
40
0
40
0
40
0
40
0
41
1
41
1
41
1
41
1
10
36.036981058712747
20
178.81805567900469
30
0
10
36.195731058712745
20
178.49261817900469
30
0
10
36.243356058712742
20
178.3179931790047
30
0
10
36.441793558712746
20
178.06399317900468
30
0
0
SPLINE
5
466
100
AcDbEntity
8
0
100
AcDbSpline
70
4
71
3
72
8
73
4
74
0
42
0.000000001
43
0.0000000001
44
0.0000000001
40
-1
40
-1
40
-1
40
-1
40
0
40
0
40
0
40
0
41
1
41
1
41
1
41
1
10
36.441793558712746
20
178.06399317900468
30
0
10
36.664043558712748
20
177.78618067900467
30
0
10
36.703731058712748
20
177.74649317900469
30
0
10
36.886293558712744
20
177.42899317900466
30
0
0
SPLINE
5
467
100
AcDbEntity
8
0
100
AcDbSpline
70
4
71
3
72
8
73
4
74
0
42
0.000000001
43
0.0000000001
44
0.0000000001
40
-1
40
-1
40
-1
40
-1
40
0
40
0
40
0
40
0
41
1
41
1
41
1
41
1
10
36.886293558712744
20
177.42899317900466
30
0
10
37.140293558712749
20
176.99243067900468
30
0
10
37.457793558712744
20
176.42886817900467
30
0
10
37.735606058712747
20
176.05580567900466
30
0
0
SPLINE
5
468
100
AcDbEntity
8
0
100
AcDbSpline
70
4
71
3
72
8
73
4
74
0
42
0.000000001
43
0.0000000001
44
0.0000000001
40
-1
40
-1
40
-1
40
-1
40
0
40
0
40
0
40
0
41
1
41
1
41
1
41
1
10
37.735606058712747
20
176.05580567900466
30
0
10
38.576981058712747
20
174.88899317900467
30
0
10
39.807293558712743
20
173.64280567900468
30
0
10
40.831231058712746
20
172.65061817900465
30
0
0
LINE
5
469
100
AcDbEntity
8
0
100
AcDbLine
10
40.831231058712746
20
172.65061817900471
30
0
11
42.545731058712747
21
171.07105567900464
31
0
0
SPLINE
5
470
100
AcDbEntity
8
0
100
AcDbSpline
70
4
71
3
72
8
73
4
74
0
42
0.000000001
43
0.0000000001
44
0.0000000001
40
-1
40
-1
40
-1
40
-1
40
0
40
0
40
0
40
0
41
1
41
1
41
1
41
1
10
42.545731058712747
20
171.0710556790047
30
0
10
42.863231058712749
20
170.8567431790047
30
0
10
42.910856058712746
20
170.88849317900468
30
0
10
43.101356058712746
20
170.54718067900467
30
0
0
SPLINE
5
471
100
AcDbEntity
8
0
100
AcDbSpline
70
4
71
3
72
8
73
4
74
0
42
0.000000001
43
0.0000000001
44
0.0000000001
40
-1
40
-1
40
-1
40
-1
40
0
40
0
40
0
40
0
41
1
41
1
41
1
41
1
10
127.25473105871275
20
140.43230567900468
30
0
10
126.82610605871275
20
139.87668067900466
30
0
10
126.57210605871276
20
139.21786817900468
30
0
10
126.19110605871276
20
138.68605567900465
30
0
0
LINE
5
472
100
AcDbEntity
8
0
100
AcDbLine
10
126.19110605871273
20
138.68605567900468
30
0
11
124.34166855871275
21
136.25718067900468
31
0
0
SPLINE
5
473
100
AcDbEntity
8
0
100
AcDbSpline
70
4
71
3
72
8
73
4
74
0
42
0.000000001
43
0.0000000001
44
0.0000000001
40
-1
40
-1
40
-1
40
-1
40
0
40
0
40
0
40
0
41
1
41
1
41
1
41
1
10
124.34166855871275
20
136.25718067900468
30
0
10
123.89716855871276
20
135.65393067900467
30
0
10
121.50798105871276
20
132.84405567900467
30
0
10
121.11110605871275
20
132.55036817900469
30
0
0
SPLINE
5
474
100
AcDbEntity
8
0
100
AcDbSpline
70
4
71
3
72
8
73
4
74
0
42
0.000000001
43
0.0000000001
44
0.0000000001
40
-1
40
-1
40
-1
40
-1
40
0
40
0
40
0
40
0
41
1
41
1
41
1
41
1
10
121.11110605871275
20
132.55036817900469
30
0
10
120.78566855871274
20
132.94724317900466
30
0
10
120.51579355871276
20
133.61399317900467
30
0
10
120.19829355871275
20
134.11405567900468
30
0
0
SPLINE
5
475
100
AcDbEntity
8
0
100
AcDbSpline
70
4
71
3
72
8
73
4
74
0
42
0.000000001
43
0.0000000001
44
0.0000000001
40
-1
40
-1
40
-1
40
-1
40
0
40
0
40
0
40
0
41
1
41
1
41
1
41
1
10
120.19829355871275
20
134.11405567900468
30
0
10
119.33310605871276
20
135.47136817900468
30
0
10
117.73766855871274
20
137.43193067900467
30
0
10
117.15029355871275
20
138.42411817900467
30
0
0
SPLINE
5
476
100
AcDbEntity
8
0
100
AcDbSpline
70
4
71
3
72
8
73
4
74
0
42
0.000000001
43
0.0000000001
44
0.0000000001
40
-1
40
-1
40
-1
40
-1
40
0
40
0
40
0
40
0
41
1
41
1
41
1
41
1
10
117.15029355871275
20
138.42411817900467
30
0
10
117.66623105871275
20
138.92418067900468
30
0
10
119.72998105871275
20
141.64674317900469
30
0
10
120.19829355871275
20
142.34524317900468
30
0
0
SPLINE
5
477
100
AcDbEntity
8
0
100
AcDbSpline
70
4
71
3
72
8
73
4
74
0
42
0.000000001
43
0.0000000001
44
0.0000000001
40
-1
40
-1
40
-1
40
-1
40
0
40
0
40
0
40
0
41
1
41
1
41
1
41
1
10
120.19829355871275
20
142.34524317900468
30
0
10
121.23016855871276
20
143.87718067900468
30
0
10
122.46841855871276
20
145.73455567900467
30
0
10
123.32566855871276
20
147.36968067900469
30
0
0
SPLINE
5
478
100
AcDbEntity
8
0
100
AcDbSpline
70
4
71
3
72
8
73
4
74
0
42
0.000000001
43
0.0000000001
44
0.0000000001
40
-1
40
-1
40
-1
40
-1
40
0
40
0
40
0
40
0
41
1
41
1
41
1
41
1
10
123.32566855871276
20
147.36968067900469
30
0
10
125.83391855871275
20
152.17186817900466
30
0
10
127.82623105871275
20
158.32343067900467
30
0
10
128.81841855871275
20
163.80824317900471
30
0
0
SPLINE
5
479
100
AcDbEntity
8
0
100
AcDbSpline
70
4
71
3
72
8
73
4
74
0
42
0.000000001
43
0.0000000001
44
0.0000000001
40
-1
40
-1
40
-1
40
-1
40
0
40
0
40
0
40
0
41
1
41
1
41
1
41
1
10
128.81841855871275
20
163.80824317900471
30
0
10
129.28673105871275
20
166.43555567900466
30
0
10
129.65979355871275
20
169.34861817900469
30
0
10
129.76298105871277
20
172.19024317900471
30
0
0
SPLINE
5
480
100
AcDbEntity
8
0
100
AcDbSpline
70
4
71
3
72
8
73
4
74
0
42
0.000000001
43
0.0000000001
44
0.0000000001
40
-1
40
-1
40
-1
40
-1
40
0
40
0
40
0
40
0
41
1
41
1
41
1
41
1
10
129.76298105871277
20
172.19024317900471
30
0
10
129.82648105871274
20
173.87299317900468
30
0
10
129.76298105871277
20
174.6588056790047
30
0
10
129.76298105871277
20
176.27011817900467
30
0
0
SPLINE
5
481
100
AcDbEntity
8
0
100
AcDbSpline
70
4
71
3
72
8
73
4
74
0
42
0.000000001
43
0.0000000001
44
0.0000000001
40
-1
40
-1
40
-1
40
-1
40
0
40
0
40
0
40
0
41
1
41
1
41
1
41
1
10
129.76298105871277
20
176.27011817900467
30
0
10
129.77091855871276
20
177.69093067900468
30
0
10
129.54866855871276
20
179.19111817900469
30
0
10
129.42960605871275
20
180.46905567900467
30
0
0
SPLINE
5
482
100
AcDbEntity
8
0
100
AcDbSpline
70
4
71
3
72
8
73
4
74
0
42
0.000000001
43
0.0000000001
44
0.0000000001
40
-1
40
-1
40
-1
40
-1
40
0
40
0
40
0
40
0
41
1
41
1
41
1
41
1
10
129.42960605871275
20
180.46905567900467
30
0
10
128.92954355871274
20
185.75543067900469
30
0
10
127.73098105871276
20
190.47030567900467
30
0
10
125.81010605871276
20
195.2724931790047
30
0
0
SPLINE
5
483
100
AcDbEntity
8
0
100
AcDbSpline
70
4
71
3
72
8
73
4
74
0
42
0.000000001
43
0.0000000001
44
0.0000000001
40
-1
40
-1
40
-1
40
-1
40
0
40
0
40
0
40
0
41
1
41
1
41
1
41
1
10
125.81010605871276
20
195.2724931790047
30
0
10
126.04823105871276
20
195.60586817900469
30
0
10
126.68323105871275
20
196.27261817900467
30
0
10
127.04835605871276
20
196.62980567900468
30
0
0
SPLINE
5
484
100
AcDbEntity
8
0
100
AcDbSpline
70
4
71
3
72
8
73
4
74
0
42
0.000000001
43
0.0000000001
44
0.0000000001
40
-1
40
-1
40
-1
40
-1
40
0
40
0
40
0
40
0
41
1
41
1
41
1
41
1
10
127.04835605871276
20
196.62980567900468
30
0
10
127.25473105871275
20
196.84411817900468
30
0
10
127.50079355871276
20
197.04255567900469
30
0
10
127.66748105871275
20
197.26480567900467
30
0
0
SPLINE
5
485
100
AcDbEntity
8
0
100
AcDbSpline
70
4
71
3
72
8
73
4
74
0
42
0.000000001
43
0.0000000001
44
0.0000000001
40
-1
40
-1
40
-1
40
-1
40
0
40
0
40
0
40
0
41
1
41
1
41
1
41
1
10
127.66748105871275
20
197.26480567900467
30
0
10
127.92941855871275
20
197.59024317900469
30
0
10
127.90560605871276
20
197.63786817900467
30
0
10
128.23104355871274
20
197.96330567900469
30
0
0
SPLINE
5
486
100
AcDbEntity
8
0
100
AcDbSpline
70
4
71
3
72
8
73
4
74
0
42
0.000000001
43
0.0000000001
44
0.0000000001
40
-1
40
-1
40
-1
40
-1
40
0
40
0
40
0
40
0
41
1
41
1
41
1
41
1
10
128.23104355871274
20
197.96330567900469
30
0
10
128.69935605871274
20
198.42368067900466
30
0
10
129.08829355871273
20
198.81261817900469
30
0
10
129.54866855871276
20
199.27299317900469
30
0
0
SPLINE
5
487
100
AcDbEntity
8
0
100
AcDbSpline
70
4
71
3
72
8
73
4
74
0
42
0.000000001
43
0.0000000001
44
0.0000000001
40
-1
40
-1
40
-1
40
-1
40
0
40
0
40
0
40
0
41
1
41
1
41
1
41
1
10
129.54866855871276
20
199.27299317900469
30
0
10
129.85029355871274
20
199.58255567900468
30
0
10
130.53291855871277
20
200.36043067900468
30
0
10
130.81073105871275
20
200.5271181790047
30
0
0
SPLINE
5
488
100
AcDbEntity
8
0
100
AcDbSpline
70
4
71
3
72
8
73
4
74
0
42
0.000000001
43
0.0000000001
44
0.0000000001
40
-1
40
-1
40
-1
40
-1
40
0
40
0
40
0
40
0
41
1
41
1
41
1
41
1
10
130.81073105871275
20
200.5271181790047
30
0
10
131.20760605871277
20
200.05880567900471
30
0
10
132.34266855871277
20
197.31243067900468
30
0
10
132.61254355871276
20
196.59805567900469
30
0
0
SPLINE
5
489
100
AcDbEntity
8
0
100
AcDbSpline
70
4
71
3
72
8
73
4
74
0
42
0.000000001
43
0.0000000001
44
0.0000000001
40
-1
40
-1
40
-1
40
-1
40
0
40
0
40
0
40
0
41
1
41
1
41
1
41
1
10
132.61254355871276
20
196.59805567900469
30
0
10
133.15229355871276
20
195.16930567900465
30
0
10
133.66029355871274
20
193.86755567900468
30
0
10
134.06510605871276
20
192.42293067900471
30
0
0
SPLINE
5
490
100
AcDbEntity
8
0
100
AcDbSpline
70
4
71
3
72
8
73
4
74
0
42
0.000000001
43
0.0000000001
44
0.0000000001
40
-1
40
-1
40
-1
40
-1
40
0
40
0
40
0
40
0
41
1
41
1
41
1
41
1
10
134.06510605871276
20
192.42293067900471
30
0
10
134.49373105871277
20
190.86718067900466
30
0
10
134.89854355871276
20
189.5495556790047
30
0
10
135.23191855871275
20
187.95411817900469
30
0
0
SPLINE
5
491
100
AcDbEntity
8
0
100
AcDbSpline
70
4
71
3
72
8
73
4
74
0
42
0.000000001
43
0.0000000001
44
0.0000000001
40
-1
40
-1
40
-1
40
-1
40
0
40
0
40
0
40
0
41
1
41
1
41
1
41
1
10
135.23191855871275
20
187.95411817900469
30
0
10
135.54941855871274
20
186.43805567900469
30
0
10
135.84310605871275
20
184.8188056790047
30
0
10
136.08916855871274
20
183.19161817900468
30
0
0
SPLINE
5
492
100
AcDbEntity
8
0
100
AcDbSpline
70
4
71
3
72
8
73
4
74
0
42
0.000000001
43
0.0000000001
44
0.0000000001
40
-1
40
-1
40
-1
40
-1
40
0
40
0
40
0
40
0
41
1
41
1
41
1
41
1
10
136.08916855871274
20
183.19161817900468
30
0
10
136.32729355871274
20
181.56443067900469
30
0
10
136.36698105871275
20
179.58799317900468
30
0
10
136.65273105871276
20
178.0957431790047
30
0
0
SPLINE
5
493
100
AcDbEntity
8
0
100
AcDbSpline
70
4
71
3
72
8
73
4
74
0
42
0.000000001
43
0.0000000001
44
0.0000000001
40
-1
40
-1
40
-1
40
-1
40
0
40
0
40
0
40
0
41
1
41
1
41
1
41
1
10
136.65273105871276
20
178.0957431790047
30
0
10
136.88291855871276
20
176.83368067900466
30
0
10
136.73210605871276
20
174.51593067900467
30
0
10
136.77179355871277
20
173.01574317900469
30
0
0
SPLINE
5
494
100
AcDbEntity
8
0
100
AcDbSpline
70
4
71
3
72
8
73
4
74
0
42
0.000000001
43
0.0000000001
44
0.0000000001
40
-1
40
-1
40
-1
40
-1
40
0
40
0
40
0
40
0
41
1
41
1
41
1
41
1
10
136.77179355871277
20
173.01574317900469
30
0
10
136.94641855871276
20
165.68149317900466
30
0
10
134.93823105871274
20
156.27555567900467
30
0
10
132.15216855871276
20
149.60805567900468
30
0
0
SPLINE
5
495
100
AcDbEntity
8
0
100
AcDbSpline
70
4
71
3
72
8
73
4
74
0
42
0.000000001
43
0.0000000001
44
0.0000000001
40
-1
40
-1
40
-1
40
-1
40
0
40
0
40
0
40
0
41
1
41
1
41
1
41
1
10
132.15216855871276
20
149.60805567900468
30
0
10
132.00929355871276
20
149.26674317900466
30
0
10
131.93785605871275
20
148.89368067900469
30
0
10
131.77116855871276
20
148.52061817900469
30
0
0
SPLINE
5
496
100
AcDbEntity
8
0
100
AcDbSpline
70
4
71
3
72
8
73
4
74
0
42
0.000000001
43
0.0000000001
44
0.0000000001
40
-1
40
-1
40
-1
40
-1
40
0
40
0
40
0
40
0
41
1
41
1
41
1
41
1
10
131.77116855871276
20
148.52061817900469
30
0
10
130.49323105871275
20
145.66311817900467
30
0
10
129.64391855871276
20
144.25818067900468
30
0
10
128.04054355871276
20
141.67849317900468
30
0
0
SPLINE
5
497
100
AcDbEntity
8
0
100
AcDbSpline
70
4
71
3
72
8
73
4
74
0
42
0.000000001
43
0.0000000001
44
0.0000000001
40
-1
40
-1
40
-1
40
-1
40
0
40
0
40
0
40
0
41
1
41
1
41
1
41
1
10
128.04054355871276
20
141.67849317900468
30
0
10
127.71510605871276
20
141.14668067900467
30
0
10
127.78654355871275
20
141.12286817900468
30
0
10
127.25473105871275
20
140.43230567900468
30
0
0
SPLINE
5
498
100
AcDbEntity
8
0
100
AcDbSpline
70
4
71
3
72
8
73
4
74
0
42
0.000000001
43
0.0000000001
44
0.0000000001
40
-1
40
-1
40
-1
40
-1
40
0
40
0
40
0
40
0
41
1
41
1
41
1
41
1
10
34.846356058712743
20
163.18118067900468
30
0
10
34.481231058712744
20
160.39511817900467
30
0
10
34.655856058712743
20
157.50586817900466
30
0
10
35.465481058712747
20
154.86268067900468
30
0
0
SPLINE
5
499
100
AcDbEntity
8
0
100
AcDbSpline
70
4
71
3
72
8
73
4
74
0
42
0.000000001
43
0.0000000001
44
0.0000000001
40
-1
40
-1
40
-1
40
-1
40
0
40
0
40
0
40
0
41
1
41
1
41
1
41
1
10
35.465481058712747
20
154.86268067900468
30
0
10
35.997293558712748
20
153.14818067900467
30
0
10
36.560856058712744
20
152.03693067900468
30
0
10
37.346668558712743
20
150.53674317900467
30
0
0
SPLINE
5
500
100
AcDbEntity
8
0
100
AcDbSpline
70
4
71
3
72
8
73
4
74
0
42
0.000000001
43
0.0000000001
44
0.0000000001
40
-1
40
-1
40
-1
40
-1
40
0
40
0
40
0
40
0
41
1
41
1
41
1
41
1
10
37.346668558712743
20
150.53674317900467
30
0
10
37.687981058712751
20
149.88586817900466
30
0
10
38.195981058712746
20
149.27468067900466
30
0
10
38.672231058712747
20
148.74286817900466
30
0
0
SPLINE
5
501
100
AcDbEntity
8
0
100
AcDbSpline
70
4
71
3
72
8
73
4
74
0
42
0.000000001
43
0.0000000001
44
0.0000000001
40
-1
40
-1
40
-1
40
-1
40
0
40
0
40
0
40
0
41
1
41
1
41
1
41
1
10
38.672231058712747
20
148.74286817900466
30
0
10
38.807168558712746
20
148.59205567900466
30
0
10
38.926231058712744
20
148.46505567900468
30
0
10
39.029418558712749
20
148.33805567900467
30
0
0
SPLINE
5
502
100
AcDbEntity
8
0
100
AcDbSpline
70
4
71
3
72
8
73
4
74
0
42
0.000000001
43
0.0000000001
44
0.0000000001
40
-1
40
-1
40
-1
40
-1
40
0
40
0
40
0
40
0
41
1
41
1
41
1
41
1
10
39.029418558712749
20
148.33805567900467
30
0
10
40.069231058712745
20
147.06805567900466
30
0
10
39.267543558712745
20
148.04436817900469
30
0
10
40.180356058712746
20
147.20299317900466
30
0
0
SPLINE
5
503
100
AcDbEntity
8
0
100
AcDbSpline
70
4
71
3
72
8
73
4
74
0
42
0.000000001
43
0.0000000001
44
0.0000000001
40
-1
40
-1
40
-1
40
-1
40
0
40
0
40
0
40
0
41
1
41
1
41
1
41
1
10
40.180356058712746
20
147.20299317900466
30
0
10
39.997793558712743
20
146.71086817900468
30
0
10
39.394543558712748
20
146.23461817900468
30
0
10
39.037356058712746
20
145.87743067900468
30
0
0
SPLINE
5
504
100
AcDbEntity
8
0
100
AcDbSpline
70
4
71
3
72
8
73
4
74
0
42
0.000000001
43
0.0000000001
44
0.0000000001
40
-1
40
-1
40
-1
40
-1
40
0
40
0
40
0
40
0
41
1
41
1
41
1
41
1
10
39.037356058712746
20
145.87743067900468
30
0
10
38.315043558712745
20
145.14718067900469
30
0
10
35.981418558712747
20
142.73418067900468
30
0
10
35.528981058712745
20
142.40874317900469
30
0
0
SPLINE
5
505
100
AcDbEntity
8
0
100
AcDbSpline
70
4
71
3
72
8
73
4
74
0
42
0.000000001
43
0.0000000001
44
0.0000000001
40
-1
40
-1
40
-1
40
-1
40
0
40
0
40
0
40
0
41
1
41
1
41
1
41
1
10
35.528981058712745
20
142.40874317900469
30
0
10
34.870168558712741
20
142.94055567900469
30
0
10
34.243106058712748
20
143.70255567900469
30
0
10
33.735106058712745
20
144.40105567900468
30
0
0
SPLINE
5
506
100
AcDbEntity
8
0
100
AcDbSpline
70
4
71
3
72
8
73
4
74
0
42
0.000000001
43
0.0000000001
44
0.0000000001
40
-1
40
-1
40
-1
40
-1
40
0
40
0
40
0
40
0
41
1
41
1
41
1
41
1
10
33.735106058712745
20
144.40105567900468
30
0
10
33.536668558712741
20
144.67093067900467
30
0
10
33.377918558712743
20
144.81380567900467
30
0
10
33.171543558712749
20
145.09955567900468
30
0
0
SPLINE
5
507
100
AcDbEntity
8
0
100
AcDbSpline
70
4
71
3
72
8
73
4
74
0
42
0.000000001
43
0.0000000001
44
0.0000000001
40
-1
40
-1
40
-1
40
-1
40
0
40
0
40
0
40
0
41
1
41
1
41
1
41
1
10
33.171543558712749
20
145.09955567900468
30
0
10
32.48891855871274
20
146.04411817900467
30
0
10
31.933293558712744
20
147.05218067900466
30
0
10
31.282418558712742
20
148.16343067900468
30
0
0
SPLINE
5
508
100
AcDbEntity
8
0
100
AcDbSpline
70
4
71
3
72
8
73
4
74
0
42
0.000000001
43
0.0000000001
44
0.0000000001
40
-1
40
-1
40
-1
40
-1
40
0
40
0
40
0
40
0
41
1
41
1
41
1
41
1
10
31.282418558712742
20
148.16343067900468
30
0
10
27.686731058712741
20
154.31499317900466
30
0
10
26.599293558712745
20
163.62568067900469
30
0
10
29.417106058712747
20
170.34874317900466
30
0
0
LINE
5
509
100
AcDbEntity
8
0
100
AcDbLine
10
29.417106058712747
20
170.34874317900466
30
0
11
29.956856058712745
21
171.65049317900468
31
0
0
SPLINE
5
510
100
AcDbEntity
8
0
100
AcDbSpline
70
4
71
3
72
8
73
4
74
0
42
0.000000001
43
0.0000000001
44
0.0000000001
40
-1
40
-1
40
-1
40
-1
40
0
40
0
40
0
40
0
41
1
41
1
41
1
41
1
10
29.956856058712745
20
171.65049317900468
30
0
10
30.075918558712743
20
171.88861817900465
30
0
10
30.036231058712744
20
171.84099317900467
30
0
10
30.187043558712745
20
171.9918056790047
30
0
0
SPLINE
5
511
100
AcDbEntity
8
0
100
AcDbSpline
70
4
71
3
72
8
73
4
74
0
42
0.000000001
43
0.0000000001
44
0.0000000001
40
-1
40
-1
40
-1
40
-1
40
0
40
0
40
0
40
0
41
1
41
1
41
1
41
1
10
30.187043558712745
20
171.9918056790047
30
0
10
30.583918558712746
20
171.41236817900466
30
0
10
30.917293558712746
20
170.80911817900468
30
0
10
31.330043558712745
20
170.32493067900469
30
0
0
SPLINE
5
512
100
AcDbEntity
8
0
100
AcDbSpline
70
4
71
3
72
8
73
4
74
0
42
0.000000001
43
0.0000000001
44
0.0000000001
40
-1
40
-1
40
-1
40
-1
40
0
40
0
40
0
40
0
41
1
41
1
41
1
41
1
10
31.330043558712745
20
170.32493067900469
30
0
10
31.806293558712746
20
169.76136817900468
30
0
10
32.092043558712746
20
169.34068067900469
30
0
10
32.615918558712742
20
168.80093067900469
30
0
0
SPLINE
5
513
100
AcDbEntity
8
0
100
AcDbSpline
70
4
71
3
72
8
73
4
74
0
42
0.000000001
43
0.0000000001
44
0.0000000001
40
-1
40
-1
40
-1
40
-1
40
0
40
0
40
0
40
0
41
1
41
1
41
1
41
1
10
32.615918558712742
20
168.80093067900469
30
0
10
32.758793558712746
20
168.65011817900466
30
0
10
32.877856058712744
20
168.5628056790047
30
0
10
33.004856058712747
20
168.4119931790047
30
0
0
SPLINE
5
514
100
AcDbEntity
8
0
100
AcDbSpline
70
4
71
3
72
8
73
4
74
0
42
0.000000001
43
0.0000000001
44
0.0000000001
40
-1
40
-1
40
-1
40
-1
40
0
40
0
40
0
40
0
41
1
41
1
41
1
41
1
10
33.004856058712747
20
168.4119931790047
30
0
10
33.600168558712745
20
167.71349317900467
30
0
10
34.608231058712747
20
166.41174317900467
30
0
10
35.267043558712743
20
165.92755567900468
30
0
0
LINE
5
515
100
AcDbEntity
8
0
100
AcDbLine
10
35.267043558712743
20
165.92755567900468
30
0
11
34.846356058712743
21
163.18118067900468
31
0
0
SPLINE
5
516
100
AcDbEntity
8
0
100
AcDbSpline
70
4
71
3
72
8
73
4
74
0
42
0.000000001
43
0.0000000001
44
0.0000000001
40
-1
40
-1
40
-1
40
-1
40
0
40
0
40
0
40
0
41
1
41
1
41
1
41
1
10
103.66448105871274
20
169.95980567900466
30
0
10
102.87866855871275
20
169.03905567900466
30
0
10
100.10054355871276
20
166.44349317900466
30
0
10
98.989293558712745
20
165.30049317900466
30
0
0
SPLINE
5
517
100
AcDbEntity
8
0
100
AcDbSpline
70
4
71
3
72
8
73
4
74
0
42
0.000000001
43
0.0000000001
44
0.0000000001
40
-1
40
-1
40
-1
40
-1
40
0
40
0
40
0
40
0
41
1
41
1
41
1
41
1
10
98.989293558712745
20
165.30049317900466
30
0
10
98.568606058712746
20
164.86393067900468
30
0
10
98.695606058712741
20
164.82424317900467
30
0
10
97.989168558712748
20
164.84805567900466
30
0
0
SPLINE
5
518
100
AcDbEntity
8
0
100
AcDbSpline
70
4
71
3
72
8
73
4
74
0
42
0.000000001
43
0.0000000001
44
0.0000000001
40
-1
40
-1
40
-1
40
-1
40
0
40
0
40
0
40
0
41
1
41
1
41
1
41
1
10
97.989168558712748
20
164.84805567900466
30
0
10
95.758731058712755
20
164.94330567900471
30
0
10
93.472731058712753
20
164.6734306790047
30
0
10
91.440731058712743
20
163.91936817900469
30
0
0
SPLINE
5
519
100
AcDbEntity
8
0
100
AcDbSpline
70
4
71
3
72
8
73
4
74
0
42
0.000000001
43
0.0000000001
44
0.0000000001
40
-1
40
-1
40
-1
40
-1
40
0
40
0
40
0
40
0
41
1
41
1
41
1
41
1
10
91.440731058712743
20
163.91936817900469
30
0
10
89.496043558712756
20
163.18911817900468
30
0
10
88.900731058712751
20
162.54618067900466
30
0
10
87.591043558712755
20
161.56986817900469
30
0
0
SPLINE
5
520
100
AcDbEntity
8
0
100
AcDbSpline
70
4
71
3
72
8
73
4
74
0
42
0.000000001
43
0.0000000001
44
0.0000000001
40
-1
40
-1
40
-1
40
-1
40
0
40
0
40
0
40
0
41
1
41
1
41
1
41
1
10
87.591043558712755
20
161.56986817900469
30
0
10
86.471856058712746
20
160.72849317900466
30
0
10
85.574918558712753
20
159.30768067900468
30
0
10
84.836731058712758
20
158.10911817900467
30
0
0
SPLINE
5
521
100
AcDbEntity
8
0
100
AcDbSpline
70
4
71
3
72
8
73
4
74
0
42
0.000000001
43
0.0000000001
44
0.0000000001
40
-1
40
-1
40
-1
40
-1
40
0
40
0
40
0
40
0
41
1
41
1
41
1
41
1
10
84.836731058712758
20
158.10911817900467
30
0
10
84.003293558712755
20
156.75180567900466
30
0
10
83.638168558712749
20
154.96586817900467
30
0
10
83.534981058712745
20
153.17993067900466
30
0
0
SPLINE
5
522
100
AcDbEntity
8
0
100
AcDbSpline
70
4
71
3
72
8
73
4
74
0
42
0.000000001
43
0.0000000001
44
0.0000000001
40
-1
40
-1
40
-1
40
-1
40
0
40
0
40
0
40
0
41
1
41
1
41
1
41
1
10
83.534981058712745
20
153.17993067900466
30
0
10
83.376231058712747
20
150.30655567900467
30
0
10
83.884231058712757
20
150.98918067900468
30
0
10
82.75710605871275
20
149.70330567900467
30
0
0
LINE
5
523
100
AcDbEntity
8
0
100
AcDbLine
10
82.75710605871275
20
149.70330567900464
30
0
11
82.622168558712744
21
149.54455567900467
31
0
0
SPLINE
5
524
100
AcDbEntity
8
0
100
AcDbSpline
70
4
71
3
72
8
73
4
74
0
42
0.000000001
43
0.0000000001
44
0.0000000001
40
-1
40
-1
40
-1
40
-1
40
0
40
0
40
0
40
0
41
1
41
1
41
1
41
1
10
82.622168558712744
20
149.54455567900467
30
0
10
81.90779355871274
20
148.67936817900468
30
0
10
79.264606058712744
20
145.87743067900468
30
0
10
78.677231058712749
20
145.59961817900466
30
0
0
SPLINE
5
525
100
AcDbEntity
8
0
100
AcDbSpline
70
4
71
3
72
8
73
4
74
0
42
0.000000001
43
0.0000000001
44
0.0000000001
40
-1
40
-1
40
-1
40
-1
40
0
40
0
40
0
40
0
41
1
41
1
41
1
41
1
10
78.677231058712749
20
145.59961817900466
30
0
10
78.566106058712748
20
145.94093067900468
30
0
10
78.169231058712739
20
146.61561817900468
30
0
10
77.962856058712745
20
147.09186817900468
30
0
0
SPLINE
5
526
100
AcDbEntity
8
0
100
AcDbSpline
70
4
71
3
72
8
73
4
74
0
42
0.000000001
43
0.0000000001
44
0.0000000001
40
-1
40
-1
40
-1
40
-1
40
0
40
0
40
0
40
0
41
1
41
1
41
1
41
1
10
77.962856058712745
20
147.09186817900468
30
0
10
77.70885605871274
20
147.69511817900468
30
0
10
77.60566855871275
20
148.21105567900469
30
0
10
77.423106058712747
20
148.77461817900468
30
0
0
SPLINE
5
527
100
AcDbEntity
8
0
100
AcDbSpline
70
4
71
3
72
8
73
4
74
0
42
0.000000001
43
0.0000000001
44
0.0000000001
40
-1
40
-1
40
-1
40
-1
40
0
40
0
40
0
40
0
41
1
41
1
41
1
41
1
10
77.423106058712747
20
148.77461817900468
30
0
10
76.978606058712757
20
150.20336817900468
30
0
10
76.891293558712746
20
151.39399317900467
30
0
10
76.891293558712746
20
152.98149317900467
30
0
0
SPLINE
5
528
100
AcDbEntity
8
0
100
AcDbSpline
70
4
71
3
72
8
73
4
74
0
42
0.000000001
43
0.0000000001
44
0.0000000001
40
-1
40
-1
40
-1
40
-1
40
0
40
0
40
0
40
0
41
1
41
1
41
1
41
1
10
76.891293558712746
20
152.98149317900467
30
0
10
76.891293558712746
20
155.45799317900469
30
0
10
77.692981058712746
20
158.45043067900468
30
0
10
78.534356058712746
20
160.43480567900468
30
0
0
SPLINE
5
529
100
AcDbEntity
8
0
100
AcDbSpline
70
4
71
3
72
8
73
4
74
0
42
0.000000001
43
0.0000000001
44
0.0000000001
40
-1
40
-1
40
-1
40
-1
40
0
40
0
40
0
40
0
41
1
41
1
41
1
41
1
10
78.534356058712746
20
160.43480567900468
30
0
10
79.550356058712751
20
162.82399317900467
30
0
10
79.804356058712756
20
163.01449317900466
30
0
10
81.082293558712749
20
164.77661817900469
30
0
0
SPLINE
5
530
100
AcDbEntity
8
0
100
AcDbSpline
70
4
71
3
72
8
73
4
74
0
42
0.000000001
43
0.0000000001
44
0.0000000001
40
-1
40
-1
40
-1
40
-1
40
0
40
0
40
0
40
0
41
1
41
1
41
1
41
1
10
81.082293558712749
20
164.77661817900469
30
0
10
81.336293558712754
20
165.11793067900467
30
0
10
81.812543558712747
20
165.61005567900466
30
0
10
82.137981058712754
20
165.95136817900467
30
0
0
SPLINE
5
531
100
AcDbEntity
8
0
100
AcDbSpline
70
4
71
3
72
8
73
4
74
0
42
0.000000001
43
0.0000000001
44
0.0000000001
40
-1
40
-1
40
-1
40
-1
40
0
40
0
40
0
40
0
41
1
41
1
41
1
41
1
10
82.137981058712754
20
165.95136817900467
30
0
10
83.773106058712742
20
167.6499931790047
30
0
10
85.130418558712762
20
168.74536817900469
30
0
10
87.344981058712747
20
169.85661817900467
30
0
0
SPLINE
5
532
100
AcDbEntity
8
0
100
AcDbSpline
70
4
71
3
72
8
73
4
74
0
42
0.000000001
43
0.0000000001
44
0.0000000001
40
-1
40
-1
40
-1
40
-1
40
0
40
0
40
0
40
0
41
1
41
1
41
1
41
1
10
87.344981058712747
20
169.85661817900467
30
0
10
91.035918558712751
20
171.70605567900466
30
0
10
93.321918558712738
20
171.80130567900471
30
0
10
97.044606058712759
20
171.80130567900471
30
0
0
SPLINE
5
533
100
AcDbEntity
8
0
100
AcDbSpline
70
4
71
3
72
8
73
4
74
0
42
0.000000001
43
0.0000000001
44
0.0000000001
40
-1
40
-1
40
-1
40
-1
40
0
40
0
40
0
40
0
41
1
41
1
41
1
41
1
10
97.044606058712759
20
171.80130567900471
30
0
10
98.798793558712745
20
171.80130567900471
30
0
10
101.68010605871275
20
170.91230567900467
30
0
10
103.35491855871275
20
170.15030567900467
30
0
0
SPLINE
5
534
100
AcDbEntity
8
0
100
AcDbSpline
70
4
71
3
72
8
73
4
74
0
42
0.000000001
43
0.0000000001
44
0.0000000001
40
-1
40
-1
40
-1
40
-1
40
0
40
0
40
0
40
0
41
1
41
1
41
1
41
1
10
103.35491855871275
20
170.15030567900467
30
0
10
103.56129355871275
20
170.05505567900468
30
0
10
103.44223105871276
20
170.11061817900469
30
0
10
103.54541855871275
20
170.04711817900468
30
0
0
SPLINE
5
535
100
AcDbEntity
8
0
100
AcDbSpline
70
4
71
3
72
8
73
4
74
0
42
0.000000001
43
0.0000000001
44
0.0000000001
40
-1
40
-1
40
-1
40
-1
40
0
40
0
40
0
40
0
41
1
41
1
41
1
41
1
10
103.54541855871275
20
170.04711817900468
30
0
10
103.56129355871275
20
170.03918067900469
30
0
10
103.59304355871275
20
169.98361817900468
30
0
10
103.60098105871275
20
170.00743067900464
30
0
0
SPLINE
5
536
100
AcDbEntity
8
0
100
AcDbSpline
70
4
71
3
72
8
73
4
74
0
42
0.000000001
43
0.0000000001
44
0.0000000001
40
-1
40
-1
40
-1
40
-1
40
0
40
0
40
0
40
0
41
1
41
1
41
1
41
1
10
103.60098105871275
20
170.00743067900464
30
0
10
103.61685605871274
20
170.02330567900469
30
0
10
103.64066855871275
20
169.97568067900465
30
0
10
103.66448105871274
20
169.95980567900466
30
0
0
SPLINE
5
537
100
AcDbEntity
8
0
100
AcDbSpline
70
4
71
3
72
8
73
4
74
0
42
0.000000001
43
0.0000000001
44
0.0000000001
40
-1
40
-1
40
-1
40
-1
40
0
40
0
40
0
40
0
41
1
41
1
41
1
41
1
10
118.62666855871275
20
173.69043067900466
30
0
10
120.46816855871276
20
170.56305567900466
30
0
10
121.93660605871275
20
166.20536817900469
30
0
10
121.93660605871275
20
162.39536817900469
30
0
0
SPLINE
5
538
100
AcDbEntity
8
0
100
AcDbSpline
70
4
71
3
72
8
73
4
74
0
42
0.000000001
43
0.0000000001
44
0.0000000001
40
-1
40
-1
40
-1
40
-1
40
0
40
0
40
0
40
0
41
1
41
1
41
1
41
1
10
121.93660605871275
20
162.39536817900469
30
0
10
121.93660605871275
20
161.24443067900469
30
0
10
121.76198105871276
20
157.02961817900467
30
0
10
121.20635605871274
20
156.03743067900467
30
0
0
SPLINE
5
539
100
AcDbEntity
8
0
100
AcDbSpline
70
4
71
3
72
8
73
4
74
0
42
0.000000001
43
0.0000000001
44
0.0000000001
40
-1
40
-1
40
-1
40
-1
40
0
40
0
40
0
40
0
41
1
41
1
41
1
41
1
10
121.20635605871274
20
156.03743067900467
30
0
10
120.88091855871275
20
156.21205567900466
30
0
10
120.85710605871276
20
156.29936817900469
30
0
10
120.55548105871276
20
156.60099317900466
30
0
0
SPLINE
5
540
100
AcDbEntity
8
0
100
AcDbSpline
70
4
71
3
72
8
73
4
74
0
42
0.000000001
43
0.0000000001
44
0.0000000001
40
-1
40
-1
40
-1
40
-1
40
0
40
0
40
0
40
0
41
1
41
1
41
1
41
1
10
120.55548105871276
20
156.60099317900466
30
0
10
120.38085605871275
20
156.77561817900468
30
0
10
120.19829355871275
20
156.9661181790047
30
0
10
119.97604355871275
20
157.18043067900467
30
0
0
LINE
5
541
100
AcDbEntity
8
0
100
AcDbLine
10
119.97604355871275
20
157.18043067900467
30
0
11
116.60260605871274
21
160.50624317900468
31
0
0
SPLINE
5
542
100
AcDbEntity
8
0
100
AcDbSpline
70
4
71
3
72
8
73
4
74
0
42
0.000000001
43
0.0000000001
44
0.0000000001
40
-1
40
-1
40
-1
40
-1
40
0
40
0
40
0
40
0
41
1
41
1
41
1
41
1
10
116.60260605871275
20
160.50624317900468
30
0
10
114.98335605871276
20
162.12549317900468
30
0
10
115.68979355871276
20
161.25236817900469
30
0
10
115.31673105871276
20
163.68124317900467
30
0
0
SPLINE
5
543
100
AcDbEntity
8
0
100
AcDbSpline
70
4
71
3
72
8
73
4
74
0
42
0.000000001
43
0.0000000001
44
0.0000000001
40
-1
40
-1
40
-1
40
-1
40
0
40
0
40
0
40
0
41
1
41
1
41
1
41
1
10
115.31673105871276
20
163.68124317900467
30
0
10
114.72935605871274
20
167.52299317900466
30
0
10
112.79260605871275
20
170.52336817900468
30
0
10
110.37166855871276
20
173.29355567900467
30
0
0
LINE
5
544
100
AcDbEntity
8
0
100
AcDbLine
10
110.37166855871276
20
173.29355567900473
30
0
11
108.80004355871276
21
175.02393067900468
31
0
0
SPLINE
5
545
100
AcDbEntity
8
0
100
AcDbSpline
70
4
71
3
72
8
73
4
74
0
42
0.000000001
43
0.0000000001
44
0.0000000001
40
-1
40
-1
40
-1
40
-1
40
0
40
0
40
0
40
0
41
1
41
1
41
1
41
1
10
108.80004355871276
20
175.02393067900468
30
0
10
108.38729355871274
20
175.46049317900469
30
0
10
108.06979355871276
20
175.73036817900464
30
0
10
107.68085605871276
20
176.12724317900469
30
0
0
SPLINE
5
546
100
AcDbEntity
8
0
100
AcDbSpline
70
4
71
3
72
8
73
4
74
0
42
0.000000001
43
0.0000000001
44
0.0000000001
40
-1
40
-1
40
-1
40
-1
40
0
40
0
40
0
40
0
41
1
41
1
41
1
41
1
10
107.68085605871276
20
176.12724317900469
30
0
10
107.35541855871276
20
176.45268067900469
30
0
10
106.77598105871276
20
176.88924317900469
30
0
10
106.55373105871276
20
177.25436817900464
30
0
0
SPLINE
5
547
100
AcDbEntity
8
0
100
AcDbSpline
70
4
71
3
72
8
73
4
74
0
42
0.000000001
43
0.0000000001
44
0.0000000001
40
-1
40
-1
40
-1
40
-1
40
0
40
0
40
0
40
0
41
1
41
1
41
1
41
1
10
106.55373105871276
20
177.25436817900464
30
0
10
107.36335605871275
20
177.50836817900466
30
0
10
108.74448105871275
20
178.97680567900468
30
0
10
109.26041855871276
20
179.48480567900469
30
0
0
SPLINE
5
548
100
AcDbEntity
8
0
100
AcDbSpline
70
4
71
3
72
8
73
4
74
0
42
0.000000001
43
0.0000000001
44
0.0000000001
40
-1
40
-1
40
-1
40
-1
40
0
40
0
40
0
40
0
41
1
41
1
41
1
41
1
10
109.26041855871276
20
179.48480567900469
30
0
10
111.95916855871275
20
182.1279931790047
30
0
10
111.06223105871274
20
182.21530567900464
30
0
10
113.04660605871275
20
180.34205567900469
30
0
0
SPLINE
5
549
100
AcDbEntity
8
0
100
AcDbSpline
70
4
71
3
72
8
73
4
74
0
42
0.000000001
43
0.0000000001
44
0.0000000001
40
-1
40
-1
40
-1
40
-1
40
0
40
0
40
0
40
0
41
1
41
1
41
1
41
1
10
113.04660605871275
20
180.34205567900469
30
0
10
113.51491855871275
20
179.89755567900465
30
0
10
113.85623105871275
20
179.58799317900468
30
0
10
114.29279355871275
20
179.15143067900465
30
0
0
SPLINE
5
550
100
AcDbEntity
8
0
100
AcDbSpline
70
4
71
3
72
8
73
4
74
0
42
0.000000001
43
0.0000000001
44
0.0000000001
40
-1
40
-1
40
-1
40
-1
40
0
40
0
40
0
40
0
41
1
41
1
41
1
41
1
10
114.29279355871275
20
179.15143067900465
30
0
10
114.52298105871276
20
178.92124317900468
30
0
10
114.69760605871275
20
178.75455567900468
30
0
10
114.91985605871275
20
178.52436817900468
30
0
0
SPLINE
5
551
100
AcDbEntity
8
0
100
AcDbSpline
70
4
71
3
72
8
73
4
74
0
42
0.000000001
43
0.0000000001
44
0.0000000001
40
-1
40
-1
40
-1
40
-1
40
0
40
0
40
0
40
0
41
1
41
1
41
1
41
1
10
114.91985605871275
20
178.52436817900468
30
0
10
115.01510605871275
20
178.42118067900469
30
0
10
115.10241855871274
20
178.30211817900471
30
0
10
115.20560605871275
20
178.22274317900468
30
0
0
SPLINE
5
552
100
AcDbEntity
8
0
100
AcDbSpline
70
4
71
3
72
8
73
4
74
0
42
0.000000001
43
0.0000000001
44
0.0000000001
40
-1
40
-1
40
-1
40
-1
40
0
40
0
40
0
40
0
41
1
41
1
41
1
41
1
10
115.20560605871275
20
178.22274317900468
30
0
10
116.11841855871275
20
177.43693067900466
30
0
10
115.35641855871276
20
178.0957431790047
30
0
10
116.09460605871276
20
177.27818067900469
30
0
0
SPLINE
5
553
100
AcDbEntity
8
0
100
AcDbSpline
70
4
71
3
72
8
73
4
74
0
42
0.000000001
43
0.0000000001
44
0.0000000001
40
-1
40
-1
40
-1
40
-1
40
0
40
0
40
0
40
0
41
1
41
1
41
1
41
1
10
116.09460605871276
20
177.27818067900469
30
0
10
116.99154355871275
20
176.28599317900466
30
0
10
117.95991855871276
20
174.83343067900466
30
0
10
118.62666855871275
20
173.69043067900466
30
0
0
SPLINE
5
554
100
AcDbEntity
8
0
100
AcDbSpline
70
4
71
3
72
8
73
4
74
0
42
0.000000001
43
0.0000000001
44
0.0000000001
40
-1
40
-1
40
-1
40
-1
40
0
40
0
40
0
40
0
41
1
41
1
41
1
41
1
10
83.638168558712749
20
169.86455567900467
30
0
10
82.60629355871275
20
169.08668067900467
30
0
10
81.987168558712753
20
168.26911817900466
30
0
10
81.090231058712746
20
167.38011817900468
30
0
0
LINE
5
555
100
AcDbEntity
8
0
100
AcDbLine
10
81.090231058712746
20
167.38011817900463
30
0
11
78.82804355871275
21
164.73693067900467
31
0
0
SPLINE
5
556
100
AcDbEntity
8
0
100
AcDbSpline
70
4
71
3
72
8
73
4
74
0
42
0.000000001
43
0.0000000001
44
0.0000000001
40
-1
40
-1
40
-1
40
-1
40
0
40
0
40
0
40
0
41
1
41
1
41
1
41
1
10
78.82804355871275
20
164.73693067900467
30
0
10
78.439106058712753
20
164.99093067900469
30
0
10
76.010231058712748
20
167.50711817900466
30
0
10
75.446668558712744
20
168.06274317900466
30
0
0
LINE
5
557
100
AcDbEntity
8
0
100
AcDbLine
10
75.446668558712759
20
168.06274317900466
30
0
11
65.588293558712749
21
178.0243056790047
31
0
0
SPLINE
5
558
100
AcDbEntity
8
0
100
AcDbSpline
70
4
71
3
72
8
73
4
74
0
42
0.000000001
43
0.0000000001
44
0.0000000001
40
-1
40
-1
40
-1
40
-1
40
0
40
0
40
0
40
0
41
1
41
1
41
1
41
1
10
65.588293558712749
20
178.0243056790047
30
0
10
66.429668558712748
20
178.63549317900467
30
0
10
70.184106058712757
20
182.38199317900467
30
0
10
70.414293558712743
20
183.20749317900467
30
0
0
SPLINE
5
559
100
AcDbEntity
8
0
100
AcDbSpline
70
4
71
3
72
8
73
4
74
0
42
0.000000001
43
0.0000000001
44
0.0000000001
40
-1
40
-1
40
-1
40
-1
40
0
40
0
40
0
40
0
41
1
41
1
41
1
41
1
10
70.414293558712743
20
183.20749317900467
30
0
10
70.898481058712747
20
183.03286817900468
30
0
10
71.088981058712747
20
182.6836181790047
30
0
10
71.414418558712754
20
182.36611817900467
30
0
0
SPLINE
5
560
100
AcDbEntity
8
0
100
AcDbSpline
70
4
71
3
72
8
73
4
74
0
42
0.000000001
43
0.0000000001
44
0.0000000001
40
-1
40
-1
40
-1
40
-1
40
0
40
0
40
0
40
0
41
1
41
1
41
1
41
1
10
71.414418558712754
20
182.36611817900467
30
0
10
71.716043558712755
20
182.07243067900467
30
0
10
71.938293558712743
20
181.8422431790047
30
0
10
72.239918558712745
20
181.5406181790047
30
0
0
LINE
5
561
100
AcDbEntity
8
0
100
AcDbLine
10
72.239918558712745
20
181.5406181790047
30
0
11
82.034793558712749
21
171.54730567900469
31
0
0
SPLINE
5
562
100
AcDbEntity
8
0
100
AcDbSpline
70
4
71
3
72
8
73
4
74
0
42
0.000000001
43
0.0000000001
44
0.0000000001
40
-1
40
-1
40
-1
40
-1
40
0
40
0
40
0
40
0
41
1
41
1
41
1
41
1
10
82.034793558712749
20
171.54730567900469
30
0
10
82.598356058712739
20
170.99168067900467
30
0
10
83.217481058712764
20
170.49955567900469
30
0
10
83.638168558712749
20
169.86455567900467
30
0
0
LINE
5
563
100
AcDbEntity
8
0
100
AcDbLine
10
145
20
5.0000000000000089
30
0
11
145
21
50
31
0
0
LINE
5
564
100
AcDbEntity
8
0
100
AcDbLine
10
145
20
50
30
0
11
150
21
50
31
0
0
LINE
5
565
100
AcDbEntity
8
0
100
AcDbLine
10
150
20
50
30
0
11
150
21
100
31
0
0
LINE
5
566
100
AcDbEntity
8
0
100
AcDbLine
10
150
20
100
30
0
11
145
21
100
31
0
0
LINE
5
567
100
AcDbEntity
8
0
100
AcDbLine
10
145
20
100
30
0
11
145
21
150
31
0
0
LINE
5
568
100
AcDbEntity
8
0
100
AcDbLine
10
145
20
150
30
0
11
150
21
150
31
0
0
LINE
5
569
100
AcDbEntity
8
0
100
AcDbLine
10
150
20
150
30
0
11
150
21
200
31
0
0
LINE
5
570
100
AcDbEntity
8
0
100
AcDbLine
10
150
20
200
30
0
11
145
21
200
31
0
0
LINE
5
571
100
AcDbEntity
8
0
100
AcDbLine
10
145
20
200
30
0
11
145
21
250
31
0
0
LINE
5
572
100
AcDbEntity
8
0
100
AcDbLine
10
145
20
250
30
0
11
90
21
250
31
0
0
LINE
5
573
100
AcDbEntity
8
0
100
AcDbLine
10
90
20
250
30
0
11
90
21
245.80000000000001
31
0
0
LINE
5
574
100
AcDbEntity
8
0
100
AcDbLine
10
90
20
245.80000000000001
30
0
11
60
21
245.80000000000001
31
0
0
LINE
5
575
100
AcDbEntity
8
0
100
AcDbLine
10
60
20
245.80000000000001
30
0
11
60
21
250
31
0
0
LINE
5
576
100
AcDbEntity
8
0
100
AcDbLine
10
60
20
250
30
0
11
5
21
250
31
0
0
LINE
5
577
100
AcDbEntity
8
0
100
AcDbLine
10
5
20
250
30
0
11
5
21
200
31
0
0
LINE
5
578
100
AcDbEntity
8
0
100
AcDbLine
10
5
20
200
30
0
11
0
21
200
31
0
0
LINE
5
579
100
AcDbEntity
8
0
100
AcDbLine
10
0
20
200
30
0
11
0
21
150
31
0
0
LINE
5
580
100
AcDbEntity
8
0
100
AcDbLine
10
0
20
150
30
0
11
5
21
150
31
0
0
LINE
5
581
100
AcDbEntity
8
0
100
AcDbLine
10
5
20
150
30
0
11
5
21
100
31
0
0
LINE
5
582
100
AcDbEntity
8
0
100
AcDbLine
10
5
20
100
30
0
11
0
21
100
31
0
0
LINE
5
583
100
AcDbEntity
8
0
100
AcDbLine
10
0
20
100
30
0
11
0
21
50
31
0
0
LINE
5
584
100
AcDbEntity
8
0
100
AcDbLine
10
0
20
50
30
0
11
5
21
50
31
0
0
LINE
5
585
100
AcDbEntity
8
0
100
AcDbLine
10
5
20
50
30
0
11
4.9999999999999902
21
5.0000000000000089
31
0
0
ELLIPSE
5
586
100
AcDbEntity
8
0
100
AcDbEllipse
10
75
20
5.0000000000000089
30
0
11
-70.000000000000014
21
2.1769078914218761e-15
31
0.0
40
0.29761904761904756
41
3.1415926535897931
42
6.2831853071795862
0
ENDSEC
0
SECTION
2
OBJECTS
0
DICTIONARY
5
C
100
AcDbDictionary
3
ACAD_GROUP
350
D
3
ACAD_MLINESTYLE
350
17
0
DICTIONARY
5
D
100
AcDbDictionary
0
DICTIONARY
5
1A
330
C
100
AcDbDictionary
0
DICTIONARY
5
17
100
AcDbDictionary
0
ENDSEC
0
EOF
