0
SECTION
2
HEADER
9
$INSUNITS
70
4
9
$ACADVER
1
AC1014
9
$HANDSEED
5
FFFF
0
ENDSEC
0
SECTION
2
TABLES
0
TABLE
2
VPORT
5
8
100
AcDbSymbolTable
0
ENDTAB
0
TABLE
2
LTYPE
5
5
100
AcDbSymbolTable
0
LTYPE
5
14
100
AcDbSymbolTableRecord
100
AcDbLinetypeTableRecord
2
BYBLOCK
70
0
0
LTYPE
5
15
100
AcDbSymbolTableRecord
100
AcDbLinetypeTableRecord
2
BYLAYER
70
0
0
ENDTAB
0
TABLE
2
LAYER
5
2
100
AcDbSymbolTable
70
2
0
LAYER
5
50
100
AcDbSymbolTableRecord
100
AcDbLayerTableRecord
2
0
70
0
6
CONTINUOUS
0
ENDTAB
0
TABLE
2
STYLE
5
3
100
AcDbSymbolTable
70
1
0
STYLE
5
11
100
AcDbSymbolTableRecord
100
AcDbTextStyleTableRecord
2
STANDARD
70
0
0
ENDTAB
0
TABLE
2
VIEW
5
6
100
AcDbSymbolTable
70
0
0
ENDTAB
0
TABLE
2
UCS
5
7
100
AcDbSymbolTable
70
0
0
ENDTAB
0
TABLE
2
APPID
5
9
100
AcDbSymbolTable
70
2
0
APPID
5
12
100
AcDbSymbolTableRecord
100
AcDbRegAppTableRecord
2
ACAD
70
0
0
ENDTAB
0
TABLE
2
DIMSTYLE
5
A
100
AcDbSymbolTable
70
1
0
ENDTAB
0
TABLE
2
BLOCK_RECORD
5
1
100
AcDbSymbolTable
70
1
0
BLOCK_RECORD
5
1F
100
AcDbSymbolTableRecord
100
AcDbBlockTableRecord
2
*MODEL_SPACE
0
BLOCK_RECORD
5
1B
100
AcDbSymbolTableRecord
100
AcDbBlockTableRecord
2
*PAPER_SPACE
0
ENDTAB
0
ENDSEC
0
SECTION
2
BLOCKS
0
BLOCK
5
20
100
AcDbEntity
100
AcDbBlockBegin
2
*MODEL_SPACE
0
ENDBLK
5
21
100
AcDbEntity
100
AcDbBlockEnd
0
BLOCK
5
1C
100
AcDbEntity
100
AcDbBlockBegin
2
*PAPER_SPACE
0
ENDBLK
5
1D
100
AcDbEntity
100
AcDbBlockEnd
0
ENDSEC
0
SECTION
2
ENTITIES
0
LINE
5
100
100
AcDbEntity
8
0
100
AcDbLine
10
-150
20
200
30
0
11
-145
21
200
31
0
0
LINE
5
101
100
AcDbEntity
8
0
100
AcDbLine
10
-145
20
200
30
0
11
-145
21
150
31
0
0
LINE
5
102
100
AcDbEntity
8
0
100
AcDbLine
10
-145
20
150
30
0
11
-150
21
150
31
0
0
LINE
5
103
100
AcDbEntity
8
0
100
AcDbLine
10
-150
20
150
30
0
11
-150
21
100
31
0
0
LINE
5
104
100
AcDbEntity
8
0
100
AcDbLine
10
-150
20
100
30
0
11
-145
21
100
31
0
0
LINE
5
105
100
AcDbEntity
8
0
100
AcDbLine
10
-145
20
100
30
0
11
-145
21
50
31
0
0
LINE
5
106
100
AcDbEntity
8
0
100
AcDbLine
10
-145
20
50
30
0
11
-150
21
50
31
0
0
LINE
5
107
100
AcDbEntity
8
0
100
AcDbLine
10
-150
20
50
30
0
11
-150
21
0
31
0
0
LINE
5
108
100
AcDbEntity
8
0
100
AcDbLine
10
-150
20
0
30
0
11
-145.00000000000003
21
7.1054273576010019e-14
31
0
0
LINE
5
109
100
AcDbEntity
8
0
100
AcDbLine
10
-145.00000000000003
20
7.1054273576010019e-14
30
0
11
-145
21
9.10534134849709
31
0
0
ELLIPSE
5
110
100
AcDbEntity
8
0
100
AcDbEllipse
10
-75
20
5.0000000000000089
30
0
11
-71.400000000000006
21
-6.1062266354383641e-15
31
0.0
40
0.29178338001867415
41
3.3399471757485975
42
6.0848307850207819
0
LINE
5
111
100
AcDbEntity
8
0
100
AcDbLine
10
-4.999999999999992
20
9.1053413484971006
30
0
11
-5.0000000000000018
21
0
31
0
0
LINE
5
112
100
AcDbEntity
8
0
100
AcDbLine
10
-5.0000000000000018
20
0
30
0
11
0
21
0
31
0
0
LINE
5
113
100
AcDbEntity
8
0
100
AcDbLine
10
0
20
0
30
0
11
0
21
50
31
0
0
LINE
5
114
100
AcDbEntity
8
0
100
AcDbLine
10
0
20
50
30
0
11
-5.0000000000000018
21
50
31
0
0
LINE
5
115
100
AcDbEntity
8
0
100
AcDbLine
10
-5.0000000000000018
20
50
30
0
11
-5.0000000000000018
21
100
31
0
0
LINE
5
116
100
AcDbEntity
8
0
100
AcDbLine
10
-5.0000000000000018
20
100
30
0
11
0
21
100
31
0
0
LINE
5
117
100
AcDbEntity
8
0
100
AcDbLine
10
0
20
100
30
0
11
0
21
150
31
0
0
LINE
5
118
100
AcDbEntity
8
0
100
AcDbLine
10
0
20
150
30
0
11
-5.0000000000000018
21
150
31
0
0
LINE
5
119
100
AcDbEntity
8
0
100
AcDbLine
10
-5.0000000000000018
20
150
30
0
11
-5.0000000000000018
21
200
31
0
0
LINE
5
120
100
AcDbEntity
8
0
100
AcDbLine
10
-5.0000000000000018
20
200
30
0
11
0
21
200
31
0
0
LINE
5
121
100
AcDbEntity
8
0
100
AcDbLine
10
0
20
200
30
0
11
-2.455483404660589e-15
21
250
31
0
0
LINE
5
122
100
AcDbEntity
8
0
100
AcDbLine
10
-2.455483404660589e-15
20
250
30
0
11
-5.0000000000000018
21
250
31
0
0
LINE
5
123
100
AcDbEntity
8
0
100
AcDbLine
10
-5.0000000000000018
20
250
30
0
11
-5.0000000000000018
21
245
31
0
0
LINE
5
124
100
AcDbEntity
8
0
100
AcDbLine
10
-5.0000000000000018
20
245
30
0
11
-30
21
245
31
0
0
LINE
5
125
100
AcDbEntity
8
0
100
AcDbLine
10
-30
20
245
30
0
11
-30
21
250
31
0
0
LINE
5
126
100
AcDbEntity
8
0
100
AcDbLine
10
-30
20
250
30
0
11
-60
21
250
31
0
0
LINE
5
127
100
AcDbEntity
8
0
100
AcDbLine
10
-60
20
250
30
0
11
-60
21
245
31
0
0
LINE
5
128
100
AcDbEntity
8
0
100
AcDbLine
10
-60
20
245
30
0
11
-90
21
245
31
0
0
LINE
5
129
100
AcDbEntity
8
0
100
AcDbLine
10
-90
20
245
30
0
11
-90
21
250
31
0
0
LINE
5
130
100
AcDbEntity
8
0
100
AcDbLine
10
-90
20
250
30
0
11
-120
21
250
31
0
0
LINE
5
131
100
AcDbEntity
8
0
100
AcDbLine
10
-120
20
250
30
0
11
-120
21
245
31
0
0
LINE
5
132
100
AcDbEntity
8
0
100
AcDbLine
10
-120
20
245
30
0
11
-145
21
245
31
0
0
LINE
5
133
100
AcDbEntity
8
0
100
AcDbLine
10
-145
20
245
30
0
11
-145
21
250
31
0
0
LINE
5
134
100
AcDbEntity
8
0
100
AcDbLine
10
-145
20
250
30
0
11
-150
21
250
31
0
0
LINE
5
135
100
AcDbEntity
8
0
100
AcDbLine
10
-150
20
250
30
0
11
-150
21
200
31
0
0
LWPOLYLINE
5
136
100
AcDbEntity
8
0
100
AcDbPolyline
90
4
70
1
43
0.0
10
-90
20
38.833333333333343
10
-90
20
33.83333333333335
10
-60
20
33.833333333333343
10
-60
20
38.833333333333343
0
LWPOLYLINE
5
137
100
AcDbEntity
8
0
100
AcDbPolyline
90
4
70
1
43
0.0
10
-60
20
88.333333333333343
10
-90
20
88.333333333333343
10
-90
20
83.333333333333343
10
-60
20
83.333333333333343
0
SPLINE
5
138
100
AcDbEntity
8
0
100
AcDbSpline
70
4
71
3
72
8
73
4
74
0
42
0.000000001
43
0.0000000001
44
0.0000000001
40
-1
40
-1
40
-1
40
-1
40
0
40
0
40
0
40
0
41
1
41
1
41
1
41
1
10
-27.31802357695889
20
152.44214351730253
30
0
10
-27.191023576958901
20
151.98970601730252
30
0
10
-30.080273576958891
20
146.64776851730252
30
0
10
-30.627961076958901
20
146.25089351730253
30
0
0
SPLINE
5
139
100
AcDbEntity
8
0
100
AcDbSpline
70
4
71
3
72
8
73
4
74
0
42
0.000000001
43
0.0000000001
44
0.0000000001
40
-1
40
-1
40
-1
40
-1
40
0
40
0
40
0
40
0
41
1
41
1
41
1
41
1
10
-30.627961076958901
20
146.25089351730253
30
0
10
-31.167711076958895
20
146.74301851730252
30
0
10
-31.755086076958889
20
147.47326851730253
30
0
10
-32.278961076958893
20
147.87014351730252
30
0
0
SPLINE
5
140
100
AcDbEntity
8
0
100
AcDbSpline
70
4
71
3
72
8
73
4
74
0
42
0.000000001
43
0.0000000001
44
0.0000000001
40
-1
40
-1
40
-1
40
-1
40
0
40
0
40
0
40
0
41
1
41
1
41
1
41
1
10
-32.278961076958893
20
147.87014351730252
30
0
10
-33.001273576958887
20
148.40195601730252
30
0
10
-33.358461076958896
20
148.82264351730254
30
0
10
-33.993461076958894
20
149.45764351730253
30
0
0
SPLINE
5
141
100
AcDbEntity
8
0
100
AcDbSpline
70
4
71
3
72
8
73
4
74
0
42
0.000000001
43
0.0000000001
44
0.0000000001
40
-1
40
-1
40
-1
40
-1
40
0
40
0
40
0
40
0
41
1
41
1
41
1
41
1
10
-33.993461076958894
20
149.45764351730253
30
0
10
-34.557023576958898
20
150.02120601730252
30
0
10
-35.104711076958885
20
150.52920601730253
30
0
10
-35.668273576958889
20
151.08483101730252
30
0
0
SPLINE
5
142
100
AcDbEntity
8
0
100
AcDbSpline
70
4
71
3
72
8
73
4
74
0
42
0.000000001
43
0.0000000001
44
0.0000000001
40
-1
40
-1
40
-1
40
-1
40
0
40
0
40
0
40
0
41
1
41
1
41
1
41
1
10
-35.668273576958889
20
151.08483101730252
30
0
10
-36.192148576958886
20
151.60076851730253
30
0
10
-36.652523576958899
20
152.21989351730252
30
0
10
-37.19227357695889
20
152.75170601730252
30
0
0
SPLINE
5
143
100
AcDbEntity
8
0
100
AcDbSpline
70
4
71
3
72
8
73
4
74
0
42
0.000000001
43
0.0000000001
44
0.0000000001
40
-1
40
-1
40
-1
40
-1
40
0
40
0
40
0
40
0
41
1
41
1
41
1
41
1
10
-37.19227357695889
20
152.75170601730252
30
0
10
-37.827273576958902
20
153.37876851730252
30
0
10
-43.272398576958899
20
159.01439351730255
30
0
10
-43.724836076958894
20
159.32395601730252
30
0
0
SPLINE
5
144
100
AcDbEntity
8
0
100
AcDbSpline
70
4
71
3
72
8
73
4
74
0
42
0.000000001
43
0.0000000001
44
0.0000000001
40
-1
40
-1
40
-1
40
-1
40
0
40
0
40
0
40
0
41
1
41
1
41
1
41
1
10
-43.724836076958894
20
159.32395601730252
30
0
10
-43.462898576958899
20
159.77639351730255
30
0
10
-42.002398576958896
20
161.00670601730252
30
0
10
-41.399148576958886
20
161.77664351730255
30
0
0
SPLINE
5
145
100
AcDbEntity
8
0
100
AcDbSpline
70
4
71
3
72
8
73
4
74
0
42
0.000000001
43
0.0000000001
44
0.0000000001
40
-1
40
-1
40
-1
40
-1
40
0
40
0
40
0
40
0
41
1
41
1
41
1
41
1
10
-41.399148576958886
20
161.77664351730255
30
0
10
-40.676836076958892
20
162.71326851730251
30
0
10
-39.7798985769589
20
163.34826851730253
30
0
10
-39.081398576958897
20
164.18964351730253
30
0
0
SPLINE
5
146
100
AcDbEntity
8
0
100
AcDbSpline
70
4
71
3
72
8
73
4
74
0
42
0.000000001
43
0.0000000001
44
0.0000000001
40
-1
40
-1
40
-1
40
-1
40
0
40
0
40
0
40
0
41
1
41
1
41
1
41
1
10
-39.081398576958897
20
164.18964351730253
30
0
10
-38.652773576958893
20
163.97533101730255
30
0
10
-36.977961076958898
20
162.15764351730255
30
0
10
-36.398523576958901
20
161.60201851730253
30
0
0
LINE
5
147
100
AcDbEntity
8
0
100
AcDbLine
10
-36.398523576958901
20
161.60201851730253
30
0
11
-27.31802357695889
21
152.44214351730253
31
0
0
SPLINE
5
148
100
AcDbEntity
8
0
100
AcDbSpline
70
4
71
3
72
8
73
4
74
0
42
0.000000001
43
0.0000000001
44
0.0000000001
40
-1
40
-1
40
-1
40
-1
40
0
40
0
40
0
40
0
41
1
41
1
41
1
41
1
10
-66.727711076958897
20
170.78570601730252
30
0
10
-67.759586076958897
20
170.00783101730252
30
0
10
-68.378711076958893
20
169.19026851730251
30
0
10
-69.275648576958901
20
168.30126851730253
30
0
0
LINE
5
149
100
AcDbEntity
8
0
100
AcDbLine
10
-69.275648576958901
20
168.3012685173025
30
0
11
-71.537836076958897
21
165.65808101730252
31
0
0
SPLINE
5
150
100
AcDbEntity
8
0
100
AcDbSpline
70
4
71
3
72
8
73
4
74
0
42
0.000000001
43
0.0000000001
44
0.0000000001
40
-1
40
-1
40
-1
40
-1
40
0
40
0
40
0
40
0
41
1
41
1
41
1
41
1
10
-71.537836076958897
20
165.65808101730252
30
0
10
-71.926773576958894
20
165.91208101730251
30
0
10
-74.355648576958899
20
168.42826851730251
30
0
10
-74.919211076958902
20
168.98389351730253
30
0
0
LINE
5
151
100
AcDbEntity
8
0
100
AcDbLine
10
-74.919211076958888
20
168.98389351730253
30
0
11
-84.777586076958897
21
178.94545601730255
31
0
0
SPLINE
5
152
100
AcDbEntity
8
0
100
AcDbSpline
70
4
71
3
72
8
73
4
74
0
42
0.000000001
43
0.0000000001
44
0.0000000001
40
-1
40
-1
40
-1
40
-1
40
0
40
0
40
0
40
0
41
1
41
1
41
1
41
1
10
-84.777586076958897
20
178.94545601730255
30
0
10
-83.936211076958898
20
179.55664351730252
30
0
10
-80.181773576958904
20
183.30314351730252
30
0
10
-79.951586076958904
20
184.12864351730252
30
0
0
SPLINE
5
153
100
AcDbEntity
8
0
100
AcDbSpline
70
4
71
3
72
8
73
4
74
0
42
0.000000001
43
0.0000000001
44
0.0000000001
40
-1
40
-1
40
-1
40
-1
40
0
40
0
40
0
40
0
41
1
41
1
41
1
41
1
10
-79.951586076958904
20
184.12864351730252
30
0
10
-79.4673985769589
20
183.95401851730253
30
0
10
-79.276898576958899
20
183.60476851730255
30
0
10
-78.951461076958907
20
183.28726851730252
30
0
0
SPLINE
5
154
100
AcDbEntity
8
0
100
AcDbSpline
70
4
71
3
72
8
73
4
74
0
42
0.000000001
43
0.0000000001
44
0.0000000001
40
-1
40
-1
40
-1
40
-1
40
0
40
0
40
0
40
0
41
1
41
1
41
1
41
1
10
-78.951461076958907
20
183.28726851730252
30
0
10
-78.649836076958891
20
182.99358101730252
30
0
10
-78.427586076958903
20
182.76339351730255
30
0
10
-78.125961076958902
20
182.46176851730254
30
0
0
LINE
5
155
100
AcDbEntity
8
0
100
AcDbLine
10
-78.125961076958902
20
182.46176851730254
30
0
11
-68.331086076958897
21
172.46845601730254
31
0
0
SPLINE
5
156
100
AcDbEntity
8
0
100
AcDbSpline
70
4
71
3
72
8
73
4
74
0
42
0.000000001
43
0.0000000001
44
0.0000000001
40
-1
40
-1
40
-1
40
-1
40
0
40
0
40
0
40
0
41
1
41
1
41
1
41
1
10
-68.331086076958897
20
172.46845601730254
30
0
10
-67.767523576958894
20
171.91283101730252
30
0
10
-67.148398576958897
20
171.42070601730254
30
0
10
-66.727711076958897
20
170.78570601730252
30
0
0
SPLINE
5
157
100
AcDbEntity
8
0
100
AcDbSpline
70
4
71
3
72
8
73
4
74
0
42
0.000000001
43
0.0000000001
44
0.0000000001
40
-1
40
-1
40
-1
40
-1
40
0
40
0
40
0
40
0
41
1
41
1
41
1
41
1
10
-77.490961076958897
20
128.86776851730252
30
0
10
-78.0545235769589
20
127.43108101730252
30
0
10
-80.673898576958891
20
126.30395601730254
30
0
10
-80.673898576958891
20
124.30370601730253
30
0
0
SPLINE
5
158
100
AcDbEntity
8
0
100
AcDbSpline
70
4
71
3
72
8
73
4
74
0
42
0.000000001
43
0.0000000001
44
0.0000000001
40
-1
40
-1
40
-1
40
-1
40
0
40
0
40
0
40
0
41
1
41
1
41
1
41
1
10
-80.673898576958891
20
124.30370601730253
30
0
10
-80.673898576958891
20
123.24801851730251
30
0
10
-80.483398576958905
20
121.97801851730253
30
0
10
-79.864273576958894
20
121.14458101730251
30
0
0
SPLINE
5
159
100
AcDbEntity
8
0
100
AcDbSpline
70
4
71
3
72
8
73
4
74
0
42
0.000000001
43
0.0000000001
44
0.0000000001
40
-1
40
-1
40
-1
40
-1
40
0
40
0
40
0
40
0
41
1
41
1
41
1
41
1
10
-79.864273576958894
20
121.14458101730251
30
0
10
-78.118023576958905
20
118.81095601730252
30
0
10
-76.736898576958893
20
119.50151851730253
30
0
10
-73.307898576958891
20
119.50945601730253
30
0
0
SPLINE
5
160
100
AcDbEntity
8
0
100
AcDbSpline
70
4
71
3
72
8
73
4
74
0
42
0.000000001
43
0.0000000001
44
0.0000000001
40
-1
40
-1
40
-1
40
-1
40
0
40
0
40
0
40
0
41
1
41
1
41
1
41
1
10
-73.307898576958891
20
119.50945601730253
30
0
10
-70.482148576958906
20
119.51739351730252
30
0
10
-65.933961076958894
20
120.20795601730254
30
0
10
-63.298711076958895
20
120.78739351730252
30
0
0
SPLINE
5
161
100
AcDbEntity
8
0
100
AcDbSpline
70
4
71
3
72
8
73
4
74
0
42
0.000000001
43
0.0000000001
44
0.0000000001
40
-1
40
-1
40
-1
40
-1
40
0
40
0
40
0
40
0
41
1
41
1
41
1
41
1
10
-63.298711076958895
20
120.78739351730252
30
0
10
-60.211023576958894
20
121.46208101730252
30
0
10
-56.131148576958893
20
122.83526851730252
30
0
10
-53.2498360769589
20
124.13701851730252
30
0
0
LINE
5
162
100
AcDbEntity
8
0
100
AcDbLine
10
-53.249836076958907
20
124.13701851730252
30
0
11
-47.9078985769589
21
126.94689351730253
31
0
0
SPLINE
5
163
100
AcDbEntity
8
0
100
AcDbSpline
70
4
71
3
72
8
73
4
74
0
42
0.000000001
43
0.0000000001
44
0.0000000001
40
-1
40
-1
40
-1
40
-1
40
0
40
0
40
0
40
0
41
1
41
1
41
1
41
1
10
-47.9078985769589
20
126.94689351730253
30
0
10
-46.92364857695889
20
127.48664351730253
30
0
10
-43.986773576958896
20
129.39958101730252
30
0
10
-43.058086076958887
20
130.15364351730253
30
0
0
LINE
5
164
100
AcDbEntity
8
0
100
AcDbLine
10
-43.058086076958887
20
130.15364351730253
30
0
11
-41.486461076958889
21
131.25695601730251
31
0
0
SPLINE
5
165
100
AcDbEntity
8
0
100
AcDbSpline
70
4
71
3
72
8
73
4
74
0
42
0.000000001
43
0.0000000001
44
0.0000000001
40
-1
40
-1
40
-1
40
-1
40
0
40
0
40
0
40
0
41
1
41
1
41
1
41
1
10
-41.486461076958889
20
131.25695601730251
30
0
10
-40.867336076958892
20
130.78070601730252
30
0
10
-38.382898576958894
20
126.58176851730252
30
0
10
-38.287648576958887
20
125.81976851730252
30
0
0
LINE
5
166
100
AcDbEntity
8
0
100
AcDbLine
10
-38.287648576958887
20
125.81976851730249
30
0
11
-46.193398576958899
21
120.47783101730252
31
0
0
SPLINE
5
167
100
AcDbEntity
8
0
100
AcDbSpline
70
4
71
3
72
8
73
4
74
0
42
0.000000001
43
0.0000000001
44
0.0000000001
40
-1
40
-1
40
-1
40
-1
40
0
40
0
40
0
40
0
41
1
41
1
41
1
41
1
10
-46.193398576958899
20
120.47783101730252
30
0
10
-47.677711076958893
20
119.60470601730252
30
0
10
-49.5668360769589
20
118.66808101730251
30
0
10
-51.138461076958905
20
117.95370601730252
30
0
0
SPLINE
5
168
100
AcDbEntity
8
0
100
AcDbSpline
70
4
71
3
72
8
73
4
74
0
42
0.000000001
43
0.0000000001
44
0.0000000001
40
-1
40
-1
40
-1
40
-1
40
0
40
0
40
0
40
0
41
1
41
1
41
1
41
1
10
-51.138461076958905
20
117.95370601730252
30
0
10
-51.455961076958886
20
117.81083101730252
30
0
10
-51.876648576958893
20
117.68383101730252
30
0
10
-52.178273576958887
20
117.54095601730253
30
0
0
SPLINE
5
169
100
AcDbEntity
8
0
100
AcDbSpline
70
4
71
3
72
8
73
4
74
0
42
0.000000001
43
0.0000000001
44
0.0000000001
40
-1
40
-1
40
-1
40
-1
40
0
40
0
40
0
40
0
41
1
41
1
41
1
41
1
10
-52.178273576958887
20
117.54095601730253
30
0
10
-52.6783360769589
20
117.29489351730253
30
0
10
-52.368773576958887
20
117.33458101730251
30
0
10
-53.202211076958896
20
117.00914351730253
30
0
0
SPLINE
5
170
100
AcDbEntity
8
0
100
AcDbSpline
70
4
71
3
72
8
73
4
74
0
42
0.000000001
43
0.0000000001
44
0.0000000001
40
-1
40
-1
40
-1
40
-1
40
0
40
0
40
0
40
0
41
1
41
1
41
1
41
1
10
-53.202211076958896
20
117.00914351730253
30
0
10
-56.154961076958898
20
115.87408101730253
30
0
10
-59.083898576958887
20
114.90570601730252
30
0
10
-62.338273576958898
20
114.20720601730252
30
0
0
SPLINE
5
171
100
AcDbEntity
8
0
100
AcDbSpline
70
4
71
3
72
8
73
4
74
0
42
0.000000001
43
0.0000000001
44
0.0000000001
40
-1
40
-1
40
-1
40
-1
40
0
40
0
40
0
40
0
41
1
41
1
41
1
41
1
10
-62.338273576958898
20
114.20720601730252
30
0
10
-68.577148576958905
20
112.87370601730252
30
0
10
-71.688648576958897
20
112.72289351730252
30
0
10
-77.6735235769589
20
112.73083101730252
30
0
0
SPLINE
5
172
100
AcDbEntity
8
0
100
AcDbSpline
70
4
71
3
72
8
73
4
74
0
42
0.000000001
43
0.0000000001
44
0.0000000001
40
-1
40
-1
40
-1
40
-1
40
0
40
0
40
0
40
0
41
1
41
1
41
1
41
1
10
-77.6735235769589
20
112.73083101730252
30
0
10
-79.022898576958895
20
112.73083101730252
30
0
10
-81.277148576958893
20
113.81033101730253
30
0
10
-82.491586076958896
20
114.63583101730252
30
0
0
SPLINE
5
173
100
AcDbEntity
8
0
100
AcDbSpline
70
4
71
3
72
8
73
4
74
0
42
0.000000001
43
0.0000000001
44
0.0000000001
40
-1
40
-1
40
-1
40
-1
40
0
40
0
40
0
40
0
41
1
41
1
41
1
41
1
10
-82.491586076958896
20
114.63583101730252
30
0
10
-85.650711076958885
20
116.77895601730253
30
0
10
-88.03989857695889
20
120.95408101730251
30
0
10
-87.389023576958905
20
125.17683101730253
30
0
0
SPLINE
5
174
100
AcDbEntity
8
0
100
AcDbSpline
70
4
71
3
72
8
73
4
74
0
42
0.000000001
43
0.0000000001
44
0.0000000001
40
-1
40
-1
40
-1
40
-1
40
0
40
0
40
0
40
0
41
1
41
1
41
1
41
1
10
-87.389023576958905
20
125.17683101730253
30
0
10
-87.19058607695888
20
126.44683101730251
30
0
10
-86.80958607695888
20
127.50251851730253
30
0
10
-86.309523576958895
20
128.56614351730252
30
0
0
SPLINE
5
175
100
AcDbEntity
8
0
100
AcDbSpline
70
4
71
3
72
8
73
4
74
0
42
0.000000001
43
0.0000000001
44
0.0000000001
40
-1
40
-1
40
-1
40
-1
40
0
40
0
40
0
40
0
41
1
41
1
41
1
41
1
10
-86.309523576958895
20
128.56614351730252
30
0
10
-85.872961076958902
20
129.49483101730252
30
0
10
-85.166523576958895
20
130.53464351730253
30
0
10
-84.531523576958904
20
131.25695601730251
30
0
0
SPLINE
5
176
100
AcDbEntity
8
0
100
AcDbSpline
70
4
71
3
72
8
73
4
74
0
42
0.000000001
43
0.0000000001
44
0.0000000001
40
-1
40
-1
40
-1
40
-1
40
0
40
0
40
0
40
0
41
1
41
1
41
1
41
1
10
-84.531523576958904
20
131.25695601730251
30
0
10
-84.118773576958887
20
131.70939351730252
30
0
10
-82.713836076958899
20
133.23339351730252
30
0
10
-82.237586076958905
20
133.42389351730253
30
0
0
SPLINE
5
177
100
AcDbEntity
8
0
100
AcDbSpline
70
4
71
3
72
8
73
4
74
0
42
0.000000001
43
0.0000000001
44
0.0000000001
40
-1
40
-1
40
-1
40
-1
40
0
40
0
40
0
40
0
41
1
41
1
41
1
41
1
10
-82.237586076958905
20
133.42389351730253
30
0
10
-81.904211076958902
20
133.23339351730252
30
0
10
-81.285086076958905
20
132.63014351730251
30
0
10
-80.999336076958897
20
132.33645601730251
30
0
0
SPLINE
5
178
100
AcDbEntity
8
0
100
AcDbSpline
70
4
71
3
72
8
73
4
74
0
42
0.000000001
43
0.0000000001
44
0.0000000001
40
-1
40
-1
40
-1
40
-1
40
0
40
0
40
0
40
0
41
1
41
1
41
1
41
1
10
-80.999336076958897
20
132.33645601730251
30
0
10
-80.586586076958895
20
131.92370601730252
30
0
10
-80.237336076958897
20
131.5903310173025
30
0
10
-79.832523576958906
20
131.17758101730254
30
0
0
LINE
5
179
100
AcDbEntity
8
0
100
AcDbLine
10
-79.832523576958906
20
131.17758101730254
30
0
11
-77.490961076958897
21
128.86776851730252
31
0
0
LINE
5
180
100
AcDbEntity
8
0
100
AcDbLine
10
-90.405273576958905
20
167.70595601730253
30
0
11
-92.453148576958895
21
165.66601851730255
31
0
0
SPLINE
5
181
100
AcDbEntity
8
0
100
AcDbSpline
70
4
71
3
72
8
73
4
74
0
42
0.000000001
43
0.0000000001
44
0.0000000001
40
-1
40
-1
40
-1
40
-1
40
0
40
0
40
0
40
0
41
1
41
1
41
1
41
1
10
-92.453148576958895
20
165.66601851730255
30
0
10
-92.715086076958897
20
165.40408101730253
30
0
10
-92.738898576958903
20
165.28501851730255
30
0
10
-93.1278360769589
20
165.41201851730253
30
0
0
SPLINE
5
182
100
AcDbEntity
8
0
100
AcDbSpline
70
4
71
3
72
8
73
4
74
0
42
0.000000001
43
0.0000000001
44
0.0000000001
40
-1
40
-1
40
-1
40
-1
40
0
40
0
40
0
40
0
41
1
41
1
41
1
41
1
10
-93.1278360769589
20
165.41201851730253
30
0
10
-96.2948985769589
20
166.44389351730254
30
0
10
-98.453898576958906
20
166.53914351730251
30
0
10
-101.6288985769589
20
164.75320601730255
30
0
0
SPLINE
5
183
100
AcDbEntity
8
0
100
AcDbSpline
70
4
71
3
72
8
73
4
74
0
42
0.000000001
43
0.0000000001
44
0.0000000001
40
-1
40
-1
40
-1
40
-1
40
0
40
0
40
0
40
0
41
1
41
1
41
1
41
1
10
-101.6288985769589
20
164.75320601730255
30
0
10
-103.78789857695891
20
163.54670601730251
30
0
10
-103.87521107695889
20
163.07839351730252
30
0
10
-105.0737735769589
20
162.18145601730254
30
0
0
SPLINE
5
184
100
AcDbEntity
8
0
100
AcDbSpline
70
4
71
3
72
8
73
4
74
0
42
0.000000001
43
0.0000000001
44
0.0000000001
40
-1
40
-1
40
-1
40
-1
40
0
40
0
40
0
40
0
41
1
41
1
41
1
41
1
10
-105.0737735769589
20
162.18145601730254
30
0
10
-105.9151485769589
20
161.55439351730251
30
0
10
-106.6771485769589
20
160.73683101730253
30
0
10
-107.4312110769589
20
159.98276851730253
30
0
0
SPLINE
5
185
100
AcDbEntity
8
0
100
AcDbSpline
70
4
71
3
72
8
73
4
74
0
42
0.000000001
43
0.0000000001
44
0.0000000001
40
-1
40
-1
40
-1
40
-1
40
0
40
0
40
0
40
0
41
1
41
1
41
1
41
1
10
-107.4312110769589
20
159.98276851730253
30
0
10
-107.98683607695891
20
159.42714351730251
30
0
10
-112.2095860769589
20
155.02976851730253
30
0
10
-112.7175860769589
20
154.72020601730253
30
0
0
SPLINE
5
186
100
AcDbEntity
8
0
100
AcDbSpline
70
4
71
3
72
8
73
4
74
0
42
0.000000001
43
0.0000000001
44
0.0000000001
40
-1
40
-1
40
-1
40
-1
40
0
40
0
40
0
40
0
41
1
41
1
41
1
41
1
10
-112.7175860769589
20
154.72020601730253
30
0
10
-113.13827357695891
20
155.25995601730253
30
0
10
-113.9717110769589
20
158.52226851730254
30
0
10
-114.12252357695891
20
159.39539351730252
30
0
0
SPLINE
5
187
100
AcDbEntity
8
0
100
AcDbSpline
70
4
71
3
72
8
73
4
74
0
42
0.000000001
43
0.0000000001
44
0.0000000001
40
-1
40
-1
40
-1
40
-1
40
0
40
0
40
0
40
0
41
1
41
1
41
1
41
1
10
-114.12252357695891
20
159.39539351730252
30
0
10
-114.26539857695889
20
160.26851851730254
30
0
10
-114.32096107695891
20
161.14164351730253
30
0
10
-114.2177735769589
20
162.1179560173025
30
0
0
SPLINE
5
188
100
AcDbEntity
8
0
100
AcDbSpline
70
4
71
3
72
8
73
4
74
0
42
0.000000001
43
0.0000000001
44
0.0000000001
40
-1
40
-1
40
-1
40
-1
40
0
40
0
40
0
40
0
41
1
41
1
41
1
41
1
10
-114.2177735769589
20
162.1179560173025
30
0
10
-114.0748985769589
20
163.55464351730251
30
0
10
-113.9240860769589
20
163.33239351730253
30
0
10
-113.21764857695889
20
164.11820601730253
30
0
0
SPLINE
5
189
100
AcDbEntity
8
0
100
AcDbSpline
70
4
71
3
72
8
73
4
74
0
42
0.000000001
43
0.0000000001
44
0.0000000001
40
-1
40
-1
40
-1
40
-1
40
0
40
0
40
0
40
0
41
1
41
1
41
1
41
1
10
-113.21764857695889
20
164.11820601730253
30
0
10
-111.6301485769589
20
165.87239351730256
30
0
10
-110.8998985769589
20
166.42801851730255
30
0
10
-109.2806485769589
20
167.84883101730253
30
0
0
SPLINE
5
190
100
AcDbEntity
8
0
100
AcDbSpline
70
4
71
3
72
8
73
4
74
0
42
0.000000001
43
0.0000000001
44
0.0000000001
40
-1
40
-1
40
-1
40
-1
40
0
40
0
40
0
40
0
41
1
41
1
41
1
41
1
10
-109.2806485769589
20
167.84883101730253
30
0
10
-108.26464857695889
20
168.74576851730254
30
0
10
-105.88339857695891
20
170.13483101730253
30
0
10
-104.62927357695889
20
170.75395601730253
30
0
0
SPLINE
5
191
100
AcDbEntity
8
0
100
AcDbSpline
70
4
71
3
72
8
73
4
74
0
42
0.000000001
43
0.0000000001
44
0.0000000001
40
-1
40
-1
40
-1
40
-1
40
0
40
0
40
0
40
0
41
1
41
1
41
1
41
1
10
-104.62927357695889
20
170.75395601730253
30
0
10
-100.82721107695889
20
172.64308101730251
30
0
10
-96.128211076958905
20
173.32570601730254
30
0
10
-92.016586076958902
20
172.15889351730254
30
0
0
SPLINE
5
192
100
AcDbEntity
8
0
100
AcDbSpline
70
4
71
3
72
8
73
4
74
0
42
0.000000001
43
0.0000000001
44
0.0000000001
40
-1
40
-1
40
-1
40
-1
40
0
40
0
40
0
40
0
41
1
41
1
41
1
41
1
10
-92.016586076958902
20
172.15889351730254
30
0
10
-89.690898576958901
20
171.50008101730251
30
0
10
-89.198773576958899
20
170.92064351730249
30
0
10
-87.762086076958894
20
170.38883101730252
30
0
0
SPLINE
5
193
100
AcDbEntity
8
0
100
AcDbSpline
70
4
71
3
72
8
73
4
74
0
42
0.000000001
43
0.0000000001
44
0.0000000001
40
-1
40
-1
40
-1
40
-1
40
0
40
0
40
0
40
0
41
1
41
1
41
1
41
1
10
-87.762086076958894
20
170.38883101730252
30
0
10
-88.008148576958902
20
169.91258101730253
30
0
10
-89.873461076958904
20
168.26951851730254
30
0
10
-90.405273576958905
20
167.70595601730253
30
0
0
LINE
5
194
100
AcDbEntity
8
0
100
AcDbLine
10
-107.26452357695891
20
171.46833101730252
30
0
11
-110.0029610769589
21
169.24583101730252
31
0
0
SPLINE
5
195
100
AcDbEntity
8
0
100
AcDbSpline
70
4
71
3
72
8
73
4
74
0
42
0.000000001
43
0.0000000001
44
0.0000000001
40
-1
40
-1
40
-1
40
-1
40
0
40
0
40
0
40
0
41
1
41
1
41
1
41
1
10
-110.0029610769589
20
169.24583101730252
30
0
10
-110.1775860769589
20
169.10295601730255
30
0
10
-110.2569610769589
20
169.06326851730253
30
0
10
-110.39189857695889
20
168.96008101730251
30
0
0
SPLINE
5
196
100
AcDbEntity
8
0
100
AcDbSpline
70
4
71
3
72
8
73
4
74
0
42
0.000000001
43
0.0000000001
44
0.0000000001
40
-1
40
-1
40
-1
40
-1
40
0
40
0
40
0
40
0
41
1
41
1
41
1
41
1
10
-110.39189857695889
20
168.96008101730251
30
0
10
-110.84433607695891
20
168.59495601730254
30
0
10
-112.1698985769589
20
167.20589351730254
30
0
10
-112.6382110769589
20
166.94395601730253
30
0
0
SPLINE
5
197
100
AcDbEntity
8
0
100
AcDbSpline
70
4
71
3
72
8
73
4
74
0
42
0.000000001
43
0.0000000001
44
0.0000000001
40
-1
40
-1
40
-1
40
-1
40
0
40
0
40
0
40
0
41
1
41
1
41
1
41
1
10
-112.6382110769589
20
166.94395601730253
30
0
10
-113.0112735769589
20
167.19795601730254
30
0
10
-113.4557735769589
20
167.67420601730251
30
0
10
-113.8129610769589
20
168.03139351730252
30
0
0
LINE
5
198
100
AcDbEntity
8
0
100
AcDbLine
10
-113.81296107695889
20
168.03139351730252
30
0
11
-118.0198360769589
21
172.84945601730254
31
0
0
SPLINE
5
199
100
AcDbEntity
8
0
100
AcDbSpline
70
4
71
3
72
8
73
4
74
0
42
0.000000001
43
0.0000000001
44
0.0000000001
40
-1
40
-1
40
-1
40
-1
40
0
40
0
40
0
40
0
41
1
41
1
41
1
41
1
10
-118.0198360769589
20
172.84945601730254
30
0
10
-118.32939857695891
20
173.31776851730254
30
0
10
-118.5754610769589
20
173.71464351730253
30
0
10
-118.8850235769589
20
174.20676851730252
30
0
0
SPLINE
5
200
100
AcDbEntity
8
0
100
AcDbSpline
70
4
71
3
72
8
73
4
74
0
42
0.000000001
43
0.0000000001
44
0.0000000001
40
-1
40
-1
40
-1
40
-1
40
0
40
0
40
0
40
0
41
1
41
1
41
1
41
1
10
-118.8850235769589
20
174.20676851730252
30
0
10
-119.1945860769589
20
174.69095601730254
30
0
10
-119.44064857695891
20
175.21483101730254
30
0
10
-119.6787735769589
20
175.65139351730252
30
0
0
SPLINE
5
201
100
AcDbEntity
8
0
100
AcDbSpline
70
4
71
3
72
8
73
4
74
0
42
0.000000001
43
0.0000000001
44
0.0000000001
40
-1
40
-1
40
-1
40
-1
40
0
40
0
40
0
40
0
41
1
41
1
41
1
41
1
10
-119.6787735769589
20
175.65139351730252
30
0
10
-119.9486485769589
20
176.15939351730253
30
0
10
-120.1708985769589
20
176.60389351730254
30
0
10
-120.4010860769589
20
177.15951851730253
30
0
0
SPLINE
5
202
100
AcDbEntity
8
0
100
AcDbSpline
70
4
71
3
72
8
73
4
74
0
42
0.000000001
43
0.0000000001
44
0.0000000001
40
-1
40
-1
40
-1
40
-1
40
0
40
0
40
0
40
0
41
1
41
1
41
1
41
1
10
-120.4010860769589
20
177.15951851730253
30
0
10
-121.61552357695889
20
180.05670601730253
30
0
10
-121.9727110769589
20
180.96158101730254
30
0
10
-122.3616485769589
20
184.24770601730251
30
0
0
SPLINE
5
203
100
AcDbEntity
8
0
100
AcDbSpline
70
4
71
3
72
8
73
4
74
0
42
0.000000001
43
0.0000000001
44
0.0000000001
40
-1
40
-1
40
-1
40
-1
40
0
40
0
40
0
40
0
41
1
41
1
41
1
41
1
10
-122.3616485769589
20
184.24770601730251
30
0
10
-122.53627357695891
20
185.73201851730255
30
0
10
-122.5045235769589
20
191.39939351730251
30
0
10
-121.72664857695891
20
192.20901851730252
30
0
0
SPLINE
5
204
100
AcDbEntity
8
0
100
AcDbSpline
70
4
71
3
72
8
73
4
74
0
42
0.000000001
43
0.0000000001
44
0.0000000001
40
-1
40
-1
40
-1
40
-1
40
0
40
0
40
0
40
0
41
1
41
1
41
1
41
1
10
-121.72664857695891
20
192.20901851730252
30
0
10
-120.9725860769589
20
191.53433101730255
30
0
10
-120.31377357695889
20
190.67708101730256
30
0
10
-119.5676485769589
20
189.93095601730255
30
0
0
SPLINE
5
205
100
AcDbEntity
8
0
100
AcDbSpline
70
4
71
3
72
8
73
4
74
0
42
0.000000001
43
0.0000000001
44
0.0000000001
40
-1
40
-1
40
-1
40
-1
40
0
40
0
40
0
40
0
41
1
41
1
41
1
41
1
10
-119.5676485769589
20
189.93095601730255
30
0
10
-118.8056485769589
20
189.16895601730255
30
0
10
-118.1865235769589
20
188.47045601730252
30
0
10
-117.4245235769589
20
187.7005185173025
30
0
0
SPLINE
5
206
100
AcDbEntity
8
0
100
AcDbSpline
70
4
71
3
72
8
73
4
74
0
42
0.000000001
43
0.0000000001
44
0.0000000001
40
-1
40
-1
40
-1
40
-1
40
0
40
0
40
0
40
0
41
1
41
1
41
1
41
1
10
-117.4245235769589
20
187.7005185173025
30
0
10
-115.3687110769589
20
185.62883101730253
30
0
10
-115.8846485769589
20
186.33526851730252
30
0
10
-115.77352357695889
20
184.88270601730252
30
0
0
SPLINE
5
207
100
AcDbEntity
8
0
100
AcDbSpline
70
4
71
3
72
8
73
4
74
0
42
0.000000001
43
0.0000000001
44
0.0000000001
40
-1
40
-1
40
-1
40
-1
40
0
40
0
40
0
40
0
41
1
41
1
41
1
41
1
10
-115.77352357695889
20
184.88270601730252
30
0
10
-115.6782735769589
20
183.67620601730252
30
0
10
-115.42427357695891
20
182.46176851730254
30
0
10
-115.0035860769589
20
181.30289351730255
30
0
0
SPLINE
5
208
100
AcDbEntity
8
0
100
AcDbSpline
70
4
71
3
72
8
73
4
74
0
42
0.000000001
43
0.0000000001
44
0.0000000001
40
-1
40
-1
40
-1
40
-1
40
0
40
0
40
0
40
0
41
1
41
1
41
1
41
1
10
-115.0035860769589
20
181.30289351730255
30
0
10
-114.79721107695892
20
180.73139351730254
30
0
10
-114.59877357695891
20
180.30276851730252
30
0
10
-114.32889857695891
20
179.73920601730254
30
0
0
SPLINE
5
209
100
AcDbEntity
8
0
100
AcDbSpline
70
4
71
3
72
8
73
4
74
0
42
0.000000001
43
0.0000000001
44
0.0000000001
40
-1
40
-1
40
-1
40
-1
40
0
40
0
40
0
40
0
41
1
41
1
41
1
41
1
10
-114.32889857695891
20
179.73920601730254
30
0
10
-114.17014857695889
20
179.41376851730254
30
0
10
-114.12252357695891
20
179.23914351730252
30
0
10
-113.9240860769589
20
178.98514351730253
30
0
0
SPLINE
5
210
100
AcDbEntity
8
0
100
AcDbSpline
70
4
71
3
72
8
73
4
74
0
42
0.000000001
43
0.0000000001
44
0.0000000001
40
-1
40
-1
40
-1
40
-1
40
0
40
0
40
0
40
0
41
1
41
1
41
1
41
1
10
-113.9240860769589
20
178.98514351730253
30
0
10
-113.7018360769589
20
178.70733101730252
30
0
10
-113.66214857695891
20
178.66764351730254
30
0
10
-113.4795860769589
20
178.35014351730251
30
0
0
SPLINE
5
211
100
AcDbEntity
8
0
100
AcDbSpline
70
4
71
3
72
8
73
4
74
0
42
0.000000001
43
0.0000000001
44
0.0000000001
40
-1
40
-1
40
-1
40
-1
40
0
40
0
40
0
40
0
41
1
41
1
41
1
41
1
10
-113.4795860769589
20
178.35014351730251
30
0
10
-113.22558607695889
20
177.91358101730253
30
0
10
-112.90808607695891
20
177.35001851730254
30
0
10
-112.6302735769589
20
176.97695601730254
30
0
0
SPLINE
5
212
100
AcDbEntity
8
0
100
AcDbSpline
70
4
71
3
72
8
73
4
74
0
42
0.000000001
43
0.0000000001
44
0.0000000001
40
-1
40
-1
40
-1
40
-1
40
0
40
0
40
0
40
0
41
1
41
1
41
1
41
1
10
-112.6302735769589
20
176.97695601730254
30
0
10
-111.7888985769589
20
175.81014351730255
30
0
10
-110.5585860769589
20
174.56395601730253
30
0
10
-109.5346485769589
20
173.57176851730253
30
0
0
LINE
5
213
100
AcDbEntity
8
0
100
AcDbLine
10
-109.5346485769589
20
173.57176851730256
30
0
11
-107.8201485769589
21
171.99220601730249
31
0
0
SPLINE
5
214
100
AcDbEntity
8
0
100
AcDbSpline
70
4
71
3
72
8
73
4
74
0
42
0.000000001
43
0.0000000001
44
0.0000000001
40
-1
40
-1
40
-1
40
-1
40
0
40
0
40
0
40
0
41
1
41
1
41
1
41
1
10
-107.8201485769589
20
171.99220601730252
30
0
10
-107.50264857695889
20
171.77789351730254
30
0
10
-107.45502357695891
20
171.80964351730253
30
0
10
-107.26452357695891
20
171.46833101730252
30
0
0
SPLINE
5
215
100
AcDbEntity
8
0
100
AcDbSpline
70
4
71
3
72
8
73
4
74
0
42
0.000000001
43
0.0000000001
44
0.0000000001
40
-1
40
-1
40
-1
40
-1
40
0
40
0
40
0
40
0
41
1
41
1
41
1
41
1
10
-47.058586076958889
20
188.49426851730254
30
0
10
-48.130148576958902
20
187.39095601730253
30
0
10
-49.543023576958888
20
185.54151851730253
30
0
10
-51.217836076958889
20
185.60501851730251
30
0
0
LINE
5
216
100
AcDbEntity
8
0
100
AcDbLine
10
-51.217836076958889
20
185.60501851730251
30
0
11
-63.9733985769589
21
198.63839351730252
31
0
0
SPLINE
5
217
100
AcDbEntity
8
0
100
AcDbSpline
70
4
71
3
72
8
73
4
74
0
42
0.000000001
43
0.0000000001
44
0.0000000001
40
-1
40
-1
40
-1
40
-1
40
0
40
0
40
0
40
0
41
1
41
1
41
1
41
1
10
-63.9733985769589
20
198.63839351730252
30
0
10
-63.711461076958898
20
199.54326851730255
30
0
10
-62.719273576958898
20
200.90851851730253
30
0
10
-62.187461076958897
20
201.49589351730253
30
0
0
SPLINE
5
218
100
AcDbEntity
8
0
100
AcDbSpline
70
4
71
3
72
8
73
4
74
0
42
0.000000001
43
0.0000000001
44
0.0000000001
40
-1
40
-1
40
-1
40
-1
40
0
40
0
40
0
40
0
41
1
41
1
41
1
41
1
10
-62.187461076958897
20
201.49589351730253
30
0
10
-59.401398576958897
20
204.57564351730252
30
0
10
-59.877648576958897
20
203.94064351730253
30
0
10
-57.234461076958908
20
201.32126851730251
30
0
0
LINE
5
219
100
AcDbEntity
8
0
100
AcDbLine
10
-57.234461076958908
20
201.32126851730249
30
0
11
-55.019898576958902
21
198.97176851730251
31
0
0
SPLINE
5
220
100
AcDbEntity
8
0
100
AcDbSpline
70
4
71
3
72
8
73
4
74
0
42
0.000000001
43
0.0000000001
44
0.0000000001
40
-1
40
-1
40
-1
40
-1
40
0
40
0
40
0
40
0
41
1
41
1
41
1
41
1
10
-55.019898576958894
20
198.97176851730254
30
0
10
-53.40858607695889
20
197.42395601730252
30
0
10
-51.956023576958899
20
195.87614351730252
30
0
10
-50.416148576958904
20
194.36008101730252
30
0
0
LINE
5
221
100
AcDbEntity
8
0
100
AcDbLine
10
-50.416148576958904
20
194.36008101730249
30
0
11
-45.860023576958902
21
189.70870601730252
31
0
0
SPLINE
5
222
100
AcDbEntity
8
0
100
AcDbSpline
70
4
71
3
72
8
73
4
74
0
42
0.000000001
43
0.0000000001
44
0.0000000001
40
-1
40
-1
40
-1
40
-1
40
0
40
0
40
0
40
0
41
1
41
1
41
1
41
1
10
-45.860023576958895
20
189.70870601730255
30
0
10
-46.256898576958889
20
189.28801851730253
30
0
10
-46.622023576958895
20
188.95464351730254
30
0
10
-47.058586076958889
20
188.49426851730254
30
0
0
SPLINE
5
223
100
AcDbEntity
8
0
100
AcDbSpline
70
4
71
3
72
8
73
4
74
0
42
0.000000001
43
0.0000000001
44
0.0000000001
40
-1
40
-1
40
-1
40
-1
40
0
40
0
40
0
40
0
41
1
41
1
41
1
41
1
10
-104.55783607695891
20
205.82183101730251
30
0
10
-106.62952357695889
20
204.80583101730252
30
0
10
-109.5346485769589
20
202.09914351730251
30
0
10
-110.7570235769589
20
199.88458101730254
30
0
0
SPLINE
5
224
100
AcDbEntity
8
0
100
AcDbSpline
70
4
71
3
72
8
73
4
74
0
42
0.000000001
43
0.0000000001
44
0.0000000001
40
-1
40
-1
40
-1
40
-1
40
0
40
0
40
0
40
0
41
1
41
1
41
1
41
1
10
-110.7570235769589
20
199.88458101730254
30
0
10
-111.03483607695891
20
199.37658101730253
30
0
10
-111.2570860769589
20
199.18608101730254
30
0
10
-111.5110860769589
20
198.59870601730253
30
0
0
SPLINE
5
225
100
AcDbEntity
8
0
100
AcDbSpline
70
4
71
3
72
8
73
4
74
0
42
0.000000001
43
0.0000000001
44
0.0000000001
40
-1
40
-1
40
-1
40
-1
40
0
40
0
40
0
40
0
41
1
41
1
41
1
41
1
10
-111.5110860769589
20
198.59870601730253
30
0
10
-111.6857110769589
20
198.21770601730253
30
0
10
-111.9000235769589
20
197.56683101730255
30
0
10
-112.12227357695892
20
197.28901851730254
30
0
0
SPLINE
5
226
100
AcDbEntity
8
0
100
AcDbSpline
70
4
71
3
72
8
73
4
74
0
42
0.000000001
43
0.0000000001
44
0.0000000001
40
-1
40
-1
40
-1
40
-1
40
0
40
0
40
0
40
0
41
1
41
1
41
1
41
1
10
-112.12227357695892
20
197.28901851730254
30
0
10
-112.55883607695891
20
197.49539351730252
30
0
10
-113.10652357695889
20
198.29708101730256
30
0
10
-113.4319610769589
20
198.68601851730256
30
0
0
LINE
5
227
100
AcDbEntity
8
0
100
AcDbLine
10
-113.4319610769589
20
198.68601851730256
30
0
11
-117.32927357695891
21
202.63889351730253
31
0
0
LINE
5
228
100
AcDbEntity
8
0
100
AcDbLine
10
-117.32927357695891
20
202.63889351730253
30
0
11
-116.27358607695889
21
204.42483101730255
31
0
0
SPLINE
5
229
100
AcDbEntity
8
0
100
AcDbSpline
70
4
71
3
72
8
73
4
74
0
42
0.000000001
43
0.0000000001
44
0.0000000001
40
-1
40
-1
40
-1
40
-1
40
0
40
0
40
0
40
0
41
1
41
1
41
1
41
1
10
-116.27358607695889
20
204.42483101730255
30
0
10
-115.5195235769589
20
205.6313310173025
30
0
10
-114.6225860769589
20
206.61558101730253
30
0
10
-113.65421107695892
20
207.63158101730255
30
0
0
SPLINE
5
230
100
AcDbEntity
8
0
100
AcDbSpline
70
4
71
3
72
8
73
4
74
0
42
0.000000001
43
0.0000000001
44
0.0000000001
40
-1
40
-1
40
-1
40
-1
40
0
40
0
40
0
40
0
41
1
41
1
41
1
41
1
10
-113.65421107695892
20
207.63158101730255
30
0
10
-113.36052357695891
20
207.94114351730255
30
0
10
-113.3446485769589
20
208.13958101730253
30
0
10
-113.0112735769589
20
208.44914351730253
30
0
0
LINE
5
231
100
AcDbEntity
8
0
100
AcDbLine
10
-113.0112735769589
20
208.44914351730253
30
0
11
-110.66177357695891
21
210.36208101730253
31
0
0
SPLINE
5
232
100
AcDbEntity
8
0
100
AcDbSpline
70
4
71
3
72
8
73
4
74
0
42
0.000000001
43
0.0000000001
44
0.0000000001
40
-1
40
-1
40
-1
40
-1
40
0
40
0
40
0
40
0
41
1
41
1
41
1
41
1
10
-110.66177357695891
20
210.36208101730253
30
0
10
-110.09027357695891
20
210.88595601730253
30
0
10
-109.6219610769589
20
211.06851851730255
30
0
10
-108.9631485769589
20
211.48920601730254
30
0
0
SPLINE
5
233
100
AcDbEntity
8
0
100
AcDbSpline
70
4
71
3
72
8
73
4
74
0
42
0.000000001
43
0.0000000001
44
0.0000000001
40
-1
40
-1
40
-1
40
-1
40
0
40
0
40
0
40
0
41
1
41
1
41
1
41
1
10
-108.9631485769589
20
211.48920601730254
30
0
10
-105.31983607695891
20
213.81489351730252
30
0
10
-99.319086076958897
20
214.80708101730255
30
0
10
-94.786773576958893
20
214.31495601730256
30
0
0
SPLINE
5
234
100
AcDbEntity
8
0
100
AcDbSpline
70
4
71
3
72
8
73
4
74
0
42
0.000000001
43
0.0000000001
44
0.0000000001
40
-1
40
-1
40
-1
40
-1
40
0
40
0
40
0
40
0
41
1
41
1
41
1
41
1
10
-94.786773576958893
20
214.31495601730256
30
0
10
-92.7468360769589
20
214.09270601730253
30
0
10
-87.920836076958892
20
212.29089351730252
30
0
10
-86.642898576958899
20
211.07645601730255
30
0
0
SPLINE
5
235
100
AcDbEntity
8
0
100
AcDbSpline
70
4
71
3
72
8
73
4
74
0
42
0.000000001
43
0.0000000001
44
0.0000000001
40
-1
40
-1
40
-1
40
-1
40
0
40
0
40
0
40
0
41
1
41
1
41
1
41
1
10
-86.642898576958899
20
211.07645601730255
30
0
10
-87.301711076958895
20
210.29858101730252
30
0
10
-88.246273576958899
20
209.42545601730251
30
0
10
-89.055898576958896
20
208.65551851730254
30
0
0
SPLINE
5
236
100
AcDbEntity
8
0
100
AcDbSpline
70
4
71
3
72
8
73
4
74
0
42
0.000000001
43
0.0000000001
44
0.0000000001
40
-1
40
-1
40
-1
40
-1
40
0
40
0
40
0
40
0
41
1
41
1
41
1
41
1
10
-89.055898576958896
20
208.65551851730254
30
0
10
-89.690898576958901
20
208.04433101730254
30
0
10
-90.968836076958894
20
206.57589351730252
30
0
10
-91.453023576958898
20
206.30601851730256
30
0
0
SPLINE
5
237
100
AcDbEntity
8
0
100
AcDbSpline
70
4
71
3
72
8
73
4
74
0
42
0.000000001
43
0.0000000001
44
0.0000000001
40
-1
40
-1
40
-1
40
-1
40
0
40
0
40
0
40
0
41
1
41
1
41
1
41
1
10
-91.453023576958898
20
206.30601851730256
30
0
10
-92.53252357695888
20
206.67114351730251
30
0
10
-93.342148576958905
20
207.02833101730252
30
0
10
-94.556586076958894
20
207.27439351730254
30
0
0
SPLINE
5
238
100
AcDbEntity
8
0
100
AcDbSpline
70
4
71
3
72
8
73
4
74
0
42
0.000000001
43
0.0000000001
44
0.0000000001
40
-1
40
-1
40
-1
40
-1
40
0
40
0
40
0
40
0
41
1
41
1
41
1
41
1
10
-94.556586076958894
20
207.27439351730254
30
0
10
-97.969711076958887
20
207.96495601730254
30
0
10
-101.62096107695889
20
207.26645601730254
30
0
10
-104.55783607695891
20
205.82183101730251
30
0
0
SPLINE
5
239
100
AcDbEntity
8
0
100
AcDbSpline
70
4
71
3
72
8
73
4
74
0
42
0.000000001
43
0.0000000001
44
0.0000000001
40
-1
40
-1
40
-1
40
-1
40
0
40
0
40
0
40
0
41
1
41
1
41
1
41
1
10
-67.497648576958895
20
211.44158101730252
30
0
10
-68.251711076958898
20
210.35414351730253
30
0
10
-69.212148576958896
20
209.36989351730256
30
0
10
-70.053523576958895
20
208.37770601730253
30
0
0
SPLINE
5
240
100
AcDbEntity
8
0
100
AcDbSpline
70
4
71
3
72
8
73
4
74
0
42
0.000000001
43
0.0000000001
44
0.0000000001
40
-1
40
-1
40
-1
40
-1
40
0
40
0
40
0
40
0
41
1
41
1
41
1
41
1
10
-70.053523576958895
20
208.37770601730253
30
0
10
-70.442461076958892
20
207.9173310173025
30
0
10
-70.823461076958893
20
207.1553310173025
30
0
10
-71.561648576958902
20
206.64733101730252
30
0
0
SPLINE
5
241
100
AcDbEntity
8
0
100
AcDbSpline
70
4
71
3
72
8
73
4
74
0
42
0.000000001
43
0.0000000001
44
0.0000000001
40
-1
40
-1
40
-1
40
-1
40
0
40
0
40
0
40
0
41
1
41
1
41
1
41
1
10
-71.561648576958902
20
206.64733101730252
30
0
10
-72.085523576958906
20
206.88545601730254
30
0
10
-72.545898576958891
20
207.56808101730255
30
0
10
-72.998336076958893
20
207.96495601730254
30
0
0
SPLINE
5
242
100
AcDbEntity
8
0
100
AcDbSpline
70
4
71
3
72
8
73
4
74
0
42
0.000000001
43
0.0000000001
44
0.0000000001
40
-1
40
-1
40
-1
40
-1
40
0
40
0
40
0
40
0
41
1
41
1
41
1
41
1
10
-72.998336076958893
20
207.96495601730254
30
0
10
-73.530148576958894
20
208.44120601730253
30
0
10
-73.8952735769589
20
208.81426851730254
30
0
10
-74.379461076958904
20
209.30639351730252
30
0
0
LINE
5
243
100
AcDbEntity
8
0
100
AcDbLine
10
-74.37946107695889
20
209.30639351730258
30
0
11
-83.840961076958891
21
218.76789351730253
31
0
0
SPLINE
5
244
100
AcDbEntity
8
0
100
AcDbSpline
70
4
71
3
72
8
73
4
74
0
42
0.000000001
43
0.0000000001
44
0.0000000001
40
-1
40
-1
40
-1
40
-1
40
0
40
0
40
0
40
0
41
1
41
1
41
1
41
1
10
-83.840961076958891
20
218.76789351730253
30
0
10
-85.110961076958901
20
220.00614351730252
30
0
10
-86.555586076958917
20
224.54639351730253
30
0
10
-85.952336076958886
20
227.00701851730255
30
0
0
SPLINE
5
245
100
AcDbEntity
8
0
100
AcDbSpline
70
4
71
3
72
8
73
4
74
0
42
0.000000001
43
0.0000000001
44
0.0000000001
40
-1
40
-1
40
-1
40
-1
40
0
40
0
40
0
40
0
41
1
41
1
41
1
41
1
10
-85.952336076958886
20
227.00701851730255
30
0
10
-85.825336076958905
20
227.53883101730253
30
0
10
-85.650711076958885
20
227.40389351730255
30
0
10
-85.063336076958905
20
227.47533101730255
30
0
0
SPLINE
5
246
100
AcDbEntity
8
0
100
AcDbSpline
70
4
71
3
72
8
73
4
74
0
42
0.000000001
43
0.0000000001
44
0.0000000001
40
-1
40
-1
40
-1
40
-1
40
0
40
0
40
0
40
0
41
1
41
1
41
1
41
1
10
-85.063336076958905
20
227.47533101730255
30
0
10
-83.07896107695889
20
227.70551851730255
30
0
10
-81.277148576958893
20
228.27701851730254
30
0
10
-79.126086076958899
20
228.24526851730255
30
0
0
SPLINE
5
247
100
AcDbEntity
8
0
100
AcDbSpline
70
4
71
3
72
8
73
4
74
0
42
0.000000001
43
0.0000000001
44
0.0000000001
40
-1
40
-1
40
-1
40
-1
40
0
40
0
40
0
40
0
41
1
41
1
41
1
41
1
10
-79.126086076958899
20
228.24526851730255
30
0
10
-79.943648576958893
20
225.37189351730251
30
0
10
-80.070648576958916
20
224.50670601730252
30
0
10
-78.324398576958899
20
222.72870601730256
30
0
0
SPLINE
5
248
100
AcDbEntity
8
0
100
AcDbSpline
70
4
71
3
72
8
73
4
74
0
42
0.000000001
43
0.0000000001
44
0.0000000001
40
-1
40
-1
40
-1
40
-1
40
0
40
0
40
0
40
0
41
1
41
1
41
1
41
1
10
-78.324398576958899
20
222.72870601730256
30
0
10
-76.848023576958894
20
221.21264351730252
30
0
10
-76.387648576958895
20
220.52208101730255
30
0
10
-74.776336076958899
20
218.90283101730256
30
0
0
LINE
5
249
100
AcDbEntity
8
0
100
AcDbLine
10
-74.776336076958899
20
218.90283101730256
30
0
11
-72.720523576958897
21
216.79145601730255
31
0
0
SPLINE
5
250
100
AcDbEntity
8
0
100
AcDbSpline
70
4
71
3
72
8
73
4
74
0
42
0.000000001
43
0.0000000001
44
0.0000000001
40
-1
40
-1
40
-1
40
-1
40
0
40
0
40
0
40
0
41
1
41
1
41
1
41
1
10
-72.720523576958897
20
216.79145601730255
30
0
10
-71.752148576958902
20
215.74370601730251
30
0
10
-68.481898576958898
20
212.72745601730253
30
0
10
-67.910398576958897
20
211.89401851730253
30
0
0
SPLINE
5
251
100
AcDbEntity
8
0
100
AcDbSpline
70
4
71
3
72
8
73
4
74
0
42
0.000000001
43
0.0000000001
44
0.0000000001
40
-1
40
-1
40
-1
40
-1
40
0
40
0
40
0
40
0
41
1
41
1
41
1
41
1
10
-67.910398576958897
20
211.89401851730253
30
0
10
-67.7516485769589
20
211.67176851730255
30
0
10
-67.688148576958895
20
211.63208101730251
30
0
10
-67.497648576958895
20
211.44158101730252
30
0
0
SPLINE
5
252
100
AcDbEntity
8
0
100
AcDbSpline
70
4
71
3
72
8
73
4
74
0
42
0.000000001
43
0.0000000001
44
0.0000000001
40
-1
40
-1
40
-1
40
-1
40
0
40
0
40
0
40
0
41
1
41
1
41
1
41
1
10
-64.7353985769589
20
201.13076851730253
30
0
10
-66.243523576958893
20
198.80508101730254
30
0
10
-66.44196107695889
20
195.48720601730253
30
0
10
-65.656148576958898
20
192.51064351730253
30
0
0
SPLINE
5
253
100
AcDbEntity
8
0
100
AcDbSpline
70
4
71
3
72
8
73
4
74
0
42
0.000000001
43
0.0000000001
44
0.0000000001
40
-1
40
-1
40
-1
40
-1
40
0
40
0
40
0
40
0
41
1
41
1
41
1
41
1
10
-65.656148576958898
20
192.51064351730253
30
0
10
-66.076836076958898
20
192.06614351730252
30
0
10
-66.537211076958897
20
191.60576851730255
30
0
10
-66.981711076958902
20
191.1374560173025
30
0
0
SPLINE
5
254
100
AcDbEntity
8
0
100
AcDbSpline
70
4
71
3
72
8
73
4
74
0
42
0.000000001
43
0.0000000001
44
0.0000000001
40
-1
40
-1
40
-1
40
-1
40
0
40
0
40
0
40
0
41
1
41
1
41
1
41
1
10
-66.981711076958902
20
191.1374560173025
30
0
10
-67.838961076958896
20
190.22464351730252
30
0
10
-70.085273576958897
20
187.31951851730253
30
0
10
-71.077461076958897
20
187.04170601730254
30
0
0
SPLINE
5
255
100
AcDbEntity
8
0
100
AcDbSpline
70
4
71
3
72
8
73
4
74
0
42
0.000000001
43
0.0000000001
44
0.0000000001
40
-1
40
-1
40
-1
40
-1
40
0
40
0
40
0
40
0
41
1
41
1
41
1
41
1
10
-71.077461076958897
20
187.04170601730254
30
0
10
-71.831523576958901
20
187.98626851730256
30
0
10
-72.561773576958899
20
190.48658101730254
30
0
10
-72.776086076958904
20
191.77245601730252
30
0
0
SPLINE
5
256
100
AcDbEntity
8
0
100
AcDbSpline
70
4
71
3
72
8
73
4
74
0
42
0.000000001
43
0.0000000001
44
0.0000000001
40
-1
40
-1
40
-1
40
-1
40
0
40
0
40
0
40
0
41
1
41
1
41
1
41
1
10
-72.776086076958904
20
191.77245601730252
30
0
10
-73.625398576958901
20
196.78895601730255
30
0
10
-72.545898576958891
20
201.61495601730252
30
0
10
-69.934461076958897
20
205.83770601730254
30
0
0
SPLINE
5
257
100
AcDbEntity
8
0
100
AcDbSpline
70
4
71
3
72
8
73
4
74
0
42
0.000000001
43
0.0000000001
44
0.0000000001
40
-1
40
-1
40
-1
40
-1
40
0
40
0
40
0
40
0
41
1
41
1
41
1
41
1
10
-69.934461076958897
20
205.83770601730254
30
0
10
-69.712211076958894
20
206.19489351730252
30
0
10
-69.497898576958889
20
206.40920601730255
30
0
10
-69.275648576958901
20
206.72670601730255
30
0
0
SPLINE
5
258
100
AcDbEntity
8
0
100
AcDbSpline
70
4
71
3
72
8
73
4
74
0
42
0.000000001
43
0.0000000001
44
0.0000000001
40
-1
40
-1
40
-1
40
-1
40
0
40
0
40
0
40
0
41
1
41
1
41
1
41
1
10
-69.275648576958901
20
206.72670601730255
30
0
10
-68.815273576958901
20
207.40139351730252
30
0
10
-68.529523576958894
20
207.56014351730255
30
0
10
-68.212023576958899
20
208.09195601730252
30
0
0
SPLINE
5
259
100
AcDbEntity
8
0
100
AcDbSpline
70
4
71
3
72
8
73
4
74
0
42
0.000000001
43
0.0000000001
44
0.0000000001
40
-1
40
-1
40
-1
40
-1
40
0
40
0
40
0
40
0
41
1
41
1
41
1
41
1
10
-68.212023576958899
20
208.09195601730252
30
0
10
-67.85483607695889
20
208.67139351730253
30
0
10
-66.751523576958903
20
209.69533101730252
30
0
10
-66.203836076958893
20
210.06045601730253
30
0
0
SPLINE
5
260
100
AcDbEntity
8
0
100
AcDbSpline
70
4
71
3
72
8
73
4
74
0
42
0.000000001
43
0.0000000001
44
0.0000000001
40
-1
40
-1
40
-1
40
-1
40
0
40
0
40
0
40
0
41
1
41
1
41
1
41
1
10
-66.203836076958893
20
210.06045601730253
30
0
10
-65.87046107695889
20
210.29064351730253
30
0
10
-65.648211076958901
20
210.49701851730254
30
0
10
-65.251336076958893
20
210.75895601730252
30
0
0
SPLINE
5
261
100
AcDbEntity
8
0
100
AcDbSpline
70
4
71
3
72
8
73
4
74
0
42
0.000000001
43
0.0000000001
44
0.0000000001
40
-1
40
-1
40
-1
40
-1
40
0
40
0
40
0
40
0
41
1
41
1
41
1
41
1
10
-65.251336076958893
20
210.75895601730252
30
0
10
-60.8063360769589
20
213.63233101730253
30
0
10
-57.559898576958886
20
214.37845601730254
30
0
10
-51.575023576958898
20
214.33876851730253
30
0
0
SPLINE
5
262
100
AcDbEntity
8
0
100
AcDbSpline
70
4
71
3
72
8
73
4
74
0
42
0.000000001
43
0.0000000001
44
0.0000000001
40
-1
40
-1
40
-1
40
-1
40
0
40
0
40
0
40
0
41
1
41
1
41
1
41
1
10
-51.575023576958898
20
214.33876851730253
30
0
10
-50.019273576958895
20
214.32289351730253
30
0
10
-46.169586076958886
20
213.36245601730255
30
0
10
-45.217086076958907
20
212.72745601730253
30
0
0
LINE
5
263
100
AcDbEntity
8
0
100
AcDbLine
10
-45.217086076958907
20
212.72745601730253
30
0
11
-47.860273576958903
21
210.05251851730253
31
0
0
SPLINE
5
264
100
AcDbEntity
8
0
100
AcDbSpline
70
4
71
3
72
8
73
4
74
0
42
0.000000001
43
0.0000000001
44
0.0000000001
40
-1
40
-1
40
-1
40
-1
40
0
40
0
40
0
40
0
41
1
41
1
41
1
41
1
10
-47.860273576958896
20
210.05251851730253
30
0
10
-48.77308607695889
20
209.18733101730254
30
0
10
-49.5668360769589
20
208.35389351730254
30
0
10
-50.4637735769589
20
207.42520601730251
30
0
0
SPLINE
5
265
100
AcDbEntity
8
0
100
AcDbSpline
70
4
71
3
72
8
73
4
74
0
42
0.000000001
43
0.0000000001
44
0.0000000001
40
-1
40
-1
40
-1
40
-1
40
0
40
0
40
0
40
0
41
1
41
1
41
1
41
1
10
-50.4637735769589
20
207.42520601730251
30
0
10
-50.820961076958895
20
207.05214351730251
30
0
10
-50.765398576958901
20
207.02039351730252
30
0
10
-51.424211076958898
20
207.09976851730255
30
0
0
LINE
5
266
100
AcDbEntity
8
0
100
AcDbLine
10
-51.424211076958912
20
207.09976851730255
30
0
11
-54.916711076958897
21
207.02039351730252
31
0
0
SPLINE
5
267
100
AcDbEntity
8
0
100
AcDbSpline
70
4
71
3
72
8
73
4
74
0
42
0.000000001
43
0.0000000001
44
0.0000000001
40
-1
40
-1
40
-1
40
-1
40
0
40
0
40
0
40
0
41
1
41
1
41
1
41
1
10
-54.916711076958897
20
207.02039351730252
30
0
10
-57.432898576958905
20
206.75845601730254
30
0
10
-58.861648576958899
20
206.40126851730253
30
0
10
-60.86983607695889
20
205.11539351730252
30
0
0
SPLINE
5
268
100
AcDbEntity
8
0
100
AcDbSpline
70
4
71
3
72
8
73
4
74
0
42
0.000000001
43
0.0000000001
44
0.0000000001
40
-1
40
-1
40
-1
40
-1
40
0
40
0
40
0
40
0
41
1
41
1
41
1
41
1
10
-60.86983607695889
20
205.11539351730252
30
0
10
-61.536586076958891
20
204.68676851730254
30
0
10
-61.798523576958893
20
204.50420601730255
30
0
10
-62.354148576958899
20
203.98033101730252
30
0
0
LINE
5
269
100
AcDbEntity
8
0
100
AcDbLine
10
-62.354148576958892
20
203.98033101730252
30
0
11
-64.7353985769589
21
201.13076851730253
31
0
0
SPLINE
5
270
100
AcDbEntity
8
0
100
AcDbSpline
70
4
71
3
72
8
73
4
74
0
42
0.000000001
43
0.0000000001
44
0.0000000001
40
-1
40
-1
40
-1
40
-1
40
0
40
0
40
0
40
0
41
1
41
1
41
1
41
1
10
-107.68521107695889
20
190.28814351730256
30
0
10
-107.93921107695891
20
189.73251851730254
30
0
10
-111.4952110769589
20
185.99395601730251
30
0
10
-112.3207110769589
20
185.38276851730251
30
0
0
SPLINE
5
271
100
AcDbEntity
8
0
100
AcDbSpline
70
4
71
3
72
8
73
4
74
0
42
0.000000001
43
0.0000000001
44
0.0000000001
40
-1
40
-1
40
-1
40
-1
40
0
40
0
40
0
40
0
41
1
41
1
41
1
41
1
10
-112.3207110769589
20
185.38276851730251
30
0
10
-112.76521107695891
20
185.70820601730253
30
0
10
-113.28114857695891
20
186.31939351730253
30
0
10
-113.7653360769589
20
186.80358101730252
30
0
0
SPLINE
5
272
100
AcDbEntity
8
0
100
AcDbSpline
70
4
71
3
72
8
73
4
74
0
42
0.000000001
43
0.0000000001
44
0.0000000001
40
-1
40
-1
40
-1
40
-1
40
0
40
0
40
0
40
0
41
1
41
1
41
1
41
1
10
-113.7653360769589
20
186.80358101730252
30
0
10
-114.24952357695889
20
187.28776851730254
30
0
10
-114.74164857695889
20
187.77195601730253
30
0
10
-115.23377357695891
20
188.24820601730252
30
0
0
SPLINE
5
273
100
AcDbEntity
8
0
100
AcDbSpline
70
4
71
3
72
8
73
4
74
0
42
0.000000001
43
0.0000000001
44
0.0000000001
40
-1
40
-1
40
-1
40
-1
40
0
40
0
40
0
40
0
41
1
41
1
41
1
41
1
10
-115.23377357695891
20
188.24820601730252
30
0
10
-116.17039857695889
20
189.17689351730252
30
0
10
-117.2022735769589
20
190.25639351730251
30
0
10
-118.07539857695889
20
191.12951851730253
30
0
0
SPLINE
5
274
100
AcDbEntity
8
0
100
AcDbSpline
70
4
71
3
72
8
73
4
74
0
42
0.000000001
43
0.0000000001
44
0.0000000001
40
-1
40
-1
40
-1
40
-1
40
0
40
0
40
0
40
0
41
1
41
1
41
1
41
1
10
-118.07539857695889
20
191.12951851730253
30
0
10
-119.4485860769589
20
192.50270601730253
30
0
10
-122.7743985769589
20
195.70151851730253
30
0
10
-123.83008607695891
20
196.90008101730254
30
0
0
SPLINE
5
275
100
AcDbEntity
8
0
100
AcDbSpline
70
4
71
3
72
8
73
4
74
0
42
0.000000001
43
0.0000000001
44
0.0000000001
40
-1
40
-1
40
-1
40
-1
40
0
40
0
40
0
40
0
41
1
41
1
41
1
41
1
10
-123.83008607695891
20
196.90008101730254
30
0
10
-123.7030860769589
20
197.30489351730253
30
0
10
-123.25064857695891
20
198.02720601730255
30
0
10
-123.0125235769589
20
198.46376851730253
30
0
0
SPLINE
5
276
100
AcDbEntity
8
0
100
AcDbSpline
70
4
71
3
72
8
73
4
74
0
42
0.000000001
43
0.0000000001
44
0.0000000001
40
-1
40
-1
40
-1
40
-1
40
0
40
0
40
0
40
0
41
1
41
1
41
1
41
1
10
-123.0125235769589
20
198.46376851730253
30
0
10
-122.6315235769589
20
199.17814351730254
30
0
10
-120.7106485769589
20
202.68651851730255
30
0
10
-120.5915860769589
20
203.13101851730252
30
0
0
SPLINE
5
277
100
AcDbEntity
8
0
100
AcDbSpline
70
4
71
3
72
8
73
4
74
0
42
0.000000001
43
0.0000000001
44
0.0000000001
40
-1
40
-1
40
-1
40
-1
40
0
40
0
40
0
40
0
41
1
41
1
41
1
41
1
10
-120.5915860769589
20
203.13101851730252
30
0
10
-120.16296107695891
20
202.87701851730253
30
0
10
-114.59083607695889
20
197.20170601730251
30
0
10
-114.0748985769589
20
196.68576851730253
30
0
0
SPLINE
5
278
100
AcDbEntity
8
0
100
AcDbSpline
70
4
71
3
72
8
73
4
74
0
42
0.000000001
43
0.0000000001
44
0.0000000001
40
-1
40
-1
40
-1
40
-1
40
0
40
0
40
0
40
0
41
1
41
1
41
1
41
1
10
-114.0748985769589
20
196.68576851730253
30
0
10
-112.97952357695891
20
195.59039351730252
30
0
10
-111.99527357695891
20
194.50295601730255
30
0
10
-110.89196107695891
20
193.46314351730254
30
0
0
SPLINE
5
279
100
AcDbEntity
8
0
100
AcDbSpline
70
4
71
3
72
8
73
4
74
0
42
0.000000001
43
0.0000000001
44
0.0000000001
40
-1
40
-1
40
-1
40
-1
40
0
40
0
40
0
40
0
41
1
41
1
41
1
41
1
10
-110.89196107695891
20
193.46314351730254
30
0
10
-109.78071107695889
20
192.40745601730254
30
0
10
-108.70121107695891
20
191.36764351730253
30
0
10
-107.68521107695889
20
190.28814351730256
30
0
0
SPLINE
5
280
100
AcDbEntity
8
0
100
AcDbSpline
70
4
71
3
72
8
73
4
74
0
42
0.000000001
43
0.0000000001
44
0.0000000001
40
-1
40
-1
40
-1
40
-1
40
0
40
0
40
0
40
0
41
1
41
1
41
1
41
1
10
-115.5195235769589
20
164.10233101730253
30
0
10
-115.8846485769589
20
161.31626851730255
30
0
10
-115.7100235769589
20
158.42701851730251
30
0
10
-114.90039857695891
20
155.78383101730253
30
0
0
SPLINE
5
281
100
AcDbEntity
8
0
100
AcDbSpline
70
4
71
3
72
8
73
4
74
0
42
0.000000001
43
0.0000000001
44
0.0000000001
40
-1
40
-1
40
-1
40
-1
40
0
40
0
40
0
40
0
41
1
41
1
41
1
41
1
10
-114.90039857695891
20
155.78383101730253
30
0
10
-114.36858607695889
20
154.06933101730255
30
0
10
-113.8050235769589
20
152.9580810173025
30
0
10
-113.0192110769589
20
151.45789351730252
30
0
0
SPLINE
5
282
100
AcDbEntity
8
0
100
AcDbSpline
70
4
71
3
72
8
73
4
74
0
42
0.000000001
43
0.0000000001
44
0.0000000001
40
-1
40
-1
40
-1
40
-1
40
0
40
0
40
0
40
0
41
1
41
1
41
1
41
1
10
-113.0192110769589
20
151.45789351730252
30
0
10
-112.6778985769589
20
150.80701851730251
30
0
10
-112.1698985769589
20
150.19583101730251
30
0
10
-111.69364857695889
20
149.66401851730251
30
0
0
SPLINE
5
283
100
AcDbEntity
8
0
100
AcDbSpline
70
4
71
3
72
8
73
4
74
0
42
0.000000001
43
0.0000000001
44
0.0000000001
40
-1
40
-1
40
-1
40
-1
40
0
40
0
40
0
40
0
41
1
41
1
41
1
41
1
10
-111.69364857695889
20
149.66401851730251
30
0
10
-111.5587110769589
20
149.51320601730254
30
0
10
-111.4396485769589
20
149.38620601730253
30
0
10
-111.3364610769589
20
149.25920601730252
30
0
0
SPLINE
5
284
100
AcDbEntity
8
0
100
AcDbSpline
70
4
71
3
72
8
73
4
74
0
42
0.000000001
43
0.0000000001
44
0.0000000001
40
-1
40
-1
40
-1
40
-1
40
0
40
0
40
0
40
0
41
1
41
1
41
1
41
1
10
-111.3364610769589
20
149.25920601730252
30
0
10
-110.2966485769589
20
147.98920601730254
30
0
10
-111.0983360769589
20
148.96551851730254
30
0
10
-110.1855235769589
20
148.12414351730251
30
0
0
SPLINE
5
285
100
AcDbEntity
8
0
100
AcDbSpline
70
4
71
3
72
8
73
4
74
0
42
0.000000001
43
0.0000000001
44
0.0000000001
40
-1
40
-1
40
-1
40
-1
40
0
40
0
40
0
40
0
41
1
41
1
41
1
41
1
10
-110.1855235769589
20
148.12414351730251
30
0
10
-110.3680860769589
20
147.63201851730253
30
0
10
-110.97133607695889
20
147.15576851730253
30
0
10
-111.3285235769589
20
146.79858101730252
30
0
0
SPLINE
5
286
100
AcDbEntity
8
0
100
AcDbSpline
70
4
71
3
72
8
73
4
74
0
42
0.000000001
43
0.0000000001
44
0.0000000001
40
-1
40
-1
40
-1
40
-1
40
0
40
0
40
0
40
0
41
1
41
1
41
1
41
1
10
-111.3285235769589
20
146.79858101730252
30
0
10
-112.0508360769589
20
146.06833101730251
30
0
10
-114.3844610769589
20
143.65533101730253
30
0
10
-114.8368985769589
20
143.32989351730254
30
0
0
SPLINE
5
287
100
AcDbEntity
8
0
100
AcDbSpline
70
4
71
3
72
8
73
4
74
0
42
0.000000001
43
0.0000000001
44
0.0000000001
40
-1
40
-1
40
-1
40
-1
40
0
40
0
40
0
40
0
41
1
41
1
41
1
41
1
10
-114.8368985769589
20
143.32989351730254
30
0
10
-115.4957110769589
20
143.86170601730254
30
0
10
-116.12277357695889
20
144.62370601730254
30
0
10
-116.6307735769589
20
145.32220601730251
30
0
0
SPLINE
5
288
100
AcDbEntity
8
0
100
AcDbSpline
70
4
71
3
72
8
73
4
74
0
42
0.000000001
43
0.0000000001
44
0.0000000001
40
-1
40
-1
40
-1
40
-1
40
0
40
0
40
0
40
0
41
1
41
1
41
1
41
1
10
-116.6307735769589
20
145.32220601730251
30
0
10
-116.8292110769589
20
145.59208101730252
30
0
10
-116.98796107695891
20
145.73495601730252
30
0
10
-117.1943360769589
20
146.02070601730253
30
0
0
SPLINE
5
289
100
AcDbEntity
8
0
100
AcDbSpline
70
4
71
3
72
8
73
4
74
0
42
0.000000001
43
0.0000000001
44
0.0000000001
40
-1
40
-1
40
-1
40
-1
40
0
40
0
40
0
40
0
41
1
41
1
41
1
41
1
10
-117.1943360769589
20
146.02070601730253
30
0
10
-117.87696107695891
20
146.96526851730252
30
0
10
-118.4325860769589
20
147.97333101730254
30
0
10
-119.08346107695891
20
149.08458101730253
30
0
0
SPLINE
5
290
100
AcDbEntity
8
0
100
AcDbSpline
70
4
71
3
72
8
73
4
74
0
42
0.000000001
43
0.0000000001
44
0.0000000001
40
-1
40
-1
40
-1
40
-1
40
0
40
0
40
0
40
0
41
1
41
1
41
1
41
1
10
-119.08346107695891
20
149.08458101730253
30
0
10
-122.67914857695891
20
155.23614351730254
30
0
10
-123.7665860769589
20
164.54683101730254
30
0
10
-120.9487735769589
20
171.26989351730253
30
0
0
LINE
5
291
100
AcDbEntity
8
0
100
AcDbLine
10
-120.9487735769589
20
171.26989351730253
30
0
11
-120.4090235769589
21
172.57164351730253
31
0
0
SPLINE
5
292
100
AcDbEntity
8
0
100
AcDbSpline
70
4
71
3
72
8
73
4
74
0
42
0.000000001
43
0.0000000001
44
0.0000000001
40
-1
40
-1
40
-1
40
-1
40
0
40
0
40
0
40
0
41
1
41
1
41
1
41
1
10
-120.4090235769589
20
172.57164351730253
30
0
10
-120.2899610769589
20
172.80976851730253
30
0
10
-120.3296485769589
20
172.76214351730255
30
0
10
-120.1788360769589
20
172.91295601730255
30
0
0
SPLINE
5
293
100
AcDbEntity
8
0
100
AcDbSpline
70
4
71
3
72
8
73
4
74
0
42
0.000000001
43
0.0000000001
44
0.0000000001
40
-1
40
-1
40
-1
40
-1
40
0
40
0
40
0
40
0
41
1
41
1
41
1
41
1
10
-120.1788360769589
20
172.91295601730255
30
0
10
-119.78196107695891
20
172.33351851730251
30
0
10
-119.4485860769589
20
171.73026851730253
30
0
10
-119.0358360769589
20
171.24608101730252
30
0
0
SPLINE
5
294
100
AcDbEntity
8
0
100
AcDbSpline
70
4
71
3
72
8
73
4
74
0
42
0.000000001
43
0.0000000001
44
0.0000000001
40
-1
40
-1
40
-1
40
-1
40
0
40
0
40
0
40
0
41
1
41
1
41
1
41
1
10
-119.0358360769589
20
171.24608101730252
30
0
10
-118.55958607695889
20
170.68251851730253
30
0
10
-118.2738360769589
20
170.26183101730254
30
0
10
-117.74996107695891
20
169.72208101730251
30
0
0
SPLINE
5
295
100
AcDbEntity
8
0
100
AcDbSpline
70
4
71
3
72
8
73
4
74
0
42
0.000000001
43
0.0000000001
44
0.0000000001
40
-1
40
-1
40
-1
40
-1
40
0
40
0
40
0
40
0
41
1
41
1
41
1
41
1
10
-117.74996107695891
20
169.72208101730251
30
0
10
-117.60708607695889
20
169.57126851730251
30
0
10
-117.48802357695891
20
169.48395601730255
30
0
10
-117.3610235769589
20
169.33314351730252
30
0
0
SPLINE
5
296
100
AcDbEntity
8
0
100
AcDbSpline
70
4
71
3
72
8
73
4
74
0
42
0.000000001
43
0.0000000001
44
0.0000000001
40
-1
40
-1
40
-1
40
-1
40
0
40
0
40
0
40
0
41
1
41
1
41
1
41
1
10
-117.3610235769589
20
169.33314351730252
30
0
10
-116.76571107695891
20
168.63464351730249
30
0
10
-115.7576485769589
20
167.33289351730252
30
0
10
-115.0988360769589
20
166.84870601730253
30
0
0
LINE
5
297
100
AcDbEntity
8
0
100
AcDbLine
10
-115.0988360769589
20
166.84870601730253
30
0
11
-115.5195235769589
21
164.10233101730253
31
0
0
SPLINE
5
298
100
AcDbEntity
8
0
100
AcDbSpline
70
4
71
3
72
8
73
4
74
0
42
0.000000001
43
0.0000000001
44
0.0000000001
40
-1
40
-1
40
-1
40
-1
40
0
40
0
40
0
40
0
41
1
41
1
41
1
41
1
10
-65.465648576958898
20
123.91476851730252
30
0
10
-65.67996107695889
20
121.45414351730253
30
0
10
-65.330711076958906
20
122.01770601730253
30
0
10
-67.457961076958895
20
121.73195601730254
30
0
0
SPLINE
5
299
100
AcDbEntity
8
0
100
AcDbSpline
70
4
71
3
72
8
73
4
74
0
42
0.000000001
43
0.0000000001
44
0.0000000001
40
-1
40
-1
40
-1
40
-1
40
0
40
0
40
0
40
0
41
1
41
1
41
1
41
1
10
-67.457961076958895
20
121.73195601730254
30
0
10
-68.545398576958888
20
121.58114351730251
30
0
10
-71.895023576958891
20
121.10489351730251
30
0
10
-72.609398576958895
20
121.12870601730252
30
0
0
SPLINE
5
300
100
AcDbEntity
8
0
100
AcDbSpline
70
4
71
3
72
8
73
4
74
0
42
0.000000001
43
0.0000000001
44
0.0000000001
40
-1
40
-1
40
-1
40
-1
40
0
40
0
40
0
40
0
41
1
41
1
41
1
41
1
10
-72.609398576958895
20
121.12870601730252
30
0
10
-72.355398576958891
20
121.65258101730252
30
0
10
-72.149023576958896
20
121.66845601730252
30
0
10
-72.037898576958895
20
122.46220601730252
30
0
0
SPLINE
5
301
100
AcDbEntity
8
0
100
AcDbSpline
70
4
71
3
72
8
73
4
74
0
42
0.000000001
43
0.0000000001
44
0.0000000001
40
-1
40
-1
40
-1
40
-1
40
0
40
0
40
0
40
0
41
1
41
1
41
1
41
1
10
-72.037898576958895
20
122.46220601730252
30
0
10
-71.934711076958905
20
123.20833101730253
30
0
10
-72.053773576958903
20
125.18476851730253
30
0
10
-72.4823985769589
20
125.70864351730252
30
0
0
LINE
5
302
100
AcDbEntity
8
0
100
AcDbLine
10
-72.4823985769589
20
125.70864351730252
30
0
11
-75.085898576958897
21
128.74076851730254
31
0
0
SPLINE
5
303
100
AcDbEntity
8
0
100
AcDbSpline
70
4
71
3
72
8
73
4
74
0
42
0.000000001
43
0.0000000001
44
0.0000000001
40
-1
40
-1
40
-1
40
-1
40
0
40
0
40
0
40
0
41
1
41
1
41
1
41
1
10
-75.085898576958897
20
128.74076851730254
30
0
10
-75.578023576958898
20
129.39958101730252
30
0
10
-81.372398576958886
20
135.13839351730252
30
0
10
-81.55496107695889
20
135.27333101730252
30
0
0
LINE
5
304
100
AcDbEntity
8
0
100
AcDbLine
10
-81.554961076958904
20
135.27333101730252
30
0
11
-82.047086076958891
21
135.75751851730251
31
0
0
SPLINE
5
305
100
AcDbEntity
8
0
100
AcDbSpline
70
4
71
3
72
8
73
4
74
0
42
0.000000001
43
0.0000000001
44
0.0000000001
40
-1
40
-1
40
-1
40
-1
40
0
40
0
40
0
40
0
41
1
41
1
41
1
41
1
10
-82.047086076958905
20
135.75751851730251
30
0
10
-82.197898576958892
20
135.94008101730253
30
0
10
-82.301086076958896
20
136.03533101730252
30
0
10
-82.467773576958905
20
136.20201851730252
30
0
0
SPLINE
5
306
100
AcDbEntity
8
0
100
AcDbSpline
70
4
71
3
72
8
73
4
74
0
42
0.000000001
43
0.0000000001
44
0.0000000001
40
-1
40
-1
40
-1
40
-1
40
0
40
0
40
0
40
0
41
1
41
1
41
1
41
1
10
-82.467773576958905
20
136.20201851730252
30
0
10
-82.872586076958896
20
136.59889351730251
30
0
10
-84.023523576958894
20
137.73395601730252
30
0
10
-84.245773576958896
20
138.0752685173025
30
0
0
SPLINE
5
307
100
AcDbEntity
8
0
100
AcDbSpline
70
4
71
3
72
8
73
4
74
0
42
0.000000001
43
0.0000000001
44
0.0000000001
40
-1
40
-1
40
-1
40
-1
40
0
40
0
40
0
40
0
41
1
41
1
41
1
41
1
10
-84.245773576958896
20
138.0752685173025
30
0
10
-83.444086076958897
20
138.87695601730252
30
0
10
-82.491586076958896
20
139.74214351730251
30
0
10
-81.737523576958893
20
140.59145601730253
30
0
0
LINE
5
308
100
AcDbEntity
8
0
100
AcDbLine
10
-81.737523576958907
20
140.59145601730251
30
0
11
-79.538836076958887
21
143.28226851730253
31
0
0
SPLINE
5
309
100
AcDbEntity
8
0
100
AcDbSpline
70
4
71
3
72
8
73
4
74
0
42
0.000000001
43
0.0000000001
44
0.0000000001
40
-1
40
-1
40
-1
40
-1
40
0
40
0
40
0
40
0
41
1
41
1
41
1
41
1
10
-79.538836076958887
20
143.28226851730253
30
0
10
-78.872086076958894
20
142.75045601730253
30
0
10
-77.951336076958896
20
141.73445601730253
30
0
10
-77.300461076958896
20
141.07564351730252
30
0
0
LINE
5
310
100
AcDbEntity
8
0
100
AcDbLine
10
-77.300461076958911
20
141.07564351730252
30
0
11
-70.609148576958901
21
134.38433101730251
31
0
0
SPLINE
5
311
100
AcDbEntity
8
0
100
AcDbSpline
70
4
71
3
72
8
73
4
74
0
42
0.000000001
43
0.0000000001
44
0.0000000001
40
-1
40
-1
40
-1
40
-1
40
0
40
0
40
0
40
0
41
1
41
1
41
1
41
1
10
-70.609148576958901
20
134.38433101730251
30
0
10
-67.989773576958896
20
131.76495601730252
30
0
10
-66.116523576958897
20
130.32826851730252
30
0
10
-65.560898576958891
20
126.04995601730252
30
0
0
SPLINE
5
312
100
AcDbEntity
8
0
100
AcDbSpline
70
4
71
3
72
8
73
4
74
0
42
0.000000001
43
0.0000000001
44
0.0000000001
40
-1
40
-1
40
-1
40
-1
40
0
40
0
40
0
40
0
41
1
41
1
41
1
41
1
10
-65.560898576958891
20
126.04995601730252
30
0
10
-65.473586076958895
20
125.41495601730253
30
0
10
-65.402148576958893
20
124.59739351730252
30
0
10
-65.465648576958898
20
123.91476851730252
30
0
0
SPLINE
5
313
100
AcDbEntity
8
0
100
AcDbSpline
70
4
71
3
72
8
73
4
74
0
42
0.000000001
43
0.0000000001
44
0.0000000001
40
-1
40
-1
40
-1
40
-1
40
0
40
0
40
0
40
0
41
1
41
1
41
1
41
1
10
-44.185211076958893
20
148.08445601730253
30
0
10
-45.002773576958894
20
146.67158101730254
30
0
10
-48.923898576958891
20
144.69514351730251
30
0
10
-50.797148576958904
20
144.40939351730253
30
0
0
SPLINE
5
314
100
AcDbEntity
8
0
100
AcDbSpline
70
4
71
3
72
8
73
4
74
0
42
0.000000001
43
0.0000000001
44
0.0000000001
40
-1
40
-1
40
-1
40
-1
40
0
40
0
40
0
40
0
41
1
41
1
41
1
41
1
10
-50.797148576958904
20
144.40939351730253
30
0
10
-51.328961076958905
20
144.79833101730253
30
0
10
-52.392586076958892
20
145.93339351730253
30
0
10
-52.892648576958891
20
146.46520601730253
30
0
0
SPLINE
5
315
100
AcDbEntity
8
0
100
AcDbSpline
70
4
71
3
72
8
73
4
74
0
42
0.000000001
43
0.0000000001
44
0.0000000001
40
-1
40
-1
40
-1
40
-1
40
0
40
0
40
0
40
0
41
1
41
1
41
1
41
1
10
-52.892648576958891
20
146.46520601730253
30
0
10
-53.583211076958897
20
147.19545601730255
30
0
10
-54.265836076958891
20
147.84633101730253
30
0
10
-54.980211076958895
20
148.55276851730252
30
0
0
SPLINE
5
316
100
AcDbEntity
8
0
100
AcDbSpline
70
4
71
3
72
8
73
4
74
0
42
0.000000001
43
0.0000000001
44
0.0000000001
40
-1
40
-1
40
-1
40
-1
40
0
40
0
40
0
40
0
41
1
41
1
41
1
41
1
10
-54.980211076958895
20
148.55276851730252
30
0
10
-56.893148576958893
20
150.45776851730253
30
0
10
-62.489086076958891
20
155.91876851730254
30
0
10
-63.838461076958893
20
157.45070601730254
30
0
0
SPLINE
5
317
100
AcDbEntity
8
0
100
AcDbSpline
70
4
71
3
72
8
73
4
74
0
42
0.000000001
43
0.0000000001
44
0.0000000001
40
-1
40
-1
40
-1
40
-1
40
0
40
0
40
0
40
0
41
1
41
1
41
1
41
1
10
-63.838461076958893
20
157.45070601730254
30
0
10
-64.092461076958898
20
157.74439351730254
30
0
10
-64.148023576958892
20
157.78408101730253
30
0
10
-63.989273576958894
20
158.14920601730253
30
0
0
LINE
5
318
100
AcDbEntity
8
0
100
AcDbLine
10
-63.989273576958887
20
158.14920601730253
30
0
11
-63.1717110769589
21
159.38745601730253
31
0
0
SPLINE
5
319
100
AcDbEntity
8
0
100
AcDbSpline
70
4
71
3
72
8
73
4
74
0
42
0.000000001
43
0.0000000001
44
0.0000000001
40
-1
40
-1
40
-1
40
-1
40
0
40
0
40
0
40
0
41
1
41
1
41
1
41
1
10
-63.1717110769589
20
159.38745601730253
30
0
10
-62.671648576958894
20
160.07801851730252
30
0
10
-61.790586076958895
20
160.89558101730256
30
0
10
-61.163523576958895
20
161.45120601730252
30
0
0
SPLINE
5
320
100
AcDbEntity
8
0
100
AcDbSpline
70
4
71
3
72
8
73
4
74
0
42
0.000000001
43
0.0000000001
44
0.0000000001
40
-1
40
-1
40
-1
40
-1
40
0
40
0
40
0
40
0
41
1
41
1
41
1
41
1
10
-61.163523576958895
20
161.45120601730252
30
0
10
-60.766648576958893
20
161.80045601730254
30
0
10
-60.401523576958894
20
162.07033101730252
30
0
10
-59.9649610769589
20
162.39576851730251
30
0
0
SPLINE
5
321
100
AcDbEntity
8
0
100
AcDbSpline
70
4
71
3
72
8
73
4
74
0
42
0.000000001
43
0.0000000001
44
0.0000000001
40
-1
40
-1
40
-1
40
-1
40
0
40
0
40
0
40
0
41
1
41
1
41
1
41
1
10
-59.9649610769589
20
162.39576851730251
30
0
10
-59.4887110769589
20
162.74501851730253
30
0
10
-59.274398576958887
20
162.99108101730255
30
0
10
-58.710836076958884
20
162.68151851730252
30
0
0
LINE
5
322
100
AcDbEntity
8
0
100
AcDbLine
10
-58.710836076958884
20
162.68151851730252
30
0
11
-55.527898576958883
21
159.55414351730252
31
0
0
SPLINE
5
323
100
AcDbEntity
8
0
100
AcDbSpline
70
4
71
3
72
8
73
4
74
0
42
0.000000001
43
0.0000000001
44
0.0000000001
40
-1
40
-1
40
-1
40
-1
40
0
40
0
40
0
40
0
41
1
41
1
41
1
41
1
10
-55.527898576958904
20
159.55414351730252
30
0
10
-55.377086076958904
20
159.39539351730252
30
0
10
-55.392961076958898
20
159.40333101730255
30
0
10
-55.265961076958888
20
159.23664351730253
30
0
0
LINE
5
324
100
AcDbEntity
8
0
100
AcDbLine
10
-55.265961076958888
20
159.23664351730253
30
0
11
-44.185211076958893
21
148.08445601730253
31
0
0
SPLINE
5
325
100
AcDbEntity
8
0
100
AcDbSpline
70
4
71
3
72
8
73
4
74
0
42
0.000000001
43
0.0000000001
44
0.0000000001
40
-1
40
-1
40
-1
40
-1
40
0
40
0
40
0
40
0
41
1
41
1
41
1
41
1
10
-23.111148576958893
20
141.35345601730253
30
0
10
-23.539773576958893
20
140.79783101730251
30
0
10
-23.793773576958888
20
140.13901851730253
30
0
10
-24.174773576958888
20
139.60720601730253
30
0
0
LINE
5
326
100
AcDbEntity
8
0
100
AcDbLine
10
-24.174773576958884
20
139.60720601730253
30
0
11
-26.024211076958888
21
137.17833101730253
31
0
0
SPLINE
5
327
100
AcDbEntity
8
0
100
AcDbSpline
70
4
71
3
72
8
73
4
74
0
42
0.000000001
43
0.0000000001
44
0.0000000001
40
-1
40
-1
40
-1
40
-1
40
0
40
0
40
0
40
0
41
1
41
1
41
1
41
1
10
-26.024211076958892
20
137.17833101730253
30
0
10
-26.468711076958886
20
136.57508101730252
30
0
10
-28.857898576958885
20
133.76520601730252
30
0
10
-29.254773576958897
20
133.47151851730251
30
0
0
SPLINE
5
328
100
AcDbEntity
8
0
100
AcDbSpline
70
4
71
3
72
8
73
4
74
0
42
0.000000001
43
0.0000000001
44
0.0000000001
40
-1
40
-1
40
-1
40
-1
40
0
40
0
40
0
40
0
41
1
41
1
41
1
41
1
10
-29.254773576958897
20
133.47151851730251
30
0
10
-29.5802110769589
20
133.86839351730254
30
0
10
-29.850086076958888
20
134.53514351730252
30
0
10
-30.167586076958894
20
135.03520601730253
30
0
0
SPLINE
5
329
100
AcDbEntity
8
0
100
AcDbSpline
70
4
71
3
72
8
73
4
74
0
42
0.000000001
43
0.0000000001
44
0.0000000001
40
-1
40
-1
40
-1
40
-1
40
0
40
0
40
0
40
0
41
1
41
1
41
1
41
1
10
-30.167586076958894
20
135.03520601730253
30
0
10
-31.032773576958892
20
136.39251851730253
30
0
10
-32.628211076958905
20
138.35308101730251
30
0
10
-33.2155860769589
20
139.34526851730251
30
0
0
SPLINE
5
330
100
AcDbEntity
8
0
100
AcDbSpline
70
4
71
3
72
8
73
4
74
0
42
0.000000001
43
0.0000000001
44
0.0000000001
40
-1
40
-1
40
-1
40
-1
40
0
40
0
40
0
40
0
41
1
41
1
41
1
41
1
10
-33.2155860769589
20
139.34526851730251
30
0
10
-32.699648576958893
20
139.84533101730253
30
0
10
-30.635898576958898
20
142.56789351730254
30
0
10
-30.167586076958894
20
143.26639351730253
30
0
0
SPLINE
5
331
100
AcDbEntity
8
0
100
AcDbSpline
70
4
71
3
72
8
73
4
74
0
42
0.000000001
43
0.0000000001
44
0.0000000001
40
-1
40
-1
40
-1
40
-1
40
0
40
0
40
0
40
0
41
1
41
1
41
1
41
1
10
-30.167586076958894
20
143.26639351730253
30
0
10
-29.135711076958888
20
144.79833101730253
30
0
10
-27.897461076958887
20
146.65570601730252
30
0
10
-27.040211076958887
20
148.29083101730254
30
0
0
SPLINE
5
332
100
AcDbEntity
8
0
100
AcDbSpline
70
4
71
3
72
8
73
4
74
0
42
0.000000001
43
0.0000000001
44
0.0000000001
40
-1
40
-1
40
-1
40
-1
40
0
40
0
40
0
40
0
41
1
41
1
41
1
41
1
10
-27.040211076958887
20
148.29083101730254
30
0
10
-24.531961076958897
20
153.09301851730251
30
0
10
-22.539648576958893
20
159.24458101730252
30
0
10
-21.547461076958889
20
164.72939351730253
30
0
0
SPLINE
5
333
100
AcDbEntity
8
0
100
AcDbSpline
70
4
71
3
72
8
73
4
74
0
42
0.000000001
43
0.0000000001
44
0.0000000001
40
-1
40
-1
40
-1
40
-1
40
0
40
0
40
0
40
0
41
1
41
1
41
1
41
1
10
-21.547461076958889
20
164.72939351730253
30
0
10
-21.079148576958886
20
167.35670601730251
30
0
10
-20.706086076958901
20
170.26976851730254
30
0
10
-20.602898576958886
20
173.11139351730253
30
0
0
SPLINE
5
334
100
AcDbEntity
8
0
100
AcDbSpline
70
4
71
3
72
8
73
4
74
0
42
0.000000001
43
0.0000000001
44
0.0000000001
40
-1
40
-1
40
-1
40
-1
40
0
40
0
40
0
40
0
41
1
41
1
41
1
41
1
10
-20.602898576958886
20
173.11139351730253
30
0
10
-20.539398576958892
20
174.79414351730253
30
0
10
-20.602898576958886
20
175.57995601730255
30
0
10
-20.602898576958886
20
177.19126851730252
30
0
0
SPLINE
5
335
100
AcDbEntity
8
0
100
AcDbSpline
70
4
71
3
72
8
73
4
74
0
42
0.000000001
43
0.0000000001
44
0.0000000001
40
-1
40
-1
40
-1
40
-1
40
0
40
0
40
0
40
0
41
1
41
1
41
1
41
1
10
-20.602898576958886
20
177.19126851730252
30
0
10
-20.594961076958889
20
178.61208101730253
30
0
10
-20.817211076958895
20
180.11226851730254
30
0
10
-20.936273576958886
20
181.39020601730252
30
0
0
SPLINE
5
336
100
AcDbEntity
8
0
100
AcDbSpline
70
4
71
3
72
8
73
4
74
0
42
0.000000001
43
0.0000000001
44
0.0000000001
40
-1
40
-1
40
-1
40
-1
40
0
40
0
40
0
40
0
41
1
41
1
41
1
41
1
10
-20.936273576958886
20
181.39020601730252
30
0
10
-21.436336076958895
20
186.67658101730254
30
0
10
-22.634898576958893
20
191.39145601730252
30
0
10
-24.555773576958888
20
196.19364351730255
30
0
0
SPLINE
5
337
100
AcDbEntity
8
0
100
AcDbSpline
70
4
71
3
72
8
73
4
74
0
42
0.000000001
43
0.0000000001
44
0.0000000001
40
-1
40
-1
40
-1
40
-1
40
0
40
0
40
0
40
0
41
1
41
1
41
1
41
1
10
-24.555773576958888
20
196.19364351730255
30
0
10
-24.317648576958888
20
196.52701851730254
30
0
10
-23.682648576958893
20
197.19376851730254
30
0
10
-23.317523576958887
20
197.55095601730255
30
0
0
SPLINE
5
338
100
AcDbEntity
8
0
100
AcDbSpline
70
4
71
3
72
8
73
4
74
0
42
0.000000001
43
0.0000000001
44
0.0000000001
40
-1
40
-1
40
-1
40
-1
40
0
40
0
40
0
40
0
41
1
41
1
41
1
41
1
10
-23.317523576958887
20
197.55095601730255
30
0
10
-23.111148576958893
20
197.76526851730253
30
0
10
-22.865086076958896
20
197.96370601730251
30
0
10
-22.698398576958887
20
198.18595601730252
30
0
0
SPLINE
5
339
100
AcDbEntity
8
0
100
AcDbSpline
70
4
71
3
72
8
73
4
74
0
42
0.000000001
43
0.0000000001
44
0.0000000001
40
-1
40
-1
40
-1
40
-1
40
0
40
0
40
0
40
0
41
1
41
1
41
1
41
1
10
-22.698398576958887
20
198.18595601730252
30
0
10
-22.436461076958896
20
198.51139351730254
30
0
10
-22.460273576958887
20
198.55901851730252
30
0
10
-22.134836076958901
20
198.88445601730254
30
0
0
SPLINE
5
340
100
AcDbEntity
8
0
100
AcDbSpline
70
4
71
3
72
8
73
4
74
0
42
0.000000001
43
0.0000000001
44
0.0000000001
40
-1
40
-1
40
-1
40
-1
40
0
40
0
40
0
40
0
41
1
41
1
41
1
41
1
10
-22.134836076958901
20
198.88445601730254
30
0
10
-21.666523576958898
20
199.34483101730251
30
0
10
-21.277586076958901
20
199.73376851730254
30
0
10
-20.817211076958895
20
200.19414351730256
30
0
0
SPLINE
5
341
100
AcDbEntity
8
0
100
AcDbSpline
70
4
71
3
72
8
73
4
74
0
42
0.000000001
43
0.0000000001
44
0.0000000001
40
-1
40
-1
40
-1
40
-1
40
0
40
0
40
0
40
0
41
1
41
1
41
1
41
1
10
-20.817211076958895
20
200.19414351730256
30
0
10
-20.5155860769589
20
200.50370601730253
30
0
10
-19.832961076958888
20
201.28158101730253
30
0
10
-19.555148576958885
20
201.44826851730255
30
0
0
SPLINE
5
342
100
AcDbEntity
8
0
100
AcDbSpline
70
4
71
3
72
8
73
4
74
0
42
0.000000001
43
0.0000000001
44
0.0000000001
40
-1
40
-1
40
-1
40
-1
40
0
40
0
40
0
40
0
41
1
41
1
41
1
41
1
10
-19.555148576958885
20
201.44826851730255
30
0
10
-19.158273576958891
20
200.97995601730253
30
0
10
-18.023211076958887
20
198.23358101730253
30
0
10
-17.753336076958899
20
197.51920601730257
30
0
0
SPLINE
5
343
100
AcDbEntity
8
0
100
AcDbSpline
70
4
71
3
72
8
73
4
74
0
42
0.000000001
43
0.0000000001
44
0.0000000001
40
-1
40
-1
40
-1
40
-1
40
0
40
0
40
0
40
0
41
1
41
1
41
1
41
1
10
-17.753336076958899
20
197.51920601730257
30
0
10
-17.213586076958887
20
196.09045601730253
30
0
10
-16.705586076958898
20
194.78870601730253
30
0
10
-16.300773576958889
20
193.34408101730253
30
0
0
SPLINE
5
344
100
AcDbEntity
8
0
100
AcDbSpline
70
4
71
3
72
8
73
4
74
0
42
0.000000001
43
0.0000000001
44
0.0000000001
40
-1
40
-1
40
-1
40
-1
40
0
40
0
40
0
40
0
41
1
41
1
41
1
41
1
10
-16.300773576958889
20
193.34408101730253
30
0
10
-15.872148576958889
20
191.78833101730251
30
0
10
-15.467336076958897
20
190.47070601730255
30
0
10
-15.133961076958897
20
188.87526851730254
30
0
0
SPLINE
5
345
100
AcDbEntity
8
0
100
AcDbSpline
70
4
71
3
72
8
73
4
74
0
42
0.000000001
43
0.0000000001
44
0.0000000001
40
-1
40
-1
40
-1
40
-1
40
0
40
0
40
0
40
0
41
1
41
1
41
1
41
1
10
-15.133961076958897
20
188.87526851730254
30
0
10
-14.816461076958891
20
187.35920601730254
30
0
10
-14.522773576958894
20
185.73995601730252
30
0
10
-14.276711076958897
20
184.11276851730253
30
0
0
SPLINE
5
346
100
AcDbEntity
8
0
100
AcDbSpline
70
4
71
3
72
8
73
4
74
0
42
0.000000001
43
0.0000000001
44
0.0000000001
40
-1
40
-1
40
-1
40
-1
40
0
40
0
40
0
40
0
41
1
41
1
41
1
41
1
10
-14.276711076958897
20
184.11276851730253
30
0
10
-14.038586076958897
20
182.48558101730254
30
0
10
-13.998898576958894
20
180.50914351730253
30
0
10
-13.713148576958893
20
179.01689351730255
30
0
0
SPLINE
5
347
100
AcDbEntity
8
0
100
AcDbSpline
70
4
71
3
72
8
73
4
74
0
42
0.000000001
43
0.0000000001
44
0.0000000001
40
-1
40
-1
40
-1
40
-1
40
0
40
0
40
0
40
0
41
1
41
1
41
1
41
1
10
-13.713148576958893
20
179.01689351730255
30
0
10
-13.48296107695889
20
177.75483101730254
30
0
10
-13.633773576958887
20
175.43708101730255
30
0
10
-13.594086076958884
20
173.93689351730251
30
0
0
SPLINE
5
348
100
AcDbEntity
8
0
100
AcDbSpline
70
4
71
3
72
8
73
4
74
0
42
0.000000001
43
0.0000000001
44
0.0000000001
40
-1
40
-1
40
-1
40
-1
40
0
40
0
40
0
40
0
41
1
41
1
41
1
41
1
10
-13.594086076958884
20
173.93689351730251
30
0
10
-13.419461076958896
20
166.60264351730251
30
0
10
-15.427648576958894
20
157.19670601730252
30
0
10
-18.213711076958887
20
150.52920601730253
30
0
0
SPLINE
5
349
100
AcDbEntity
8
0
100
AcDbSpline
70
4
71
3
72
8
73
4
74
0
42
0.000000001
43
0.0000000001
44
0.0000000001
40
-1
40
-1
40
-1
40
-1
40
0
40
0
40
0
40
0
41
1
41
1
41
1
41
1
10
-18.213711076958887
20
150.52920601730253
30
0
10
-18.356586076958887
20
150.18789351730251
30
0
10
-18.428023576958896
20
149.81483101730254
30
0
10
-18.594711076958887
20
149.44176851730253
30
0
0
SPLINE
5
350
100
AcDbEntity
8
0
100
AcDbSpline
70
4
71
3
72
8
73
4
74
0
42
0.000000001
43
0.0000000001
44
0.0000000001
40
-1
40
-1
40
-1
40
-1
40
0
40
0
40
0
40
0
41
1
41
1
41
1
41
1
10
-18.594711076958887
20
149.44176851730253
30
0
10
-19.872648576958891
20
146.58426851730252
30
0
10
-20.721961076958895
20
145.17933101730253
30
0
10
-22.325336076958902
20
142.59964351730252
30
0
0
SPLINE
5
351
100
AcDbEntity
8
0
100
AcDbSpline
70
4
71
3
72
8
73
4
74
0
42
0.000000001
43
0.0000000001
44
0.0000000001
40
-1
40
-1
40
-1
40
-1
40
0
40
0
40
0
40
0
41
1
41
1
41
1
41
1
10
-22.325336076958902
20
142.59964351730252
30
0
10
-22.650773576958887
20
142.06783101730252
30
0
10
-22.579336076958896
20
142.04401851730253
30
0
10
-23.111148576958893
20
141.35345601730253
30
0
0
SPLINE
5
352
100
AcDbEntity
8
0
100
AcDbSpline
70
4
71
3
72
8
73
4
74
0
42
0.000000001
43
0.0000000001
44
0.0000000001
40
-1
40
-1
40
-1
40
-1
40
0
40
0
40
0
40
0
41
1
41
1
41
1
41
1
10
-31.739211076958895
20
174.61158101730251
30
0
10
-29.897711076958888
20
171.48420601730251
30
0
10
-28.429273576958884
20
167.12651851730254
30
0
10
-28.429273576958884
20
163.31651851730254
30
0
0
SPLINE
5
353
100
AcDbEntity
8
0
100
AcDbSpline
70
4
71
3
72
8
73
4
74
0
42
0.000000001
43
0.0000000001
44
0.0000000001
40
-1
40
-1
40
-1
40
-1
40
0
40
0
40
0
40
0
41
1
41
1
41
1
41
1
10
-28.429273576958884
20
163.31651851730254
30
0
10
-28.429273576958884
20
162.16558101730254
30
0
10
-28.60389857695889
20
157.95076851730252
30
0
10
-29.159523576958897
20
156.95858101730252
30
0
0
SPLINE
5
354
100
AcDbEntity
8
0
100
AcDbSpline
70
4
71
3
72
8
73
4
74
0
42
0.000000001
43
0.0000000001
44
0.0000000001
40
-1
40
-1
40
-1
40
-1
40
0
40
0
40
0
40
0
41
1
41
1
41
1
41
1
10
-29.159523576958897
20
156.95858101730252
30
0
10
-29.4849610769589
20
157.13320601730254
30
0
10
-29.508773576958891
20
157.22051851730254
30
0
10
-29.810398576958885
20
157.52214351730254
30
0
0
SPLINE
5
355
100
AcDbEntity
8
0
100
AcDbSpline
70
4
71
3
72
8
73
4
74
0
42
0.000000001
43
0.0000000001
44
0.0000000001
40
-1
40
-1
40
-1
40
-1
40
0
40
0
40
0
40
0
41
1
41
1
41
1
41
1
10
-29.810398576958885
20
157.52214351730254
30
0
10
-29.985023576958891
20
157.69676851730253
30
0
10
-30.167586076958894
20
157.88726851730252
30
0
10
-30.3898360769589
20
158.10158101730252
30
0
0
LINE
5
356
100
AcDbEntity
8
0
100
AcDbLine
10
-30.3898360769589
20
158.10158101730252
30
0
11
-33.763273576958902
21
161.42739351730253
31
0
0
SPLINE
5
357
100
AcDbEntity
8
0
100
AcDbSpline
70
4
71
3
72
8
73
4
74
0
42
0.000000001
43
0.0000000001
44
0.0000000001
40
-1
40
-1
40
-1
40
-1
40
0
40
0
40
0
40
0
41
1
41
1
41
1
41
1
10
-33.763273576958888
20
161.42739351730253
30
0
10
-35.382523576958889
20
163.04664351730253
30
0
10
-34.676086076958882
20
162.17351851730254
30
0
10
-35.049148576958885
20
164.60239351730252
30
0
0
SPLINE
5
358
100
AcDbEntity
8
0
100
AcDbSpline
70
4
71
3
72
8
73
4
74
0
42
0.000000001
43
0.0000000001
44
0.0000000001
40
-1
40
-1
40
-1
40
-1
40
0
40
0
40
0
40
0
41
1
41
1
41
1
41
1
10
-35.049148576958885
20
164.60239351730252
30
0
10
-35.636523576958901
20
168.44414351730251
30
0
10
-37.57327357695889
20
171.44451851730253
30
0
10
-39.994211076958891
20
174.21470601730252
30
0
0
LINE
5
359
100
AcDbEntity
8
0
100
AcDbLine
10
-39.994211076958891
20
174.21470601730255
30
0
11
-41.565836076958895
21
175.94508101730253
31
0
0
SPLINE
5
360
100
AcDbEntity
8
0
100
AcDbSpline
70
4
71
3
72
8
73
4
74
0
42
0.000000001
43
0.0000000001
44
0.0000000001
40
-1
40
-1
40
-1
40
-1
40
0
40
0
40
0
40
0
41
1
41
1
41
1
41
1
10
-41.565836076958895
20
175.94508101730253
30
0
10
-41.978586076958905
20
176.38164351730254
30
0
10
-42.296086076958886
20
176.65151851730252
30
0
10
-42.685023576958883
20
177.04839351730254
30
0
0
SPLINE
5
361
100
AcDbEntity
8
0
100
AcDbSpline
70
4
71
3
72
8
73
4
74
0
42
0.000000001
43
0.0000000001
44
0.0000000001
40
-1
40
-1
40
-1
40
-1
40
0
40
0
40
0
40
0
41
1
41
1
41
1
41
1
10
-42.685023576958883
20
177.04839351730254
30
0
10
-43.01046107695889
20
177.37383101730251
30
0
10
-43.589898576958888
20
177.81039351730254
30
0
10
-43.81214857695889
20
178.17551851730252
30
0
0
SPLINE
5
362
100
AcDbEntity
8
0
100
AcDbSpline
70
4
71
3
72
8
73
4
74
0
42
0.000000001
43
0.0000000001
44
0.0000000001
40
-1
40
-1
40
-1
40
-1
40
0
40
0
40
0
40
0
41
1
41
1
41
1
41
1
10
-43.81214857695889
20
178.17551851730252
30
0
10
-43.002523576958893
20
178.42951851730251
30
0
10
-41.621398576958896
20
179.89795601730253
30
0
10
-41.105461076958889
20
180.40595601730251
30
0
0
SPLINE
5
363
100
AcDbEntity
8
0
100
AcDbSpline
70
4
71
3
72
8
73
4
74
0
42
0.000000001
43
0.0000000001
44
0.0000000001
40
-1
40
-1
40
-1
40
-1
40
0
40
0
40
0
40
0
41
1
41
1
41
1
41
1
10
-41.105461076958889
20
180.40595601730251
30
0
10
-38.406711076958899
20
183.04914351730253
30
0
10
-39.303648576958906
20
183.13645601730252
30
0
10
-37.319273576958892
20
181.26320601730254
30
0
0
SPLINE
5
364
100
AcDbEntity
8
0
100
AcDbSpline
70
4
71
3
72
8
73
4
74
0
42
0.000000001
43
0.0000000001
44
0.0000000001
40
-1
40
-1
40
-1
40
-1
40
0
40
0
40
0
40
0
41
1
41
1
41
1
41
1
10
-37.319273576958892
20
181.26320601730254
30
0
10
-36.850961076958896
20
180.81870601730253
30
0
10
-36.509648576958895
20
180.50914351730253
30
0
10
-36.073086076958901
20
180.07258101730253
30
0
0
SPLINE
5
365
100
AcDbEntity
8
0
100
AcDbSpline
70
4
71
3
72
8
73
4
74
0
42
0.000000001
43
0.0000000001
44
0.0000000001
40
-1
40
-1
40
-1
40
-1
40
0
40
0
40
0
40
0
41
1
41
1
41
1
41
1
10
-36.073086076958901
20
180.07258101730253
30
0
10
-35.842898576958895
20
179.84239351730253
30
0
10
-35.668273576958889
20
179.6757060173025
30
0
10
-35.4460235769589
20
179.44551851730253
30
0
0
SPLINE
5
366
100
AcDbEntity
8
0
100
AcDbSpline
70
4
71
3
72
8
73
4
74
0
42
0.000000001
43
0.0000000001
44
0.0000000001
40
-1
40
-1
40
-1
40
-1
40
0
40
0
40
0
40
0
41
1
41
1
41
1
41
1
10
-35.4460235769589
20
179.44551851730253
30
0
10
-35.3507735769589
20
179.34233101730254
30
0
10
-35.263461076958897
20
179.22326851730253
30
0
10
-35.1602735769589
20
179.14389351730253
30
0
0
SPLINE
5
367
100
AcDbEntity
8
0
100
AcDbSpline
70
4
71
3
72
8
73
4
74
0
42
0.000000001
43
0.0000000001
44
0.0000000001
40
-1
40
-1
40
-1
40
-1
40
0
40
0
40
0
40
0
41
1
41
1
41
1
41
1
10
-35.1602735769589
20
179.14389351730253
30
0
10
-34.247461076958899
20
178.35808101730251
30
0
10
-35.009461076958885
20
179.01689351730255
30
0
10
-34.27127357695889
20
178.19933101730254
30
0
0
SPLINE
5
368
100
AcDbEntity
8
0
100
AcDbSpline
70
4
71
3
72
8
73
4
74
0
42
0.000000001
43
0.0000000001
44
0.0000000001
40
-1
40
-1
40
-1
40
-1
40
0
40
0
40
0
40
0
41
1
41
1
41
1
41
1
10
-34.27127357695889
20
178.19933101730254
30
0
10
-33.37433607695889
20
177.20714351730251
30
0
10
-32.405961076958896
20
175.75458101730251
30
0
10
-31.739211076958895
20
174.61158101730251
30
0
0
SPLINE
5
369
100
AcDbEntity
8
0
100
AcDbSpline
70
4
71
3
72
8
73
4
74
0
42
0.000000001
43
0.0000000001
44
0.0000000001
40
-1
40
-1
40
-1
40
-1
40
0
40
0
40
0
40
0
41
1
41
1
41
1
41
1
10
-39.1290235769589
20
140.38508101730253
30
0
10
-40.843523576958901
20
138.8372685173025
30
0
10
-44.399523576958885
20
137.03545601730252
30
0
10
-46.550586076958886
20
136.45601851730251
30
0
0
SPLINE
5
370
100
AcDbEntity
8
0
100
AcDbSpline
70
4
71
3
72
8
73
4
74
0
42
0.000000001
43
0.0000000001
44
0.0000000001
40
-1
40
-1
40
-1
40
-1
40
0
40
0
40
0
40
0
41
1
41
1
41
1
41
1
10
-46.550586076958886
20
136.45601851730251
30
0
10
-51.495648576958892
20
135.13045601730252
30
0
10
-56.123211076958896
20
135.00345601730254
30
0
10
-60.933336076958895
20
136.97195601730252
30
0
0
SPLINE
5
371
100
AcDbEntity
8
0
100
AcDbSpline
70
4
71
3
72
8
73
4
74
0
42
0.000000001
43
0.0000000001
44
0.0000000001
40
-1
40
-1
40
-1
40
-1
40
0
40
0
40
0
40
0
41
1
41
1
41
1
41
1
10
-60.933336076958895
20
136.97195601730252
30
0
10
-61.885836076958896
20
137.35295601730252
30
0
10
-64.211523576958896
20
138.40070601730253
30
0
10
-64.576648576958902
20
138.97220601730251
30
0
0
SPLINE
5
372
100
AcDbEntity
8
0
100
AcDbSpline
70
4
71
3
72
8
73
4
74
0
42
0.000000001
43
0.0000000001
44
0.0000000001
40
-1
40
-1
40
-1
40
-1
40
0
40
0
40
0
40
0
41
1
41
1
41
1
41
1
10
-64.576648576958902
20
138.97220601730251
30
0
10
-63.616211076958898
20
139.75008101730251
30
0
10
-60.941273576958892
20
142.67901851730252
30
0
10
-59.758586076958892
20
143.70295601730251
30
0
0
SPLINE
5
373
100
AcDbEntity
8
0
100
AcDbSpline
70
4
71
3
72
8
73
4
74
0
42
0.000000001
43
0.0000000001
44
0.0000000001
40
-1
40
-1
40
-1
40
-1
40
0
40
0
40
0
40
0
41
1
41
1
41
1
41
1
10
-59.758586076958892
20
143.70295601730251
30
0
10
-59.274398576958887
20
143.64739351730253
30
0
10
-58.69496107695889
20
143.34576851730253
30
0
10
-58.202836076958903
20
143.19495601730253
30
0
0
SPLINE
5
374
100
AcDbEntity
8
0
100
AcDbSpline
70
4
71
3
72
8
73
4
74
0
42
0.000000001
43
0.0000000001
44
0.0000000001
40
-1
40
-1
40
-1
40
-1
40
0
40
0
40
0
40
0
41
1
41
1
41
1
41
1
10
-58.202836076958903
20
143.19495601730253
30
0
10
-54.591273576958898
20
142.14720601730252
30
0
10
-50.074836076958888
20
142.29008101730253
30
0
10
-46.701398576958901
20
143.98076851730252
30
0
0
SPLINE
5
375
100
AcDbEntity
8
0
100
AcDbSpline
70
4
71
3
72
8
73
4
74
0
42
0.000000001
43
0.0000000001
44
0.0000000001
40
-1
40
-1
40
-1
40
-1
40
0
40
0
40
0
40
0
41
1
41
1
41
1
41
1
10
-46.701398576958901
20
143.98076851730252
30
0
10
-44.764648576958891
20
144.9491435173025
30
0
10
-44.613836076958897
20
145.28251851730252
30
0
10
-43.232711076958893
20
146.33820601730253
30
0
0
SPLINE
5
376
100
AcDbEntity
8
0
100
AcDbSpline
70
4
71
3
72
8
73
4
74
0
42
0.000000001
43
0.0000000001
44
0.0000000001
40
-1
40
-1
40
-1
40
-1
40
0
40
0
40
0
40
0
41
1
41
1
41
1
41
1
10
-43.232711076958893
20
146.33820601730253
30
0
10
-42.827898576958887
20
146.64776851730252
30
0
10
-41.811898576958896
20
147.87014351730252
30
0
10
-41.391211076958889
20
148.37020601730251
30
0
0
SPLINE
5
377
100
AcDbEntity
8
0
100
AcDbSpline
70
4
71
3
72
8
73
4
74
0
42
0.000000001
43
0.0000000001
44
0.0000000001
40
-1
40
-1
40
-1
40
-1
40
0
40
0
40
0
40
0
41
1
41
1
41
1
41
1
10
-41.391211076958889
20
148.37020601730251
30
0
10
-41.081648576958898
20
148.73533101730254
30
0
10
-40.843523576958901
20
149.06870601730253
30
0
10
-40.565711076958891
20
149.48939351730252
30
0
0
SPLINE
5
378
100
AcDbEntity
8
0
100
AcDbSpline
70
4
71
3
72
8
73
4
74
0
42
0.000000001
43
0.0000000001
44
0.0000000001
40
-1
40
-1
40
-1
40
-1
40
0
40
0
40
0
40
0
41
1
41
1
41
1
41
1
10
-40.565711076958891
20
149.48939351730252
30
0
10
-40.303773576958889
20
149.87833101730251
30
0
10
-40.113273576958903
20
150.28314351730251
30
0
10
-39.875148576958907
20
150.74351851730253
30
0
0
SPLINE
5
379
100
AcDbEntity
8
0
100
AcDbSpline
70
4
71
3
72
8
73
4
74
0
42
0.000000001
43
0.0000000001
44
0.0000000001
40
-1
40
-1
40
-1
40
-1
40
0
40
0
40
0
40
0
41
1
41
1
41
1
41
1
10
-39.875148576958907
20
150.74351851730253
30
0
10
-39.684648576958907
20
151.10864351730254
30
0
10
-39.517961076958898
20
151.71189351730251
30
0
10
-39.248086076958884
20
152.05320601730253
30
0
0
SPLINE
5
380
100
AcDbEntity
8
0
100
AcDbSpline
70
4
71
3
72
8
73
4
74
0
42
0.000000001
43
0.0000000001
44
0.0000000001
40
-1
40
-1
40
-1
40
-1
40
0
40
0
40
0
40
0
41
1
41
1
41
1
41
1
10
-39.248086076958884
20
152.05320601730253
30
0
10
-38.827398576958899
20
151.79920601730254
30
0
10
-38.247961076958887
20
151.12451851730253
30
0
10
-37.85902357695889
20
150.72764351730254
30
0
0
SPLINE
5
381
100
AcDbEntity
8
0
100
AcDbSpline
70
4
71
3
72
8
73
4
74
0
42
0.000000001
43
0.0000000001
44
0.0000000001
40
-1
40
-1
40
-1
40
-1
40
0
40
0
40
0
40
0
41
1
41
1
41
1
41
1
10
-37.85902357695889
20
150.72764351730254
30
0
10
-37.239898576958893
20
150.07676851730253
30
0
10
-34.231586076958891
20
147.14783101730254
30
0
10
-33.961711076958906
20
146.71920601730253
30
0
0
SPLINE
5
382
100
AcDbEntity
8
0
100
AcDbSpline
70
4
71
3
72
8
73
4
74
0
42
0.000000001
43
0.0000000001
44
0.0000000001
40
-1
40
-1
40
-1
40
-1
40
0
40
0
40
0
40
0
41
1
41
1
41
1
41
1
10
-33.961711076958906
20
146.71920601730253
30
0
10
-34.390336076958889
20
145.22695601730251
30
0
10
-36.779523576958901
20
142.82983101730252
30
0
10
-37.636773576958902
20
141.71064351730254
30
0
0
LINE
5
383
100
AcDbEntity
8
0
100
AcDbLine
10
-37.636773576958902
20
141.71064351730254
30
0
11
-39.1290235769589
21
140.38508101730253
31
0
0
SPLINE
5
384
100
AcDbEntity
8
0
100
AcDbSpline
70
4
71
3
72
8
73
4
74
0
42
0.000000001
43
0.0000000001
44
0.0000000001
40
-1
40
-1
40
-1
40
-1
40
0
40
0
40
0
40
0
41
1
41
1
41
1
41
1
10
-87.254086076958899
20
151.30708101730252
30
0
10
-87.643023576958896
20
149.22745601730253
30
0
10
-89.746461076958894
20
146.27470601730252
30
0
10
-91.548273576958906
20
145.56033101730253
30
0
0
SPLINE
5
385
100
AcDbEntity
8
0
100
AcDbSpline
70
4
71
3
72
8
73
4
74
0
42
0.000000001
43
0.0000000001
44
0.0000000001
40
-1
40
-1
40
-1
40
-1
40
0
40
0
40
0
40
0
41
1
41
1
41
1
41
1
10
-91.548273576958906
20
145.56033101730253
30
0
10
-91.937211076958903
20
145.79051851730253
30
0
10
-92.53252357695888
20
146.52870601730254
30
0
10
-92.9373360769589
20
146.88589351730252
30
0
0
LINE
5
386
100
AcDbEntity
8
0
100
AcDbLine
10
-92.937336076958914
20
146.88589351730252
30
0
11
-93.405648576958896
21
147.29864351730254
31
0
0
SPLINE
5
387
100
AcDbEntity
8
0
100
AcDbSpline
70
4
71
3
72
8
73
4
74
0
42
0.000000001
43
0.0000000001
44
0.0000000001
40
-1
40
-1
40
-1
40
-1
40
0
40
0
40
0
40
0
41
1
41
1
41
1
41
1
10
-93.405648576958896
20
147.29864351730254
30
0
10
-93.619961076958901
20
147.49708101730252
30
0
10
-93.635836076958896
20
147.47326851730253
30
0
10
-93.873961076958906
20
147.70345601730253
30
0
0
SPLINE
5
388
100
AcDbEntity
8
0
100
AcDbSpline
70
4
71
3
72
8
73
4
74
0
42
0.000000001
43
0.0000000001
44
0.0000000001
40
-1
40
-1
40
-1
40
-1
40
0
40
0
40
0
40
0
41
1
41
1
41
1
41
1
10
-93.873961076958906
20
147.70345601730253
30
0
10
-95.390023576958896
20
149.22745601730253
30
0
10
-97.302961076958894
20
150.91020601730253
30
0
10
-98.628523576958884
20
152.55326851730251
30
0
0
SPLINE
5
389
100
AcDbEntity
8
0
100
AcDbSpline
70
4
71
3
72
8
73
4
74
0
42
0.000000001
43
0.0000000001
44
0.0000000001
40
-1
40
-1
40
-1
40
-1
40
0
40
0
40
0
40
0
41
1
41
1
41
1
41
1
10
-98.628523576958884
20
152.55326851730251
30
0
10
-99.112711076958888
20
153.14858101730252
30
0
10
-99.803273576958901
20
153.75183101730252
30
0
10
-100.35889857695891
20
154.31539351730254
30
0
0
SPLINE
5
390
100
AcDbEntity
8
0
100
AcDbSpline
70
4
71
3
72
8
73
4
74
0
42
0.000000001
43
0.0000000001
44
0.0000000001
40
-1
40
-1
40
-1
40
-1
40
0
40
0
40
0
40
0
41
1
41
1
41
1
41
1
10
-100.35889857695891
20
154.31539351730254
30
0
10
-101.0256485769589
20
154.98214351730252
30
0
10
-101.23996107695889
20
155.04564351730252
30
0
10
-101.66064857695889
20
155.62508101730253
30
0
0
SPLINE
5
391
100
AcDbEntity
8
0
100
AcDbSpline
70
4
71
3
72
8
73
4
74
0
42
0.000000001
43
0.0000000001
44
0.0000000001
40
-1
40
-1
40
-1
40
-1
40
0
40
0
40
0
40
0
41
1
41
1
41
1
41
1
10
-101.66064857695889
20
155.62508101730253
30
0
10
-102.04164857695889
20
156.14895601730251
30
0
10
-105.25633607695892
20
159.10964351730254
30
0
10
-105.51033607695891
20
159.63351851730252
30
0
0
LINE
5
392
100
AcDbEntity
8
0
100
AcDbLine
10
-105.51033607695891
20
159.63351851730252
30
0
11
-102.73221107695889
21
161.97508101730253
31
0
0
SPLINE
5
393
100
AcDbEntity
8
0
100
AcDbSpline
70
4
71
3
72
8
73
4
74
0
42
0.000000001
43
0.0000000001
44
0.0000000001
40
-1
40
-1
40
-1
40
-1
40
0
40
0
40
0
40
0
41
1
41
1
41
1
41
1
10
-102.73221107695889
20
161.97508101730253
30
0
10
-101.8749610769589
20
162.62595601730254
30
0
10
-100.70814857695891
20
163.45939351730252
30
0
10
-99.414336076958904
20
163.68958101730254
30
0
0
LINE
5
394
100
AcDbEntity
8
0
100
AcDbLine
10
-99.414336076958904
20
163.68958101730254
30
0
11
-94.024773576958893
21
158.21270601730254
31
0
0
SPLINE
5
395
100
AcDbEntity
8
0
100
AcDbSpline
70
4
71
3
72
8
73
4
74
0
42
0.000000001
43
0.0000000001
44
0.0000000001
40
-1
40
-1
40
-1
40
-1
40
0
40
0
40
0
40
0
41
1
41
1
41
1
41
1
10
-94.024773576958893
20
158.21270601730254
30
0
10
-93.580273576958888
20
157.67295601730251
30
0
10
-87.770023576958906
20
151.64839351730254
30
0
10
-87.254086076958899
20
151.30708101730252
30
0
0
SPLINE
5
396
100
AcDbEntity
8
0
100
AcDbSpline
70
4
71
3
72
8
73
4
74
0
42
0.000000001
43
0.0000000001
44
0.0000000001
40
-1
40
-1
40
-1
40
-1
40
0
40
0
40
0
40
0
41
1
41
1
41
1
41
1
10
-129.44983607695892
20
185.09701851730253
30
0
10
-131.30721107695891
20
175.07989351730254
30
0
10
-130.67221107695889
20
164.45951851730254
30
0
10
-127.1717735769589
20
154.76783101730251
30
0
0
SPLINE
5
397
100
AcDbEntity
8
0
100
AcDbSpline
70
4
71
3
72
8
73
4
74
0
42
0.000000001
43
0.0000000001
44
0.0000000001
40
-1
40
-1
40
-1
40
-1
40
0
40
0
40
0
40
0
41
1
41
1
41
1
41
1
10
-127.1717735769589
20
154.76783101730251
30
0
10
-126.9812735769589
20
154.25189351730253
30
0
10
-126.6637735769589
20
153.64864351730253
30
0
10
-126.5685235769589
20
153.12476851730253
30
0
0
SPLINE
5
398
100
AcDbEntity
8
0
100
AcDbSpline
70
4
71
3
72
8
73
4
74
0
42
0.000000001
43
0.0000000001
44
0.0000000001
40
-1
40
-1
40
-1
40
-1
40
0
40
0
40
0
40
0
41
1
41
1
41
1
41
1
10
-126.5685235769589
20
153.12476851730253
30
0
10
-127.25114857695891
20
152.31514351730252
30
0
10
-128.2750860769589
20
151.39439351730255
30
0
10
-129.08471107695891
20
150.58476851730254
30
0
0
LINE
5
399
100
AcDbEntity
8
0
100
AcDbLine
10
-129.08471107695891
20
150.58476851730254
30
0
11
-131.4818360769589
21
148.12414351730251
31
0
0
LINE
5
400
100
AcDbEntity
8
0
100
AcDbLine
10
-131.4818360769589
20
148.12414351730251
30
0
11
-132.73596107695889
21
150.55301851730252
31
0
0
SPLINE
5
401
100
AcDbEntity
8
0
100
AcDbSpline
70
4
71
3
72
8
73
4
74
0
42
0.000000001
43
0.0000000001
44
0.0000000001
40
-1
40
-1
40
-1
40
-1
40
0
40
0
40
0
40
0
41
1
41
1
41
1
41
1
10
-132.73596107695892
20
150.55301851730252
30
0
10
-133.0772735769589
20
151.41820601730251
30
0
10
-133.42652357695891
20
152.21195601730253
30
0
10
-133.7678360769589
20
153.11683101730253
30
0
0
SPLINE
5
402
100
AcDbEntity
8
0
100
AcDbSpline
70
4
71
3
72
8
73
4
74
0
42
0.000000001
43
0.0000000001
44
0.0000000001
40
-1
40
-1
40
-1
40
-1
40
0
40
0
40
0
40
0
41
1
41
1
41
1
41
1
10
-133.7678360769589
20
153.11683101730253
30
0
10
-135.9030235769589
20
158.79214351730252
30
0
10
-137.31589857695892
20
166.02320601730253
30
0
10
-137.32383607695891
20
172.14301851730252
30
0
0
SPLINE
5
403
100
AcDbEntity
8
0
100
AcDbSpline
70
4
71
3
72
8
73
4
74
0
42
0.000000001
43
0.0000000001
44
0.0000000001
40
-1
40
-1
40
-1
40
-1
40
0
40
0
40
0
40
0
41
1
41
1
41
1
41
1
10
-137.32383607695891
20
172.14301851730252
30
0
10
-137.3555860769589
20
179.61220601730253
30
0
10
-136.92696107695892
20
184.87476851730253
30
0
10
-134.95052357695891
20
191.87564351730254
30
0
0
SPLINE
5
404
100
AcDbEntity
8
0
100
AcDbSpline
70
4
71
3
72
8
73
4
74
0
42
0.000000001
43
0.0000000001
44
0.0000000001
40
-1
40
-1
40
-1
40
-1
40
0
40
0
40
0
40
0
41
1
41
1
41
1
41
1
10
-134.95052357695891
20
191.87564351730254
30
0
10
-134.40283607695892
20
193.82033101730255
30
0
10
-133.7678360769589
20
195.59039351730252
30
0
10
-133.0931485769589
20
197.47951851730252
30
0
0
SPLINE
5
405
100
AcDbEntity
8
0
100
AcDbSpline
70
4
71
3
72
8
73
4
74
0
42
0.000000001
43
0.0000000001
44
0.0000000001
40
-1
40
-1
40
-1
40
-1
40
0
40
0
40
0
40
0
41
1
41
1
41
1
41
1
10
-133.0931485769589
20
197.47951851730252
30
0
10
-132.25971107695892
20
199.81314351730254
30
0
10
-130.66427357695889
20
203.04370601730253
30
0
10
-129.44983607695892
20
205.18683101730255
30
0
0
SPLINE
5
406
100
AcDbEntity
8
0
100
AcDbSpline
70
4
71
3
72
8
73
4
74
0
42
0.000000001
43
0.0000000001
44
0.0000000001
40
-1
40
-1
40
-1
40
-1
40
0
40
0
40
0
40
0
41
1
41
1
41
1
41
1
10
-129.44983607695892
20
205.18683101730255
30
0
10
-128.98946107695889
20
205.98851851730251
30
0
10
-128.5767110769589
20
206.67908101730256
30
0
10
-128.08458607695889
20
207.51251851730251
30
0
0
SPLINE
5
407
100
AcDbEntity
8
0
100
AcDbSpline
70
4
71
3
72
8
73
4
74
0
42
0.000000001
43
0.0000000001
44
0.0000000001
40
-1
40
-1
40
-1
40
-1
40
0
40
0
40
0
40
0
41
1
41
1
41
1
41
1
10
-128.08458607695889
20
207.51251851730251
30
0
10
-127.9813985769589
20
207.69508101730253
30
0
10
-127.8940860769589
20
207.88558101730251
30
0
10
-127.7432735769589
20
208.14751851730253
30
0
0
LINE
5
408
100
AcDbEntity
8
0
100
AcDbLine
10
-127.7432735769589
20
208.14751851730253
30
0
11
-126.61614857695889
21
209.82233101730256
31
0
0
SPLINE
5
409
100
AcDbEntity
8
0
100
AcDbSpline
70
4
71
3
72
8
73
4
74
0
42
0.000000001
43
0.0000000001
44
0.0000000001
40
-1
40
-1
40
-1
40
-1
40
0
40
0
40
0
40
0
41
1
41
1
41
1
41
1
10
-126.61614857695889
20
209.82233101730253
30
0
10
-126.3700860769589
20
210.16364351730255
30
0
10
-126.07639857695889
20
210.49701851730254
30
0
10
-125.81446107695891
20
210.87008101730251
30
0
0
LINE
5
410
100
AcDbEntity
8
0
100
AcDbLine
10
-125.81446107695891
20
210.87008101730248
30
0
11
-121.53614857695891
21
215.8707060173025
31
0
0
SPLINE
5
411
100
AcDbEntity
8
0
100
AcDbSpline
70
4
71
3
72
8
73
4
74
0
42
0.000000001
43
0.0000000001
44
0.0000000001
40
-1
40
-1
40
-1
40
-1
40
0
40
0
40
0
40
0
41
1
41
1
41
1
41
1
10
-121.53614857695891
20
215.87070601730255
30
0
10
-120.75827357695889
20
215.20395601730254
30
0
10
-120.15502357695891
20
214.06095601730254
30
0
10
-119.59146107695889
20
213.00526851730254
30
0
0
SPLINE
5
412
100
AcDbEntity
8
0
100
AcDbSpline
70
4
71
3
72
8
73
4
74
0
42
0.000000001
43
0.0000000001
44
0.0000000001
40
-1
40
-1
40
-1
40
-1
40
0
40
0
40
0
40
0
41
1
41
1
41
1
41
1
10
-119.59146107695889
20
213.00526851730254
30
0
10
-118.75802357695889
20
211.44951851730255
30
0
10
-118.52783607695891
20
211.31458101730254
30
0
10
-117.5991485769589
20
210.17951851730254
30
0
0
SPLINE
5
413
100
AcDbEntity
8
0
100
AcDbSpline
70
4
71
3
72
8
73
4
74
0
42
0.000000001
43
0.0000000001
44
0.0000000001
40
-1
40
-1
40
-1
40
-1
40
0
40
0
40
0
40
0
41
1
41
1
41
1
41
1
10
-117.5991485769589
20
210.17951851730254
30
0
10
-117.7737735769589
20
209.88583101730254
30
0
10
-118.3770235769589
20
209.29051851730253
30
0
10
-118.6627735769589
20
208.95714351730251
30
0
0
SPLINE
5
414
100
AcDbEntity
8
0
100
AcDbSpline
70
4
71
3
72
8
73
4
74
0
42
0.000000001
43
0.0000000001
44
0.0000000001
40
-1
40
-1
40
-1
40
-1
40
0
40
0
40
0
40
0
41
1
41
1
41
1
41
1
10
-118.6627735769589
20
208.95714351730251
30
0
10
-119.37714857695892
20
208.09195601730252
30
0
10
-120.92496107695891
20
205.71864351730252
30
0
10
-121.57583607695891
20
204.88520601730255
30
0
0
LINE
5
415
100
AcDbEntity
8
0
100
AcDbLine
10
-121.57583607695891
20
204.88520601730258
30
0
11
-122.90933607695891
21
202.71826851730253
31
0
0
SPLINE
5
416
100
AcDbEntity
8
0
100
AcDbSpline
70
4
71
3
72
8
73
4
74
0
42
0.000000001
43
0.0000000001
44
0.0000000001
40
-1
40
-1
40
-1
40
-1
40
0
40
0
40
0
40
0
41
1
41
1
41
1
41
1
10
-122.90933607695891
20
202.71826851730253
30
0
10
-124.94133607695889
20
199.03526851730251
30
0
10
-126.14783607695891
20
196.73339351730252
30
0
10
-127.56864857695889
20
192.44714351730252
30
0
0
SPLINE
5
417
100
AcDbEntity
8
0
100
AcDbSpline
70
4
71
3
72
8
73
4
74
0
42
0.000000001
43
0.0000000001
44
0.0000000001
40
-1
40
-1
40
-1
40
-1
40
0
40
0
40
0
40
0
41
1
41
1
41
1
41
1
10
-127.56864857695889
20
192.44714351730252
30
0
10
-128.1242735769589
20
190.75645601730253
30
0
10
-128.17189857695891
20
190.35164351730253
30
0
10
-128.60846107695889
20
188.81970601730251
30
0
0
SPLINE
5
418
100
AcDbEntity
8
0
100
AcDbSpline
70
4
71
3
72
8
73
4
74
0
42
0.000000001
43
0.0000000001
44
0.0000000001
40
-1
40
-1
40
-1
40
-1
40
0
40
0
40
0
40
0
41
1
41
1
41
1
41
1
10
-128.60846107695889
20
188.81970601730251
30
0
10
-128.93389857695891
20
187.65289351730252
30
0
10
-129.21171107695892
20
186.35908101730251
30
0
10
-129.44983607695892
20
185.09701851730253
30
0
0
SPLINE
5
419
100
AcDbEntity
8
0
100
AcDbSpline
70
4
71
3
72
8
73
4
74
0
42
0.000000001
43
0.0000000001
44
0.0000000001
40
-1
40
-1
40
-1
40
-1
40
0
40
0
40
0
40
0
41
1
41
1
41
1
41
1
10
-49.416023576958906
20
177.56433101730252
30
0
10
-53.7657735769589
20
176.2546435173025
30
0
10
-57.790086076958893
20
176.47689351730253
30
0
10
-61.933461076958892
20
178.37395601730253
30
0
0
SPLINE
5
420
100
AcDbEntity
8
0
100
AcDbSpline
70
4
71
3
72
8
73
4
74
0
42
0.000000001
43
0.0000000001
44
0.0000000001
40
-1
40
-1
40
-1
40
-1
40
0
40
0
40
0
40
0
41
1
41
1
41
1
41
1
10
-61.933461076958892
20
178.37395601730253
30
0
10
-62.370023576958893
20
178.57239351730254
30
0
10
-63.608273576958894
20
179.11214351730251
30
0
10
-63.925773576958903
20
179.42964351730254
30
0
0
LINE
5
421
100
AcDbEntity
8
0
100
AcDbLine
10
-63.925773576958903
20
179.42964351730254
30
0
11
-58.948961076958888
21
184.38264351730254
31
0
0
SPLINE
5
422
100
AcDbEntity
8
0
100
AcDbSpline
70
4
71
3
72
8
73
4
74
0
42
0.000000001
43
0.0000000001
44
0.0000000001
40
-1
40
-1
40
-1
40
-1
40
0
40
0
40
0
40
0
41
1
41
1
41
1
41
1
10
-58.948961076958888
20
184.38264351730254
30
0
10
-58.512398576958887
20
184.29533101730254
30
0
10
-57.980586076958893
20
183.96989351730252
30
0
10
-57.480523576958902
20
183.80320601730256
30
0
0
SPLINE
5
423
100
AcDbEntity
8
0
100
AcDbSpline
70
4
71
3
72
8
73
4
74
0
42
0.000000001
43
0.0000000001
44
0.0000000001
40
-1
40
-1
40
-1
40
-1
40
0
40
0
40
0
40
0
41
1
41
1
41
1
41
1
10
-57.480523576958902
20
183.80320601730256
30
0
10
-54.742086076958891
20
182.87451851730253
30
0
10
-51.717898576958902
20
183.31108101730251
30
0
10
-49.146148576958893
20
184.37470601730254
30
0
0
SPLINE
5
424
100
AcDbEntity
8
0
100
AcDbSpline
70
4
71
3
72
8
73
4
74
0
42
0.000000001
43
0.0000000001
44
0.0000000001
40
-1
40
-1
40
-1
40
-1
40
0
40
0
40
0
40
0
41
1
41
1
41
1
41
1
10
-49.146148576958893
20
184.37470601730254
30
0
10
-47.542773576958893
20
185.04145601730249
30
0
10
-44.637648576958888
20
188.63714351730252
30
0
10
-42.986648576958899
20
189.94683101730254
30
0
0
SPLINE
5
425
100
AcDbEntity
8
0
100
AcDbSpline
70
4
71
3
72
8
73
4
74
0
42
0.000000001
43
0.0000000001
44
0.0000000001
40
-1
40
-1
40
-1
40
-1
40
0
40
0
40
0
40
0
41
1
41
1
41
1
41
1
10
-42.986648576958899
20
189.94683101730254
30
0
10
-41.589648576958886
20
191.05808101730253
30
0
10
-40.438711076958889
20
192.57414351730256
30
0
10
-38.986148576958897
20
193.77270601730254
30
0
0
LINE
5
426
100
AcDbEntity
8
0
100
AcDbLine
10
-38.986148576958897
20
193.77270601730254
30
0
11
-38.882961076958892
21
193.66951851730252
31
0
0
LINE
5
427
100
AcDbEntity
8
0
100
AcDbLine
10
-38.882961076958892
20
193.66951851730252
30
0
11
-38.351148576958899
21
192.83608101730252
31
0
0
SPLINE
5
428
100
AcDbEntity
8
0
100
AcDbSpline
70
4
71
3
72
8
73
4
74
0
42
0.000000001
43
0.0000000001
44
0.0000000001
40
-1
40
-1
40
-1
40
-1
40
0
40
0
40
0
40
0
41
1
41
1
41
1
41
1
10
-38.351148576958906
20
192.83608101730252
30
0
10
-37.644711076958899
20
191.28826851730253
30
0
10
-37.43833607695889
20
189.55789351730255
30
0
10
-37.231961076958896
20
187.86720601730252
30
0
0
SPLINE
5
429
100
AcDbEntity
8
0
100
AcDbSpline
70
4
71
3
72
8
73
4
74
0
42
0.000000001
43
0.0000000001
44
0.0000000001
40
-1
40
-1
40
-1
40
-1
40
0
40
0
40
0
40
0
41
1
41
1
41
1
41
1
10
-37.231961076958896
20
187.86720601730252
30
0
10
-37.152586076958883
20
187.21633101730254
30
0
10
-37.017648576958905
20
187.20045601730251
30
0
10
-37.422461076958896
20
186.81151851730252
30
0
0
LINE
5
430
100
AcDbEntity
8
0
100
AcDbLine
10
-37.422461076958896
20
186.81151851730252
30
0
11
-40.486336076958892
21
183.76351851730251
31
0
0
SPLINE
5
431
100
AcDbEntity
8
0
100
AcDbSpline
70
4
71
3
72
8
73
4
74
0
42
0.000000001
43
0.0000000001
44
0.0000000001
40
-1
40
-1
40
-1
40
-1
40
0
40
0
40
0
40
0
41
1
41
1
41
1
41
1
10
-40.486336076958892
20
183.76351851730251
30
0
10
-40.748273576958894
20
183.5015810173025
30
0
10
-40.922898576958886
20
183.24758101730254
30
0
10
-41.200711076958889
20
182.92214351730252
30
0
0
SPLINE
5
432
100
AcDbEntity
8
0
100
AcDbSpline
70
4
71
3
72
8
73
4
74
0
42
0.000000001
43
0.0000000001
44
0.0000000001
40
-1
40
-1
40
-1
40
-1
40
0
40
0
40
0
40
0
41
1
41
1
41
1
41
1
10
-41.200711076958889
20
182.92214351730252
30
0
10
-41.454711076958901
20
182.63639351730251
30
0
10
-41.653148576958898
20
182.45383101730255
30
0
10
-41.915086076958886
20
182.18395601730253
30
0
0
SPLINE
5
433
100
AcDbEntity
8
0
100
AcDbSpline
70
4
71
3
72
8
73
4
74
0
42
0.000000001
43
0.0000000001
44
0.0000000001
40
-1
40
-1
40
-1
40
-1
40
0
40
0
40
0
40
0
41
1
41
1
41
1
41
1
10
-41.915086076958886
20
182.18395601730253
30
0
10
-42.327836076958896
20
181.77120601730252
30
0
10
-43.018398576958887
20
181.04889351730253
30
0
10
-43.454961076958902
20
180.71551851730251
30
0
0
SPLINE
5
434
100
AcDbEntity
8
0
100
AcDbSpline
70
4
71
3
72
8
73
4
74
0
42
0.000000001
43
0.0000000001
44
0.0000000001
40
-1
40
-1
40
-1
40
-1
40
0
40
0
40
0
40
0
41
1
41
1
41
1
41
1
10
-43.454961076958902
20
180.71551851730251
30
0
10
-43.661336076958897
20
180.56470601730254
30
0
10
-43.693086076958906
20
180.58058101730253
30
0
10
-43.907398576958897
20
180.39801851730255
30
0
0
SPLINE
5
435
100
AcDbEntity
8
0
100
AcDbSpline
70
4
71
3
72
8
73
4
74
0
42
0.000000001
43
0.0000000001
44
0.0000000001
40
-1
40
-1
40
-1
40
-1
40
0
40
0
40
0
40
0
41
1
41
1
41
1
41
1
10
-43.907398576958897
20
180.39801851730255
30
0
10
-44.082023576958903
20
180.24720601730252
30
0
10
-44.169336076958899
20
180.15989351730255
30
0
10
-44.3201485769589
20
180.02495601730254
30
0
0
SPLINE
5
436
100
AcDbEntity
8
0
100
AcDbSpline
70
4
71
3
72
8
73
4
74
0
42
0.000000001
43
0.0000000001
44
0.0000000001
40
-1
40
-1
40
-1
40
-1
40
0
40
0
40
0
40
0
41
1
41
1
41
1
41
1
10
-44.3201485769589
20
180.02495601730254
30
0
10
-44.923398576958888
20
179.50108101730251
30
0
10
-46.383898576958899
20
178.56445601730255
30
0
10
-47.122086076958887
20
178.27076851730254
30
0
0
SPLINE
5
437
100
AcDbEntity
8
0
100
AcDbSpline
70
4
71
3
72
8
73
4
74
0
42
0.000000001
43
0.0000000001
44
0.0000000001
40
-1
40
-1
40
-1
40
-1
40
0
40
0
40
0
40
0
41
1
41
1
41
1
41
1
10
-47.122086076958887
20
178.27076851730254
30
0
10
-47.923773576958894
20
177.94533101730252
30
0
10
-48.566711076958896
20
177.81833101730254
30
0
10
-49.416023576958906
20
177.56433101730252
30
0
0
SPLINE
5
438
100
AcDbEntity
8
0
100
AcDbSpline
70
4
71
3
72
8
73
4
74
0
42
0.000000001
43
0.0000000001
44
0.0000000001
40
-1
40
-1
40
-1
40
-1
40
0
40
0
40
0
40
0
41
1
41
1
41
1
41
1
10
-87.46839857695889
20
192.05820601730252
30
0
10
-87.484273576958898
20
190.45483101730252
30
0
10
-91.159336076958908
20
187.16076851730253
30
0
10
-92.342023576958894
20
186.70833101730253
30
0
0
SPLINE
5
439
100
AcDbEntity
8
0
100
AcDbSpline
70
4
71
3
72
8
73
4
74
0
42
0.000000001
43
0.0000000001
44
0.0000000001
40
-1
40
-1
40
-1
40
-1
40
0
40
0
40
0
40
0
41
1
41
1
41
1
41
1
10
-92.342023576958894
20
186.70833101730253
30
0
10
-93.596148576958896
20
187.95451851730252
30
0
10
-94.866148576958906
20
189.14514351730253
30
0
10
-96.104398576958914
20
190.39133101730255
30
0
0
LINE
5
440
100
AcDbEntity
8
0
100
AcDbLine
10
-96.104398576958914
20
190.39133101730249
30
0
11
-103.97839857695891
21
198.33676851730252
31
0
0
SPLINE
5
441
100
AcDbEntity
8
0
100
AcDbSpline
70
4
71
3
72
8
73
4
74
0
42
0.000000001
43
0.0000000001
44
0.0000000001
40
-1
40
-1
40
-1
40
-1
40
0
40
0
40
0
40
0
41
1
41
1
41
1
41
1
10
-103.97839857695891
20
198.33676851730252
30
0
10
-104.1847735769589
20
198.57489351730251
30
0
10
-104.1450860769589
20
198.61458101730253
30
0
10
-104.34352357695889
20
198.85270601730252
30
0
0
SPLINE
5
442
100
AcDbEntity
8
0
100
AcDbSpline
70
4
71
3
72
8
73
4
74
0
42
0.000000001
43
0.0000000001
44
0.0000000001
40
-1
40
-1
40
-1
40
-1
40
0
40
0
40
0
40
0
41
1
41
1
41
1
41
1
10
-104.34352357695889
20
198.85270601730252
30
0
10
-104.8356485769589
20
199.43214351730256
30
0
10
-106.84383607695891
20
201.19426851730253
30
0
10
-107.0502110769589
20
201.63083101730251
30
0
0
SPLINE
5
443
100
AcDbEntity
8
0
100
AcDbSpline
70
4
71
3
72
8
73
4
74
0
42
0.000000001
43
0.0000000001
44
0.0000000001
40
-1
40
-1
40
-1
40
-1
40
0
40
0
40
0
40
0
41
1
41
1
41
1
41
1
10
-107.0502110769589
20
201.63083101730251
30
0
10
-106.68508607695891
20
202.01976851730254
30
0
10
-106.30408607695891
20
202.40870601730253
30
0
10
-105.89133607695891
20
202.78970601730254
30
0
0
LINE
5
444
100
AcDbEntity
8
0
100
AcDbLine
10
-105.89133607695891
20
202.78970601730254
30
0
11
-104.6213360769589
21
203.75014351730255
31
0
0
SPLINE
5
445
100
AcDbEntity
8
0
100
AcDbSpline
70
4
71
3
72
8
73
4
74
0
42
0.000000001
43
0.0000000001
44
0.0000000001
40
-1
40
-1
40
-1
40
-1
40
0
40
0
40
0
40
0
41
1
41
1
41
1
41
1
10
-104.6213360769589
20
203.75014351730255
30
0
10
-103.7005860769589
20
204.32164351730253
30
0
10
-102.80364857695889
20
204.93283101730253
30
0
10
-101.43046107695889
20
205.14714351730251
30
0
0
SPLINE
5
446
100
AcDbEntity
8
0
100
AcDbSpline
70
4
71
3
72
8
73
4
74
0
42
0.000000001
43
0.0000000001
44
0.0000000001
40
-1
40
-1
40
-1
40
-1
40
0
40
0
40
0
40
0
41
1
41
1
41
1
41
1
10
-101.43046107695889
20
205.14714351730251
30
0
10
-100.24777357695889
20
205.32176851730253
30
0
10
-100.30333607695891
20
205.06776851730251
30
0
10
-99.739773576958896
20
204.52008101730254
30
0
0
SPLINE
5
447
100
AcDbEntity
8
0
100
AcDbSpline
70
4
71
3
72
8
73
4
74
0
42
0.000000001
43
0.0000000001
44
0.0000000001
40
-1
40
-1
40
-1
40
-1
40
0
40
0
40
0
40
0
41
1
41
1
41
1
41
1
10
-99.739773576958896
20
204.52008101730254
30
0
10
-99.37464857695889
20
204.16289351730254
30
0
10
-99.025398576958906
20
203.61520601730251
30
0
10
-98.676148576958909
20
203.35326851730255
30
0
0
LINE
5
448
100
AcDbEntity
8
0
100
AcDbLine
10
-98.676148576958894
20
203.35326851730252
30
0
11
-96.485398576958914
21
201.07520601730255
31
0
0
SPLINE
5
449
100
AcDbEntity
8
0
100
AcDbSpline
70
4
71
3
72
8
73
4
74
0
42
0.000000001
43
0.0000000001
44
0.0000000001
40
-1
40
-1
40
-1
40
-1
40
0
40
0
40
0
40
0
41
1
41
1
41
1
41
1
10
-96.485398576958914
20
201.07520601730255
30
0
10
-94.945523576958919
20
199.55914351730254
30
0
10
-93.5485235769589
20
198.10658101730255
30
0
10
-91.984836076958899
20
196.55083101730253
30
0
0
LINE
5
450
100
AcDbEntity
8
0
100
AcDbLine
10
-91.984836076958914
20
196.55083101730253
30
0
11
-88.024023576958896
21
192.55033101730251
31
0
0
SPLINE
5
451
100
AcDbEntity
8
0
100
AcDbSpline
70
4
71
3
72
8
73
4
74
0
42
0.000000001
43
0.0000000001
44
0.0000000001
40
-1
40
-1
40
-1
40
-1
40
0
40
0
40
0
40
0
41
1
41
1
41
1
41
1
10
-88.024023576958896
20
192.55033101730251
30
0
10
-87.809711076958905
20
192.28045601730253
30
0
10
-88.03989857695889
20
192.49476851730253
30
0
10
-87.738273576958903
20
192.25664351730251
30
0
0
SPLINE
5
452
100
AcDbEntity
8
0
100
AcDbSpline
70
4
71
3
72
8
73
4
74
0
42
0.000000001
43
0.0000000001
44
0.0000000001
40
-1
40
-1
40
-1
40
-1
40
0
40
0
40
0
40
0
41
1
41
1
41
1
41
1
10
-87.738273576958903
20
192.25664351730251
30
0
10
-87.682711076958896
20
192.20901851730252
30
0
10
-87.539836076958892
20
192.11376851730253
30
0
10
-87.46839857695889
20
192.05820601730252
30
0
0
SPLINE
5
453
100
AcDbEntity
8
0
100
AcDbSpline
70
4
71
3
72
8
73
4
74
0
42
0.000000001
43
0.0000000001
44
0.0000000001
40
-1
40
-1
40
-1
40
-1
40
0
40
0
40
0
40
0
41
1
41
1
41
1
41
1
10
-99.747711076958893
20
224.58608101730252
30
0
10
-101.30346107695888
20
223.78439351730253
30
0
10
-104.7007110769589
20
221.95083101730256
30
0
10
-106.0580235769589
20
220.91101851730255
30
0
0
SPLINE
5
454
100
AcDbEntity
8
0
100
AcDbSpline
70
4
71
3
72
8
73
4
74
0
42
0.000000001
43
0.0000000001
44
0.0000000001
40
-1
40
-1
40
-1
40
-1
40
0
40
0
40
0
40
0
41
1
41
1
41
1
41
1
10
-106.0580235769589
20
220.91101851730255
30
0
10
-106.43108607695891
20
220.61733101730255
30
0
10
-106.80414857695891
20
220.38714351730252
30
0
10
-107.2089610769589
20
220.10933101730251
30
0
0
SPLINE
5
455
100
AcDbEntity
8
0
100
AcDbSpline
70
4
71
3
72
8
73
4
74
0
42
0.000000001
43
0.0000000001
44
0.0000000001
40
-1
40
-1
40
-1
40
-1
40
0
40
0
40
0
40
0
41
1
41
1
41
1
41
1
10
-107.2089610769589
20
220.10933101730251
30
0
10
-107.57408607695891
20
219.85533101730255
30
0
10
-107.9788985769589
20
219.57751851730254
30
0
10
-108.3519610769589
20
219.31558101730252
30
0
0
SPLINE
5
456
100
AcDbEntity
8
0
100
AcDbSpline
70
4
71
3
72
8
73
4
74
0
42
0.000000001
43
0.0000000001
44
0.0000000001
40
-1
40
-1
40
-1
40
-1
40
0
40
0
40
0
40
0
41
1
41
1
41
1
41
1
10
-108.3519610769589
20
219.31558101730252
30
0
10
-108.78852357695891
20
219.01395601730255
30
0
10
-109.01871107695889
20
218.62501851730255
30
0
10
-109.55052357695891
20
218.48214351730252
30
0
0
SPLINE
5
457
100
AcDbEntity
8
0
100
AcDbSpline
70
4
71
3
72
8
73
4
74
0
42
0.000000001
43
0.0000000001
44
0.0000000001
40
-1
40
-1
40
-1
40
-1
40
0
40
0
40
0
40
0
41
1
41
1
41
1
41
1
10
-109.55052357695891
20
218.48214351730252
30
0
10
-109.8045235769589
20
219.37908101730255
30
0
10
-112.38421107695891
20
223.13351851730255
30
0
10
-112.68583607695889
20
224.15745601730254
30
0
0
SPLINE
5
458
100
AcDbEntity
8
0
100
AcDbSpline
70
4
71
3
72
8
73
4
74
0
42
0.000000001
43
0.0000000001
44
0.0000000001
40
-1
40
-1
40
-1
40
-1
40
0
40
0
40
0
40
0
41
1
41
1
41
1
41
1
10
-112.68583607695889
20
224.15745601730254
30
0
10
-111.0586485769589
20
225.51476851730254
30
0
10
-107.9074610769589
20
227.65789351730251
30
0
10
-106.19296107695889
20
228.61039351730253
30
0
0
SPLINE
5
459
100
AcDbEntity
8
0
100
AcDbSpline
70
4
71
3
72
8
73
4
74
0
42
0.000000001
43
0.0000000001
44
0.0000000001
40
-1
40
-1
40
-1
40
-1
40
0
40
0
40
0
40
0
41
1
41
1
41
1
41
1
10
-106.19296107695889
20
228.61039351730253
30
0
10
-105.0420235769589
20
229.24539351730255
30
0
10
-103.8910860769589
20
229.88039351730254
30
0
10
-102.6607735769589
20
230.50745601730253
30
0
0
SPLINE
5
460
100
AcDbEntity
8
0
100
AcDbSpline
70
4
71
3
72
8
73
4
74
0
42
0.000000001
43
0.0000000001
44
0.0000000001
40
-1
40
-1
40
-1
40
-1
40
0
40
0
40
0
40
0
41
1
41
1
41
1
41
1
10
-102.6607735769589
20
230.50745601730253
30
0
10
-101.46221107695891
20
231.11070601730256
30
0
10
-100.23983607695889
20
231.66633101730253
30
0
10
-98.938086076958896
20
232.22195601730252
30
0
0
SPLINE
5
461
100
AcDbEntity
8
0
100
AcDbSpline
70
4
71
3
72
8
73
4
74
0
42
0.000000001
43
0.0000000001
44
0.0000000001
40
-1
40
-1
40
-1
40
-1
40
0
40
0
40
0
40
0
41
1
41
1
41
1
41
1
10
-98.938086076958896
20
232.22195601730252
30
0
10
-95.104273576958889
20
233.87295601730256
30
0
10
-90.548148576958894
20
235.26201851730252
30
0
10
-86.301586076958898
20
235.99226851730253
30
0
0
SPLINE
5
462
100
AcDbEntity
8
0
100
AcDbSpline
70
4
71
3
72
8
73
4
74
0
42
0.000000001
43
0.0000000001
44
0.0000000001
40
-1
40
-1
40
-1
40
-1
40
0
40
0
40
0
40
0
41
1
41
1
41
1
41
1
10
-86.301586076958898
20
235.99226851730253
30
0
10
-84.7696485769589
20
236.26214351730255
30
0
10
-83.150398576958906
20
236.40501851730252
30
0
10
-81.610523576958911
20
236.72251851730252
30
0
0
SPLINE
5
463
100
AcDbEntity
8
0
100
AcDbSpline
70
4
71
3
72
8
73
4
74
0
42
0.000000001
43
0.0000000001
44
0.0000000001
40
-1
40
-1
40
-1
40
-1
40
0
40
0
40
0
40
0
41
1
41
1
41
1
41
1
10
-81.610523576958911
20
236.72251851730252
30
0
10
-80.499273576958899
20
236.95270601730255
30
0
10
-77.705273576958902
20
237.03208101730254
30
0
10
-76.697211076958894
20
237.00033101730253
30
0
0
SPLINE
5
464
100
AcDbEntity
8
0
100
AcDbSpline
70
4
71
3
72
8
73
4
74
0
42
0.000000001
43
0.0000000001
44
0.0000000001
40
-1
40
-1
40
-1
40
-1
40
0
40
0
40
0
40
0
41
1
41
1
41
1
41
1
10
-76.697211076958894
20
237.00033101730253
30
0
10
-74.784273576958896
20
236.92889351730255
30
0
10
-73.585711076958901
20
236.73045601730254
30
0
10
-72.037898576958895
20
236.19864351730254
30
0
0
SPLINE
5
465
100
AcDbEntity
8
0
100
AcDbSpline
70
4
71
3
72
8
73
4
74
0
42
0.000000001
43
0.0000000001
44
0.0000000001
40
-1
40
-1
40
-1
40
-1
40
0
40
0
40
0
40
0
41
1
41
1
41
1
41
1
10
-72.037898576958895
20
236.19864351730254
30
0
10
-69.450273576958892
20
235.30964351730256
30
0
10
-68.188211076958893
20
234.2460185173025
30
0
10
-66.418148576958899
20
232.30926851730254
30
0
0
SPLINE
5
466
100
AcDbEntity
8
0
100
AcDbSpline
70
4
71
3
72
8
73
4
74
0
42
0.000000001
43
0.0000000001
44
0.0000000001
40
-1
40
-1
40
-1
40
-1
40
0
40
0
40
0
40
0
41
1
41
1
41
1
41
1
10
-66.418148576958899
20
232.30926851730254
30
0
10
-63.663836076958901
20
229.30095601730255
30
0
10
-63.108211076958895
20
222.51439351730255
30
0
10
-66.426086076958896
20
219.21239351730253
30
0
0
LINE
5
467
100
AcDbEntity
8
0
100
AcDbLine
10
-66.426086076958896
20
219.21239351730253
30
0
11
-67.704023576958903
21
217.77570601730253
31
0
0
SPLINE
5
468
100
AcDbEntity
8
0
100
AcDbSpline
70
4
71
3
72
8
73
4
74
0
42
0.000000001
43
0.0000000001
44
0.0000000001
40
-1
40
-1
40
-1
40
-1
40
0
40
0
40
0
40
0
41
1
41
1
41
1
41
1
10
-67.704023576958889
20
217.77570601730253
30
0
10
-68.037398576958893
20
217.45820601730253
30
0
10
-68.823211076958899
20
216.65651851730252
30
0
10
-69.013711076958899
20
216.37076851730254
30
0
0
SPLINE
5
469
100
AcDbEntity
8
0
100
AcDbSpline
70
4
71
3
72
8
73
4
74
0
42
0.000000001
43
0.0000000001
44
0.0000000001
40
-1
40
-1
40
-1
40
-1
40
0
40
0
40
0
40
0
41
1
41
1
41
1
41
1
10
-69.013711076958899
20
216.37076851730254
30
0
10
-69.585211076958899
20
216.50570601730251
30
0
10
-70.037648576958901
20
217.00576851730256
30
0
10
-70.410711076958904
20
217.34708101730251
30
0
0
LINE
5
470
100
AcDbEntity
8
0
100
AcDbLine
10
-70.410711076958904
20
217.34708101730249
30
0
11
-73.871461076958894
21
220.76020601730252
31
0
0
SPLINE
5
471
100
AcDbEntity
8
0
100
AcDbSpline
70
4
71
3
72
8
73
4
74
0
42
0.000000001
43
0.0000000001
44
0.0000000001
40
-1
40
-1
40
-1
40
-1
40
0
40
0
40
0
40
0
41
1
41
1
41
1
41
1
10
-73.871461076958894
20
220.76020601730252
30
0
10
-73.728586076958905
20
220.99039351730255
30
0
10
-73.569836076958893
20
221.11739351730253
30
0
10
-73.411086076958895
20
221.34758101730253
30
0
0
SPLINE
5
472
100
AcDbEntity
8
0
100
AcDbSpline
70
4
71
3
72
8
73
4
74
0
42
0.000000001
43
0.0000000001
44
0.0000000001
40
-1
40
-1
40
-1
40
-1
40
0
40
0
40
0
40
0
41
1
41
1
41
1
41
1
10
-73.411086076958895
20
221.34758101730253
30
0
10
-72.752273576958899
20
222.24451851730254
30
0
10
-72.7125860769589
20
222.06195601730255
30
0
10
-72.006148576958907
20
222.85570601730254
30
0
0
SPLINE
5
473
100
AcDbEntity
8
0
100
AcDbSpline
70
4
71
3
72
8
73
4
74
0
42
0.000000001
43
0.0000000001
44
0.0000000001
40
-1
40
-1
40
-1
40
-1
40
0
40
0
40
0
40
0
41
1
41
1
41
1
41
1
10
-72.006148576958907
20
222.85570601730254
30
0
10
-71.672773576958903
20
223.22876851730254
30
0
10
-71.387023576958896
20
223.46689351730251
30
0
10
-71.133023576958891
20
224.02251851730253
30
0
0
SPLINE
5
474
100
AcDbEntity
8
0
100
AcDbSpline
70
4
71
3
72
8
73
4
74
0
42
0.000000001
43
0.0000000001
44
0.0000000001
40
-1
40
-1
40
-1
40
-1
40
0
40
0
40
0
40
0
41
1
41
1
41
1
41
1
10
-71.133023576958891
20
224.02251851730253
30
0
10
-70.664711076958895
20
225.05439351730251
30
0
10
-70.871086076958903
20
227.45151851730253
30
0
10
-71.696586076958909
20
228.68183101730253
30
0
0
SPLINE
5
475
100
AcDbEntity
8
0
100
AcDbSpline
70
4
71
3
72
8
73
4
74
0
42
0.000000001
43
0.0000000001
44
0.0000000001
40
-1
40
-1
40
-1
40
-1
40
0
40
0
40
0
40
0
41
1
41
1
41
1
41
1
10
-71.696586076958909
20
228.68183101730253
30
0
10
-74.006398576958901
20
232.11876851730253
30
0
10
-84.888711076958884
20
229.56289351730251
30
0
10
-88.055773576958899
20
228.81676851730253
30
0
0
SPLINE
5
476
100
AcDbEntity
8
0
100
AcDbSpline
70
4
71
3
72
8
73
4
74
0
42
0.000000001
43
0.0000000001
44
0.0000000001
40
-1
40
-1
40
-1
40
-1
40
0
40
0
40
0
40
0
41
1
41
1
41
1
41
1
10
-88.055773576958899
20
228.81676851730253
30
0
10
-92.032461076958896
20
227.88014351730254
30
0
10
-96.286961076958903
20
226.37995601730253
30
0
10
-99.747711076958893
20
224.58608101730252
30
0
0
SPLINE
5
477
100
AcDbEntity
8
0
100
AcDbSpline
70
4
71
3
72
8
73
4
74
0
42
0.000000001
43
0.0000000001
44
0.0000000001
40
-1
40
-1
40
-1
40
-1
40
0
40
0
40
0
40
0
41
1
41
1
41
1
41
1
10
-36.112773576958901
20
213.41008101730253
30
0
10
-36.29533607695889
20
213.6402685173025
30
0
10
-36.271523576958899
20
213.67995601730254
30
0
10
-36.477898576958893
20
213.91808101730251
30
0
0
LINE
5
478
100
AcDbEntity
8
0
100
AcDbLine
10
-36.477898576958893
20
213.91808101730251
30
0
11
-37.19227357695889
21
214.56895601730253
31
0
0
SPLINE
5
479
100
AcDbEntity
8
0
100
AcDbSpline
70
4
71
3
72
8
73
4
74
0
42
0.000000001
43
0.0000000001
44
0.0000000001
40
0
40
0
40
0
40
0
40
0.49999999994110367
40
0.49999999994110367
40
0.49999999994110367
40
0.49999999994110367
41
1
41
1
41
1
41
1
10
-37.19227357695889
20
214.56895601730253
30
0
10
-37.200211076957963
20
214.57689351730158
30
0
10
-37.21013295195656
20
214.58483101730067
30
0
10
-37.220054826955391
20
214.59276851729976
30
0
0
LINE
5
480
100
AcDbEntity
8
0
100
AcDbLine
10
-37.220054826955391
20
214.59276851729979
30
0
11
-37.24783607695889
21
214.61658101730256
31
0
0
LINE
5
481
100
AcDbEntity
8
0
100
AcDbLine
10
-37.24783607695889
20
214.61658101730256
30
0
11
-37.351023576958887
21
214.70389351730256
31
0
0
SPLINE
5
482
100
AcDbEntity
8
0
100
AcDbSpline
70
4
71
3
72
8
73
4
74
0
42
0.000000001
43
0.0000000001
44
0.0000000001
40
-1
40
-1
40
-1
40
-1
40
0
40
0
40
0
40
0
41
1
41
1
41
1
41
1
10
-37.351023576958902
20
214.70389351730256
30
0
10
-37.708211076958889
20
214.99758101730254
30
0
10
-38.486086076958884
20
216.02151851730252
30
0
10
-39.144898576958894
20
216.49776851730252
30
0
0
SPLINE
5
483
100
AcDbEntity
8
0
100
AcDbSpline
70
4
71
3
72
8
73
4
74
0
42
0.000000001
43
0.0000000001
44
0.0000000001
40
-1
40
-1
40
-1
40
-1
40
0
40
0
40
0
40
0
41
1
41
1
41
1
41
1
10
-39.144898576958894
20
216.49776851730252
30
0
10
-39.414773576958893
20
216.69620601730253
30
0
10
-39.390961076958888
20
216.63270601730255
30
0
10
-39.6449610769589
20
216.87083101730252
30
0
0
SPLINE
5
484
100
AcDbEntity
8
0
100
AcDbSpline
70
4
71
3
72
8
73
4
74
0
42
0.000000001
43
0.0000000001
44
0.0000000001
40
-1
40
-1
40
-1
40
-1
40
0
40
0
40
0
40
0
41
1
41
1
41
1
41
1
10
-39.6449610769589
20
216.87083101730252
30
0
10
-41.724586076958886
20
218.85520601730252
30
0
10
-45.2726485769589
20
221.33964351730253
30
0
10
-47.68564857695889
20
222.8001435173025
30
0
0
SPLINE
5
485
100
AcDbEntity
8
0
100
AcDbSpline
70
4
71
3
72
8
73
4
74
0
42
0.000000001
43
0.0000000001
44
0.0000000001
40
-1
40
-1
40
-1
40
-1
40
0
40
0
40
0
40
0
41
1
41
1
41
1
41
1
10
-47.68564857695889
20
222.8001435173025
30
0
10
-50.622523576958898
20
224.59401851730252
30
0
10
-54.0118360769589
20
226.11801851730252
30
0
10
-57.242398576958905
20
227.20545601730254
30
0
0
SPLINE
5
486
100
AcDbEntity
8
0
100
AcDbSpline
70
4
71
3
72
8
73
4
74
0
42
0.000000001
43
0.0000000001
44
0.0000000001
40
-1
40
-1
40
-1
40
-1
40
0
40
0
40
0
40
0
41
1
41
1
41
1
41
1
10
-57.242398576958905
20
227.20545601730254
30
0
10
-58.948961076958888
20
227.78489351730255
30
0
10
-60.266586076958895
20
228.17383101730255
30
0
10
-62.004898576958894
20
228.56276851730254
30
0
0
LINE
5
487
100
AcDbEntity
8
0
100
AcDbLine
10
-62.004898576958894
20
228.56276851730257
30
0
11
-62.687523576958895
21
228.76120601730253
31
0
0
SPLINE
5
488
100
AcDbEntity
8
0
100
AcDbSpline
70
4
71
3
72
8
73
4
74
0
42
0.000000001
43
0.0000000001
44
0.0000000001
40
-1
40
-1
40
-1
40
-1
40
0
40
0
40
0
40
0
41
1
41
1
41
1
41
1
10
-62.687523576958895
20
228.76120601730253
30
0
10
-63.044711076958897
20
229.11839351730254
30
0
10
-63.020898576958899
20
231.87270601730256
30
0
10
-66.172086076958891
20
235.07945601730253
30
0
0
SPLINE
5
489
100
AcDbEntity
8
0
100
AcDbSpline
70
4
71
3
72
8
73
4
74
0
42
0.000000001
43
0.0000000001
44
0.0000000001
40
-1
40
-1
40
-1
40
-1
40
0
40
0
40
0
40
0
41
1
41
1
41
1
41
1
10
-66.172086076958891
20
235.07945601730253
30
0
10
-67.378586076958896
20
236.30976851730253
30
0
10
-67.910398576958897
20
236.24626851730252
30
0
10
-67.958023576958894
20
236.27801851730254
30
0
0
SPLINE
5
490
100
AcDbEntity
8
0
100
AcDbSpline
70
4
71
3
72
8
73
4
74
0
42
0.000000001
43
0.0000000001
44
0.0000000001
40
-1
40
-1
40
-1
40
-1
40
0
40
0
40
0
40
0
41
1
41
1
41
1
41
1
10
-67.958023576958894
20
236.27801851730254
30
0
10
-65.529148576958903
20
236.52408101730254
30
0
10
-56.496273576958899
20
233.80945601730252
30
0
10
-54.281711076958899
20
232.99983101730251
30
0
0
SPLINE
5
491
100
AcDbEntity
8
0
100
AcDbSpline
70
4
71
3
72
8
73
4
74
0
42
0.000000001
43
0.0000000001
44
0.0000000001
40
-1
40
-1
40
-1
40
-1
40
0
40
0
40
0
40
0
41
1
41
1
41
1
41
1
10
-54.281711076958899
20
232.99983101730251
30
0
10
-50.3288360769589
20
231.55520601730251
30
0
10
-46.0743360769589
20
229.66608101730253
30
0
10
-42.669148576958889
20
227.42770601730254
30
0
0
SPLINE
5
492
100
AcDbEntity
8
0
100
AcDbSpline
70
4
71
3
72
8
73
4
74
0
42
0.000000001
43
0.0000000001
44
0.0000000001
40
-1
40
-1
40
-1
40
-1
40
0
40
0
40
0
40
0
41
1
41
1
41
1
41
1
10
-42.669148576958889
20
227.42770601730254
30
0
10
-40.930836076958897
20
226.27676851730254
30
0
10
-39.184586076958894
20
225.26076851730252
30
0
10
-37.589148576958905
20
223.87170601730253
30
0
0
LINE
5
493
100
AcDbEntity
8
0
100
AcDbLine
10
-37.589148576958905
20
223.87170601730253
30
0
11
-27.714898576958902
21
214.44195601730254
31
0
0
SPLINE
5
494
100
AcDbEntity
8
0
100
AcDbSpline
70
4
71
3
72
8
73
4
74
0
42
0.000000001
43
0.0000000001
44
0.0000000001
40
-1
40
-1
40
-1
40
-1
40
0
40
0
40
0
40
0
41
1
41
1
41
1
41
1
10
-27.714898576958902
20
214.44195601730254
30
0
10
-26.778273576958895
20
213.36245601730255
30
0
10
-25.674961076958898
20
212.10833101730253
30
0
10
-24.928836076958891
20
210.89389351730256
30
0
0
SPLINE
5
495
100
AcDbEntity
8
0
100
AcDbSpline
70
4
71
3
72
8
73
4
74
0
42
0.000000001
43
0.0000000001
44
0.0000000001
40
-1
40
-1
40
-1
40
-1
40
0
40
0
40
0
40
0
41
1
41
1
41
1
41
1
10
-24.928836076958891
20
210.89389351730256
30
0
10
-26.079773576958889
20
209.33020601730252
30
0
10
-26.492523576958895
20
209.17939351730254
30
0
10
-27.238648576958902
20
208.26658101730254
30
0
0
SPLINE
5
496
100
AcDbEntity
8
0
100
AcDbSpline
70
4
71
3
72
8
73
4
74
0
42
0.000000001
43
0.0000000001
44
0.0000000001
40
-1
40
-1
40
-1
40
-1
40
0
40
0
40
0
40
0
41
1
41
1
41
1
41
1
10
-27.238648576958902
20
208.26658101730254
30
0
10
-27.992711076958887
20
207.33789351730252
30
0
10
-28.262586076958893
20
207.16326851730253
30
0
10
-29.088086076958888
20
206.32189351730256
30
0
0
SPLINE
5
497
100
AcDbEntity
8
0
100
AcDbSpline
70
4
71
3
72
8
73
4
74
0
42
0.000000001
43
0.0000000001
44
0.0000000001
40
-1
40
-1
40
-1
40
-1
40
0
40
0
40
0
40
0
41
1
41
1
41
1
41
1
10
-29.088086076958888
20
206.32189351730256
30
0
10
-29.405586076958894
20
206.0043935173025
30
0
10
-29.397648576958897
20
205.93295601730256
30
0
10
-29.738961076958894
20
205.77420601730253
30
0
0
SPLINE
5
498
100
AcDbEntity
8
0
100
AcDbSpline
70
4
71
3
72
8
73
4
74
0
42
0.000000001
43
0.0000000001
44
0.0000000001
40
-1
40
-1
40
-1
40
-1
40
0
40
0
40
0
40
0
41
1
41
1
41
1
41
1
10
-29.738961076958894
20
205.77420601730253
30
0
10
-30.016773576958897
20
206.0043935173025
30
0
10
-29.969148576958897
20
205.98058101730254
30
0
10
-30.1517110769589
20
206.27426851730252
30
0
0
SPLINE
5
499
100
AcDbEntity
8
0
100
AcDbSpline
70
4
71
3
72
8
73
4
74
0
42
0.000000001
43
0.0000000001
44
0.0000000001
40
-1
40
-1
40
-1
40
-1
40
0
40
0
40
0
40
0
41
1
41
1
41
1
41
1
10
-30.1517110769589
20
206.27426851730252
30
0
10
-30.715273576958886
20
207.17914351730255
30
0
10
-31.366148576958892
20
207.95701851730254
30
0
10
-32.04083607695889
20
208.75076851730253
30
0
0
SPLINE
5
500
100
AcDbEntity
8
0
100
AcDbSpline
70
4
71
3
72
8
73
4
74
0
42
0.000000001
43
0.0000000001
44
0.0000000001
40
-1
40
-1
40
-1
40
-1
40
0
40
0
40
0
40
0
41
1
41
1
41
1
41
1
10
-32.04083607695889
20
208.75076851730253
30
0
10
-32.374211076958886
20
209.13970601730253
30
0
10
-32.47739857695889
20
209.36195601730253
30
0
10
-32.80283607695889
20
209.74295601730256
30
0
0
SPLINE
5
501
100
AcDbEntity
8
0
100
AcDbSpline
70
4
71
3
72
8
73
4
74
0
42
0.000000001
43
0.0000000001
44
0.0000000001
40
-1
40
-1
40
-1
40
-1
40
0
40
0
40
0
40
0
41
1
41
1
41
1
41
1
10
-32.80283607695889
20
209.74295601730256
30
0
10
-33.390211076958906
20
210.43351851730253
30
0
10
-33.810898576958891
20
210.9812060173025
30
0
10
-34.406211076958897
20
211.62414351730251
30
0
0
LINE
5
502
100
AcDbEntity
8
0
100
AcDbLine
10
-34.406211076958897
20
211.62414351730249
30
0
11
-36.112773576958901
21
213.41008101730253
31
0
0
SPLINE
5
503
100
AcDbEntity
8
0
100
AcDbSpline
70
4
71
3
72
8
73
4
74
0
42
0.000000001
43
0.0000000001
44
0.0000000001
40
-1
40
-1
40
-1
40
-1
40
0
40
0
40
0
40
0
41
1
41
1
41
1
41
1
10
-78.022773576958897
20
193.47901851730253
30
0
10
-78.633961076958897
20
189.2245185173025
30
0
10
-79.919836076958887
20
187.04170601730254
30
0
10
-82.015336076958903
20
184.04926851730252
30
0
0
SPLINE
5
504
100
AcDbEntity
8
0
100
AcDbSpline
70
4
71
3
72
8
73
4
74
0
42
0.000000001
43
0.0000000001
44
0.0000000001
40
-1
40
-1
40
-1
40
-1
40
0
40
0
40
0
40
0
41
1
41
1
41
1
41
1
10
-82.015336076958903
20
184.04926851730252
30
0
10
-82.88846107695889
20
182.80308101730253
30
0
10
-84.5791485769589
20
181.32670601730254
30
0
10
-85.880898576958899
20
180.44564351730253
30
0
0
SPLINE
5
505
100
AcDbEntity
8
0
100
AcDbSpline
70
4
71
3
72
8
73
4
74
0
42
0.000000001
43
0.0000000001
44
0.0000000001
40
-1
40
-1
40
-1
40
-1
40
0
40
0
40
0
40
0
41
1
41
1
41
1
41
1
10
-85.880898576958899
20
180.44564351730253
30
0
10
-91.365711076958888
20
176.70708101730253
30
0
10
-97.77127357695889
20
175.78633101730253
30
0
10
-104.0736485769589
20
178.81845601730251
30
0
0
SPLINE
5
506
100
AcDbEntity
8
0
100
AcDbSpline
70
4
71
3
72
8
73
4
74
0
42
0.000000001
43
0.0000000001
44
0.0000000001
40
-1
40
-1
40
-1
40
-1
40
0
40
0
40
0
40
0
41
1
41
1
41
1
41
1
10
-104.0736485769589
20
178.81845601730251
30
0
10
-103.8593360769589
20
179.22326851730253
30
0
10
-102.9306485769589
20
180.03289351730251
30
0
10
-102.5496485769589
20
180.42183101730251
30
0
0
SPLINE
5
507
100
AcDbEntity
8
0
100
AcDbSpline
70
4
71
3
72
8
73
4
74
0
42
0.000000001
43
0.0000000001
44
0.0000000001
40
-1
40
-1
40
-1
40
-1
40
0
40
0
40
0
40
0
41
1
41
1
41
1
41
1
10
-102.5496485769589
20
180.42183101730251
30
0
10
-102.0178360769589
20
180.96951851730253
30
0
10
-101.54158607695891
20
181.43783101730253
30
0
10
-101.0018360769589
20
181.9775810173025
30
0
0
SPLINE
5
508
100
AcDbEntity
8
0
100
AcDbSpline
70
4
71
3
72
8
73
4
74
0
42
0.000000001
43
0.0000000001
44
0.0000000001
40
-1
40
-1
40
-1
40
-1
40
0
40
0
40
0
40
0
41
1
41
1
41
1
41
1
10
-101.0018360769589
20
181.9775810173025
30
0
10
-99.112711076958888
20
183.8746435173025
30
0
10
-99.596898576958907
20
183.70001851730251
30
0
10
-98.152273576958891
20
183.58095601730253
30
0
0
SPLINE
5
509
100
AcDbEntity
8
0
100
AcDbSpline
70
4
71
3
72
8
73
4
74
0
42
0.000000001
43
0.0000000001
44
0.0000000001
40
-1
40
-1
40
-1
40
-1
40
0
40
0
40
0
40
0
41
1
41
1
41
1
41
1
10
-98.152273576958891
20
183.58095601730253
30
0
10
-94.175586076958893
20
183.26345601730253
30
0
10
-90.524336076958889
20
185.38276851730251
30
0
10
-88.381211076958905
20
187.51001851730251
30
0
0
SPLINE
5
510
100
AcDbEntity
8
0
100
AcDbSpline
70
4
71
3
72
8
73
4
74
0
42
0.000000001
43
0.0000000001
44
0.0000000001
40
-1
40
-1
40
-1
40
-1
40
0
40
0
40
0
40
0
41
1
41
1
41
1
41
1
10
-88.381211076958905
20
187.51001851730251
30
0
10
-86.325398576958889
20
189.54995601730252
30
0
10
-84.856961076958896
20
192.20901851730252
30
0
10
-84.87283607695889
20
196.30476851730253
30
0
0
SPLINE
5
511
100
AcDbEntity
8
0
100
AcDbSpline
70
4
71
3
72
8
73
4
74
0
42
0.000000001
43
0.0000000001
44
0.0000000001
40
-1
40
-1
40
-1
40
-1
40
0
40
0
40
0
40
0
41
1
41
1
41
1
41
1
10
-84.87283607695889
20
196.30476851730253
30
0
10
-84.87283607695889
20
196.74133101730251
30
0
10
-84.912523576958904
20
197.46364351730253
30
0
10
-84.87283607695889
20
197.86051851730252
30
0
0
SPLINE
5
512
100
AcDbEntity
8
0
100
AcDbSpline
70
4
71
3
72
8
73
4
74
0
42
0.000000001
43
0.0000000001
44
0.0000000001
40
-1
40
-1
40
-1
40
-1
40
0
40
0
40
0
40
0
41
1
41
1
41
1
41
1
10
-84.87283607695889
20
197.86051851730252
30
0
10
-84.825211076958894
20
198.31295601730255
30
0
10
-84.460086076958902
20
198.51139351730254
30
0
10
-84.206086076958897
20
198.76539351730253
30
0
0
SPLINE
5
513
100
AcDbEntity
8
0
100
AcDbSpline
70
4
71
3
72
8
73
4
74
0
42
0.000000001
43
0.0000000001
44
0.0000000001
40
-1
40
-1
40
-1
40
-1
40
0
40
0
40
0
40
0
41
1
41
1
41
1
41
1
10
-84.206086076958897
20
198.76539351730253
30
0
10
-83.682211076958893
20
199.28926851730253
30
0
10
-83.221836076958908
20
199.74170601730253
30
0
10
-82.705898576958887
20
200.26558101730251
30
0
0
SPLINE
5
514
100
AcDbEntity
8
0
100
AcDbSpline
70
4
71
3
72
8
73
4
74
0
42
0.000000001
43
0.0000000001
44
0.0000000001
40
-1
40
-1
40
-1
40
-1
40
0
40
0
40
0
40
0
41
1
41
1
41
1
41
1
10
-82.705898576958887
20
200.26558101730251
30
0
10
-82.428086076958905
20
200.55133101730252
30
0
10
-82.197898576958892
20
200.75770601730252
30
0
10
-81.928023576958893
20
201.0434560173025
30
0
0
SPLINE
5
515
100
AcDbEntity
8
0
100
AcDbSpline
70
4
71
3
72
8
73
4
74
0
42
0.000000001
43
0.0000000001
44
0.0000000001
40
-1
40
-1
40
-1
40
-1
40
0
40
0
40
0
40
0
41
1
41
1
41
1
41
1
10
-81.928023576958893
20
201.0434560173025
30
0
10
-81.618461076958909
20
201.36095601730256
30
0
10
-81.578773576958895
20
201.54351851730254
30
0
10
-81.229523576958911
20
201.89276851730253
30
0
0
LINE
5
516
100
AcDbEntity
8
0
100
AcDbLine
10
-81.229523576958911
20
201.89276851730253
30
0
11
-80.070648576958916
21
203.05958101730252
31
0
0
SPLINE
5
517
100
AcDbEntity
8
0
100
AcDbSpline
70
4
71
3
72
8
73
4
74
0
42
0.000000001
43
0.0000000001
44
0.0000000001
40
-1
40
-1
40
-1
40
-1
40
0
40
0
40
0
40
0
41
1
41
1
41
1
41
1
10
-80.070648576958916
20
203.05958101730255
30
0
10
-79.792836076958892
20
203.32151851730254
30
0
10
-79.951586076958904
20
203.24214351730251
30
0
10
-79.554711076958895
20
203.35326851730255
30
0
0
SPLINE
5
518
100
AcDbEntity
8
0
100
AcDbSpline
70
4
71
3
72
8
73
4
74
0
42
0.000000001
43
0.0000000001
44
0.0000000001
40
-1
40
-1
40
-1
40
-1
40
0
40
0
40
0
40
0
41
1
41
1
41
1
41
1
10
-79.554711076958895
20
203.35326851730255
30
0
10
-79.292773576958893
20
202.67858101730255
30
0
10
-78.927648576958902
20
202.06739351730252
30
0
10
-78.633961076958897
20
201.26570601730253
30
0
0
SPLINE
5
519
100
AcDbEntity
8
0
100
AcDbSpline
70
4
71
3
72
8
73
4
74
0
42
0.000000001
43
0.0000000001
44
0.0000000001
40
-1
40
-1
40
-1
40
-1
40
0
40
0
40
0
40
0
41
1
41
1
41
1
41
1
10
-78.633961076958897
20
201.26570601730253
30
0
10
-78.356148576958901
20
200.48783101730251
30
0
10
-78.165648576958901
20
199.74964351730253
30
0
10
-78.038648576958906
20
198.87651851730254
30
0
0
SPLINE
5
520
100
AcDbEntity
8
0
100
AcDbSpline
70
4
71
3
72
8
73
4
74
0
42
0.000000001
43
0.0000000001
44
0.0000000001
40
-1
40
-1
40
-1
40
-1
40
0
40
0
40
0
40
0
41
1
41
1
41
1
41
1
10
-78.038648576958906
20
198.87651851730254
30
0
10
-77.760836076958896
20
196.95564351730255
30
0
10
-77.760836076958896
20
195.3205185173025
30
0
10
-78.022773576958897
20
193.47901851730253
30
0
0
SPLINE
5
521
100
AcDbEntity
8
0
100
AcDbSpline
70
4
71
3
72
8
73
4
74
0
42
0.000000001
43
0.0000000001
44
0.0000000001
40
-1
40
-1
40
-1
40
-1
40
0
40
0
40
0
40
0
41
1
41
1
41
1
41
1
10
-87.889086076958904
20
118.35851851730253
30
0
10
-85.999961076958897
20
114.32626851730251
30
0
10
-83.90446107695891
20
113.49283101730252
30
0
10
-83.634586076958897
20
113.09595601730253
30
0
0
SPLINE
5
522
100
AcDbEntity
8
0
100
AcDbSpline
70
4
71
3
72
8
73
4
74
0
42
0.000000001
43
0.0000000001
44
0.0000000001
40
-1
40
-1
40
-1
40
-1
40
0
40
0
40
0
40
0
41
1
41
1
41
1
41
1
10
-83.634586076958897
20
113.09595601730253
30
0
10
-87.214398576958899
20
113.30233101730252
30
0
10
-94.016836076958896
20
115.27083101730253
30
0
10
-97.239461076958918
20
116.48526851730253
30
0
0
SPLINE
5
523
100
AcDbEntity
8
0
100
AcDbSpline
70
4
71
3
72
8
73
4
74
0
42
0.000000001
43
0.0000000001
44
0.0000000001
40
-1
40
-1
40
-1
40
-1
40
0
40
0
40
0
40
0
41
1
41
1
41
1
41
1
10
-97.239461076958918
20
116.48526851730253
30
0
10
-100.31921107695891
20
117.64414351730252
30
0
10
-103.1211485769589
20
118.97764351730252
30
0
10
-105.9468985769589
20
120.58895601730254
30
0
0
SPLINE
5
524
100
AcDbEntity
8
0
100
AcDbSpline
70
4
71
3
72
8
73
4
74
0
42
0.000000001
43
0.0000000001
44
0.0000000001
40
-1
40
-1
40
-1
40
-1
40
0
40
0
40
0
40
0
41
1
41
1
41
1
41
1
10
-105.9468985769589
20
120.58895601730254
30
0
10
-106.3755235769589
20
120.83501851730253
30
0
10
-106.9152735769589
20
121.08108101730252
30
0
10
-107.3200860769589
20
121.34301851730251
30
0
0
LINE
5
525
100
AcDbEntity
8
0
100
AcDbLine
10
-107.32008607695892
20
121.34301851730251
30
0
11
-111.1697735769589
21
123.81158101730252
31
0
0
SPLINE
5
526
100
AcDbEntity
8
0
100
AcDbSpline
70
4
71
3
72
8
73
4
74
0
42
0.000000001
43
0.0000000001
44
0.0000000001
40
-1
40
-1
40
-1
40
-1
40
0
40
0
40
0
40
0
41
1
41
1
41
1
41
1
10
-111.1697735769589
20
123.81158101730252
30
0
10
-111.5666485769589
20
124.11320601730253
30
0
10
-112.0190860769589
20
124.35133101730253
30
0
10
-112.4238985769589
20
124.67676851730252
30
0
0
LINE
5
527
100
AcDbEntity
8
0
100
AcDbLine
10
-112.4238985769589
20
124.67676851730252
30
0
11
-114.80514857695891
21
126.57383101730252
31
0
0
SPLINE
5
528
100
AcDbEntity
8
0
100
AcDbSpline
70
4
71
3
72
8
73
4
74
0
42
0.000000001
43
0.0000000001
44
0.0000000001
40
-1
40
-1
40
-1
40
-1
40
0
40
0
40
0
40
0
41
1
41
1
41
1
41
1
10
-114.80514857695891
20
126.57383101730252
30
0
10
-115.40046107695889
20
127.01833101730251
30
0
10
-115.7179610769589
20
127.47076851730253
30
0
10
-116.5275860769589
20
128.05020601730251
30
0
0
LINE
5
529
100
AcDbEntity
8
0
100
AcDbLine
10
-116.5275860769589
20
128.05020601730251
30
0
11
-120.76621107695891
21
132.25708101730251
31
0
0
LINE
5
530
100
AcDbEntity
8
0
100
AcDbLine
10
-120.76621107695891
20
132.25708101730251
30
0
11
-125.85414857695889
21
138.73408101730251
31
0
0
SPLINE
5
531
100
AcDbEntity
8
0
100
AcDbSpline
70
4
71
3
72
8
73
4
74
0
42
0.000000001
43
0.0000000001
44
0.0000000001
40
-1
40
-1
40
-1
40
-1
40
0
40
0
40
0
40
0
41
1
41
1
41
1
41
1
10
-125.85414857695889
20
138.73408101730251
30
0
10
-125.2905860769589
20
139.63895601730252
30
0
10
-124.40158607695891
20
140.55176851730252
30
0
10
-123.6554610769589
20
141.26614351730251
30
0
0
SPLINE
5
532
100
AcDbEntity
8
0
100
AcDbSpline
70
4
71
3
72
8
73
4
74
0
42
0.000000001
43
0.0000000001
44
0.0000000001
40
-1
40
-1
40
-1
40
-1
40
0
40
0
40
0
40
0
41
1
41
1
41
1
41
1
10
-123.6554610769589
20
141.26614351730251
30
0
10
-122.7823360769589
20
142.09164351730254
30
0
10
-122.0838360769589
20
142.93301851730251
30
0
10
-121.30596107695891
20
143.56801851730253
30
0
0
SPLINE
5
533
100
AcDbEntity
8
0
100
AcDbSpline
70
4
71
3
72
8
73
4
74
0
42
0.000000001
43
0.0000000001
44
0.0000000001
40
-1
40
-1
40
-1
40
-1
40
0
40
0
40
0
40
0
41
1
41
1
41
1
41
1
10
-121.30596107695891
20
143.56801851730253
30
0
10
-121.19483607695891
20
143.42514351730253
30
0
10
-121.0598985769589
20
143.29020601730252
30
0
10
-120.9487735769589
20
143.13939351730252
30
0
0
LINE
5
534
100
AcDbEntity
8
0
100
AcDbLine
10
-120.9487735769589
20
143.13939351730252
30
0
11
-117.58327357695889
21
138.63883101730255
31
0
0
LINE
5
535
100
AcDbEntity
8
0
100
AcDbLine
10
-117.58327357695889
20
138.63883101730255
30
0
11
-113.4002110769589
21
134.18589351730253
31
0
0
SPLINE
5
536
100
AcDbEntity
8
0
100
AcDbSpline
70
4
71
3
72
8
73
4
74
0
42
0.000000001
43
0.0000000001
44
0.0000000001
40
-1
40
-1
40
-1
40
-1
40
0
40
0
40
0
40
0
41
1
41
1
41
1
41
1
10
-113.4002110769589
20
134.18589351730253
30
0
10
-111.76508607695891
20
132.56664351730254
30
0
10
-111.2888360769589
20
132.29676851730252
30
0
10
-109.66958607695889
20
130.93151851730252
30
0
0
LINE
5
537
100
AcDbEntity
8
0
100
AcDbLine
10
-109.66958607695889
20
130.93151851730255
30
0
11
-108.68533607695889
21
130.16951851730252
31
0
0
SPLINE
5
538
100
AcDbEntity
8
0
100
AcDbSpline
70
4
71
3
72
8
73
4
74
0
42
0.000000001
43
0.0000000001
44
0.0000000001
40
-1
40
-1
40
-1
40
-1
40
0
40
0
40
0
40
0
41
1
41
1
41
1
41
1
10
-108.68533607695892
20
130.16951851730252
30
0
10
-107.5899610769589
20
129.23289351730253
30
0
10
-104.7642110769589
20
127.39933101730252
30
0
10
-103.5418360769589
20
126.67701851730251
30
0
0
SPLINE
5
539
100
AcDbEntity
8
0
100
AcDbSpline
70
4
71
3
72
8
73
4
74
0
42
0.000000001
43
0.0000000001
44
0.0000000001
40
-1
40
-1
40
-1
40
-1
40
0
40
0
40
0
40
0
41
1
41
1
41
1
41
1
10
-103.5418360769589
20
126.67701851730251
30
0
10
-101.82733607695891
20
125.66101851730252
30
0
10
-100.7875235769589
20
125.15301851730251
30
0
10
-99.041273576958901
20
124.28783101730252
30
0
0
SPLINE
5
540
100
AcDbEntity
8
0
100
AcDbSpline
70
4
71
3
72
8
73
4
74
0
42
0.000000001
43
0.0000000001
44
0.0000000001
40
-1
40
-1
40
-1
40
-1
40
0
40
0
40
0
40
0
41
1
41
1
41
1
41
1
10
-99.041273576958901
20
124.28783101730252
30
0
10
-96.874336076958912
20
123.20833101730253
30
0
10
-93.873961076958906
20
122.08914351730252
30
0
10
-91.508586076958892
20
121.43826851730252
30
0
0
SPLINE
5
541
100
AcDbEntity
8
0
100
AcDbSpline
70
4
71
3
72
8
73
4
74
0
42
0.000000001
43
0.0000000001
44
0.0000000001
40
-1
40
-1
40
-1
40
-1
40
0
40
0
40
0
40
0
41
1
41
1
41
1
41
1
10
-91.508586076958892
20
121.43826851730252
30
0
10
-90.36558607695892
20
121.12076851730252
30
0
10
-88.952711076958906
20
121.02551851730253
30
0
10
-88.682836076958893
20
120.47783101730252
30
0
0
LINE
5
542
100
AcDbEntity
8
0
100
AcDbLine
10
-88.682836076958921
20
120.47783101730252
30
0
11
-87.889086076958904
21
118.35851851730253
31
0
0
SPLINE
5
543
100
AcDbEntity
8
0
100
AcDbSpline
70
4
71
3
72
8
73
4
74
0
42
0.000000001
43
0.0000000001
44
0.0000000001
40
-1
40
-1
40
-1
40
-1
40
0
40
0
40
0
40
0
41
1
41
1
41
1
41
1
10
-86.484148576958901
20
138.8372685173025
30
0
10
-88.246273576958899
20
137.55139351730253
30
0
10
-91.707023576958903
20
136.17820601730253
30
0
10
-93.985086076958893
20
135.74958101730255
30
0
0
SPLINE
5
544
100
AcDbEntity
8
0
100
AcDbSpline
70
4
71
3
72
8
73
4
74
0
42
0.000000001
43
0.0000000001
44
0.0000000001
40
-1
40
-1
40
-1
40
-1
40
0
40
0
40
0
40
0
41
1
41
1
41
1
41
1
10
-93.985086076958893
20
135.74958101730255
30
0
10
-97.795086076958896
20
135.03520601730253
30
0
10
-99.477836076958894
20
135.03520601730253
30
0
10
-103.1528985769589
20
135.90039351730252
30
0
0
LINE
5
545
100
AcDbEntity
8
0
100
AcDbLine
10
-103.1528985769589
20
135.90039351730252
30
0
11
-105.75639857695892
21
136.69414351730254
31
0
0
SPLINE
5
546
100
AcDbEntity
8
0
100
AcDbSpline
70
4
71
3
72
8
73
4
74
0
42
0.000000001
43
0.0000000001
44
0.0000000001
40
-1
40
-1
40
-1
40
-1
40
0
40
0
40
0
40
0
41
1
41
1
41
1
41
1
10
-105.7563985769589
20
136.69414351730251
30
0
10
-106.16121107695889
20
136.81320601730252
30
0
10
-106.27233607695891
20
136.79733101730253
30
0
10
-106.4787110769589
20
137.04339351730252
30
0
0
SPLINE
5
547
100
AcDbEntity
8
0
100
AcDbSpline
70
4
71
3
72
8
73
4
74
0
42
0.000000001
43
0.0000000001
44
0.0000000001
40
-1
40
-1
40
-1
40
-1
40
0
40
0
40
0
40
0
41
1
41
1
41
1
41
1
10
-106.4787110769589
20
137.04339351730252
30
0
10
-105.78021107695889
20
137.90064351730254
30
0
10
-104.5816485769589
20
138.96426851730251
30
0
10
-103.74821107695891
20
139.79770601730252
30
0
0
SPLINE
5
548
100
AcDbEntity
8
0
100
AcDbSpline
70
4
71
3
72
8
73
4
74
0
42
0.000000001
43
0.0000000001
44
0.0000000001
40
-1
40
-1
40
-1
40
-1
40
0
40
0
40
0
40
0
41
1
41
1
41
1
41
1
10
-103.74821107695891
20
139.79770601730252
30
0
10
-100.2160235769589
20
143.33783101730253
30
0
10
-101.77177357695889
20
142.44883101730252
30
0
10
-98.826961076958895
20
142.30595601730252
30
0
0
LINE
5
549
100
AcDbEntity
8
0
100
AcDbLine
10
-98.826961076958895
20
142.30595601730252
30
0
11
-96.501273576958909
21
142.30595601730252
31
0
0
SPLINE
5
550
100
AcDbEntity
8
0
100
AcDbSpline
70
4
71
3
72
8
73
4
74
0
42
0.000000001
43
0.0000000001
44
0.0000000001
40
-1
40
-1
40
-1
40
-1
40
0
40
0
40
0
40
0
41
1
41
1
41
1
41
1
10
-96.501273576958909
20
142.30595601730252
30
0
10
-93.82633607695891
20
142.30595601730252
30
0
10
-89.976648576958894
20
143.79026851730254
30
0
10
-88.214523576958896
20
146.00483101730254
30
0
0
SPLINE
5
551
100
AcDbEntity
8
0
100
AcDbSpline
70
4
71
3
72
8
73
4
74
0
42
0.000000001
43
0.0000000001
44
0.0000000001
40
-1
40
-1
40
-1
40
-1
40
0
40
0
40
0
40
0
41
1
41
1
41
1
41
1
10
-88.214523576958896
20
146.00483101730254
30
0
10
-87.897023576958901
20
146.40964351730253
30
0
10
-87.460461076958893
20
146.78270601730253
30
0
10
-87.135023576958901
20
147.25895601730252
30
0
0
SPLINE
5
552
100
AcDbEntity
8
0
100
AcDbSpline
70
4
71
3
72
8
73
4
74
0
42
0.000000001
43
0.0000000001
44
0.0000000001
40
-1
40
-1
40
-1
40
-1
40
0
40
0
40
0
40
0
41
1
41
1
41
1
41
1
10
-87.135023576958901
20
147.25895601730252
30
0
10
-85.714211076958904
20
149.37033101730253
30
0
10
-85.047461076958911
20
151.83095601730253
30
0
10
-85.055398576958908
20
154.38683101730251
30
0
0
SPLINE
5
553
100
AcDbEntity
8
0
100
AcDbSpline
70
4
71
3
72
8
73
4
74
0
42
0.000000001
43
0.0000000001
44
0.0000000001
40
-1
40
-1
40
-1
40
-1
40
0
40
0
40
0
40
0
41
1
41
1
41
1
41
1
10
-85.055398576958908
20
154.38683101730251
30
0
10
-85.055398576958908
20
156.91095601730251
30
0
10
-85.841211076958899
20
157.54595601730253
30
0
10
-85.174461076958892
20
158.18889351730252
30
0
0
SPLINE
5
554
100
AcDbEntity
8
0
100
AcDbSpline
70
4
71
3
72
8
73
4
74
0
42
0.000000001
43
0.0000000001
44
0.0000000001
40
-1
40
-1
40
-1
40
-1
40
0
40
0
40
0
40
0
41
1
41
1
41
1
41
1
10
-85.174461076958892
20
158.18889351730252
30
0
10
-84.341023576958904
20
158.99851851730253
30
0
10
-83.618711076958903
20
159.71289351730252
30
0
10
-82.809086076958906
20
160.58601851730253
30
0
0
SPLINE
5
555
100
AcDbEntity
8
0
100
AcDbSpline
70
4
71
3
72
8
73
4
74
0
42
0.000000001
43
0.0000000001
44
0.0000000001
40
-1
40
-1
40
-1
40
-1
40
0
40
0
40
0
40
0
41
1
41
1
41
1
41
1
10
-82.809086076958906
20
160.58601851730253
30
0
10
-82.459836076958908
20
160.95908101730254
30
0
10
-81.943898576958887
20
161.3718310173025
30
0
10
-81.658148576958894
20
161.76870601730252
30
0
0
SPLINE
5
556
100
AcDbEntity
8
0
100
AcDbSpline
70
4
71
3
72
8
73
4
74
0
42
0.000000001
43
0.0000000001
44
0.0000000001
40
-1
40
-1
40
-1
40
-1
40
0
40
0
40
0
40
0
41
1
41
1
41
1
41
1
10
-81.658148576958894
20
161.76870601730252
30
0
10
-81.348586076958895
20
162.20526851730253
30
0
10
-80.959648576958898
20
162.77676851730251
30
0
10
-80.443711076958891
20
162.93551851730254
30
0
0
SPLINE
5
557
100
AcDbEntity
8
0
100
AcDbSpline
70
4
71
3
72
8
73
4
74
0
42
0.000000001
43
0.0000000001
44
0.0000000001
40
-1
40
-1
40
-1
40
-1
40
0
40
0
40
0
40
0
41
1
41
1
41
1
41
1
10
-80.443711076958891
20
162.93551851730254
30
0
10
-79.022898576958895
20
161.05433101730253
30
0
10
-78.086273576958902
20
157.06176851730251
30
0
10
-78.086273576958902
20
154.57733101730253
30
0
0
SPLINE
5
558
100
AcDbEntity
8
0
100
AcDbSpline
70
4
71
3
72
8
73
4
74
0
42
0.000000001
43
0.0000000001
44
0.0000000001
40
-1
40
-1
40
-1
40
-1
40
0
40
0
40
0
40
0
41
1
41
1
41
1
41
1
10
-78.086273576958902
20
154.57733101730253
30
0
10
-78.086273576958902
20
150.85464351730252
30
0
10
-78.324398576958899
20
148.99726851730253
30
0
10
-80.221461076958889
20
145.57620601730252
30
0
0
LINE
5
559
100
AcDbEntity
8
0
100
AcDbLine
10
-80.221461076958889
20
145.57620601730255
30
0
11
-82.134398576958887
21
142.73458101730253
31
0
0
SPLINE
5
560
100
AcDbEntity
8
0
100
AcDbSpline
70
4
71
3
72
8
73
4
74
0
42
0.000000001
43
0.0000000001
44
0.0000000001
40
-1
40
-1
40
-1
40
-1
40
0
40
0
40
0
40
0
41
1
41
1
41
1
41
1
10
-82.134398576958887
20
142.73458101730253
30
0
10
-83.90446107695891
20
140.71051851730255
30
0
10
-84.539461076958901
20
140.25808101730252
30
0
10
-86.484148576958901
20
138.8372685173025
30
0
0
SPLINE
5
561
100
AcDbEntity
8
0
100
AcDbSpline
70
4
71
3
72
8
73
4
74
0
42
0.000000001
43
0.0000000001
44
0.0000000001
40
-1
40
-1
40
-1
40
-1
40
0
40
0
40
0
40
0
41
1
41
1
41
1
41
1
10
-46.701398576958901
20
170.88095601730254
30
0
10
-47.487211076958893
20
169.96020601730251
30
0
10
-50.265336076958889
20
167.36464351730251
30
0
10
-51.376586076958901
20
166.22164351730251
30
0
0
SPLINE
5
562
100
AcDbEntity
8
0
100
AcDbSpline
70
4
71
3
72
8
73
4
74
0
42
0.000000001
43
0.0000000001
44
0.0000000001
40
-1
40
-1
40
-1
40
-1
40
0
40
0
40
0
40
0
41
1
41
1
41
1
41
1
10
-51.376586076958901
20
166.22164351730251
30
0
10
-51.797273576958901
20
165.78508101730253
30
0
10
-51.670273576958898
20
165.74539351730252
30
0
10
-52.376711076958898
20
165.76920601730251
30
0
0
SPLINE
5
563
100
AcDbEntity
8
0
100
AcDbSpline
70
4
71
3
72
8
73
4
74
0
42
0.000000001
43
0.0000000001
44
0.0000000001
40
-1
40
-1
40
-1
40
-1
40
0
40
0
40
0
40
0
41
1
41
1
41
1
41
1
10
-52.376711076958898
20
165.76920601730251
30
0
10
-54.607148576958892
20
165.86445601730253
30
0
10
-56.893148576958893
20
165.59458101730254
30
0
10
-58.925148576958897
20
164.84051851730254
30
0
0
SPLINE
5
564
100
AcDbEntity
8
0
100
AcDbSpline
70
4
71
3
72
8
73
4
74
0
42
0.000000001
43
0.0000000001
44
0.0000000001
40
-1
40
-1
40
-1
40
-1
40
0
40
0
40
0
40
0
41
1
41
1
41
1
41
1
10
-58.925148576958897
20
164.84051851730254
30
0
10
-60.86983607695889
20
164.11026851730253
30
0
10
-61.465148576958896
20
163.46733101730251
30
0
10
-62.774836076958891
20
162.49101851730251
30
0
0
SPLINE
5
565
100
AcDbEntity
8
0
100
AcDbSpline
70
4
71
3
72
8
73
4
74
0
42
0.000000001
43
0.0000000001
44
0.0000000001
40
-1
40
-1
40
-1
40
-1
40
0
40
0
40
0
40
0
41
1
41
1
41
1
41
1
10
-62.774836076958891
20
162.49101851730251
30
0
10
-63.894023576958894
20
161.64964351730251
30
0
10
-64.790961076958894
20
160.22883101730253
30
0
10
-65.529148576958903
20
159.03026851730255
30
0
0
SPLINE
5
566
100
AcDbEntity
8
0
100
AcDbSpline
70
4
71
3
72
8
73
4
74
0
42
0.000000001
43
0.0000000001
44
0.0000000001
40
-1
40
-1
40
-1
40
-1
40
0
40
0
40
0
40
0
41
1
41
1
41
1
41
1
10
-65.529148576958903
20
159.03026851730255
30
0
10
-66.362586076958905
20
157.67295601730251
30
0
10
-66.727711076958897
20
155.88701851730252
30
0
10
-66.830898576958887
20
154.10108101730253
30
0
0
SPLINE
5
567
100
AcDbEntity
8
0
100
AcDbSpline
70
4
71
3
72
8
73
4
74
0
42
0.000000001
43
0.0000000001
44
0.0000000001
40
-1
40
-1
40
-1
40
-1
40
0
40
0
40
0
40
0
41
1
41
1
41
1
41
1
10
-66.830898576958887
20
154.10108101730253
30
0
10
-66.989648576958899
20
151.22770601730252
30
0
10
-66.481648576958904
20
151.91033101730252
30
0
10
-67.608773576958896
20
150.62445601730252
30
0
0
LINE
5
568
100
AcDbEntity
8
0
100
AcDbLine
10
-67.608773576958896
20
150.62445601730249
30
0
11
-67.743711076958903
21
150.46570601730252
31
0
0
SPLINE
5
569
100
AcDbEntity
8
0
100
AcDbSpline
70
4
71
3
72
8
73
4
74
0
42
0.000000001
43
0.0000000001
44
0.0000000001
40
-1
40
-1
40
-1
40
-1
40
0
40
0
40
0
40
0
41
1
41
1
41
1
41
1
10
-67.743711076958903
20
150.46570601730252
30
0
10
-68.458086076958892
20
149.60051851730253
30
0
10
-71.101273576958903
20
146.79858101730252
30
0
10
-71.688648576958897
20
146.52076851730251
30
0
0
SPLINE
5
570
100
AcDbEntity
8
0
100
AcDbSpline
70
4
71
3
72
8
73
4
74
0
42
0.000000001
43
0.0000000001
44
0.0000000001
40
-1
40
-1
40
-1
40
-1
40
0
40
0
40
0
40
0
41
1
41
1
41
1
41
1
10
-71.688648576958897
20
146.52076851730251
30
0
10
-71.799773576958899
20
146.86208101730253
30
0
10
-72.196648576958907
20
147.53676851730253
30
0
10
-72.403023576958901
20
148.01301851730253
30
0
0
SPLINE
5
571
100
AcDbEntity
8
0
100
AcDbSpline
70
4
71
3
72
8
73
4
74
0
42
0.000000001
43
0.0000000001
44
0.0000000001
40
-1
40
-1
40
-1
40
-1
40
0
40
0
40
0
40
0
41
1
41
1
41
1
41
1
10
-72.403023576958901
20
148.01301851730253
30
0
10
-72.657023576958892
20
148.61626851730253
30
0
10
-72.760211076958896
20
149.13220601730251
30
0
10
-72.942773576958899
20
149.69576851730253
30
0
0
SPLINE
5
572
100
AcDbEntity
8
0
100
AcDbSpline
70
4
71
3
72
8
73
4
74
0
42
0.000000001
43
0.0000000001
44
0.0000000001
40
-1
40
-1
40
-1
40
-1
40
0
40
0
40
0
40
0
41
1
41
1
41
1
41
1
10
-72.942773576958899
20
149.69576851730253
30
0
10
-73.38727357695889
20
151.12451851730253
30
0
10
-73.4745860769589
20
152.31514351730252
30
0
10
-73.4745860769589
20
153.90264351730252
30
0
0
SPLINE
5
573
100
AcDbEntity
8
0
100
AcDbSpline
70
4
71
3
72
8
73
4
74
0
42
0.000000001
43
0.0000000001
44
0.0000000001
40
-1
40
-1
40
-1
40
-1
40
0
40
0
40
0
40
0
41
1
41
1
41
1
41
1
10
-73.4745860769589
20
153.90264351730252
30
0
10
-73.4745860769589
20
156.37914351730251
30
0
10
-72.6728985769589
20
159.37158101730253
30
0
10
-71.831523576958901
20
161.3559560173025
30
0
0
SPLINE
5
574
100
AcDbEntity
8
0
100
AcDbSpline
70
4
71
3
72
8
73
4
74
0
42
0.000000001
43
0.0000000001
44
0.0000000001
40
-1
40
-1
40
-1
40
-1
40
0
40
0
40
0
40
0
41
1
41
1
41
1
41
1
10
-71.831523576958901
20
161.3559560173025
30
0
10
-70.815523576958896
20
163.74514351730252
30
0
10
-70.561523576958905
20
163.93564351730251
30
0
10
-69.283586076958898
20
165.69776851730253
30
0
0
SPLINE
5
575
100
AcDbEntity
8
0
100
AcDbSpline
70
4
71
3
72
8
73
4
74
0
42
0.000000001
43
0.0000000001
44
0.0000000001
40
-1
40
-1
40
-1
40
-1
40
0
40
0
40
0
40
0
41
1
41
1
41
1
41
1
10
-69.283586076958898
20
165.69776851730253
30
0
10
-69.029586076958907
20
166.03908101730252
30
0
10
-68.5533360769589
20
166.53120601730251
30
0
10
-68.227898576958893
20
166.87251851730252
30
0
0
SPLINE
5
576
100
AcDbEntity
8
0
100
AcDbSpline
70
4
71
3
72
8
73
4
74
0
42
0.000000001
43
0.0000000001
44
0.0000000001
40
-1
40
-1
40
-1
40
-1
40
0
40
0
40
0
40
0
41
1
41
1
41
1
41
1
10
-68.227898576958893
20
166.87251851730252
30
0
10
-66.592773576958905
20
168.57114351730252
30
0
10
-65.235461076958899
20
169.66651851730256
30
0
10
-63.020898576958899
20
170.77776851730252
30
0
0
SPLINE
5
577
100
AcDbEntity
8
0
100
AcDbSpline
70
4
71
3
72
8
73
4
74
0
42
0.000000001
43
0.0000000001
44
0.0000000001
40
-1
40
-1
40
-1
40
-1
40
0
40
0
40
0
40
0
41
1
41
1
41
1
41
1
10
-63.020898576958899
20
170.77776851730252
30
0
10
-59.329961076958888
20
172.62720601730251
30
0
10
-57.043961076958908
20
172.72245601730253
30
0
10
-53.321273576958887
20
172.72245601730253
30
0
0
SPLINE
5
578
100
AcDbEntity
8
0
100
AcDbSpline
70
4
71
3
72
8
73
4
74
0
42
0.000000001
43
0.0000000001
44
0.0000000001
40
-1
40
-1
40
-1
40
-1
40
0
40
0
40
0
40
0
41
1
41
1
41
1
41
1
10
-53.321273576958887
20
172.72245601730253
30
0
10
-51.567086076958901
20
172.72245601730253
30
0
10
-48.685773576958894
20
171.83345601730252
30
0
10
-47.010961076958893
20
171.07145601730252
30
0
0
SPLINE
5
579
100
AcDbEntity
8
0
100
AcDbSpline
70
4
71
3
72
8
73
4
74
0
42
0.000000001
43
0.0000000001
44
0.0000000001
40
-1
40
-1
40
-1
40
-1
40
0
40
0
40
0
40
0
41
1
41
1
41
1
41
1
10
-47.010961076958893
20
171.07145601730252
30
0
10
-46.804586076958898
20
170.97620601730253
30
0
10
-46.92364857695889
20
171.03176851730254
30
0
10
-46.820461076958892
20
170.96826851730253
30
0
0
SPLINE
5
580
100
AcDbEntity
8
0
100
AcDbSpline
70
4
71
3
72
8
73
4
74
0
42
0.000000001
43
0.0000000001
44
0.0000000001
40
-1
40
-1
40
-1
40
-1
40
0
40
0
40
0
40
0
41
1
41
1
41
1
41
1
10
-46.820461076958892
20
170.96826851730253
30
0
10
-46.804586076958898
20
170.96033101730254
30
0
10
-46.772836076958896
20
170.9047685173025
30
0
10
-46.764898576958899
20
170.92858101730252
30
0
0
SPLINE
5
581
100
AcDbEntity
8
0
100
AcDbSpline
70
4
71
3
72
8
73
4
74
0
42
0.000000001
43
0.0000000001
44
0.0000000001
40
-1
40
-1
40
-1
40
-1
40
0
40
0
40
0
40
0
41
1
41
1
41
1
41
1
10
-46.764898576958899
20
170.92858101730252
30
0
10
-46.749023576958905
20
170.94445601730254
30
0
10
-46.725211076958892
20
170.89683101730253
30
0
10
-46.701398576958901
20
170.88095601730254
30
0
0
SPLINE
5
582
100
AcDbEntity
8
0
100
AcDbSpline
70
4
71
3
72
8
73
4
74
0
42
0.000000001
43
0.0000000001
44
0.0000000001
40
-1
40
-1
40
-1
40
-1
40
0
40
0
40
0
40
0
41
1
41
1
41
1
41
1
10
-29.492898576958897
20
194.03464351730253
30
0
10
-28.214961076958893
20
189.18483101730254
30
0
10
-28.207023576958896
20
184.43026851730252
30
0
10
-29.667523576958885
20
179.64395601730251
30
0
0
SPLINE
5
583
100
AcDbEntity
8
0
100
AcDbSpline
70
4
71
3
72
8
73
4
74
0
42
0.000000001
43
0.0000000001
44
0.0000000001
40
-1
40
-1
40
-1
40
-1
40
0
40
0
40
0
40
0
41
1
41
1
41
1
41
1
10
-29.667523576958885
20
179.64395601730251
30
0
10
-30.127898576958891
20
178.12789351730254
30
0
10
-30.508898576958892
20
177.42145601730255
30
0
10
-30.762898576958886
20
176.57214351730255
30
0
0
SPLINE
5
584
100
AcDbEntity
8
0
100
AcDbSpline
70
4
71
3
72
8
73
4
74
0
42
0.000000001
43
0.0000000001
44
0.0000000001
40
-1
40
-1
40
-1
40
-1
40
0
40
0
40
0
40
0
41
1
41
1
41
1
41
1
10
-30.762898576958886
20
176.57214351730255
30
0
10
-31.120086076958895
20
176.72295601730252
30
0
10
-30.929586076958895
20
176.54833101730253
30
0
10
-31.167711076958895
20
176.92933101730256
30
0
0
LINE
5
585
100
AcDbEntity
8
0
100
AcDbLine
10
-31.167711076958891
20
176.92933101730256
30
0
11
-32.628211076958891
21
178.85814351730255
31
0
0
SPLINE
5
586
100
AcDbEntity
8
0
100
AcDbSpline
70
4
71
3
72
8
73
4
74
0
42
0.000000001
43
0.0000000001
44
0.0000000001
40
-1
40
-1
40
-1
40
-1
40
0
40
0
40
0
40
0
41
1
41
1
41
1
41
1
10
-32.628211076958905
20
178.85814351730255
30
0
10
-33.040961076958894
20
179.3026435173025
30
0
10
-32.739336076958892
20
178.83433101730253
30
0
10
-33.271148576958893
20
179.58045601730251
30
0
0
SPLINE
5
587
100
AcDbEntity
8
0
100
AcDbSpline
70
4
71
3
72
8
73
4
74
0
42
0.000000001
43
0.0000000001
44
0.0000000001
40
-1
40
-1
40
-1
40
-1
40
0
40
0
40
0
40
0
41
1
41
1
41
1
41
1
10
-33.271148576958893
20
179.58045601730251
30
0
10
-33.548961076958896
20
179.96145601730251
30
0
10
-34.231586076958891
20
180.61233101730252
30
0
10
-34.5887735769589
20
180.97745601730253
30
0
0
LINE
5
588
100
AcDbEntity
8
0
100
AcDbLine
10
-34.588773576958893
20
180.97745601730253
30
0
11
-36.049273576958896
21
182.20776851730253
31
0
0
SPLINE
5
589
100
AcDbEntity
8
0
100
AcDbSpline
70
4
71
3
72
8
73
4
74
0
42
0.000000001
43
0.0000000001
44
0.0000000001
40
-1
40
-1
40
-1
40
-1
40
0
40
0
40
0
40
0
41
1
41
1
41
1
41
1
10
-36.049273576958889
20
182.20776851730253
30
0
10
-36.041336076958892
20
182.73164351730253
30
0
10
-35.874648576958904
20
183.13645601730252
30
0
10
-35.795273576958891
20
183.62858101730254
30
0
0
SPLINE
5
590
100
AcDbEntity
8
0
100
AcDbSpline
70
4
71
3
72
8
73
4
74
0
42
0.000000001
43
0.0000000001
44
0.0000000001
40
-1
40
-1
40
-1
40
-1
40
0
40
0
40
0
40
0
41
1
41
1
41
1
41
1
10
-35.795273576958891
20
183.62858101730254
30
0
10
-35.239648576958885
20
187.10520601730252
30
0
10
-35.541273576958901
20
190.20876851730253
30
0
10
-36.723961076958886
20
193.49489351730253
30
0
0
SPLINE
5
591
100
AcDbEntity
8
0
100
AcDbSpline
70
4
71
3
72
8
73
4
74
0
42
0.000000001
43
0.0000000001
44
0.0000000001
40
-1
40
-1
40
-1
40
-1
40
0
40
0
40
0
40
0
41
1
41
1
41
1
41
1
10
-36.723961076958886
20
193.49489351730253
30
0
10
-37.422461076958896
20
195.43958101730254
30
0
10
-38.922648576958906
20
198.31295601730255
30
0
10
-40.184711076958891
20
199.83695601730255
30
0
0
SPLINE
5
592
100
AcDbEntity
8
0
100
AcDbSpline
70
4
71
3
72
8
73
4
74
0
42
0.000000001
43
0.0000000001
44
0.0000000001
40
-1
40
-1
40
-1
40
-1
40
0
40
0
40
0
40
0
41
1
41
1
41
1
41
1
10
-40.184711076958891
20
199.83695601730255
30
0
10
-40.470461076958898
20
200.18620601730251
30
0
10
-41.494398576958886
20
201.36095601730256
30
0
10
-41.581711076958889
20
201.69433101730252
30
0
0
SPLINE
5
593
100
AcDbEntity
8
0
100
AcDbSpline
70
4
71
3
72
8
73
4
74
0
42
0.000000001
43
0.0000000001
44
0.0000000001
40
-1
40
-1
40
-1
40
-1
40
0
40
0
40
0
40
0
41
1
41
1
41
1
41
1
10
-41.581711076958889
20
201.69433101730252
30
0
10
-41.097523576958892
20
202.13089351730252
30
0
10
-40.724461076958889
20
202.39283101730251
30
0
10
-40.264086076958904
20
202.85320601730251
30
0
0
LINE
5
594
100
AcDbEntity
8
0
100
AcDbLine
10
-40.26408607695889
20
202.85320601730257
30
0
11
-36.5731485769589
21
206.55208101730253
31
0
0
SPLINE
5
595
100
AcDbEntity
8
0
100
AcDbSpline
70
4
71
3
72
8
73
4
74
0
42
0.000000001
43
0.0000000001
44
0.0000000001
40
-1
40
-1
40
-1
40
-1
40
0
40
0
40
0
40
0
41
1
41
1
41
1
41
1
10
-36.573148576958886
20
206.55208101730253
30
0
10
-36.081023576958899
20
205.99645601730253
30
0
10
-35.461898576958895
20
205.49639351730252
30
0
10
-35.001523576958888
20
204.82170601730252
30
0
0
SPLINE
5
596
100
AcDbEntity
8
0
100
AcDbSpline
70
4
71
3
72
8
73
4
74
0
42
0.000000001
43
0.0000000001
44
0.0000000001
40
-1
40
-1
40
-1
40
-1
40
0
40
0
40
0
40
0
41
1
41
1
41
1
41
1
10
-35.001523576958888
20
204.82170601730252
30
0
10
-34.7792735769589
20
204.48833101730253
30
0
10
-34.525273576958888
20
204.21845601730254
30
0
10
-34.27127357695889
20
203.90889351730252
30
0
0
SPLINE
5
597
100
AcDbEntity
8
0
100
AcDbSpline
70
4
71
3
72
8
73
4
74
0
42
0.000000001
43
0.0000000001
44
0.0000000001
40
-1
40
-1
40
-1
40
-1
40
0
40
0
40
0
40
0
41
1
41
1
41
1
41
1
10
-34.27127357695889
20
203.90889351730252
30
0
10
-34.009336076958903
20
203.59139351730252
30
0
10
-33.802961076958894
20
203.25008101730253
30
0
10
-33.588648576958903
20
202.94051851730251
30
0
0
SPLINE
5
598
100
AcDbEntity
8
0
100
AcDbSpline
70
4
71
3
72
8
73
4
74
0
42
0.000000001
43
0.0000000001
44
0.0000000001
40
-1
40
-1
40
-1
40
-1
40
0
40
0
40
0
40
0
41
1
41
1
41
1
41
1
10
-33.588648576958903
20
202.94051851730251
30
0
10
-31.866211076958901
20
200.43226851730253
30
0
10
-30.286648576958886
20
197.04295601730252
30
0
10
-29.492898576958897
20
194.03464351730253
30
0
0
ENDSEC
0
SECTION
2
OBJECTS
0
DICTIONARY
5
C
100
AcDbDictionary
3
ACAD_GROUP
350
D
3
ACAD_MLINESTYLE
350
17
0
DICTIONARY
5
D
100
AcDbDictionary
0
DICTIONARY
5
1A
330
C
100
AcDbDictionary
0
DICTIONARY
5
17
100
AcDbDictionary
0
ENDSEC
0
EOF
